<?xml version="1.0" encoding="utf-8"?>
<!-- Generator: Adobe Illustrator 19.1.0, SVG Export Plug-In . SVG Version: 6.00 Build 0)  -->
<svg version="1.1" id="Layer_1" xmlns="http://www.w3.org/2000/svg" xmlns:xlink="http://www.w3.org/1999/xlink" x="0px" y="0px"
	 viewBox="0 0 150 150" style="enable-background:new 0 0 150 150;" xml:space="preserve">
<metadata><?xpacket begin="﻿" id="W5M0MpCehiHzreSzNTczkc9d"?>
<x:xmpmeta xmlns:x="adobe:ns:meta/" x:xmptk="Adobe XMP Core 5.6-c067 79.157747, 2015/03/30-23:40:42        ">
   <rdf:RDF xmlns:rdf="http://www.w3.org/1999/02/22-rdf-syntax-ns#">
      <rdf:Description rdf:about=""/>
   </rdf:RDF>
</x:xmpmeta>
                                                                                                    
                                                                                                    
                                                                                                    
                                                                                                    
                                                                                                    
                                                                                                    
                                                                                                    
                                                                                                    
                                                                                                    
                                                                                                    
                                                                                                    
                                                                                                    
                                                                                                    
                                                                                                    
                                                                                                    
                                                                                                    
                                                                                                    
                                                                                                    
                                                                                                    
                                                                                                    
                           
<?xpacket end="w"?></metadata>
<style type="text/css">
	.st0{fill:#FFFFFF;}
</style>
<g>
	<g>
		<path class="st0" d="M96.6,69.7c0-0.1-0.2-0.4-0.3-0.5c-0.9-0.4-1.2-0.6-1.8-0.9c-5.9-2.4-12-4.5-18-6.5c-2-0.7-3.9-1.4-6-1.9
			c-0.1,0.1-0.2,0.2-0.2,0.2c-0.6,0.8-1.5,1.4-2.3,1.8c-0.6,0.3-1.3,0.6-2,0.8c0.5,0.4,1.2,0.7,1.7,0.8c1.3,0.4,2.5,0.6,3.8,1.2
			c2.6,1.2,4.9,3.1,7,5c1.6,1.6,3,3.4,4.7,4.9c2,1.8,4.2,3.4,6.4,4.9c3.6,2.5,7.5,4.7,11.4,6.6c0.6,0.3,1.1,0.6,1.7,0.8
			c0-0.2,0-0.3,0-0.4c-0.2-0.8-0.4-1.6-0.7-2.5c-1.1-3.7-2.6-7.3-3.9-10.9C97.5,72.1,97.1,70.9,96.6,69.7z"/>
		<path class="st0" d="M11.7,103.8C11.7,103.8,11.7,103.8,11.7,103.8C11.7,103.8,11.7,103.8,11.7,103.8
			C11.6,103.8,11.6,103.8,11.7,103.8z"/>
		<path class="st0" d="M104.5,34.6c-0.2-0.2-0.9-0.8-1.8-0.8c-1.5-0.1-3.3,1.2-3.3,2.9c0,1.6,1.6,3,3.3,2.9c1.3-0.1,2.4-1,2.8-2
			C106,35.9,104.6,34.6,104.5,34.6z"/>
		<path class="st0" d="M42.3,83.6c-0.2-0.2-0.9-0.8-1.8-0.8c-1.5-0.1-4.4,1.2-4.4,2.8c0,1.6,2.6,3,4.4,2.9c1.3-0.1,2.4-1,2.8-2
			C43.7,84.9,42.4,83.7,42.3,83.6z"/>
		<path class="st0" d="M81.7,86.1c-0.3,0-1.2,0.1-1.8,0.7c-1.1,1-2.2,4-1,5.1c1.1,1.1,4,0.2,5.1-1.1c0.9-1,1-2.4,0.5-3.4
			C83.7,86,81.9,86.1,81.7,86.1z"/>
		<path class="st0" d="M74.1,73.4c-0.2-0.2-0.8-0.7-1.6-0.8c-1.4-0.2-4,0.7-4.1,2c-0.1,1.2,2.2,2.5,3.8,2.6c1.2,0,2.2-0.6,2.6-1.4
			C75.4,74.5,74.2,73.4,74.1,73.4z"/>
		<path class="st0" d="M62.9,91.2c-0.2-0.1-0.6-0.4-1.2-0.3c-1,0.1-2.6,1.3-2.4,2.4c0.2,1.1,2,1.7,3.1,1.5c0.8-0.2,1.4-0.9,1.5-1.7
			C64,92,63,91.3,62.9,91.2z"/>
		<path class="st0" d="M26.2,112.7c-0.2-0.1-0.6-0.4-1.2-0.3c-1,0.1-2.6,1.3-2.4,2.4c0.2,1.1,2,1.7,3.1,1.5c0.8-0.2,1.4-0.9,1.5-1.7
			C27.3,113.5,26.2,112.8,26.2,112.7z"/>
		<path class="st0" d="M113.7,108.3c-0.1,1.5,2.7,3.2,4.7,3.2c1.5,0,2.7-0.8,3.2-1.8c0.7-1.5-0.7-2.9-0.8-3c-0.2-0.2-0.9-0.8-2-0.9
			C117.1,105.6,113.8,106.6,113.7,108.3z"/>
		<path class="st0" d="M116,100.2c0.8-0.8,0.2-2,0.1-2.1c-0.1-0.2-0.4-0.8-1.1-1.1c-1.1-0.5-3.4-0.6-3.9,0.4c-0.4,1,1,2.7,2.3,3.2
			C114.5,100.9,115.5,100.7,116,100.2z"/>
		<path class="st0" d="M61.9,103.5c-0.9-0.4-2.9-0.5-3.3,0.4c-0.4,0.8,0.9,2.3,2,2.7c0.8,0.3,1.7,0.1,2.2-0.4
			c0.7-0.7,0.2-1.7,0.1-1.8C62.7,104.2,62.5,103.8,61.9,103.5z"/>
		<path class="st0" d="M91.3,105.2c-0.1,1.5,2.7,3.1,4.6,3.2c1.5,0,2.7-0.8,3.2-1.8c0.7-1.5-0.7-2.8-0.8-2.9c-0.2-0.2-0.9-0.8-2-0.9
			C94.6,102.5,91.4,103.6,91.3,105.2z"/>
		<path class="st0" d="M54.2,79c-1.2-0.7-3.9-0.9-4.6,0.4c-0.7,1.2,0.8,3.4,2.2,4.1c1.1,0.5,2.3,0.3,3-0.4c1.1-1,0.6-2.6,0.5-2.7
			C55.2,80.1,54.9,79.4,54.2,79z"/>
		<path class="st0" d="M85,57.7c1.1,0.5,2.3,0.3,3-0.4c1.1-1,0.6-2.6,0.5-2.7c-0.1-0.2-0.4-1-1.1-1.4c-1.2-0.7-3.9-0.9-4.6,0.4
			C82.2,54.8,83.6,57,85,57.7z"/>
		<path class="st0" d="M79.5,48.1c0.7,0.3,1.6,0.1,2.1-0.4c0.8-0.8,0.5-1.9,0.4-1.9c-0.1-0.2-0.2-0.7-0.7-1
			c-0.8-0.5-2.6-0.6-3.2,0.4C77.6,46,78.6,47.6,79.5,48.1z"/>
		<path class="st0" d="M111.1,45.5c-0.8-0.5-2.5-0.7-2.9-0.1c-0.4,0.6,0.7,2,1.6,2.4c0.7,0.3,1.5,0.3,1.9-0.1
			c0.6-0.5,0.2-1.4,0.2-1.5C111.8,46.2,111.5,45.8,111.1,45.5z"/>
		<path class="st0" d="M100.8,29.1c0.1-0.2,0.3-0.7,0.2-1.3c-0.3-1-1.7-2.4-2.9-2c-1.1,0.4-1.5,2.3-1.1,3.4c0.3,0.8,1.2,1.2,2,1.2
			C100.2,30.3,100.8,29.2,100.8,29.1z"/>
		<path class="st0" d="M30,100.2c-1.3-0.8-4.1-1.3-4.6-0.4c-0.5,0.9,1.3,3,2.8,3.8c1.1,0.6,2.4,0.5,3,0.1c1-0.7,0.2-2.1,0.1-2.2
			C31.2,101.3,30.8,100.6,30,100.2z"/>
	</g>
	<path class="st0" d="M141.3,111.4c-0.9-2.2-2.7-4.1-4.3-5.8c-2.3-2.5-4.9-4.6-7.4-6.9c-6-5.4-11.9-10.8-17.6-16.5
		c-1.1-1.1-2.2-2.2-3.3-3.4c-0.3-0.3-0.6-0.7-0.9-1c0.1,0.1-0.5-0.6-0.6-0.8c-0.4-0.6-0.8-1.1-1.2-1.7c-2.5-3.8-5.4-8.5-5.4-13.2
		c0-1.8,0.5-3.2,2.1-3.8c2-0.8,4.3-0.7,6.3-0.6c0.8,0.1,1.6,0.2,2.3,0.4c0.1,0,0.8,0.3,0.7,0.2c0.3,0.1,0.6,0.3,0.9,0.4
		c2.1,0.9,4.1,1.8,6.3,2.5c2.4,0.8,4.9,1.5,7.4,1.5c2.4,0,4.3-0.8,6.1-2.4c3.9-3.4,6.4-9.3,5.4-14.4c-0.3-1.7-1.4-3-2.6-4.3
		c-1.3-1.5-2.8-2.8-4.3-4.1c-1.4-1.2-2.8-2.4-4.3-3.5c-0.4-0.3-0.7-0.6-1.1-0.9c0-0.1-0.1-0.1-0.1-0.2c-2.2-4.6-4.9-9.6-9-12.9
		c0,0,0-0.1,0-0.1c0.8-3.4,0.4-7.2-3.1-8.9c-2.9-1.3-6.3-0.9-9.3-0.3c-1.4,0.3-2.8,0.6-4.2,1c-0.5,0.1-0.9,0.3-1.4,0.4
		c-0.1,0-0.3,0.1-0.4,0.1c-0.1,0-0.2-0.1-0.4-0.2c-0.6-0.3-1.3-0.6-1.9-0.9c-1-0.5-2-1-3-1.3c-1.5-0.5-2.9-0.4-4.1,0.6
		c-1.5,1.3-2.2,3.2-3.3,4.7c-0.4,0.5-1,1.1-1.7,1.4c-1.1,0.5-2.5,0.4-3.7,0.3c-2.8-1.3-6.3-1.6-8.6,0.7c-1.8,1.8-2.5,4.2-2,6.5
		c0,0,0,0,0,0c-1.7,1.6-3.5,3.2-5.1,4.9c-2.1,2.2-4.3,4.7-5.4,7.5c-0.4,1.2-0.8,2.8,0,3.9c0.3,0.4,0.7,0.6,1.1,0.8
		c-0.3,0.3-0.6,0.7-0.9,1c-1,1.1-2,2.2-2.8,3.5c-0.8,1.3-1.4,3.3-0.3,4.6c0.2,0.2,0.4,0.4,0.7,0.6c-0.4,0.8-0.9,1.5-1.4,2.3
		c-1.2,1.9-2.6,3.7-4.1,5.4c-0.1,0.1-0.5,0.4-0.7,0.6c-0.2,0-0.5,0.1-0.7,0.1c-0.5,0.1-0.3,0-0.9,0.1c-2.2,0.2-4.3,0.4-6.5,0.5
		c-3.7,0.2-7.8,0.1-11.3,1.3c-5.2,1.8-9.9,4.5-14.1,8.1c-1.7,1.5-4,3.5-4.2,6c-0.1,1.2,0.4,2.7,1.8,2.9c0,0,0.1,0,0.1,0
		c0,0-0.1,0.1-0.1,0.1c-1.6,2-3.3,3.9-4.6,6c-1.4,2.2-2.5,4.6-2.7,7.3c-0.1,1.1,0,2.4,1.1,3c0.7,0.4,1.6,0.4,2.4,0.1
		c-1.3,2.4-2.6,5-3,7.7c-0.2,1.4-0.3,3,0.8,4c1.1,1.1,2.7,1,4.1,0.5c-0.1,1.4-0.1,2.9,0.2,4.3c0.4,2.5,1.7,4.2,3.3,6.1
		c3.2,3.9,6.8,7.7,10.7,10.9c5.5,4.5,13.7,1.6,17.4-3.8c1.8-2.6,2.5-5.7,0.9-8.5c-1.4-2.4-3.5-4.3-5-6.7c-0.3-0.5-0.6-1-0.7-1.5
		c-0.1-0.4-0.1-0.5,0.1-1c0.5-1.2,1.6-2.3,2.7-3c1.6-1.2,3.6-2.4,5.6-3.1c0.3,0.4,0.5,0.7,0.8,1.1c0.9,1.3,1.9,2.5,2.8,3.8
		c1.7,2.2,3.4,3.8,6,4.9c2.6,1.1,5.5,1.7,8.3,2.1c2.7,0.4,5.4,0.7,8.1,0.7c1.7,0,3.7-0.1,5.5-0.6c5.8,6.4,12,12.5,18.1,18.5
		c2.1,2.1,4.2,4.4,6.6,6.2c5.4,4,12.7,2.1,17.2-2.4c1.4-1.4,2.6-3.1,3-5.1c0.3-1.5,0.2-3.1-0.1-4.6c0.6,0.2,1.2,0.4,1.8,0.5
		c5.4,0.8,11.6-2,14.1-6.9C142,116.6,142.3,114,141.3,111.4z M127.1,48.7c0.3-0.7,1.6-0.7,2.4-0.3c0.5,0.3,0.7,0.7,0.8,0.8
		c0,0.1,0.5,0.9-0.1,1.4c-0.4,0.3-1.2,0.4-1.9,0.1C127.3,50.3,126.8,49.3,127.1,48.7z M101.9,77.4c0.7,1.9,1.4,3.9,2,5.8
		c0.5,1.5,1.1,3.2,1.1,4.8c0,1.4-0.8,2.1-2.2,1.6c-1.6-0.5-3.1-1.4-4.5-2.1c-4.5-2.3-8.8-4.9-12.9-7.9c-1.9-1.4-3.7-2.9-5.4-4.5
		c-1.7-1.7-3.2-3.6-5-5.1c-2-1.7-4.3-3.3-6.9-3.9c-2-0.4-4.8-1.5-5.2-3.8c-0.1-0.4,0-0.8,0.3-1c0,0,0,0,0,0c0.1,0,0.2-0.1,0.3-0.1
		c0.6-0.2,1.2-0.4,1.8-0.6c0.6-0.2,1.2-0.4,1.8-0.7c0.7-0.4,1.4-0.8,2-1.4c0.3-0.3,0.6-0.5,0.8-0.8c0.4-0.1,0.8,0,1.4,0.2
		c3.1,0.8,6.1,1.9,9.2,3c3.5,1.2,7,2.5,10.5,3.8c2.1,0.8,4.6,1.5,6.5,2.7c0.2,0.1,0.3,0.2,0.5,0.4c0.2,0.6,0.4,1.1,0.6,1.6
		c0.5,1.2,1,2.3,1.6,3.5C100.8,74.3,101.3,75.8,101.9,77.4z M117.1,25.5c2.2,2.5,3.8,5.5,5.2,8.5c0.3,0.6,0.5,1.4,1,1.9
		c-2.4,4.5-4.9,16.1-5.9,20.7c-2.1-0.9-4.3-1.9-6.5-2.2c-3.3-0.5-8.1-0.7-11,1.5c-3.9-2.1-8.2-3.9-10.7-7.7c-2-3-2.6-6.6-2.5-10.1
		c0.2-3.9,1.5-7.9,3.9-11c3.6-4.7,9.1-7.1,14.9-6.9c2.4,0.1,4.9,0.4,7,1.6C114.3,22.7,115.8,24,117.1,25.5z M87,19.6
		c1.5-1,2.4-2.5,3.3-4c0.4-0.7,0.8-1.3,1.2-1.8c0.1-0.1,0.2-0.3,0.3-0.4c0,0,0,0,0,0c0,0,0.1,0,0.1,0c0.3,0.1,0.6,0.2,0.8,0.3
		c1,0.4,2.1,1,3.1,1.4c1.4,0.7,2.4,1.2,3.9,0.8c1-0.2,2-0.5,2.9-0.8c2.8-0.7,5.1-1.2,7.9-1c0.1,0,0.2,0,0.3,0c0.2,0,0.4,0.1,0.5,0.1
		c0.3,0.1,0.6,0.2,0.8,0.3c0,0,0.3,0.2,0.5,0.3c0,0,0.2,0.2,0.4,0.4c0.2,0.3,0.3,0.6,0.3,0.4c0.1,0.1,0.1,0.3,0.1,0.4
		c0,0,0.1,0.3,0.1,0.3c0.1,0.6,0,1.1,0,1.7c-1-0.5-2-0.8-3.1-1c-6.2-1.3-13-0.7-18.3,3.2c-0.9,0.6-1.7,1.3-2.4,2.1
		c-1.2-0.8-2.4-1.5-3.7-2.3C86.5,19.9,86.7,19.8,87,19.6z M82.4,34.5c0.1,0,0.2-0.1,0.3-0.1c0.2,0.1,0.4,0.2,0.7,0.3
		c-0.5,3-0.5,6,0.1,8.9c0.5,2.5,1.5,4.9,3,7c1.9,2.6,4.5,4.5,7.3,6.2c1.3,0.8,2.7,1.4,4,2.1c-0.7,1.8-0.7,3.8-0.4,5.8
		c-0.5-0.2-1.2-0.5-1.9-0.8c-2.7-1.1-6.3-2.4-10.1-3.8c-3.4-1.2-10.3-3.6-13.9-4.5c1.1-1.6,1.9-3.5,2.6-5.3c1.2-3,2.2-6.2,3.4-9.2
		C78.5,38.6,79.9,35.7,82.4,34.5z M60.1,50.5C60.1,50.5,60.1,50.5,60.1,50.5C60.1,50.5,60.1,50.5,60.1,50.5
		C60.1,50.5,60.1,50.5,60.1,50.5z M58.6,56.1c1.2-1.8,2.7-3.8,3.1-6c0.2-1.1,0-2.4-1-3c0,0,0,0,0,0c0.7-0.9,1.4-1.7,2.2-2.5
		c1.3-1.5,3.5-3.9,1.8-5.9c-0.4-0.5-1-0.8-1.6-0.9c0.1-0.1,0.1-0.2,0.2-0.4c1.1-2.1,2.8-4,4.5-5.7c1.2-1.3,2.5-2.5,3.9-3.7
		c1.5,1.8,3.8,2.9,5.9,4c0.4,0.2,0.7,0.4,1.1,0.6c-1.5,1.3-2.7,3-3.6,4.8c-1.4,2.9-2.4,6-3.5,9c-1,2.8-2.1,5.7-3.8,8.1
		c-0.4,0.5-0.7,0.9-1.2,1.4c-0.2,0.2-0.4,0.4-0.6,0.6c-0.1,0.1-0.2,0.1-0.2,0.2c-0.6,0.3-1.3,0.5-1.9,0.7c-2.4,0.8-4.9,1.5-7.4,1.9
		C57.2,58,57.9,57,58.6,56.1z M15.1,102.2c-0.9,0.5-1.9,1.1-2.7,1.4c-0.1,0-0.2,0.1-0.3,0.1c0,0,0-0.1,0-0.1c0,0-0.1,0.2,0-0.1
		c0.1-0.3,0.2-0.7,0.2-1c0.7-2.6,2-4.8,3.3-7.3c0.7-1.4,1.2-3.4-0.2-4.5c-1.1-0.9-2.4-0.5-3.6,0.1c0.2-0.7,0.4-1.3,0.7-1.9
		c1.1-2.4,2.8-4.5,4.5-6.5c1.3-1.6,3.2-3.3,3.6-5.4c0.3-1.5-0.7-2.9-2.3-2.9c0,0-0.1,0-0.1,0c0.7-0.8,1.6-1.6,2.4-2.3
		c1.9-1.6,4-3.1,6.3-4.3c1.4-0.7,3-1.5,4.5-2c-1,1-1.8,2.1-2.4,3.5c-1.5,3.2-1.3,6.7-0.9,10.1c0.1,0.7,0.2,1.4,0.3,2.2
		c0.1,0.7,0.2,1.5,0.3,1.9c0.1,0.6,0.1,1.2,0.1,1.8c0,0.3,0,0.6,0,0.9c0,0,0,0.2,0,0.3c0,0.1,0,0.2-0.1,0.4
		c-0.2,0.7-0.3,0.8-0.7,1.6c-0.5,0.9-1.1,1.7-1.7,2.5c-1.4,1.8-3,3.4-4.6,5c-1.6,1.6-3.3,3.1-4.9,4.7
		C16.5,100.9,15.7,101.5,15.1,102.2z M12.7,92.6C12.7,92.6,12.7,92.6,12.7,92.6C12.6,92.5,12.7,92.6,12.7,92.6z M40.6,115.4
		c0.5,0.6,1,1.3,1.5,1.9c1.1,1.6,1.3,2.5,0.3,4.4c-1.2,2.4-3.6,4.4-6.2,5c-1.9,0.5-4,0.1-5.5-0.6c-0.1,0-0.2-0.1-0.3-0.1
		c0,0,0,0,0,0c-0.2-0.1-0.4-0.3-0.6-0.5c-0.1-0.1-0.3-0.2-0.4-0.3c0-0.1,0.4-0.8,0.5-1.1c0.7-1.4,1.6-2.8,2.6-4
		C34.7,117.4,37.4,116,40.6,115.4z M47.9,100.1C47.9,100.2,48,100.2,47.9,100.1C47.9,100.2,47.9,100.2,47.9,100.1z M59.5,107.1
		c-3.2-1.3-5.1-4.5-7.1-7.3c2.1-0.4,4.3-0.5,6.5-0.4c2.8,0.1,5.8,0.5,8.4,1.5c-0.5,2.1-0.7,5.9,0.3,8.2
		C64.7,108.7,62,108.1,59.5,107.1z M127.5,107.4c-3.3,2.6-5.5,6.4-6.7,9c-6.7-7-13.4-13.9-20.1-20.9c-1-1-1.9-2-2.9-3
		c-1.7-1.7-4.3,0.9-2.7,2.7c6.9,7.2,13.9,14.5,20.8,21.7c0.3,0.3,0.7,0.7,1,1c-3.6,0.7-6.5,2.8-8,4.2c-2.7,2.5-4.5,7-5.3,9.4
		c-4.5-4.3-8.9-8.8-13.2-13.3c-0.5-0.5-0.9-1-1.4-1.4c0.1,0,0.2,0,0.4,0c1.2,0,2.3-0.7,2.7-1.5c0.6-1.3-0.6-2.4-0.7-2.5
		c-0.2-0.2-0.8-0.7-1.7-0.8c-1.2-0.1-3.2,0.4-4,1.4c-1.3-1.4-2.6-2.8-3.9-4.2c-0.1-0.1-0.1-0.1-0.2-0.2c0,0,0,0,0,0
		c-1.4-2-2.8-4.1-4.5-5.8c-2.2-2.3-5.2-4.5-8.2-5.7c-3.2-1.3-6.7-1.7-10.1-1.9c-3.4-0.2-6.9,0.1-10.2,1.3c0,0,0,0,0,0
		c0,0-0.1,0-0.1,0c-1.5,0.3-3,1-4.3,1.7c-3.3,1.7-7.8,4.7-7.9,8.8c-0.1,1.7,0.7,3.3,1.7,4.8c-3.4,1-6.4,2.9-8.7,5.8
		c-1.1,1.4-2.1,2.9-2.9,4.4c-2.7-2.5-5.2-5.2-7.5-8.1c-0.4-0.5-0.8-1.1-1.2-1.7c-0.1-0.1-0.3-0.6-0.3-0.5c-0.2-0.7-0.4-1.4-0.4-2.1
		c-0.2-1.7,0-3.5,0.5-5.1c0.1-0.1,0.2-0.2,0.3-0.3c0.5-0.5,1-1,1.5-1.5c1.4-1.3,2.8-2.7,4.2-4c3-2.9,6.1-6,8-9.7
		c2.8-5.4-0.9-11.4,0.2-16.8c0.2-1.2,0.7-2.3,1.3-3.3c-0.2,1-0.2,2,0.4,2.5c1.1,1.1,4,0.2,5.1-1.1c0.9-1,1-2.4,0.5-3.4
		c-0.6-1.2-2-1.4-2.5-1.4c1.2-0.8,2.4-1.4,3.7-1.9c0.1,0,0.2-0.1,0.3-0.1c3.1-0.2,6.8-0.5,9.3-0.7c2-0.2,6.7-0.6,9.7-1.3
		c1,1.8,2.9,4.5,4.3,5c6.2,2.3,6.2,2.3,10.5,6.3c1,0.9,2.2,2.1,3.8,3.5C86,83.8,91,86.7,93.2,87.7c1.6,0.7,2.9,1.4,4.2,2
		c3.4,1.7,5.5,2.7,7.1,2.7c0.4,0,0.8-0.1,1.1-0.2c0.5-0.2,1-0.7,1.2-1.4c0.8-2.1,0.3-5.9-1.4-10c1.8,2.1,3.9,4.1,5.9,6
		c2.9,2.8,5.9,5.6,8.9,8.4c3.6,3.4,7.6,6.6,11.2,10.1C130.2,105.7,128.9,106.2,127.5,107.4z"/>
</g>
</svg>
