<?xml version="1.0" encoding="utf-8"?>
<!-- Generator: Adobe Illustrator 19.1.0, SVG Export Plug-In . SVG Version: 6.00 Build 0)  -->
<svg version="1.1" id="Layer_1" xmlns="http://www.w3.org/2000/svg" xmlns:xlink="http://www.w3.org/1999/xlink" x="0px" y="0px"
	 viewBox="0 0 150 150" style="enable-background:new 0 0 150 150;" xml:space="preserve">
<metadata><?xpacket begin="﻿" id="W5M0MpCehiHzreSzNTczkc9d"?>
<x:xmpmeta xmlns:x="adobe:ns:meta/" x:xmptk="Adobe XMP Core 5.6-c067 79.157747, 2015/03/30-23:40:42        ">
   <rdf:RDF xmlns:rdf="http://www.w3.org/1999/02/22-rdf-syntax-ns#">
      <rdf:Description rdf:about=""/>
   </rdf:RDF>
</x:xmpmeta>
                                                                                                    
                                                                                                    
                                                                                                    
                                                                                                    
                                                                                                    
                                                                                                    
                                                                                                    
                                                                                                    
                                                                                                    
                                                                                                    
                                                                                                    
                                                                                                    
                                                                                                    
                                                                                                    
                                                                                                    
                                                                                                    
                                                                                                    
                                                                                                    
                                                                                                    
                                                                                                    
                           
<?xpacket end="w"?></metadata>
<style type="text/css">
	.st0{fill:#FFFFFF;}
</style>
<g>
	<g>
		<path class="st0" d="M110,36.4c-0.2-0.2-0.9-0.8-1.8-0.8c-1.5-0.1-3.3,1.2-3.3,2.9c0,1.6,1.6,3,3.3,2.9c1.3-0.1,2.4-1,2.8-2
			C111.5,37.7,110.1,36.5,110,36.4z"/>
	</g>
	<g>
		<path class="st0" d="M141.3,111.7c-0.8-2.1-2.5-3.9-4-5.6c-2.4-2.6-5-4.8-7.6-7.2c-5.9-5.3-11.8-10.7-17.5-16.3
			c-1.1-1.1-2.2-2.2-3.3-3.4c-0.3-0.4-0.7-0.8-1-1.2c0,0,0,0,0,0c0,0,0,0,0,0c-0.1-0.1-0.2-0.3-0.3-0.4c-0.4-0.5-0.8-1.1-1.2-1.6
			c-2.6-3.8-5.5-8.5-5.5-13.2c0-0.9,0.1-1.7,0.4-2.5c0.4-0.8,0.6-1.1,1.4-1.5c1.8-0.8,4.1-0.8,6-0.7c0.9,0,1.7,0.1,2.6,0.3
			c0.3,0.1,0.7,0.2,1,0.3c0,0,0.6,0.3,0.7,0.3c2,0.9,4.1,1.8,6.2,2.5c4.4,1.5,9.6,2.7,13.5-0.5c3.9-3.1,6.5-8.8,5.9-13.8
			c-0.5-3.8-4-6.6-6.7-9c-1.4-1.2-2.8-2.4-4.3-3.6c-0.5-0.4-1-0.8-1.6-1.2c0,0,0,0,0-0.1c-2.6-5-5.5-10.6-10.1-13.8c0,0,0-0.1,0-0.1
			c0-3.1-0.8-6.1-2.8-8.5c-1.6-1.9-4.1-3.2-6.5-3.7C101.7,6.2,96.2,7,91.8,9.1c-3.6,1.8-7.1,4.7-9.7,7.8C82,17,82,17.1,81.9,17.2
			c-0.4-0.2-0.8-0.4-1.2-0.6c-3.2-1.5-7.1-1.4-9.6,1.3c-2.4,2.6-2.7,6.5-0.9,9.5c0.3,0.5,0.7,1,1.1,1.5c-1,1-2.4,1.6-3.5,2.5
			c-2.3,1.9-4.5,3.9-6.4,6.1c-2.1,2.4-4.2,5.2-5.2,8.3c-0.5,1.4,0.1,2.6,1.4,3.2c0.3,0.1,0.7,0.3,1,0.3c-0.2,0.5-0.4,0.9-0.6,1.3
			c-0.4,0.8-0.9,1.6-1.4,2.4c-0.9,1.3-1.8,2.6-2.9,3.8c-0.7,0.8-1.5,1.7-2.2,2.4c-0.2,0.2-0.3,0.3-0.5,0.4c-0.1,0-0.3,0.1-0.4,0.1
			c0,0,0,0-0.1,0c0,0,0,0-0.1,0c-0.4,0.1-0.9,0.1-1.3,0.1C48.2,60,47,60,45.9,60.1c-2.5,0.1-5.1,0.2-7.6,0.4c-2.1,0.2-4.1,0.3-6,1.1
			C29,63,26,64.9,23.4,67.2c-3.2,2.9-5.6,6.5-8.1,10.1c-0.9,1.3-1.6,2.6-2.4,4c-0.8,1.4-1.5,2.9-2.2,4.4c-0.6,1.2-0.9,2.5,0.2,3.5
			c0.7,0.7,1.7,0.8,2.6,1c0.2,0,0.4,0.1,0.7,0.2c0.1,0,0.2,0.1,0.3,0.1c0,0,0,0,0.1,0c0,0,0-0.1,0-0.1c0,0,0,0,0,0c0,0,0,0,0,0
			c0,0,0,0,0,0c0,0,0,0,0,0c0,0,0,0.1,0,0.1c0,0,0,0,0,0c0,0,0,0,0,0c-0.1,0-0.1,0,0,0c0,0.1,0,0.1-0.1,0.2
			c-0.1,0.3-0.2,0.5-0.3,0.8c0,0-0.1,0.2-0.1,0.3c0,0.1-0.1,0.3-0.2,0.4c-0.2,0.4-0.3,0.8-0.5,1.1c-1.6,3.4-3.5,6.7-4.5,10.3
			c-0.4,1.4-0.6,3.1,0.5,4.3c1.1,1.1,2.6,0.8,3.9,0.3c-0.1,1.3,0,2.5,0.2,3.7c0.4,2.5,1.7,4.2,3.3,6.1c3.2,3.9,6.8,7.7,10.7,10.9
			c5.5,4.5,13.7,1.6,17.4-3.8c1.8-2.6,2.5-5.7,0.9-8.5c-1.4-2.4-3.5-4.3-5-6.7c-0.3-0.5-0.6-1-0.7-1.5c-0.1-0.4-0.1-0.5,0.1-1
			c0.5-1.2,1.6-2.3,2.7-3c1.6-1.2,3.6-2.4,5.6-3.1c0.3,0.4,0.5,0.7,0.8,1.1c0.9,1.3,1.9,2.5,2.8,3.8c1.7,2.2,3.4,3.8,6,4.9
			c2.6,1.1,5.5,1.7,8.3,2.1c2.7,0.4,5.4,0.7,8.1,0.7c1.7,0,3.7-0.1,5.5-0.6c5.8,6.4,12,12.5,18.1,18.5c2.1,2.1,4.2,4.4,6.6,6.2
			c5.4,4,12.7,2.1,17.2-2.4c1.4-1.4,2.6-3.1,3-5.1c0.3-1.5,0.2-3.1-0.1-4.6c0.6,0.2,1.2,0.4,1.8,0.5c5.4,0.8,11.6-2,14.1-6.9
			C142,116.8,142.3,114.3,141.3,111.7z M13.3,86.2C13.3,86.2,13.3,86.2,13.3,86.2C13.1,86.2,13.3,86.1,13.3,86.2z M13.8,88
			c0-0.1,0-0.3,0.1-0.5C13.9,87.6,13.9,87.8,13.8,88z M104.8,81.8c0.4,0,1.7,3.1,1.6,4.6c-2.8,0.7-7.5-0.4-10.4-1.6
			c-2.4-0.9-9.3-3.6-16.1-8.3c-6.7-4.6-7.2-5-10.9-7.8c-1.4-1.1-7.5-6.7-7.3-6.8c3.5-0.8,7.1-3.2,7.4-3.2c5.7,0.7,22.4,6.4,27.7,8.8
			c0.3,0.2,0.9,1.6,1.3,2.9c0.1,0.4-3.5-1.1-3.5-0.7c0.3,2.2,0.8,10.2,1.4,10.9C97.3,81.9,104.3,81.8,104.8,81.8z M83.3,43.9
			c0.5,2.5,1.5,4.9,3,7c1.9,2.6,4.5,4.5,7.3,6.2c1.3,0.8,2.7,1.4,4,2.1c-0.5,1.3-0.7,2.8-0.6,4.3c-0.9-0.4-1.8-0.6-2.6-0.9
			c-3.9-1.5-7.8-2.8-11.7-4c-3.6-1.1-7.2-2.3-10.9-3.1c0,0-0.1,0-0.1,0c0.9-1.5,1.6-3.1,2.3-4.7c1.2-3,2.2-6.2,3.4-9.2
			c1-2.4,2.2-5,4.4-6.3c0.4,0.2,0.9,0.5,1.3,0.7C82.8,38.5,82.8,41.2,83.3,43.9z M128.7,48.7c0.5,0.3,0.7,0.7,0.8,0.8
			c0,0.1,0.5,0.9-0.1,1.4c-0.4,0.3-1.2,0.4-1.9,0.1c-1-0.4-1.5-1.4-1.2-2.1C126.6,48.3,127.9,48.3,128.7,48.7z M112.5,22
			c1.7,0.9,3.1,2.2,4.4,3.7c2.2,2.6,3.7,5.6,5.2,8.6c0.5,0.9,0.9,1.7,1.7,2.3c0.1,0.1,0.3,0.2,0.4,0.3c0.1,0.1,0.2,0.1,0.3,0.2
			c0,0,0,0,0,0c0,0,0.1,0,0.1,0.1c0.6,0.5,1.2,1,1.8,1.5c0.4,0.3,0.7,0.6,1.1,0.9c-1.9,1.4-4.9,2.7-8.8,1.5
			c-1.8-0.5-0.2,8.8-4.6,14.5c-1.2-0.5-2.5-0.8-3.9-1c-3.1-0.4-7.6-0.5-10.4,1.6c-3.9-2.1-8.2-3.9-10.7-7.7c-2-3-2.6-6.6-2.5-10.1
			c0.2-3.9,1.5-7.9,3.9-11c3.5-4.6,8.9-7,14.7-6.9C107.7,20.5,110.3,20.8,112.5,22z M92.8,12.8c1.5-0.9,3.1-1.4,5-1.8
			c3.7-0.8,8.6-0.8,11.5,1.7c1.5,1.3,2.3,3.1,2.6,5c-0.5-0.2-1-0.3-1.6-0.4c-6.3-1.3-13.2-0.5-18.4,3.5c-0.5,0.4-1,0.8-1.5,1.3
			C88.7,21,87,19.9,85.3,19C87.4,16.6,90,14.4,92.8,12.8z M72,22.2c0.6-3.7,4.5-4.4,7.5-3.3c1.6,0.5,3.1,1.5,4.5,2.3
			c1.5,0.9,3.1,1.7,4.6,2.6c1.3,0.7,0.1,2.7-1.1,1.9c-2.4-1.4-4.8-2.8-7.3-4.1c-1.3-0.7-2.8-1.3-4.3-1c-1.4,0.2-1.9,1.7-1.7,3
			c0.6,2.7,3.7,3.8,5.9,4.9c1.6,0.8,3.1,1.6,4.7,2.4c1.3,0.7,0.2,2.5-1.1,1.9c0,0,0,0,0,0c-0.1,0-0.1-0.1-0.2-0.1
			c-2-1.1-4.1-2.1-6.1-3.1c-1.4-0.7-2.8-1.4-3.8-2.6C72.5,25.8,71.7,24,72,22.2z M60.6,53.9c0.9-1.5,1.9-3.2,2.4-4.8
			c0.4-1.4-0.6-2.5-1.8-3c-0.3-0.1-0.5-0.2-0.8-0.2c0.1-0.3,0.2-0.6,0.3-0.8c0.4-0.7,0.8-1.4,1.2-2c3-4.5,7.3-7.8,11.4-11.3
			c0.3-0.2,0.5-0.5,0.8-0.7c1.2,0.8,2.6,1.4,3.8,2.1c0.1,0,0.2,0.1,0.3,0.1c-1.3,1.2-2.2,2.7-3,4.2c-1.4,2.9-2.4,6-3.5,9
			c-1,2.8-2.1,5.7-3.8,8.1c-0.4,0.5-0.7,0.9-1.2,1.4c-0.2,0.2-0.4,0.3-0.5,0.5c-0.4,0.2-0.9,0.4-1.3,0.6c-0.3,0.1-0.6,0.2-0.9,0.3
			c-2.3,0.8-4.7,1.4-7.1,1.8C58.2,57.5,59.5,55.7,60.6,53.9z M51.4,59.6C51.4,59.5,51.4,59.5,51.4,59.6L51.4,59.6z M12.4,105.6
			C12.5,105.9,12.3,105.8,12.4,105.6L12.4,105.6z M15,102.5c-0.8,0.6-1.5,1.1-2.4,1.6c1-3.2,2.7-6.2,4.1-9.4
			c0.5-1.2,1.2-2.4,1.4-3.7c0.5-2.5-1.3-4.1-3.6-4.6c-0.1,0-0.1,0-0.2,0c0.3-0.4,0.5-0.9,0.6-1c0.3-0.7,0.7-1.4,1-2
			c0.7-1.4,1.4-2.7,2.3-4c2.2-3.1,4.2-6.4,7-9c1.7-1.6,3.5-2.9,5.5-4c-0.7,0.8-1.3,1.8-1.8,2.8c-1.5,3.2-1.3,6.7-0.9,10.1
			c0.1,0.7,0.2,1.4,0.3,2.2c0.1,0.7,0.2,1.5,0.3,1.9c0.1,0.6,0.1,1.2,0.1,1.8c0,0.3,0,0.6,0,0.9c0,0,0,0.2,0,0.3
			c0,0.1,0,0.2-0.1,0.4c-0.2,0.7-0.3,0.8-0.7,1.6c-0.5,0.9-1.1,1.7-1.7,2.5c-1.4,1.8-3,3.4-4.6,5c-1.6,1.6-3.3,3.1-4.9,4.7
			C16.4,101.2,15.7,101.8,15,102.5z M14.7,90.4C14.8,90.5,14.8,90.5,14.7,90.4L14.7,90.4z M24.9,121.2c0-0.1,0-0.1,0-0.2
			C24.9,121,24.9,121.1,24.9,121.2C24.9,121.2,24.9,121.2,24.9,121.2z M32,116.7c-2.3,2.3-4,5-4.9,6.6c-0.7-0.6-1.3-1.3-2-1.9
			c0,0,0,0,0,0c0.3-0.6,0.6-1.1,0.9-1.6c0.9-1.5,1.9-2.9,3-4.2c2.1-2.3,5-3.9,8.1-4.6c0.4,0.7,0.8,1.4,1.3,2
			C35.9,113.7,33.4,115.3,32,116.7z M59.5,107.3c-3.2-1.3-5.1-4.5-7.1-7.3c2.1-0.4,4.3-0.5,6.5-0.4c2.8,0.1,5.8,0.5,8.4,1.5
			c-0.5,2.1-0.7,5.9,0.3,8.2C64.7,108.9,62,108.4,59.5,107.3z M127.4,107.7c-3.3,2.6-5.5,6.4-6.7,9c-6.7-7-13.4-13.9-20.1-20.9
			c-1-1-1.9-2-2.9-3c-1.7-1.7-4.3,0.9-2.7,2.7c6.9,7.2,13.9,14.5,20.8,21.7c0.3,0.3,0.7,0.7,1,1c-3.6,0.7-6.5,2.8-8,4.2
			c-2.7,2.5-4.5,7-5.3,9.4c-4.5-4.3-8.9-8.8-13.2-13.3c-2.9-3-5.8-5.9-8.6-9c-0.1-0.1-0.1-0.1-0.2-0.2c0,0,0,0,0,0
			c-1.4-2-2.8-4.1-4.5-5.8c-2.2-2.3-5.2-4.5-8.2-5.7c-3.2-1.3-6.7-1.7-10.1-1.9c-3.4-0.2-6.9,0.1-10.2,1.3c0,0,0,0,0,0
			c0,0-0.1,0-0.1,0c-1.5,0.3-3,1-4.3,1.7c-3.2,1.6-7.5,4.5-7.9,8.4c-4.1,0.8-7.9,3.1-10.5,6.2c-1.3,1.5-2.5,3.2-3.5,5
			c-1.2-1.3-2.3-2.6-3.3-3.9c-0.4-0.5-0.8-1.1-1.2-1.7c-0.1-0.1-0.3-0.6-0.3-0.5c-0.2-0.7-0.4-1.4-0.4-2.1c-0.2-1.7,0-3.5,0.5-5.1
			c0.1-0.1,0.2-0.2,0.3-0.3c0.5-0.5,1-1,1.5-1.5c1.4-1.3,2.8-2.7,4.2-4c3-2.9,6.1-6,8-9.7c2.8-5.4-0.9-11.4,0.2-16.8
			c0.9-4.4,4.5-7,8.5-8.6c0.2-0.1,0.5-0.2,0.6-0.4c3.1-0.1,6.3-0.1,9.4-0.6c0.1,0,0.3,0,0.4,0c2.3-0.1,4.6-0.4,6.8-0.8
			c0.6,0.7,1.2,1.4,1.6,1.9c1.4,1.7,2.9,3.3,4.6,4.6c3.6,2.8,7.3,5.6,11.1,8.3c4.7,3.2,9.4,6.3,14.6,8.6c5.1,2.2,10.4,4.5,16.1,4.2
			c1-0.1,2.2-0.1,3.1-0.7c1.1-0.7,1.5-2,1.6-3.3c0,0,0-0.1,0-0.1c0.4,0.4,0.8,0.8,1.2,1.1c2.9,2.8,5.9,5.6,8.9,8.4
			c3.6,3.3,7.4,6.5,10.9,9.9C130.1,106,128.9,106.5,127.4,107.7z"/>
	</g>
	<g>
		<path class="st0" d="M104.6,29c1,2,3,2.3,4.8,3.1c1.7,0.8,3.1,1.8,4.3,3.2c0.9,1,1.7,2,2.7,2.8c1.4,1,3.9,1.7,5.4,0.7
			c2-1.3-0.1-3.3-0.8-4.6c-1.1-2-2.1-4.1-3.4-6c-2.2-3.2-5.9-5.5-9.7-6.3c-0.2-0.1-0.3-0.1-0.5-0.1C104,21.9,103.3,26.5,104.6,29z
			 M107.9,24.2c0,0,4.2,0.8,6.8,3.6c1.9,2,3.7,6.4,4.6,8.3c0.2,0.5-0.3,0.4-2.2-0.6c-2.4-1.3-2.3-4.4-8.4-6.4
			C105.8,28.2,105.9,24.1,107.9,24.2z"/>
	</g>
</g>
</svg>
