<?xml version="1.0" encoding="utf-8"?>
<!-- Generator: Adobe Illustrator 19.1.0, SVG Export Plug-In . SVG Version: 6.00 Build 0)  -->
<svg version="1.1" id="Layer_1" xmlns="http://www.w3.org/2000/svg" xmlns:xlink="http://www.w3.org/1999/xlink" x="0px" y="0px"
	 viewBox="0 0 150 150" style="enable-background:new 0 0 150 150;" xml:space="preserve">
<metadata><?xpacket begin="﻿" id="W5M0MpCehiHzreSzNTczkc9d"?>
<x:xmpmeta xmlns:x="adobe:ns:meta/" x:xmptk="Adobe XMP Core 5.6-c067 79.157747, 2015/03/30-23:40:42        ">
   <rdf:RDF xmlns:rdf="http://www.w3.org/1999/02/22-rdf-syntax-ns#">
      <rdf:Description rdf:about=""/>
   </rdf:RDF>
</x:xmpmeta>
                                                                                                    
                                                                                                    
                                                                                                    
                                                                                                    
                                                                                                    
                                                                                                    
                                                                                                    
                                                                                                    
                                                                                                    
                                                                                                    
                                                                                                    
                                                                                                    
                                                                                                    
                                                                                                    
                                                                                                    
                                                                                                    
                                                                                                    
                                                                                                    
                                                                                                    
                                                                                                    
                           
<?xpacket end="w"?></metadata>
<style type="text/css">
	.st0{fill:#FFFFFF;}
</style>
<g>
	<g>
		<path class="st0" d="M111.4,2.5C111.5,2.5,111.5,2.4,111.4,2.5L111.4,2.5z"/>
	</g>
	<g>
		<path class="st0" d="M11.7,105.1C11.7,105.1,11.7,105.1,11.7,105.1C11.7,105.1,11.7,105.1,11.7,105.1
			C11.6,105.1,11.6,105.1,11.7,105.1z"/>
	</g>
	<g>
		<path class="st0" d="M141.3,112.7c-0.8-2.1-2.5-3.9-4-5.6c-1.1-1.2-2.2-2.3-3.4-3.4c-0.2-0.3-0.4-0.5-0.7-0.6
			c-1.2-1.1-2.4-2.1-3.5-3.2c-5.9-5.3-11.8-10.7-17.5-16.3c-1.1-1.1-2.2-2.2-3.3-3.4c-0.3-0.4-0.7-0.8-1-1.2c0,0,0,0,0,0
			c0,0,0,0,0,0c-0.1-0.1-0.2-0.3-0.3-0.4c-0.4-0.5-0.8-1.1-1.2-1.6c-2.6-3.8-5.5-8.5-5.5-13.2c0-0.9,0.1-1.7,0.4-2.5
			c0.4-0.8,0.6-1.1,1.4-1.5c1.8-0.8,4.1-0.8,6-0.7c0.9,0,1.7,0.1,2.6,0.3c0.3,0.1,0.7,0.2,1,0.3c0,0,0.6,0.3,0.7,0.3
			c2,0.9,4.1,1.8,6.2,2.5c4.4,1.5,9.6,2.7,13.5-0.5c3.9-3.1,6.5-8.8,5.9-13.8c-0.5-3.8-4-6.6-6.7-9c-1.4-1.2-2.8-2.4-4.3-3.6
			c-0.5-0.4-1-0.8-1.6-1.2c0,0,0,0,0-0.1c-2.2-4.2-4.5-8.8-8-12c1,0.1,2,0.1,3-0.1c1.8-0.4,3.3-1.8,3.2-3.8
			c-0.1-1.9-2.1-2.8-3.6-3.4c-1.5-0.6-3-1-4.5-1.4c0.1-0.1,0.1-0.2,0.2-0.3c0.9-1.6-0.5-2.6-1.8-3.1c-2.4-0.8-5-0.7-7.4-0.2
			c-3,0.6-5.8,1.8-8.4,3.3c-1.2,0.7-2.4,1.5-3.5,2.4c-0.5,0.4-0.9,0.8-1.4,1.2c-0.5-0.6-1-1.1-1.7-1.6c-1.7-1.1-3.8-1.2-5.7-0.8
			c-1.7,0.3-3.4,1-5.1,1.6c-0.9,0.3-1.9,0.5-2.8,0.7c-2.5-0.6-5.1-0.3-7.1,1.7c-2.1,2-2.8,4.9-2.1,7.6c-1.5,1.4-3,2.8-4.5,4.3
			c-2.1,2.2-4.3,4.7-5.4,7.5c-0.4,1.2-0.8,2.8,0,3.9c0.3,0.4,0.7,0.6,1.1,0.8c-0.3,0.3-0.6,0.7-0.9,1c-1,1.1-2,2.2-2.8,3.5
			c-0.8,1.3-1.4,3.3-0.3,4.6c0.2,0.2,0.4,0.4,0.7,0.6c-0.4,0.8-0.9,1.5-1.4,2.3c-1.2,1.9-2.6,3.7-4.1,5.4c-0.1,0.1-0.5,0.4-0.7,0.6
			c-0.2,0-0.5,0.1-0.7,0.1c-0.5,0.1-0.3,0-0.9,0.1c-2.2,0.2-4.3,0.4-6.5,0.5c-3.7,0.2-7.8,0.1-11.3,1.3c-5.2,1.8-9.9,4.5-14.1,8.1
			c-1.7,1.5-4,3.5-4.2,6c-0.1,1.2,0.4,2.7,1.8,2.9c0,0,0.1,0,0.1,0c0,0-0.1,0.1-0.1,0.1c-1.6,2-3.3,3.9-4.6,6
			C9.3,88,8.2,90.5,8,93.1c-0.1,1.1,0,2.4,1.1,3c0.7,0.4,1.6,0.4,2.4,0.1c-1.3,2.4-2.6,5-3,7.7c-0.2,1.4-0.3,3,0.8,4
			c1.1,1.1,2.7,1,4.1,0.5c-0.1,1.4-0.1,2.9,0.2,4.3c0.4,2.5,1.7,4.2,3.3,6.1c3.2,3.9,6.8,7.7,10.7,10.9c5.5,4.5,13.7,1.6,17.4-3.8
			c1.8-2.6,2.5-5.7,0.9-8.5c-1.4-2.4-3.5-4.3-5-6.7c-0.3-0.5-0.6-1-0.7-1.5c-0.1-0.4-0.1-0.5,0.1-1c0.5-1.2,1.6-2.3,2.7-3.1
			c1.6-1.2,3.6-2.4,5.6-3.1c0.3,0.4,0.5,0.7,0.8,1.1c0.9,1.3,1.9,2.5,2.8,3.8c1.7,2.2,3.4,3.8,6,4.9c2.6,1.1,5.5,1.7,8.3,2.1
			c2.7,0.4,5.4,0.7,8.1,0.7c1.7,0,3.7-0.1,5.5-0.6c5.8,6.4,12,12.5,18.1,18.5c2.1,2.1,4.2,4.4,6.6,6.2c5.4,4,12.7,2.1,17.2-2.4
			c1.4-1.4,2.6-3.1,3-5.1c0.3-1.5,0.2-3.1-0.1-4.6c0.6,0.2,1.2,0.4,1.8,0.5c5.4,0.8,11.6-2,14.1-6.9
			C142,117.8,142.3,115.2,141.3,112.7z M83.9,84C83.9,84,83.9,84,83.9,84c-0.1,0-0.1-0.1-0.1-0.1c-0.3-0.3-0.6-0.5-1-0.8
			c-0.5-0.4-0.9-0.8-1.6-0.8c-0.8,0-1.7,0.4-2.4,0.6c-0.7,0.2-1.4,0.3-2.2,0.4c-2.1,0.2-4.2,0-5.8-0.9c-0.7-0.4-1-0.7-1.7-1.4
			c-0.3-0.3-0.2-0.2-0.5-0.6c-0.2-0.3-0.4-0.7-0.6-1.1C68,79.2,68,79,67.9,78.9c0-0.1-0.1-0.2-0.1-0.3c-0.1-0.4-0.3-0.8-0.4-1.1
			c-0.1-0.4-0.2-0.7-0.2-1.1c0-0.1-0.1-0.3-0.1-0.4c0,0,0-0.1,0-0.1c0,0,0,0,0,0c-0.1-0.7-0.1-1.4-0.1-2.1c0-0.8-0.6-1.6-1.4-1.8
			c-2.8-0.9-5.2-2.6-5.9-5.4c-0.1-0.6-0.1-1.4-0.1-2.4c0,0,0-0.1,0-0.1c0,0,0,0,0,0c0-0.1,0-0.3,0.1-0.4c0-0.1,0-0.2,0.1-0.3
			c1.3-0.3,2.6-0.6,3.9-1c1.9-0.6,3.7-1.1,5.2-2.4c3.2,4.4,7.4,7.7,12.5,9.6c5.6,2.1,11.7,2.3,17.5,1.6c0.3,0.8,0.7,1.6,1.1,2.5
			c-0.9,0.2-1.3,0.3-4.4,0.4c-0.6,0,0.2,5.4,1,8.1c0.4,1.1,4.6,0.3,7.3-0.4c-0.9,2.1-2.1,4.1-3.8,5.5c-1.6,1.2-3.3,1.6-5.2,1.6
			c-3.4-0.1-6.8-1.9-9.7-4c-0.3-0.2-0.6-0.4-0.8-0.6C84.2,84.2,84.1,84.1,83.9,84z M81.8,36.1c0.4,0.2,0.9,0.5,1.3,0.7
			c-0.4,2.7-0.3,5.5,0.2,8.2c0.5,2.5,1.5,4.9,3,7c1.9,2.6,4.5,4.5,7.3,6.2c1.3,0.8,2.7,1.4,4,2.1c-0.9,2.3-0.7,5,0,7.4
			c-4.9,0.5-9.9,0.2-14.7-1.4c-4.8-1.7-8.8-4.9-11.6-9.1c1.1-1.7,1.9-3.6,2.7-5.4c1.2-3,2.2-6.2,3.4-9.2
			C78.4,40.1,79.7,37.4,81.8,36.1z M122.1,35.3c0.5,0.9,0.9,1.7,1.7,2.3c0.1,0.1,0.3,0.2,0.4,0.3c0.1,0.1,0.2,0.1,0.3,0.2
			c0,0,0,0,0,0c0,0,0.1,0,0.1,0.1c0.6,0.5,1.2,1,1.8,1.5c1.5,1.2,2.9,2.5,4.3,3.8c1.2,1.1,2.7,2.5,3.5,3.7c0.1,0.2,0.2,0.4,0.3,0.6
			c-0.1-0.1,0.2,0.6,0.2,0.8c0.2,1.1,0.1,2.3-0.2,3.4c-0.5,2.2-1.6,4.4-3.1,6.1c-1.3,1.5-2.7,2.5-4.7,2.5c-2.2,0-4.4-0.6-6.4-1.3
			c-3.4-1.1-6.5-3.1-10.1-3.5c-3.1-0.4-7.6-0.5-10.4,1.6c-3.9-2.1-8.2-3.9-10.7-7.7c-2-3-2.6-6.6-2.5-10.1c0.2-3.9,1.5-7.9,3.9-11
			c3.5-4.6,8.9-7,14.7-6.9c0.1,0,0.2,0,0.3,0c0,0,0.1,0,0.1,0c2.3,0.1,4.7,0.4,6.8,1.5c1.7,0.9,3.1,2.2,4.4,3.7
			C119.1,29.2,120.6,32.3,122.1,35.3z M120.7,19.3C120.7,19.2,120.7,19.2,120.7,19.3C120.7,19.2,120.7,19.2,120.7,19.3
			C120.7,19.3,120.8,19.3,120.7,19.3z M114,14.9C114,14.9,113.9,15,114,14.9L114,14.9z M114.1,13c-0.1,0-0.3,0-0.4,0
			C114,13,114.1,13,114.1,13z M113.6,14C113.7,14.1,113.7,14.1,113.6,14L113.6,14z M104.2,14.8c1.6-0.6,3.4-1.1,5.1-1.3
			c0.5,0,0.9-0.1,1.4-0.1c-0.1,0.6-0.1,1.2,0.3,1.7c0.9,1.6,3.2,1.8,4.8,2.2c1.1,0.3,2.1,0.6,3.2,1c0.2,0.1,0.4,0.2,0.6,0.2
			c-0.9,0-2-0.1-2.8-0.2c-3.6-0.4-7.2-1.2-10.8-0.7c-0.1,0-0.1,0-0.2,0c-2.9-0.1-5.7,0.3-8.4,1.2C99.3,17.2,101.7,15.8,104.2,14.8z
			 M90.8,19.2c0.6,0.6,1,1.6,1.8,2.1c-0.2,0.2-0.4,0.3-0.7,0.5c-0.5,0.4-1,0.8-1.5,1.3c-2.1-1.4-4.3-2.7-6.5-3.8
			c0.1,0,0.3-0.1,0.4-0.1C86.5,18.4,89.1,17.3,90.8,19.2z M73.5,21.9c1.6-2.3,4.3-1.6,6.5-0.5c2.7,1.4,5.3,2.9,7.8,4.5
			c-1.7,2.1-3,4.6-3.8,7.2c-3-1.5-6-2.9-8.8-4.7C73.3,27,71.9,24,73.5,21.9z M67.8,32.8c1.1-1.1,2.2-2.2,3.3-3.2
			c1.6,1.9,3.9,3,6.1,4.1c0.3,0.2,0.6,0.3,0.9,0.5c-1.2,1.2-2.2,2.7-3,4.3c-1.4,2.9-2.4,6-3.5,9c-1,2.8-2.1,5.7-3.8,8.1
			c-0.4,0.5-0.7,0.9-1.2,1.4c-0.2,0.2-0.4,0.4-0.6,0.6c-0.1,0.1-0.2,0.1-0.2,0.2c-0.6,0.3-1.2,0.5-1.9,0.7c-2.4,0.8-4.9,1.4-7.4,1.9
			c0.7-0.9,1.4-1.9,2-2.8c1.2-1.8,2.7-3.8,3.1-6c0.2-1.1,0-2.4-1-3c0,0,0,0,0,0c0.7-0.9,1.4-1.7,2.2-2.5c1.3-1.5,3.5-3.9,1.8-5.9
			c-0.4-0.5-1-0.8-1.6-0.9c0.1-0.1,0.1-0.2,0.2-0.4C64.5,36.4,66.2,34.6,67.8,32.8z M58,50.6C58,50.5,58,50.5,58,50.6
			C58,50.6,58,50.6,58,50.6z M62.8,42.6c-0.3,0.2-0.5,0.2-0.7,0.2C62.4,42.7,62.7,42.7,62.8,42.6z M51.2,60.7
			C51.4,60.6,51.6,60.6,51.2,60.7L51.2,60.7z M51,60.8C51,60.8,51,60.8,51,60.8C51,60.8,51,60.8,51,60.8C51,60.8,51,60.8,51,60.8z
			 M17.2,77c-0.1,0.2,0,0,0-0.1C17.4,77.1,17.1,77.1,17.2,77z M17.1,77.3C17.1,77.4,17.1,77.4,17.1,77.3
			C17.1,77.4,17.1,77.4,17.1,77.3C17.1,77.3,17.1,77.2,17.1,77.3z M11.7,93.9C11.9,94.1,11.7,94.1,11.7,93.9L11.7,93.9z M12.7,93.9
			C12.7,93.9,12.7,93.9,12.7,93.9C12.6,93.8,12.7,93.9,12.7,93.9z M11.5,105.1c0,0,0.1,0,0.1,0c0,0,0.1,0,0,0c0,0,0,0,0,0
			c0,0,0,0,0,0c0,0,0,0,0,0C11.5,105.1,11.4,105.2,11.5,105.1z M12.1,105c0,0,0-0.1,0-0.1c0,0-0.1,0.2,0-0.1c0.1-0.3,0.2-0.7,0.2-1
			c0.7-2.6,2-4.8,3.3-7.3c0.7-1.4,1.2-3.4-0.2-4.5c-1.1-0.9-2.4-0.5-3.6,0.1c0.2-0.7,0.4-1.3,0.7-1.9c1.1-2.4,2.8-4.5,4.5-6.5
			c1.3-1.6,3.2-3.3,3.6-5.4c0.3-1.5-0.7-2.9-2.3-2.9c0,0-0.1,0-0.1,0c0.7-0.8,1.6-1.6,2.4-2.3c1.9-1.6,4-3.1,6.3-4.3
			c1.4-0.7,3-1.5,4.5-2c-1,1-1.8,2.1-2.4,3.5c-1.5,3.2-1.3,6.7-0.9,10.1c0.1,0.7,0.2,1.4,0.3,2.2c0.1,0.7,0.2,1.5,0.3,1.9
			c0.1,0.6,0.1,1.2,0.1,1.8c0,0.3,0,0.6,0,0.9c0,0,0,0.2,0,0.3c0,0.1,0,0.2-0.1,0.4c-0.2,0.7-0.3,0.8-0.7,1.6
			c-0.5,0.9-1.1,1.7-1.7,2.5c-1.4,1.8-3,3.4-4.6,5c-1.6,1.6-3.3,3.1-4.9,4.7c-0.6,0.6-1.4,1.2-2,1.9c-0.9,0.5-1.9,1.1-2.7,1.4
			C12.3,104.9,12.2,104.9,12.1,105z M18.5,79C18.5,79,18.5,79,18.5,79C18.8,78.8,18.5,79.1,18.5,79z M42.1,118.5
			c1.1,1.6,1.3,2.5,0.3,4.4c-1.2,2.4-3.6,4.4-6.2,5c-1.9,0.5-4,0.1-5.5-0.6c-0.1,0-0.2-0.1-0.3-0.1c0,0,0,0,0,0
			c-0.2-0.1-0.4-0.3-0.6-0.5c-0.6-0.5-1.1-1-1.7-1.5c-0.2-0.2-0.4-0.4-0.7-0.6c1.4-5.4,5.9-9.4,11.2-10.3
			C39.8,115.8,41.2,117.2,42.1,118.5z M59.5,108.3c-3.2-1.3-5.1-4.5-7.1-7.3c2.1-0.4,4.3-0.5,6.5-0.4c2.6,0.1,5.4,0.4,8,1.3
			c-0.9,2.6-0.5,5.7,0.2,8.3C64.3,109.9,61.8,109.3,59.5,108.3z M71.4,110.7c-0.1,0-0.3,0-0.4,0c-0.7-2.1-1.2-4.6-0.8-6.7
			c0-0.1,0-0.2,0.1-0.3c2.8,1.8,5.1,4.3,7.1,7c-0.4,0.1-0.9,0.1-1.3,0.2C74.4,110.9,72.9,110.8,71.4,110.7z M90.5,119.5
			c-2.9-3-5.8-5.9-8.6-9c-0.1-0.1-0.1-0.1-0.2-0.2c0,0,0,0,0,0c-1.4-2-2.8-4.1-4.5-5.8c-2.2-2.3-5.2-4.5-8.2-5.7
			c-3.2-1.3-6.7-1.7-10.1-1.9c-3.4-0.2-6.9,0.1-10.2,1.3c0,0,0,0,0,0c0,0-0.1,0-0.1,0c-1.5,0.3-3,1-4.3,1.7
			c-3.3,1.7-7.8,4.7-7.9,8.8c0,0.7,0.1,1.5,0.3,2.2c-5.5,1.3-10.2,5.6-12.2,10.8c-1.9-1.9-3.7-3.9-5.4-6c-0.4-0.5-0.8-1.1-1.2-1.7
			c-0.1-0.1-0.3-0.6-0.3-0.5c-0.2-0.7-0.4-1.4-0.4-2.1c-0.2-1.7,0-3.5,0.5-5.1c0.1-0.1,0.2-0.2,0.3-0.3c0.5-0.5,1-1,1.5-1.5
			c1.4-1.3,2.8-2.7,4.2-4c3-2.9,6.1-6,8-9.7c2.8-5.4-0.9-11.4,0.2-16.8c0.9-4.4,4.5-7,8.5-8.6c0.1,0,0.2-0.1,0.3-0.1
			c3.3-0.2,6.5-0.4,9.8-0.8c0.1,0,0.3,0,0.4,0c1.7-0.1,3.3-0.3,4.9-0.5c-0.1,1.3,0,2.6,0.3,3.8c1,3.6,3.8,5.9,7,7.2
			c0.3,5.3,3.3,10.6,8.8,11.8c2.9,0.6,6,0.2,8.8-0.5c5.4,4.6,14,8.8,20.6,4.6c2.6-1.7,4.4-4.2,5.7-7c1.4,1.5,3,3,4.5,4.4
			c2.9,2.8,5.9,5.6,8.9,8.4c2.6,2.4,5.2,4.6,7.8,7c-0.8,0.3-1.7,0.7-2.4,1.1c-3.6,1.9-6,5.3-7.5,9c-5.7-5.9-11.4-11.8-17.1-17.6
			c-0.9-0.9-1.8-1.9-2.8-2.8c-1.7-1.7-4.3,0.9-2.7,2.7c6.4,6.6,12.8,13.1,19.1,19.7c0.5,0.5,0.9,1,1.4,1.4c-1.8,0.1-3.5,0.5-5.2,1.2
			c-5.3,2.2-8.6,6.8-10.1,12.1C97.5,126.8,94,123.1,90.5,119.5z M121.3,130c-0.2,1.6-1.4,2.9-2.5,4c-1.8,1.7-4.1,2.9-6.6,3.2
			c-1.3,0.2-2.8-0.2-4-0.7c-0.3-0.2-0.7-0.4-1-0.6c-0.1-0.1-0.8-0.6-0.5-0.4c0,0-0.1-0.1-0.1-0.1c-0.8-0.7-1.6-1.4-2.3-2.2
			c0-0.1,0.1-0.2,0.1-0.4c0.6-2.8,1.7-5.7,3.6-7.9c1.3-1.5,3.1-2.8,4.7-3.4c0.8-0.3,1.7-0.5,2.5-0.7c0.2,0,0.3-0.1,0.5-0.1
			c0.1,0,0.1,0,0.2,0c0,0,0,0,0.1,0c0.3,0,0.6-0.1,0.9-0.1c0.5,0,0.9,0,1.4,0c0.4,0.6,0.9,1.2,1.3,1.8c0.8,1.5,1.3,3.2,1.6,4.8
			C121.2,127.8,121.4,129.2,121.3,130z M138.2,116.2c-0.1,2-1.5,3.8-3,5c-2,1.6-4.8,2.5-7.4,2.4c-1.6-0.1-3.3-1.3-4.6-2.6
			c-0.2-0.2-0.5-0.5-0.7-0.8c-0.4-0.7-1-1.4-1.5-2.1c0,0,0-0.1,0-0.2c1.1-4.1,3.2-8,7-10c0.9-0.5,2-0.8,3.2-1.1c0.1,0,0.2,0,0.2,0
			c0,0,0.1,0,0.1,0c1.3,1.2,2.5,2.5,3.7,3.9C136.8,112.3,138.3,113.9,138.2,116.2z"/>
	</g>
	<g>
		<path class="st0" d="M110,37.4c-0.2-0.2-0.9-0.8-1.8-0.8c-1.5-0.1-3.3,1.2-3.3,2.9c0,1.6,1.6,3,3.3,2.9c1.3-0.1,2.4-1,2.8-2
			C111.5,38.7,110.1,37.4,110,37.4z"/>
	</g>
	<g>
		<path class="st0" d="M127.5,52c0.7,0.3,1.5,0.3,1.9-0.1c0.6-0.5,0.1-1.4,0.1-1.4c-0.1-0.1-0.3-0.5-0.8-0.8c-0.8-0.4-2-0.4-2.4,0.3
			C126,50.6,126.6,51.6,127.5,52z"/>
	</g>
</g>
</svg>
