<?xml version="1.0" encoding="utf-8"?>
<!-- Generator: Adobe Illustrator 16.0.4, SVG Export Plug-In . SVG Version: 6.00 Build 0)  -->
<!DOCTYPE svg PUBLIC "-//W3C//DTD SVG 1.1//EN" "http://www.w3.org/Graphics/SVG/1.1/DTD/svg11.dtd">
<svg version="1.1" id="Wells_Fargo" xmlns="http://www.w3.org/2000/svg" xmlns:xlink="http://www.w3.org/1999/xlink" x="0px"
	 y="0px" width="193.652px" height="18.052px" viewBox="90.211 13.973 193.652 18.052"
	 enable-background="new 90.211 13.973 193.652 18.052" xml:space="preserve">
<g>
	<g>
		<path fill="#FCC60A" d="M123.4,16.385v5.347h1.218c1.544,0,2.242-0.752,2.242-2.845v-0.333h1.802v8.293h-1.802v-0.354
			c0-2.085-0.698-2.871-2.242-2.871H123.4v5.965h5.126c2.329,0,3.178-1.531,3.458-4.486h1.859v6.396h-16.838v-1.908h1.429
			c0.882,0,1.357-0.241,1.357-1.784v-9.959c0-1.113-0.51-1.458-1.699-1.458h-0.521c-1.219,0-1.806,0.289-2.229,1.567l-4.646,13.543
			h-3.531l-2.688-8.83h-0.053l-2.988,8.83h-3.574l-4.819-14.199c-0.214-0.696-0.576-0.912-1.55-0.912c-0.009,0-0.336,0-0.354,0
			v-1.893h7.433v1.893h-1.084c-0.556,0-0.793,0.345-0.793,0.679c0,0.253,0.098,0.572,0.237,0.926l3.215,9.485h0.053l3.069-8.922
			l-0.434-1.212c-0.259-0.755-0.776-0.956-1.521-0.956H100.7v-1.893h7.683v1.893h-1.355c-0.525,0-0.724,0.237-0.724,0.57
			c0,0.257,0.128,0.626,0.213,0.867l2.814,9.485h0.047l3.271-9.264c0.104-0.304,0.198-0.558,0.198-0.878
			c0-0.402-0.201-0.781-1.099-0.781h-1.236v-1.893h23.333v5.818l-1.914-0.002c-0.386-2.463-0.606-3.923-4.018-3.923L123.4,16.385
			L123.4,16.385z M151.363,31.496V25.1h-1.965c-0.263,2.928-0.797,4.487-3.453,4.487h-3.869v-12.02c0-0.937,0.384-1.183,1.515-1.183
			h1.438v-1.893h-9.399v1.893h1.486c1.028,0,1.372,0.345,1.372,1.116v10.954c0,0.892-0.491,1.133-1.216,1.133h-1.643v1.908
			L151.363,31.496L151.363,31.496z M168.822,31.496V25.1h-1.969c-0.263,2.928-0.811,4.487-3.445,4.487h-3.874v-12.02
			c0-0.937,0.387-1.183,1.517-1.183h1.437v-1.893h-9.409v1.893h1.49c1.032,0,1.377,0.345,1.377,1.116v10.954
			c0,0.892-0.492,1.133-1.209,1.133h-1.658v1.908L168.822,31.496L168.822,31.496z M181.771,15.776
			c-0.157-0.162-1.724-1.785-4.792-1.785c-3.207,0-6.452,1.623-6.452,5.111c0,3.159,2.52,4.603,5.422,5.221
			c0.962,0.209,1.529,0.317,2.408,0.5c2.174,0.461,3.623,1.122,3.623,2.629c0,1.142-1.207,2.38-3.614,2.38
			c-3.358,0-5.345-1.872-5.762-4.73h-1.965v6.396h1.74l0.567-1.526c0.41,0.359,2.053,2.038,5.162,2.038
			c3.957,0,6.953-1.771,6.953-5.248c0-3.367-2.793-4.815-6.201-5.497c-0.601-0.156-1.16-0.25-1.781-0.388
			c-2.119-0.453-3.475-0.982-3.475-2.495c0-1.315,1.395-2.218,3.48-2.218c3.142,0,4.357,2,5.008,4.147h1.914v-5.816h-1.387
			L181.771,15.776z"/>
		<path fill="#FCC60A" d="M203.352,31.502V29.59h-1.285c-1.187,0-1.625-0.357-1.625-1.314v-4.637h1.051
			c1.598,0,2.293,0.692,2.293,2.498v0.562h1.783v-7.824h-1.783v0.336c0,1.315-0.488,2.534-2.141,2.534h-1.203v-5.358h3.354
			c3.766,0,4.162,1.893,4.414,3.914h1.84v-5.812h-16.107v1.898h1.701c0.771,0,1.197,0.344,1.197,0.964v10.982
			c0,0.72-0.385,1.259-1.297,1.259h-1.602v1.912L203.352,31.502L203.352,31.502z M274.598,13.974c-5.582,0-9.273,3.908-9.273,9.015
			c0,5.108,3.691,9.036,9.273,9.036c5.562,0,9.266-3.928,9.266-9.036S280.16,13.974,274.598,13.974z M274.598,15.979
			c4.03,0,5.237,3.35,5.237,7.01c0,3.667-1.207,7.018-5.237,7.018c-4.05,0-5.253-3.351-5.253-7.018
			C269.346,19.329,270.544,15.979,274.598,15.979z M258.9,15.881c-0.367-0.331-1.965-1.908-5.111-1.908
			c-5.031,0-8.191,3.838-8.191,9.015c0,5.227,3.211,9.038,8.191,9.038c3.207,0,4.945-1.463,5.336-1.823l0.957,1.3h1.744V25.6
			c0-0.996,0.375-1.269,1.367-1.269h0.473v-1.904h-7.861v1.904h1.162c0.848,0,1.363,0.379,1.363,1.206v0.988
			c0,1.949-1.201,3.309-3.803,3.309c-3.269,0-4.902-2.938-4.902-6.845c0-3.846,1.639-6.801,4.801-6.801
			c3.297,0,4.418,3.076,4.795,4.111h2.113v-5.812h-1.797L258.9,15.881z M244.75,27.503v0.465c0,2.937-1.404,4.058-3.529,4.058
			c-2.486,0-3.322-1.189-3.322-3.506c0-0.03,0-0.873,0-0.89c0-2.92-1.25-4.103-4.098-4.103h-1.35v5.143
			c0,0.678,0.314,0.92,1.057,0.92h1.869v1.912h-16.994V29.59h1.893c0.521,0,0.709-0.125,0.709-0.438
			c0-0.156-0.045-0.412-0.146-0.695c-0.09-0.229-0.896-2.422-0.896-2.422h-6.07c0,0-0.744,2.033-0.877,2.361
			c-0.086,0.254-0.146,0.465-0.146,0.713c0,0.361,0.301,0.479,0.805,0.479h1.808v1.912h-8.008V29.59
			c1.354,0,2.217-0.191,2.698-1.386l5.425-13.717h3.269l5.559,13.717c0.469,1.208,1.342,1.386,2.697,1.386h0.692
			c0.731,0,1.065-0.242,1.065-0.92V17.308c0-0.681-0.264-0.923-1.065-0.923h-1.782v-1.898h11.176c3.713,0,5.455,1.754,5.455,4.413
			c0,3.292-3.281,3.94-4.816,4.024v0.039c1.795,0.139,3.314,0.883,3.314,3.496c0,0.047,0,0.943,0,0.999
			c0,1.745,0.368,2.128,0.989,2.128c0.606,0,0.929-0.477,0.929-1.618v-0.465H244.75z M219.244,24.146l-2.293-6.187h-0.074
			l-2.297,6.187H219.244z M239.062,19.003c0-1.489-1.068-2.618-3.449-2.618h-3.162v5.249h3.162
			C237.809,21.634,239.062,20.646,239.062,19.003z"/>
	</g>
</g>
</svg>
