<?xml version="1.0" encoding="utf-8"?>
<!-- Generator: Adobe Illustrator 19.1.0, SVG Export Plug-In . SVG Version: 6.00 Build 0)  -->
<svg version="1.1" id="Layer_1" xmlns="http://www.w3.org/2000/svg" xmlns:xlink="http://www.w3.org/1999/xlink" x="0px" y="0px"
	 viewBox="0 0 150 150" style="enable-background:new 0 0 150 150;" xml:space="preserve">
<metadata><?xpacket begin="﻿" id="W5M0MpCehiHzreSzNTczkc9d"?>
<x:xmpmeta xmlns:x="adobe:ns:meta/" x:xmptk="Adobe XMP Core 5.6-c067 79.157747, 2015/03/30-23:40:42        ">
   <rdf:RDF xmlns:rdf="http://www.w3.org/1999/02/22-rdf-syntax-ns#">
      <rdf:Description rdf:about=""/>
   </rdf:RDF>
</x:xmpmeta>
                                                                                                    
                                                                                                    
                                                                                                    
                                                                                                    
                                                                                                    
                                                                                                    
                                                                                                    
                                                                                                    
                                                                                                    
                                                                                                    
                                                                                                    
                                                                                                    
                                                                                                    
                                                                                                    
                                                                                                    
                                                                                                    
                                                                                                    
                                                                                                    
                                                                                                    
                                                                                                    
                           
<?xpacket end="w"?></metadata>
<style type="text/css">
	.st0{fill:#FFFFFF;}
</style>
<g>
	<g>
		<path class="st0" d="M107.2,38c1.3-0.1,2.4-1,2.8-2c0.5-1.6-0.8-2.8-0.9-2.9c-0.2-0.2-0.9-0.8-1.8-0.8c-1.5-0.1-3.3,1.2-3.3,2.9
			C103.9,36.6,105.5,38,107.2,38z"/>
	</g>
	<g>
		<path class="st0" d="M125.3,45.6c-0.3,0.6,0.3,1.6,1.2,2.1c0.7,0.3,1.5,0.3,1.9-0.1c0.6-0.5,0.1-1.4,0.1-1.4
			c-0.1-0.1-0.3-0.5-0.8-0.8C126.9,44.9,125.7,45,125.3,45.6z"/>
	</g>
	<g>
		<path class="st0" d="M126.8,40.2c1.4-1-2.8-3.1-5.6-6c-2-2-4-8.3-6.3-10.8c-3.3-3.5-8.4-4.2-8.4-4.2c-2.5-0.1,5.7,5.1,7.9,13.5
			C115.6,37.3,124.1,42.2,126.8,40.2z"/>
	</g>
	<g>
		<path class="st0" d="M10.7,100.7C10.7,100.7,10.7,100.7,10.7,100.7C10.7,100.7,10.7,100.7,10.7,100.7
			C10.6,100.7,10.6,100.7,10.7,100.7z"/>
	</g>
	<g>
		<path class="st0" d="M140.3,108.4c-0.8-2.1-2.5-3.9-4-5.6c-2.4-2.6-5-4.8-7.6-7.2c-5.9-5.3-11.8-10.7-17.5-16.3
			c-1.1-1.1-2.2-2.2-3.3-3.4c-0.3-0.4-0.7-0.8-1-1.2c0,0,0,0,0,0c0,0,0,0,0,0c-0.1-0.1-0.2-0.3-0.3-0.4c-0.4-0.5-0.8-1.1-1.2-1.6
			c-2.6-3.8-5.5-8.5-5.5-13.2c0-0.9,0.1-1.7,0.4-2.5c0.4-0.8,0.6-1.1,1.4-1.5c1.8-0.8,4.1-0.8,6-0.7c0.9,0,1.7,0.1,2.6,0.3
			c0.3,0.1,0.7,0.2,1,0.3c0,0,0.6,0.3,0.7,0.3c2,0.9,4.1,1.8,6.2,2.5c4.4,1.5,9.6,2.7,13.5-0.5c3.9-3.1,6.5-8.8,5.9-13.8
			c-0.5-3.8-4-6.6-6.7-9c-1.4-1.2-2.8-2.4-4.3-3.6c-0.5-0.4-1-0.8-1.6-1.2c0,0,0,0,0-0.1c-2.6-5.2-5.6-10.9-10.5-14
			c-0.4-3-1.8-5.6-4.7-6.8c-2.5-1-5.4-0.7-8.1-0.4c-1.2,0.2-2.4,0.4-3.6,0.6c-0.4,0.1-0.8,0.2-1.2,0.2c0.1,0-0.5,0-0.6,0
			c-0.2-0.1-0.8-0.3-0.9-0.3c-0.5-0.2-1-0.3-1.6-0.4c-1-0.2-1.9-0.3-2.9-0.2c-1.4,0.1-2.7,0.7-3.7,1.7c-0.9,0.8-1.9,2.2-2.7,2.8
			c-1.2,0.9-3.3,0.8-4.9,0.8c-0.5,0-0.8,0.2-1,0.5c-2.1-0.9-5-0.6-6.2,0.4c-1.1,1-2.7,2.6-2.2,5.7c-0.4,0-0.8,0.2-1.1,0.5
			c-1.7,1.6-3.5,3.2-5.1,4.9c-2.1,2.2-4.3,4.7-5.4,7.5c-0.4,1.2-0.8,2.8,0,3.9c0.3,0.4,0.7,0.6,1.1,0.8c-0.3,0.3-0.6,0.7-0.9,1
			c-1,1.1-2,2.2-2.8,3.5c-0.8,1.3-1.4,3.3-0.3,4.6c0.2,0.2,0.4,0.4,0.7,0.6c-0.4,0.8-0.9,1.5-1.4,2.3c-1.2,1.9-2.6,3.7-4.1,5.4
			c-0.1,0.1-0.5,0.4-0.7,0.6c-0.2,0-0.5,0.1-0.7,0.1c-0.5,0.1-0.3,0-0.9,0.1c-2.2,0.2-4.3,0.4-6.5,0.5c-3.7,0.2-7.8,0.1-11.3,1.3
			c-5.2,1.8-9.9,4.5-14.1,8.1c-1.7,1.5-4,3.5-4.2,6c-0.1,1.2,0.4,2.7,1.8,2.9c0,0,0.1,0,0.1,0c0,0-0.1,0.1-0.1,0.1
			c-1.6,2-3.3,3.9-4.6,6c-1.4,2.2-2.5,4.6-2.7,7.3c-0.1,1.1,0,2.4,1.1,3c0.7,0.4,1.6,0.4,2.4,0.1c-1.3,2.4-2.6,5-3,7.7
			c-0.2,1.4-0.3,3,0.8,4c1.1,1.1,2.7,1,4.1,0.5c-0.1,1.4-0.1,2.9,0.2,4.3c0.4,2.5,1.7,4.2,3.3,6.1c3.2,3.9,6.8,7.7,10.7,10.9
			c5.5,4.5,13.7,1.6,17.4-3.8c1.8-2.6,2.5-5.7,0.9-8.5c-1.4-2.4-3.5-4.3-5-6.7c-0.3-0.5-0.6-1-0.7-1.5c-0.1-0.4-0.1-0.5,0.1-1
			c0.5-1.2,1.6-2.3,2.7-3c1.6-1.2,3.6-2.4,5.6-3.1c0.3,0.4,0.5,0.7,0.8,1.1c0.9,1.3,1.9,2.5,2.8,3.8c1.7,2.2,3.4,3.8,6,4.9
			c2.6,1.1,5.5,1.7,8.3,2.1c2.7,0.4,5.4,0.7,8.1,0.7c1.7,0,3.7-0.1,5.5-0.6c5.8,6.4,12,12.5,18.1,18.5c2.1,2.1,4.2,4.4,6.6,6.2
			c5.4,4,12.7,2.1,17.2-2.4c1.4-1.4,2.6-3.1,3-5.1c0.3-1.5,0.2-3.1-0.1-4.6c0.6,0.2,1.2,0.4,1.8,0.5c5.4,0.8,11.6-2,14.1-6.9
			C141,113.5,141.3,110.9,140.3,108.4z M104,78.5c0.3,0.4,0.5,0.9,0.8,1.4c0.2,0.4,0.4,0.8,0.5,1.3c0.1,1,0,1.7-0.4,2.1
			c-0.1,0-0.1,0-0.2,0c-1.2,0.1-2.3,0-3.5-0.1c-3.1-0.4-6.1-1.4-8.9-2.7c-3.6-1.6-7.1-3.3-10.5-5.4c-4.9-3-9.8-6.6-14.1-10
			c-1.6-1.3-3.3-2.5-4.7-4.1c-0.7-0.8-1.4-1.5-2.1-2.3c1.9-0.5,3.8-1.2,5.5-2.1c0.5-0.2,1-0.5,1.4-0.8c0.2-0.1,0.3-0.2,0.4-0.3
			c0,0,0.4,0,0.5,0.1c0.3,0,0.5,0.1,0.8,0.2c0.7,0.1,1.3,0.3,2,0.5c1.7,0.4,3.3,0.9,5,1.4c3.8,1.1,7.7,2.4,11.4,3.7
			c1.6,0.6,3.3,1.2,4.9,1.8c0.6,0.2,1.2,0.5,1.7,0.7c0,0,0,0,0,0c0,0,0,0,0,0c0.1,0.1,0.2,0.1,0.4,0.2c0.2,0.1,0.5,0.2,0.7,0.3
			c0.1,0,0.2,0.1,0.3,0.1c0,0,0,0.1,0,0.1c0.4,0.9,0.8,1.8,1.2,2.7c-0.5-0.2-2.3-0.9-3.7-1.4c-0.5-0.2,0.7,8.1,1.1,10.6
			C95.1,77.9,101.5,78.5,104,78.5z M96.3,64.4C96.4,64.5,96.4,64.5,96.3,64.4C96.6,64.6,96.6,64.8,96.3,64.4z M115.9,22.3
			c2.2,2.6,3.7,5.6,5.2,8.6c0.5,0.9,0.9,1.7,1.7,2.3c0.1,0.1,0.3,0.2,0.4,0.3c0.1,0.1,0.2,0.1,0.3,0.2c0,0,0,0,0,0
			c0,0,0.1,0,0.1,0.1c0.6,0.5,1.2,1,1.8,1.5c1.5,1.2,2.9,2.5,4.3,3.8c1.2,1.1,2.7,2.5,3.5,3.7c0.1,0.2,0.2,0.4,0.3,0.6
			c-0.1-0.1,0.2,0.6,0.2,0.8c0.2,1.1,0.1,2.3-0.2,3.4c-0.5,2.2-1.6,4.4-3.1,6.1c-1.3,1.5-2.7,2.5-4.7,2.5c-2.2,0-4.4-0.6-6.4-1.3
			c-3.4-1.1-6.5-3.1-10.1-3.5c-3.1-0.4-7.6-0.5-10.4,1.6c-3.9-2.1-8.2-3.9-10.7-7.7c-2-3-2.6-6.6-2.5-10.1c0.2-3.9,1.5-7.9,3.9-11
			c3.5-4.6,8.9-7,14.7-6.9c2.4,0.1,5,0.4,7.2,1.5C113.2,19.6,114.6,20.9,115.9,22.3z M87.1,14.9c0.8-0.8,1.5-1.9,2.4-2.5
			c1.1-0.7,2.5-0.6,3.7-0.3c1.2,0.3,2.3,0.8,3.5,0.7c1-0.1,1.9-0.3,2.8-0.5c2.3-0.4,4.6-0.9,7-0.7c2.1,0.2,3.6,1.1,4.3,2.8
			c-0.5-0.2-1.1-0.3-1.6-0.4c-6.3-1.3-13.2-0.5-18.4,3.5c-1,0.8-2,1.7-2.9,2.6c-2.2-1.4-3.6-2.3-5.1-3.1
			C84.5,16.7,85.9,16.1,87.1,14.9z M81.4,31.5c0.5-0.3,0.8-0.6,0.9-1.1c0.1,0,0.2,0.1,0.2,0.1c-0.8,3.3-0.8,6.7-0.2,10.1
			c0.5,2.5,1.5,4.9,3,7c1.9,2.6,4.5,4.5,7.3,6.2c1.3,0.8,2.7,1.4,4,2.1c-0.5,1.3-0.7,2.8-0.6,4.3c-0.9-0.4-1.8-0.6-2.6-0.9
			c-3.9-1.5-7.8-2.8-11.7-4c-3.6-1.1-7.2-2.3-10.9-3.1c0,0,0,0-0.1,0c2.7-4.3,3.9-9.6,5.7-14.1C77.6,35.4,78.9,32.6,81.4,31.5z
			 M61.8,38.3c-0.3,0.2-0.5,0.2-0.7,0.2C61.4,38.4,61.7,38.3,61.8,38.3z M59.1,47.4C59.1,47.4,59.1,47.4,59.1,47.4
			C59.1,47.4,59.1,47.4,59.1,47.4C59.1,47.4,59.1,47.4,59.1,47.4z M57,46.2C57,46.2,57,46.2,57,46.2C57,46.2,57,46.2,57,46.2z
			 M57.6,53c1.2-1.8,2.7-3.8,3.1-6c0.2-1.1,0-2.4-1-3c0,0,0,0,0,0c0.7-0.9,1.4-1.7,2.2-2.5c1.3-1.5,3.5-3.9,1.8-5.9
			c-0.4-0.5-1-0.8-1.6-0.9c0.1-0.1,0.1-0.2,0.2-0.4c1.1-2.1,2.8-4,4.5-5.7c1.5-1.6,3.1-3,4.7-4.5c0.5,0.7,1.2,1.3,2,1.7
			c1.2,0.7,3.3,1.8,5.3,2.9c-2,1.2-3.5,3.3-4.5,5.4c-1.5,2.9-2.5,5.9-3.5,8.9c-1,2.8-2.1,5.7-3.8,8.1c-0.5,0.7-1.1,1.4-1.8,1.9
			c-0.5,0.3-1.1,0.6-1.7,0.8c-2.5,0.9-5.1,1.5-7.7,1.8C56.3,54.8,57,53.9,57.6,53z M50.2,56.3C50.4,56.2,50.6,56.2,50.2,56.3
			L50.2,56.3z M16.3,72.5c0.1,0.3-0.2,0.3,0,0.1C16.1,72.8,16.2,72.6,16.3,72.5z M16.1,73C16.1,73,16.1,73,16.1,73
			C16.1,73.1,16.1,73.1,16.1,73C16.1,73,16.1,72.9,16.1,73z M10.7,100.7C10.7,100.7,10.7,100.7,10.7,100.7
			C10.7,100.7,10.7,100.7,10.7,100.7C10.7,100.7,10.7,100.7,10.7,100.7c-0.2,0.1-0.3,0.1-0.2,0C10.6,100.7,10.6,100.7,10.7,100.7
			C10.7,100.7,10.7,100.7,10.7,100.7z M10.7,89.5C10.9,89.7,10.7,89.8,10.7,89.5L10.7,89.5z M14.5,98.9c-0.1,0-0.2,0.1-0.3,0.2
			c-0.9,0.6-1.9,1.2-2.8,1.5c-0.1,0-0.2,0.1-0.3,0.1c0,0,0-0.1,0-0.1c0,0-0.1,0.2,0-0.1c0.1-0.3,0.2-0.7,0.2-1
			c0.7-2.6,2-4.8,3.3-7.3c0.7-1.4,1.2-3.4-0.2-4.5c-1.1-0.9-2.4-0.5-3.6,0.1c0.2-0.7,0.4-1.3,0.7-1.9c1.1-2.4,2.8-4.5,4.5-6.5
			c1.3-1.6,3.2-3.3,3.6-5.4c0.3-1.5-0.7-2.9-2.3-2.9c0,0-0.1,0-0.1,0c0.7-0.8,1.6-1.6,2.4-2.3c1.9-1.6,4-3.1,6.3-4.3
			c1.4-0.7,3-1.5,4.5-2.1c-4.8,4.8-3.8,10.7-3,15.3c0.4,2.5,0.8,4.9,0.2,6.4c-1.7,3.9-7.1,8.9-10.7,12.3
			C16,97.5,15.2,98.3,14.5,98.9z M11.7,89.5C11.7,89.5,11.7,89.5,11.7,89.5C11.6,89.4,11.7,89.5,11.7,89.5z M17.5,74.7
			C17.5,74.7,17.5,74.7,17.5,74.7C17.8,74.5,17.5,74.8,17.5,74.7z M31,113.4c-2.3,2.3-4,5-4.9,6.6c-0.7-0.7-1.4-1.3-2.1-2
			c0-0.1,0-0.1,0-0.2c0,0,0,0.1-0.1,0.1c0,0,0,0,0,0c0-0.2,0-0.5,0-0.7c0,0.2,0.1,0.4,0.1,0.6c0-0.1,0.1-0.2,0.1-0.2
			c0.3-0.6,0.6-1.1,0.9-1.6c0.9-1.5,1.9-2.9,3-4.2c2.1-2.3,4.9-3.8,7.9-4.5c0.4,0.9,0.9,1.7,1.5,2.5C34.9,110.3,32.4,111.9,31,113.4
			z M58.5,104c-3.2-1.3-5.1-4.5-7.1-7.3c2.1-0.4,4.3-0.5,6.5-0.4c2.8,0.1,5.8,0.5,8.4,1.5c-0.5,2.1-0.7,5.9,0.3,8.2
			C63.7,105.6,61,105,58.5,104z M126.5,104.3c-3.3,2.6-5.5,6.4-6.7,9c-6.7-7-13.4-13.9-20.1-20.9c-1-1-1.9-2-2.9-3
			c-1.7-1.7-4.3,0.9-2.7,2.7c6.9,7.2,13.9,14.5,20.8,21.7c0.3,0.3,0.7,0.7,1,1c-3.6,0.7-6.5,2.8-8,4.2c-2.7,2.5-4.5,7-5.3,9.4
			c-4.5-4.3-8.9-8.8-13.2-13.3c-2.9-3-5.8-5.9-8.6-9c-0.1-0.1-0.1-0.1-0.2-0.2c0,0,0,0,0,0c-1.4-2-2.8-4.1-4.5-5.8
			c-2.2-2.3-5.2-4.5-8.2-5.7c-3.2-1.3-6.7-1.7-10.1-1.9c-3.4-0.2-6.9,0.1-10.2,1.3c0,0,0,0,0,0c0,0-0.1,0-0.1,0
			c-1.5,0.3-3,1-4.3,1.7c-3,1.5-7.1,4.2-7.8,7.9c-4.1,0.8-7.9,3.1-10.6,6.3c-1.3,1.6-2.5,3.2-3.5,5c0,0.1-0.1,0.2-0.1,0.3
			c-1.1-1.2-2.2-2.4-3.2-3.7c-0.4-0.5-0.8-1.1-1.2-1.7c-0.1-0.1-0.3-0.6-0.3-0.5c-0.2-0.7-0.4-1.4-0.4-2.1c-0.2-1.8,0-3.7,0.6-5.4
			c0.6-0.6,1.7-1.7,2.8-2.7c3.8-3.5,9.5-8.9,11.5-13.4c1.1-2.5,0.6-5.4,0.1-8.5c-1.1-6.2-2.1-12,8.2-16l0,0
			c3.5-0.2,7.1-0.4,10.6-0.9c0.6-0.1,1-0.2,1.5-0.4c0.1,0,0.1,0,0.2,0c1.7-0.1,3.3-0.3,5-0.5c0.6,0.8,1.3,1.5,1.7,2
			c1.4,1.7,2.9,3.3,4.6,4.6c3.6,2.8,7.3,5.6,11.1,8.3c4.7,3.2,9.4,6.3,14.6,8.6c2.4,1,4.8,2.2,7.3,2.9c2.7,0.8,5.4,1.1,8.2,1
			c1.1,0,2.7,0.2,3.7-0.4c1.2-0.6,1.6-2,1.6-3.2c0-0.1,0-0.2,0-0.3c0.4,0.4,0.8,0.7,1.2,1.1c2.9,2.8,5.9,5.6,8.9,8.4
			c3.6,3.3,7.4,6.5,10.9,9.9C129.2,102.7,127.9,103.2,126.5,104.3z"/>
	</g>
	<g>
		<path class="st0" d="M24,117.7C24,117.7,24,117.7,24,117.7C23.9,117.8,23.9,117.8,24,117.7z"/>
	</g>
	<g>
		<path class="st0" d="M24,117.7C24,117.7,24,117.7,24,117.7C24,117.7,24,117.7,24,117.7C24,117.7,24,117.7,24,117.7z"/>
	</g>
</g>
</svg>
