<?xml version="1.0" encoding="utf-8"?>
<!-- Generator: Adobe Illustrator 19.1.0, SVG Export Plug-In . SVG Version: 6.00 Build 0)  -->
<svg version="1.1" id="Layer_1" xmlns="http://www.w3.org/2000/svg" xmlns:xlink="http://www.w3.org/1999/xlink" x="0px" y="0px"
	 viewBox="0 0 150 150" style="enable-background:new 0 0 150 150;" xml:space="preserve">
<metadata><?xpacket begin="﻿" id="W5M0MpCehiHzreSzNTczkc9d"?>
<x:xmpmeta xmlns:x="adobe:ns:meta/" x:xmptk="Adobe XMP Core 5.6-c067 79.157747, 2015/03/30-23:40:42        ">
   <rdf:RDF xmlns:rdf="http://www.w3.org/1999/02/22-rdf-syntax-ns#">
      <rdf:Description rdf:about=""/>
   </rdf:RDF>
</x:xmpmeta>
                                                                                                    
                                                                                                    
                                                                                                    
                                                                                                    
                                                                                                    
                                                                                                    
                                                                                                    
                                                                                                    
                                                                                                    
                                                                                                    
                                                                                                    
                                                                                                    
                                                                                                    
                                                                                                    
                                                                                                    
                                                                                                    
                                                                                                    
                                                                                                    
                                                                                                    
                                                                                                    
                           
<?xpacket end="w"?></metadata>
<style type="text/css">
	.st0{fill:#FFFFFF;}
</style>
<g>
	<path class="st0" d="M100.1,34.9c0,1.6,1.6,3,3.3,2.9c1.3-0.1,2.4-1,2.8-2c0.5-1.6-0.8-2.8-0.9-2.9c-0.2-0.2-0.9-0.8-1.8-0.8
		C101.9,31.9,100.1,33.2,100.1,34.9z"/>
	<path class="st0" d="M130.1,44.1c-0.8-0.4-2-0.4-2.4,0.3c-0.3,0.6,0.3,1.6,1.2,2.1c0.7,0.3,1.5,0.3,1.9-0.1
		c0.6-0.5,0.1-1.4,0.1-1.4C130.9,44.8,130.6,44.4,130.1,44.1z"/>
	<path class="st0" d="M135.9,102c-2.1-2.1-4.4-4-6.6-6c-5.1-4.6-10.1-9.2-15-14c1.3-1.1,2.4-2.2,3-3.1c0.3-0.5,0.4,2.3,1.2,2
		c2.4-0.9,0.9-10.4-1.6-13.6c-3.3-4.3-7.4-7.2-13.7-10.5c0.4-0.2,0.9-0.4,1.5-0.5c1.9-0.4,4.1-0.4,6-0.2c0.7,0.1,1.4,0.3,2.1,0.5
		c0.1,0,0.5,0.2,0.6,0.2c0.5,0.2,1,0.4,1.4,0.6c2.1,0.9,4.3,1.8,6.5,2.5c2.3,0.7,4.9,1.3,7.3,1c2.3-0.2,4.2-1.4,5.8-3
		c3.4-3.5,6-9.5,4.5-14.4c-0.5-1.6-1.8-2.9-2.9-4.1c-1.4-1.5-2.9-2.8-4.5-4.1c-1.4-1.2-2.8-2.4-4.3-3.5c-0.1-0.1-0.3-0.2-0.4-0.3
		c-0.1-0.1-0.2-0.3-0.3-0.4c-3.3-6.9-7.9-14.3-15.9-15.9c-0.8-4.4-7-6.5-11-5.7c-1.5,0.3-2.9,1-4.2,1.8c-1.1,0.7-2.2,1.5-3.4,1.9
		c-1.2,0.3-2.5,0.5-3.7,0.9c-1.5,0.4-2.8,1.1-4.1,1.9c-0.7-0.4-1.4-0.7-2-1.1c-3.2-1.6-7.3-2.2-10.1,0.6c-2.5,2.5-3.1,6.1-1.5,9.3
		c0.3,0.6,0.6,1.1,1,1.6c0,0-0.1,0-0.1,0c-0.7,0.4-1.4,0.8-2.1,1.2c-1.4,0.9-2.9,2-3.7,3.5c-0.8,1.5-1.3,4,0.5,5.1
		c0.1,0.1,0.2,0.1,0.3,0.2c-0.3,0.2-0.7,0.4-1,0.6c-1.4,0.9-3,1.6-4.4,2.5c-1.2,0.8-2.5,1.6-3.4,2.8c-1,1.4-1,3.3-0.4,4.9
		c0.4,1,0.9,1.8,1.5,2.6c0.1,0.1,0.1,0.1,0.2,0.2c-1.8,2.3-2.4,5.1-2.6,7.4c-1.7,0.3-3.5,0-5.2-0.3c-2.5-0.5-7.6-2.5-9.3,0.4
		c-0.1,0.2-0.2,0.4-0.3,0.7c0,0,0,0,0,0c-0.1,0-0.2,0-0.2,0c-2.8,0.2-5.8,0.4-8.5,1.4c-3.7,1.4-7.4,3.5-10.3,6.2
		c-3.1,2.9-5.3,6.6-6.9,10.5c-1.4,3.7-2.2,7.7-2.4,11.7c0,0.5,0,1.4-0.1,1.7c0,0-0.1,0.5-0.1,0.5c-0.1,0.3-0.1,0.6-0.2,0.8
		c-0.3,1.2-0.7,2.4-1.1,3.7c-0.8,2.4-2.1,5.4-1.5,8c0.5,2,2,2.5,3.5,2.3c-0.2,1.6-0.1,3.2,0.1,4.8c0.4,2.5,1.7,4.2,3.3,6.1
		c2.5,3,5.2,5.9,8.1,8.6c0.2,0.3,0.4,0.5,0.7,0.7c0.6,0.6,1.3,1.1,2,1.7c5.5,4.5,13.7,1.6,17.4-3.8c1.8-2.6,2.5-5.7,0.9-8.5
		c-1.4-2.4-3.5-4.3-5-6.7c-0.3-0.5-0.6-1-0.7-1.5c-0.1-0.4-0.1-0.5,0.1-1c0.5-1.2,1.6-2.3,2.7-3c1.6-1.2,3.6-2.4,5.6-3.1
		c0.3,0.4,0.5,0.7,0.8,1.1c0.9,1.3,1.9,2.5,2.8,3.8c1.7,2.2,3.4,3.8,6,4.9c2.6,1.1,5.5,1.7,8.3,2.1c2.7,0.4,5.4,0.7,8.1,0.7
		c1.7,0,3.7-0.1,5.5-0.6c5.8,6.4,12.1,12.5,18.2,18.6c2.1,2.1,4.1,4.4,6.5,6.1c5.5,4,12.9,2,17.3-2.6c2.4-2.6,3.8-5.9,3.4-9.4
		c1.1,0.4,2.3,0.6,3.5,0.6c5.4-0.2,10.9-3.7,12.6-8.9C144,109.9,139.4,105.4,135.9,102z M108.4,79.1c-0.1,0.1-0.2,0.2-0.3,0.1
		c0,0-1.5-0.7-1.7-0.6c-0.2,0.1-1,2.3-1,2.3c0,0.1-0.1,0.1-0.2,0.2c0,0-0.1,0-0.1,0c-0.1,0-0.2-0.1-0.3-0.2l-2.5-4.8
		c0,0-0.1,0-0.1,0l0.8,5.4c0,0.1,0,0.2-0.1,0.3c0,0,0,0-0.1,0c-0.1,0-0.2,0-0.2,0c0,0-1.8-1.3-2.1-1.3c-0.3,0-1,1.5-1,1.5
		c-0.1,0.1-0.2,0.2-0.3,0.1c-0.1,0-0.2-0.2-0.2-0.3l0.3-5.3c-0.1,0,1.8-2.4,2.4-2.5c0.6-0.1,3.5,0.6,3.4,0.6l3.4,4.1
		C108.5,78.8,108.5,79,108.4,79.1z M78.4,49.9c0.4,2.7,0.8,5.5-0.3,8.1c-0.4,0.9-1,1.4-1.7,1.7c-1.8-1.6-3.6-3.6-4.3-6.2
		c1.9-2.8,3.1-6.2,4.3-9.3c1.4-3.7,2.8-9,6.4-11c0.3,0.2,0.7,0.3,1,0.5c-0.2,1.1-0.2,2.2-0.3,3.3c-1.9,0.8-3.2,2.5-4.1,4.3
		C78.3,44.1,78,46.9,78.4,49.9z M80.9,60.7c1.8-2.7,1.9-6.4,1.5-9.5c-0.4-2.9-0.8-5.5,0.5-8.3c0.3-0.6,0.6-1.2,1-1.6
		c0,0.3,0.1,0.6,0.2,0.9c0.5,2.4,1.5,4.7,2.9,6.7c1.9,2.6,4.5,4.5,7.3,6.2c1.3,0.8,2.6,1.4,4,2.1c-1,2.7,0.6,8.5,1.7,11.8
		c-0.1,0-0.1,0.1-0.2,0.1C98,69.6,88.4,67.7,82,63.5c-0.6-0.4-1.4-0.8-2.3-1.4C80.2,61.7,80.6,61.3,80.9,60.7z M93.5,71
		c0.3-0.4,6.4,1.5,6.4,1.5s-5,4.3-5.5,3.8C94.2,75.9,93.2,71.4,93.5,71z M106.3,68.1c0.8-0.6,2.2,4,1.7,4.3
		c-0.3,0.2-6.3-0.4-6.3-0.4S105.3,68.7,106.3,68.1z M111.8,52.6c-3.5-0.6-8.3-0.7-11.3,1.4c-3.9-2.1-8.2-3.9-10.8-7.7
		c-0.9-1.4-1.6-3-2-4.6c3.8,1.7,7.9,2.8,11.9,4c4.2,1.2,8.4,2.4,12.6,3.3C112.1,50.2,111.9,51.4,111.8,52.6z M134.6,43.6
		c0.1,0.2,0.2,0.3,0.4,0.6c0.1,0.1,0.2,0.3,0.2,0.4c0,0,0,0,0,0c0.3,1,0.3,2.2,0.2,3.3c-0.3,2.3-1.3,4.5-2.7,6.4
		c-1,1.3-2.4,2.8-4.1,3c-2.2,0.4-4.6-0.3-6.6-1c-2-0.6-3.9-1.4-5.7-2.2c-0.3-0.1-0.5-0.2-0.8-0.3c0.1-5.2,2.3-9.9,5.8-13.7
		c0.4-0.5,0.9-0.9,1.3-1.3c1.7,0.9,3.4,1.7,5.2,2.3c1.3,0.4,3.4,1,5,0.4C133.4,42.1,134,42.9,134.6,43.6z M126.4,34.4
		c1.5,1,6.2,4.7,5.4,5.5c-0.9,1-4.2-0.1-8-2.3C123.6,37.5,126.1,34.2,126.4,34.4z M122.9,32c0.5,0.4-2.7,3.4-2.7,3.4
		c-1.1-0.7-1.4-0.6-3.6-2c-1.4-0.9-2.6-1.6-4.2-1.8c-0.9-0.1-1.7-0.3-2.4-1c-1.2-1.3-2.5-5.1-2.5-5.2c-0.7-2.6,2.5-3.5,4.5-3
		c2.7,0.7,4.9,3.1,6.5,5.1c0.6,0.7,1,1.6,1.6,2.3C120.7,30.4,122.3,31.5,122.9,32z M113.1,19.9c1.7,0.9,3.2,2.2,4.4,3.6
		c0.9,1,1.7,2.1,2.4,3.2c-2.2-2.6-5.1-5.4-8.4-6.2c-2.8-0.7-7.2,0.6-6.3,4.2c0,0.1,0,0.1,0.1,0.2c0,0,0,0.1,0,0.1
		c0.8,2.3,1.7,5.1,3.4,7c0.9,1,2.1,1.3,3.4,1.5c2.3,0.4,4,1.4,5.9,2.6c0.4,0.2,0.7,0.5,1.1,0.7c-2.4,2.5-4.4,5.5-5.7,8.7
		c-3.8-0.8-7.6-1.8-11.3-2.9c-4.8-1.4-9.8-2.8-14.4-4.9c-0.2-0.1-0.3-0.2-0.5-0.2c0-0.4,0-0.7,0-1.1c0.2-3.8,1.5-7.7,3.8-10.9
		c3.5-4.7,8.9-7.1,14.6-7C108.2,18.5,110.9,18.8,113.1,19.9z M92.2,17c2.4-0.5,4.1-1.9,6.2-3.1c1.8-1,3.6-1,5.6-0.4
		c0.6,0.2,1.5,0.6,2.2,1.2c-5-0.2-10,1.1-14,4.3c-0.4,0.3-0.8,0.6-1.2,1c-1-0.6-1.9-1.2-2.9-1.8C89.5,17.7,90.8,17.4,92.2,17z
		 M75.3,17.8c1.1-0.8,3.5-0.4,5.7,0.7c1.1,0.5,1.8,0.9,2.4,1.2c0.1,0,0.1,0.1,0.2,0.1c1.3,0.7,2.1,1.3,4.4,2.8c0,0-0.9,0.9-1.9,2.9
		c-1.1,2.2-1.8,4.3-1.8,4.3c0.2,0.1-5.6-2.6-7.9-4.1c-1.3-0.8-2.4-2.2-2.7-3.2C72.9,19.6,74.3,18.5,75.3,17.8z M60.8,44.6
		C60.9,44.5,60.9,44.5,60.8,44.6c0-0.1,0.1-0.1,0.1-0.2c0,0,0,0,0,0c0,0,0,0,0,0c0.1-0.1,0.1-0.1,0.2-0.2c0.4-0.4,0.8-0.7,1.3-1
		c1.2-0.8,2.4-1.4,3.6-2.1c2-1.2,5-2.6,5.7-5c0.5-1.6-0.5-3-2.2-3.2c-0.1,0-0.3,0-0.4,0c1-1.9,3.7-2.7,5.5-3.9
		c1,0.7,2.2,1.2,3.3,1.8c0.4,0.2,0.8,0.4,1.2,0.6c-2.9,2.6-4.3,6.8-5.6,10.2c-0.5,1.3-1,2.6-1.5,3.9c-1.8-0.1-6.5-0.2-10.1,2
		C61.3,46.6,60.7,45.6,60.8,44.6z M69.3,36.5C69.5,36.5,69.4,36.5,69.3,36.5L69.3,36.5z M44.2,59.3c0.3-3.5,7.7,1.4,12.4,0
		c0.2-0.1,0,1.5,0.6,3.1c0.7,2,1.3,2.4,1.3,2.6c-0.4,1.7-3.8,3.3-6.6,3.1C50,67.9,48,67.2,46,65.4C44.5,64,44,61.6,44.2,59.3z
		 M42,63.2c0.3,0.9,0.7,1.8,1.3,2.6c1.5,1.9,3.9,3.5,6.3,4c2,0.4,4.4,0.6,6.4,0c1.5-0.5,2.8-1.4,3.9-2.5c0.8,1,1.8,2,2.9,2.9
		c-1.1,2.3-2.3,4.5-4.1,6.2c-1.7,1.6-3.8,2.1-6.1,2c-3.2-0.1-6.8-0.2-9.7-1.5c-2.5-1.2-3.7-3.1-3.7-5.8C39.1,68.1,40.2,65.4,42,63.2
		z M14.2,101.7C14.2,101.7,14.2,101.7,14.2,101.7C14.2,101.7,14.2,101.7,14.2,101.7C14.2,101.7,14.2,101.7,14.2,101.7z M14.2,101.7
		C14.2,101.7,14.2,101.7,14.2,101.7C14.2,101.8,14.2,101.8,14.2,101.7z M14.2,101.7C14.2,101.6,14.3,101.5,14.2,101.7L14.2,101.7z
		 M15.8,100.4c-0.5,0.3-1,0.5-1.6,0.7c0-0.2,0-0.4,0-0.3c0.4-2.5,1.4-4.9,2.1-7.3c0.3-1.1,0.7-2.2,0.8-3.4c0.2-1.5,0.1-3.1,0.3-4.7
		c0.4-3.9,1.6-7.8,3.5-11.3c2.1-3.8,5-6.6,8.7-8.8c0.7-0.4,1.4-0.8,2.1-1.2c-0.7,0.9-1.4,1.8-1.9,2.9c-1.5,3.2-1.3,6.7-0.9,10.1
		c0.1,0.7,0.2,1.4,0.3,2.2c0.1,0.7,0.2,1.5,0.3,1.9c0.1,0.6,0.1,1.2,0.1,1.8c0,0.3,0,0.6,0,0.9c0,0,0,0.2,0,0.3c0,0.1,0,0.2-0.1,0.4
		c-0.2,0.7-0.3,0.8-0.7,1.6c-0.5,0.9-1.1,1.7-1.7,2.5c-1.4,1.8-3,3.4-4.6,5c-1.6,1.6-3.3,3.1-4.9,4.7
		C17.2,99.1,16.4,99.7,15.8,100.4z M26.7,120.1c-0.6-0.6-1.2-1.2-1.8-1.8c1.3-3.1,3.6-6,6.3-8c1.9-1.4,4-2,6.3-2.3
		c0.3,0.9,0.9,1.8,1.5,2.6c-2.4,0.6-4.7,1.5-6.7,3.1C29.9,115.4,28.1,117.7,26.7,120.1z M41.5,113.9c0.5,0.5,0.9,1.1,1.2,1.6
		c1.1,1.6,1.3,2.5,0.3,4.4c-1.2,2.4-3.6,4.4-6.2,5c-1.9,0.5-4,0.1-5.5-0.6c-0.1,0-0.2-0.1-0.3-0.1c0,0,0,0,0,0
		c-0.2-0.1-0.4-0.3-0.6-0.5c-0.3-0.3-0.7-0.6-1-0.9c1.2-2.4,3-4.7,5.1-6.2C36.7,115,39,114.3,41.5,113.9z M48.6,98.4
		C48.6,98.4,48.6,98.4,48.6,98.4C48.6,98.4,48.6,98.4,48.6,98.4z M63.4,106.3c-1.1-0.3-2.2-0.6-3.2-1.1C57,104,55,100.8,53,98
		c2.1-0.4,4.3-0.5,6.5-0.4c1.9,0.1,3.9,0.3,5.8,0.7C63.8,100.5,63.1,103.6,63.4,106.3z M71.4,101.6c-1,1.9-1.4,3.9-1.1,5.9
		c-1-0.1-2-0.2-3-0.4c0-0.2-0.1-0.4-0.1-0.5c0-0.3-0.1-0.5-0.1-0.8c0-0.7,0-1.5,0.1-2.2c0.2-1.4,0.6-2.9,1.7-3.9
		c0.1-0.1,0.1-0.2,0.2-0.2c0.9,0.4,1.8,1,2.6,1.6C71.6,101.3,71.5,101.4,71.4,101.6z M76.6,107.8c-0.8,0.1-1.6,0.1-2.4,0
		c-0.4-1.5-0.4-2.8,0.4-4.2c1.2,1.2,2.4,2.6,3.4,4C77.5,107.7,77.1,107.7,76.6,107.8z M128.4,104.9c-3.8,2.9-6.1,7.4-7.1,9.9
		c-6.6-7-13.2-13.9-19.8-20.9c-1-1.1-2-2.2-3.1-3.2c-1.7-1.8-4.3,0.9-2.7,2.7c7,7.4,14,14.8,21.1,22.3c-3.1,0.9-5.6,2.7-7,4
		c-3,2.7-4.8,7.9-5.4,10.1c-4.4-4.3-8.8-8.6-13.1-13c-3-3-6-6.1-8.8-9.2c-0.1-0.1-0.1-0.1-0.2-0.2c0,0,0,0,0,0
		c-1.4-2-2.8-4.1-4.5-5.8c-2.2-2.3-5.2-4.5-8.2-5.7c-3.2-1.3-6.7-1.7-10.1-1.9c-3.4-0.2-6.9,0.1-10.2,1.3c0,0,0,0,0,0
		c0,0-0.1,0-0.1,0c-1.5,0.3-3,1-4.3,1.7c-2.9,1.5-6.8,4-7.7,7.4c-2.9,0.4-5.7,1.1-8.2,3c-2.9,2.2-5.2,5-6.9,8.2
		c-0.8-0.9-1.6-1.9-2.4-2.8c-0.4-0.5-0.8-1.1-1.2-1.7c-0.1-0.1-0.3-0.6-0.3-0.5c-0.2-0.7-0.4-1.4-0.4-2.1c-0.2-1.7,0-3.5,0.5-5.1
		c0.1-0.1,0.2-0.2,0.3-0.3c0.5-0.5,1-1,1.5-1.5c1.4-1.3,2.8-2.7,4.2-4c3-2.9,6.1-6,8-9.7c2.8-5.4-0.9-11.4,0.2-16.8
		c0.5-2.6,2-4.6,4-6.1c-0.7,1.7-1.1,3.5-1.2,5.3c-0.2,3.3,0.7,6.4,3.3,8.5c3.3,2.6,7.6,3.1,11.6,3.3c3.4,0.2,6.7,0.2,9.5-1.9
		c2.7-1.9,4.4-4.7,5.9-7.7c0.9,0.6,1.8,1.2,2.7,1.8c0.5,0.3-2.9,0.6-2.6,1.2c1.7,3,15.9,5.7,19.9,6.9c0.8,0.2-1.3,2.2-0.9,2.7
		c1.7,1.8,15.3-0.9,20.4-1.7c1.2-0.2-0.1,2.1,0.8,2.7c0.9,0.6,3-0.4,5.3-1.8c0.1,0.1,0.1,0.2,0.2,0.3c2.9,2.8,5.9,5.6,8.8,8.3
		c3.7,3.4,7.6,6.7,11.3,10.2C130.6,103.4,129.6,104,128.4,104.9z"/>
</g>
</svg>
