<?xml version="1.0" encoding="utf-8"?>
<!-- Generator: Adobe Illustrator 19.1.0, SVG Export Plug-In . SVG Version: 6.00 Build 0)  -->
<svg version="1.1" id="Layer_1" xmlns="http://www.w3.org/2000/svg" xmlns:xlink="http://www.w3.org/1999/xlink" x="0px" y="0px"
	 viewBox="0 0 150 150" style="enable-background:new 0 0 150 150;" xml:space="preserve">
<metadata><?xpacket begin="﻿" id="W5M0MpCehiHzreSzNTczkc9d"?>
<x:xmpmeta xmlns:x="adobe:ns:meta/" x:xmptk="Adobe XMP Core 5.6-c067 79.157747, 2015/03/30-23:40:42        ">
   <rdf:RDF xmlns:rdf="http://www.w3.org/1999/02/22-rdf-syntax-ns#">
      <rdf:Description rdf:about=""/>
   </rdf:RDF>
</x:xmpmeta>
                                                                                                    
                                                                                                    
                                                                                                    
                                                                                                    
                                                                                                    
                                                                                                    
                                                                                                    
                                                                                                    
                                                                                                    
                                                                                                    
                                                                                                    
                                                                                                    
                                                                                                    
                                                                                                    
                                                                                                    
                                                                                                    
                                                                                                    
                                                                                                    
                                                                                                    
                                                                                                    
                           
<?xpacket end="w"?></metadata>
<style type="text/css">
	.st0{fill:#FFFFFF;}
</style>
<g>
	<path class="st0" d="M103.7,39.7c1.3-0.1,2.4-1,2.8-2c0.5-1.6-0.8-2.8-0.9-2.9c-0.2-0.2-0.9-0.8-1.8-0.8c-1.5-0.1-3.3,1.2-3.3,2.9
		C100.4,38.3,102,39.7,103.7,39.7z"/>
	<path class="st0" d="M129.3,48.4c0.7,0.3,1.5,0.3,1.9-0.1c0.6-0.5,0.1-1.4,0.1-1.4c-0.1-0.1-0.3-0.5-0.8-0.8
		c-0.8-0.4-2-0.4-2.4,0.3C127.8,47,128.3,47.9,129.3,48.4z"/>
	<path class="st0" d="M142.3,111.6c-0.9-2.2-2.7-4.1-4.3-5.8c-2.3-2.5-4.9-4.6-7.4-6.9c-6-5.4-11.9-10.8-17.6-16.5
		c-1.1-1.1-2.2-2.2-3.3-3.4c-0.3-0.3-0.6-0.7-0.9-1c0.1,0.1-0.5-0.6-0.6-0.8c-0.4-0.6-0.8-1.1-1.2-1.7c-2.5-3.8-5.4-8.5-5.4-13.2
		c0-1.8,0.5-3.2,2.1-3.8c2-0.8,4.3-0.7,6.3-0.6c0.8,0.1,1.6,0.2,2.3,0.4c0.1,0,0.8,0.3,0.7,0.2c0.3,0.1,0.6,0.3,0.9,0.4
		c2.1,0.9,4.1,1.8,6.3,2.5c2.4,0.8,4.9,1.5,7.4,1.5c2.4,0,4.3-0.8,6.1-2.4c3.9-3.4,6.4-9.3,5.4-14.4c-0.3-1.7-1.4-3-2.6-4.3
		c-1.3-1.5-2.8-2.8-4.3-4.1c-1.4-1.2-2.8-2.4-4.3-3.5c-0.4-0.3-0.7-0.6-1.1-0.9c0-0.1-0.1-0.1-0.1-0.2c-2.1-4.3-4.6-9-8.2-12.2
		c1.5,0.2,3,0.4,4.4,0.1c1.8-0.3,3.3-1.8,3.3-3.7c0-1.8-1.7-2.7-3.1-3.4c-1.5-0.6-3-1.1-4.5-1.5c0.2-0.2,0.3-0.4,0.4-0.7
		c0.4-1.5-0.8-2.2-2-2.7c-2.2-0.8-4.7-0.7-7-0.2c-2.7,0.6-5.3,1.7-7.7,3.2c-1.2,0.8-2.4,1.6-3.5,2.6c-0.4,0.3-0.7,0.7-1.1,1
		c-0.4-0.5-0.8-0.9-1.2-1.3c-1.6-1.2-3.5-1.4-5.5-1.1c-1.7,0.3-3.3,1-4.9,1.6c-2.1,0.7-3.6,1-5.8,1.1c-0.4,0-0.7,0-1.3,0
		c-2.3-0.5-4.8-0.2-6.6,1.6c-1.9,1.9-2.7,4.6-2.1,7.1c-1.6,1.5-3.3,3-4.8,4.6c-2.1,2.2-4.3,4.7-5.4,7.5c-0.4,1.2-0.8,2.8,0,3.9
		c0.3,0.4,0.7,0.6,1.1,0.8c-0.3,0.3-0.6,0.7-0.9,1c-1,1.1-2,2.2-2.8,3.5c-0.8,1.3-1.4,3.3-0.3,4.6c0.2,0.2,0.4,0.4,0.7,0.6
		c-0.4,0.8-0.9,1.5-1.4,2.3c-1.2,1.9-2.6,3.7-4.1,5.4c-0.1,0.1-0.5,0.4-0.7,0.6c-0.2,0-0.5,0.1-0.7,0.1c-0.5,0.1-0.3,0-0.9,0.1
		c-2.2,0.2-4.3,0.4-6.5,0.5c-3.7,0.2-7.8,0.1-11.3,1.3c-5.2,1.8-9.9,4.5-14.1,8.1c-1.7,1.5-4,3.5-4.2,6c-0.1,1.2,0.4,2.7,1.8,2.9
		c0,0,0.1,0,0.1,0c0,0-0.1,0.1-0.1,0.1c-1.6,2-3.3,3.9-4.6,6C10.3,86.9,9.2,89.4,9,92c-0.1,1.1,0,2.4,1.1,3c0.7,0.4,1.6,0.4,2.4,0.1
		c-1.3,2.4-2.6,5-3,7.7c-0.2,1.4-0.3,3,0.8,4c1.1,1.1,2.7,1,4.1,0.5c-0.1,1.4-0.1,2.9,0.2,4.3c0.4,2.5,1.7,4.2,3.3,6.1
		c3.2,3.9,6.8,7.7,10.7,10.9c5.5,4.5,13.7,1.6,17.4-3.8c1.8-2.6,2.5-5.7,0.9-8.5c-1.4-2.4-3.5-4.3-5-6.7c-0.3-0.5-0.6-1-0.7-1.5
		c-0.1-0.4-0.1-0.5,0.1-1c0.5-1.2,1.6-2.3,2.7-3c1.6-1.2,3.6-2.4,5.6-3.1c0.3,0.4,0.5,0.7,0.8,1.1c0.9,1.3,1.9,2.5,2.8,3.8
		c1.7,2.2,3.4,3.8,6,4.9c2.6,1.1,5.5,1.7,8.3,2.1c2.7,0.4,5.4,0.7,8.1,0.7c1.7,0,3.7-0.1,5.5-0.6c5.8,6.4,12,12.5,18.1,18.5
		c2.1,2.1,4.2,4.4,6.6,6.2c5.4,4,12.7,2.1,17.2-2.4c1.4-1.4,2.6-3.1,3-5.1c0.3-1.5,0.2-3.1-0.1-4.6c0.6,0.2,1.2,0.4,1.8,0.5
		c5.4,0.8,11.6-2,14.1-6.9C143,116.7,143.3,114.1,142.3,111.6z M112.1,54.6c-0.1,0-0.2,0-0.2,0c-3.3-0.5-8.1-0.7-11,1.5
		c-3.9-2.1-8.2-3.9-10.7-7.7c-1-1.5-1.7-3.2-2-4.9c0.4,0.2,0.8,0.3,1.1,0.5c5.6,2.3,11.5,3.9,17.4,5.4c2,0.5,4.1,1,6.1,1.5
		C112.4,52,112.2,53.3,112.1,54.6z M127,38.1c2.7,2.2,6,4.9,8,7.5c0.2,0.2,0.3,0.5,0.5,0.7c0.1,0.1,0.1,0.1,0.1,0.1c0,0,0,0.1,0,0.1
		c0.3,1.1,0.3,2.3,0.1,3.4c-0.4,2.4-1.5,4.7-3,6.6c-1.1,1.3-2.5,2.6-4.3,2.7c-2.3,0.1-4.5-0.5-6.7-1.2c-2-0.7-3.9-1.6-5.9-2.4
		c0.1-5.1,2.3-9.8,5.8-13.6c1.6-1.8,3.1-3.1,4.9-4.3C126.7,37.9,126.9,38,127,38.1z M122.9,18.1C122.9,18.1,122.9,18.1,122.9,18.1
		C122.9,18,122.9,18,122.9,18.1C122.9,18,122.9,18,122.9,18.1z M116.2,9.9C116.3,9.8,116.3,9.8,116.2,9.9L116.2,9.9z M107.7,13.7
		c1.4-0.6,3-1.1,4.6-1.3c0.4-0.1,0.9-0.1,1.3-0.1c-0.3,1.2,0.5,2.4,1.6,2.9c2,1.1,4.5,1.2,6.6,2.1c0.1,0,0.2,0.1,0.3,0.1
		c-0.4,0-1.1,0-1.5-0.1c-3.7-0.3-6.7-1.3-10.5-0.9c-0.2,0-0.8,0.1-1.4,0.2c-2-0.2-4.1-0.2-6.1,0.1C104,15.6,105.8,14.5,107.7,13.7z
		 M99,17.2C99.1,17.3,99.1,17.3,99,17.2L99,17.2z M106.5,20.4c2.4,0.1,4.9,0.4,7,1.6c1.7,0.9,3.2,2.3,4.5,3.8
		c2.2,2.5,3.8,5.5,5.2,8.5c0.1,0.3,0.3,0.7,0.4,1c-4.4,3-8,7.4-10,12.4c-4.2-0.9-8.4-2.1-12.6-3.3c-4.5-1.3-9.3-2.7-13.5-4.8
		c0-0.4,0-0.9,0-1.3c0.2-3.9,1.5-7.9,3.9-11C95.2,22.5,100.7,20.1,106.5,20.4z M89.3,17.9c2-0.7,4.4-1.7,5.9,0.3
		c0.2,0.2,0.3,0.5,0.5,0.7c-0.8,0.4-1.6,0.9-2.4,1.5c-0.8,0.6-1.5,1.2-2.1,1.8c-1.7-1.1-3.5-2.2-5.2-3.2
		C87,18.7,88.2,18.4,89.3,17.9z M73.2,22.1c0.6-3.6,4.3-4.2,7.3-3.2c1.6,0.5,3,1.5,4.5,2.3c1.5,0.9,3.1,1.7,4.6,2.6
		c1,0.6,0.1,2.2-0.9,1.6c-2.4-1.4-4.8-2.8-7.3-4.1c-1.4-0.7-2.9-1.3-4.4-1c-1.5,0.2-2.1,1.9-1.8,3.2c0.6,2.8,3.7,3.9,6,5.1
		c1.6,0.8,3.1,1.6,4.7,2.4c1.1,0.6,0.1,2.1-0.9,1.6c0,0,0,0,0,0c0,0,0,0,0,0c-2.1-1.1-4.2-2.1-6.2-3.2C75.8,28,72.6,25.8,73.2,22.1z
		 M84.2,35.3c-0.1,0.5-0.2,1.5-0.3,2.1c-0.4-0.5-1-1.1-1.3-1.8c0.1-0.1,0.8-0.5,1-0.6C83.8,35.1,84,35.2,84.2,35.3z M61.1,50.7
		C61.1,50.7,61.1,50.7,61.1,50.7C61.1,50.7,61.1,50.7,61.1,50.7C61.1,50.7,61.1,50.7,61.1,50.7z M59.6,56.2c1.2-1.8,2.7-3.8,3.1-6
		c0.2-1.1,0-2.4-1-3c0,0,0,0,0,0c0.7-0.9,1.4-1.7,2.2-2.5c1.3-1.5,3.5-3.9,1.8-5.9c-0.4-0.5-1-0.8-1.6-0.9c0.1-0.1,0.1-0.2,0.2-0.4
		c1.1-2.1,2.8-4,4.5-5.7c1.2-1.2,2.4-2.4,3.6-3.5c1.6,1.8,3.8,2.9,6,4.1c0.4,0.2,0.9,0.5,1.3,0.7c-3.1,2.6-4.6,7-5.9,10.5
		c-0.9,2.4-1.8,4.9-2.9,7.2c-1,2-2.2,4.1-4,5.3c-0.1,0-0.1,0.1-0.2,0.1c-2.5,1.2-5.7,2-9,2.7C58.4,58,59,57.1,59.6,56.2z M52.2,59.5
		C52.4,59.5,52.6,59.5,52.2,59.5L52.2,59.5z M44.8,63.9c0.7-1,2.3-0.1,1.6,0.9c-1.6,2.4-3.7,6.2-2.7,9.2c0.6,2.1,4.6,2.1,6.4,2.1
		c6.9,0,11.5-7.6,11.7-14c0.1-1.2,1.9-1.2,1.9,0c-0.1,3.4-1.5,7.4-3.4,10.2c-3.3,4.9-9.6,6.8-15.1,5c-2.2-0.7-3.4-2-3.5-4.4
		C41.6,69.7,43.1,66.5,44.8,63.9z M18.1,76.2C18.1,76.3,18.1,76.3,18.1,76.2C18.1,76.3,18.1,76.3,18.1,76.2
		C18.1,76.2,18.1,76.1,18.1,76.2z M12.7,103.9C12.7,104,12.7,104,12.7,103.9C12.7,104,12.7,104,12.7,103.9
		C12.7,104,12.7,104,12.7,103.9c-0.2,0.1-0.3,0.1-0.2,0C12.6,103.9,12.6,103.9,12.7,103.9C12.7,103.9,12.7,103.9,12.7,103.9z
		 M16.1,102.4c-0.9,0.5-1.9,1.1-2.7,1.4c-0.1,0-0.2,0.1-0.3,0.1c0,0,0-0.1,0-0.1c0,0-0.1,0.2,0-0.1c0.1-0.3,0.2-0.7,0.2-1
		c0.7-2.6,2-4.8,3.3-7.3c0.7-1.4,1.2-3.4-0.2-4.5c-1.1-0.9-2.4-0.5-3.6,0.1c0.2-0.7,0.4-1.3,0.7-1.9c1.1-2.4,2.8-4.5,4.5-6.5
		c1.3-1.6,3.2-3.3,3.6-5.4c0.3-1.5-0.7-2.9-2.3-2.9c0,0-0.1,0-0.1,0c0.7-0.8,1.6-1.6,2.4-2.3c1.9-1.6,4-3.1,6.3-4.3
		c1.4-0.7,3-1.5,4.5-2c-1,1-1.8,2.1-2.4,3.5c-1.5,3.2-1.3,6.7-0.9,10.1c0.1,0.7,0.2,1.4,0.3,2.2c0.1,0.7,0.2,1.5,0.3,1.9
		c0.1,0.6,0.1,1.2,0.1,1.8c0,0.3,0,0.6,0,0.9c0,0,0,0.2,0,0.3c0,0.1,0,0.2-0.1,0.4c-0.2,0.7-0.3,0.8-0.7,1.6
		c-0.5,0.9-1.1,1.7-1.7,2.5c-1.4,1.8-3,3.4-4.6,5c-1.6,1.6-3.3,3.1-4.9,4.7C17.5,101.1,16.7,101.7,16.1,102.4z M13.7,92.8
		C13.7,92.7,13.7,92.8,13.7,92.8C13.6,92.7,13.7,92.8,13.7,92.8z M19.5,77.9C19.5,77.9,19.5,77.9,19.5,77.9
		C19.8,77.7,19.5,78,19.5,77.9z M48.9,100.3C48.9,100.3,49,100.3,48.9,100.3C48.9,100.3,48.9,100.3,48.9,100.3z M49.6,97
		C49.6,97,49.6,97,49.6,97c0,0-0.1,0-0.1,0c-1.5,0.3-3,1-4.3,1.7c-3.3,1.7-7.8,4.7-7.9,8.8c0,1.3,0.4,2.4,1,3.6
		c-2.6,0.8-5.2,2.5-6.7,4c-2.2,2.2-4,4.8-5,6.5c-2.3-2.3-4.6-4.7-6.6-7.2c-0.4-0.5-0.8-1.1-1.2-1.7c-0.1-0.1-0.3-0.6-0.3-0.5
		c-0.2-0.7-0.4-1.4-0.4-2.1c-0.2-1.7,0-3.5,0.5-5.1c0.1-0.1,0.2-0.2,0.3-0.3c0.5-0.5,1-1,1.5-1.5c1.4-1.3,2.8-2.7,4.2-4
		c3-2.9,6.1-6,8-9.7c2.8-5.4-0.9-11.4,0.2-16.8c0.7-3.6,3.3-6,6.5-7.6c-1.9,4-2.8,8.3-2,10.9c0.7,2.6,3.4,4.8,6.9,5.6l0.6,0.1
		c2.3,0.6,5.5,1.4,5.8,2.6c1,4.3,2.1,6.8,4.1,11.3C53,96.1,51.3,96.4,49.6,97z M60.5,107.2c-3.2-1.3-5.1-4.5-7.1-7.3
		c2.1-0.4,4.3-0.5,6.5-0.4c2.8,0.1,5.8,0.5,8.4,1.5c-0.5,2.1-0.7,5.9,0.3,8.2C65.7,108.8,63,108.2,60.5,107.2z M128.5,107.6
		c-3.3,2.6-5.5,6.4-6.7,9c-6.7-7-13.4-13.9-20.1-20.9c-1-1-1.9-2-2.9-3c-1.7-1.7-4.3,0.9-2.7,2.7c6.9,7.2,13.9,14.5,20.8,21.7
		c0.3,0.3,0.7,0.7,1,1c-3.6,0.7-6.5,2.8-8,4.2c-2.7,2.5-4.5,7-5.3,9.4c-4.5-4.3-8.9-8.8-13.2-13.3c-2.9-3-5.8-5.9-8.6-9
		c-0.1-0.1-0.1-0.1-0.2-0.2c0,0,0,0,0,0c-1.4-2-2.8-4.1-4.5-5.8c-2.2-2.3-5.2-4.5-8.2-5.7c-1.9-0.8-4-1.3-6.1-1.5
		c-1.4-2.5-3.9-7.5-4.7-13c-0.2-1.3,0.4-2.1,1.9-3.8c1.4-1.6,3.4-3.9,5.2-8c0.9-2,1.7-5.4,2.3-9c0.2-1.3,0.3-2.3,0.4-3.2
		c4.3-3,6.2-8.3,7.9-13c1-2.6,2-6.1,3.8-8.6c0.8,1.5,2,2.7,3.4,3.7c0.1,0.8,0.2,1.7,0.4,2.5c0.5,2.5,1.5,4.9,3,7
		c1.9,2.6,4.5,4.5,7.3,6.2c1.3,0.8,2.7,1.4,4,2.1c-1.2,3.3-0.2,7.3,1,10.4c1.6,4.1,3.9,8,6.7,11.4c1.8,2.2,4,4.2,6.1,6.2
		c2.9,2.8,5.9,5.6,8.9,8.4c3.6,3.4,7.6,6.6,11.2,10.1C131.2,105.9,129.9,106.4,128.5,107.6z"/>
</g>
</svg>
