<?xml version="1.0" encoding="utf-8"?>
<!-- Generator: Adobe Illustrator 19.1.0, SVG Export Plug-In . SVG Version: 6.00 Build 0)  -->
<svg version="1.1" id="Layer_1" xmlns="http://www.w3.org/2000/svg" xmlns:xlink="http://www.w3.org/1999/xlink" x="0px" y="0px"
	 viewBox="0 0 150 150" style="enable-background:new 0 0 150 150;" xml:space="preserve">
<metadata><?xpacket begin="﻿" id="W5M0MpCehiHzreSzNTczkc9d"?>
<x:xmpmeta xmlns:x="adobe:ns:meta/" x:xmptk="Adobe XMP Core 5.6-c067 79.157747, 2015/03/30-23:40:42        ">
   <rdf:RDF xmlns:rdf="http://www.w3.org/1999/02/22-rdf-syntax-ns#">
      <rdf:Description rdf:about=""/>
   </rdf:RDF>
</x:xmpmeta>
                                                                                                    
                                                                                                    
                                                                                                    
                                                                                                    
                                                                                                    
                                                                                                    
                                                                                                    
                                                                                                    
                                                                                                    
                                                                                                    
                                                                                                    
                                                                                                    
                                                                                                    
                                                                                                    
                                                                                                    
                                                                                                    
                                                                                                    
                                                                                                    
                                                                                                    
                                                                                                    
                           
<?xpacket end="w"?></metadata>
<style type="text/css">
	.st0{fill:#FFFFFF;}
</style>
<g>
	<path class="st0" d="M104.4,40.5c-0.4,1-1.4,2-2.8,2c-1.7,0.1-3.3-1.3-3.3-2.9c0-1.7,1.8-3,3.3-2.9c0.9,0,1.6,0.6,1.8,0.8
		C103.5,37.7,104.9,38.9,104.4,40.5z"/>
	<path class="st0" d="M129.1,51.2c-0.4,0.3-1.2,0.4-1.9,0.1c-1-0.4-1.5-1.4-1.2-2.1c0.3-0.7,1.6-0.7,2.4-0.3
		c0.5,0.3,0.7,0.7,0.8,0.8C129.2,49.8,129.7,50.7,129.1,51.2z"/>
	<path class="st0" d="M12.2,106.1C12.2,106.1,12.2,106.1,12.2,106.1C12.2,106.1,12.2,106.1,12.2,106.1
		C12.2,106.1,12.2,106.1,12.2,106.1C12.2,106.1,12.2,106.1,12.2,106.1z"/>
	<path class="st0" d="M140.2,114.5c-0.9-2.2-2.7-4.1-4.3-5.8c-2.3-2.5-4.9-4.6-7.4-6.9c-5.4-4.9-10.8-9.8-16.1-14.9
		c1.3-1.1,2.4-2.2,3-3.1c0.3-0.5,0.4,2.3,1.2,2c2.4-0.9,0.9-10.4-1.6-13.6c-3.3-4.3-7.4-7.2-13.7-10.5c0.1-0.1,0.2-0.1,0.4-0.2
		c2-0.8,4.3-0.7,6.3-0.6c0.8,0.1,1.6,0.2,2.3,0.4c0.1,0,0.8,0.3,0.7,0.2c0.3,0.1,0.6,0.3,0.9,0.4c2.1,0.9,4.1,1.8,6.3,2.5
		c2.4,0.8,4.9,1.5,7.4,1.5c2.4,0,4.3-0.8,6.1-2.4c3.9-3.4,6.4-9.3,5.4-14.4c-0.3-1.7-1.4-3-2.6-4.3c-1.3-1.5-2.8-2.8-4.3-4.1
		c-1.4-1.2-2.8-2.4-4.3-3.5c-0.4-0.3-0.7-0.6-1.1-0.9c0-0.1-0.1-0.1-0.1-0.2c-3.1-6.3-7.1-13.5-14.2-15.7c0.7-1.2,1.1-2.7,1-4.3
		c-0.2-2.6-1.3-5-1.9-7.5c-0.3-1-0.3-1.6-0.3-2.6c0-1.5-1.6-2.5-2.9-1.7c-1.2,0.7-1.8,2.7-2.3,3.9c-0.5,1-0.9,1.9-1.4,2.9
		c-0.6-0.4-1.3-0.7-2-1c-1.7-0.7-3.5-1-5.3-1.3c-2-0.2-4-0.2-6,0.1c-1.4,0.2-3.9,0.4-4.7,1.8c-1.2,2.1,1.9,4.2,3.2,5.4
		c0.1,0.1,0.3,0.2,0.4,0.4c-1.1,0.3-2.1,0.7-3.2,1.1c-2.1,0.8-4.7,1.4-6.2,1.7c-0.4,0.1-1,0.1-1.3,0.2c-2.4-0.6-5-0.5-6.8,1.4
		c-1.8,1.8-2.5,4.2-2,6.6c0,0,0,0,0,0c-0.2,0.2,0.1-0.1-0.2,0.2c-0.2,0.1-0.3,0.2-0.5,0.4c-0.5,0.3-1,0.6-1.5,1
		c-1.2,0.8-2.3,1.6-3.4,2.5c-1.8,1.6-3.9,4.4-2.8,6.9c0.3,0.6,0.7,1,1.3,1.2c-1.6,1.8-3.5,3.6-4.3,5.9c-0.3,0.9-0.4,2.2,0.2,3.1
		c-0.5,0.5-1,0.9-1.4,1.4c-1.8,1.8-3.7,3.7-5,5.9c-1,1.8-1.2,3.6-0.2,5.2c-0.7-0.1-1.5-0.2-2.2-0.3c-2.2-0.4-7.4-2.5-8.9,0.2
		c-0.1,0.1-0.2,0.3-0.2,0.5c0,0.1-0.1,0.2-0.1,0.3c-0.1,0.4-0.1,0.7-0.2,1.1c-0.5,0-1.1,0.1-1.6,0.1c-3.9,0.4-7.4,1.3-10.8,3.1
		c-4.3,2.3-7.4,5.7-9.3,10.2c-0.6,1.4-1.6,3.7-0.3,5.1c0.3,0.3,0.7,0.5,1.2,0.6c-1.8,2.6-4.2,4.9-5.7,7.8c-1,1.9-1.7,4-1.6,6.2
		c0.1,1.5,0.9,2.4,2,2.6c-1.4,2.2-3.2,4.8-3.8,7.4c-0.3,1.5,0.1,3.1,1.7,3.6c0.3,0.1,0.7,0.1,1,0.1c-0.2,1.6-0.1,3.2,0.1,4.7
		c0.4,2.5,1.7,4.2,3.3,6.1c3.2,3.9,6.8,7.7,10.7,10.9c5.5,4.5,13.7,1.6,17.4-3.8c1.8-2.6,2.5-5.7,0.9-8.5c-1.4-2.4-3.5-4.3-5-6.7
		c-0.3-0.5-0.6-1-0.7-1.5c-0.1-0.4-0.1-0.5,0.1-1c0.5-1.2,1.6-2.3,2.7-3c1.6-1.2,3.6-2.4,5.6-3.1c0.3,0.4,0.5,0.7,0.8,1.1
		c0.9,1.3,1.9,2.5,2.8,3.8c1.7,2.2,3.4,3.8,6,4.9c2.6,1.1,5.5,1.7,8.3,2.1c2.7,0.4,5.4,0.7,8.1,0.7c1.7,0,3.7-0.1,5.5-0.6
		c5.8,6.4,12,12.5,18.1,18.5c2.1,2.1,4.2,4.4,6.6,6.2c5.4,4,12.7,2.1,17.2-2.4c1.4-1.4,2.6-3.1,3-5.1c0.3-1.5,0.2-3.1-0.1-4.6
		c0.6,0.2,1.2,0.4,1.8,0.5c5.4,0.8,11.6-2,14.1-6.9C140.9,119.6,141.2,117,140.2,114.5z M12.2,106.1
		C12.2,106.1,12.2,106.1,12.2,106.1C12.2,106.1,12.2,106.1,12.2,106.1C12.2,106.1,12.2,106.1,12.2,106.1
		C12,106.1,12.1,106.1,12.2,106.1C12.2,106.1,12.2,106.1,12.2,106.1C12.1,106,12.1,106.1,12.2,106.1
		C12.2,106.1,12.2,106.1,12.2,106.1C12.2,106.1,12.2,106.1,12.2,106.1z M106.4,83.1c-0.1,0.1-0.2,0.2-0.3,0.1c0,0-1.4-0.7-1.7-0.6
		s-0.9,2.2-0.9,2.2c0,0.1-0.1,0.1-0.2,0.2c0,0-0.1,0-0.1,0c-0.1,0-0.2-0.1-0.3-0.2l-2.5-4.7c0,0-0.1,0-0.1,0l0.8,5.3
		c0,0.1,0,0.2-0.1,0.3c0,0,0,0-0.1,0c-0.1,0-0.2,0-0.2,0c0,0-1.8-1.3-2.1-1.2c-0.3,0-1,1.5-1,1.5c-0.1,0.1-0.2,0.2-0.3,0.1
		c-0.1,0-0.2-0.2-0.2-0.3l0.3-5.2c-0.1,0,1.7-2.3,2.3-2.4c0.6-0.1,3.4,0.6,3.3,0.6l3.3,4C106.5,82.9,106.5,83,106.4,83.1z
		 M76.6,54.7c0.4,2.7,0.8,5.5-0.3,8.1c-0.4,0.9-1,1.4-1.7,1.7c-1.8-1.6-3.6-3.6-4.3-6.2c1.9-2.8,3.1-6.2,4.3-9.3
		c1.4-3.8,2.9-9.4,6.8-11.2c0.1-0.1,0.3-0.1,0.4-0.2c0.1,0.1,0.2,0.1,0.3,0.2c-0.2,1.3-0.4,2.7-0.4,4c-1.9,0.8-3.2,2.5-4.1,4.3
		C76.5,48.9,76.2,51.8,76.6,54.7z M79.2,65.6c1.8-2.7,1.9-6.4,1.5-9.5c-0.4-2.9-0.8-5.5,0.5-8.3c0.3-0.6,0.6-1.2,1-1.6
		c0,0.2,0.1,0.4,0.1,0.6c0.5,2.5,1.5,4.9,3,7c1.9,2.6,4.5,4.5,7.3,6.2c1.3,0.8,2.7,1.4,4,2.1c-1.2,3.2,0,8.4,1.6,11.8c0,0,0,0-0.1,0
		c-1.8,0.6-11.4-1.2-17.8-5.4c-0.6-0.4-1.4-0.8-2.3-1.4C78.4,66.6,78.8,66.1,79.2,65.6z M93.1,75.6c0.3-0.4,5,1.5,5,1.5
		s-3.5,4.2-4,3.7C93.9,80.5,92.8,76,93.1,75.6z M103.1,72.6c0.8-0.6,2.3,4.3,1.8,4.7c-0.3,0.2-5.1-0.6-5.1-0.6
		S102.2,73.4,103.1,72.6z M110.1,57.5c-0.1,0-0.2,0-0.2,0c-3.3-0.5-8.1-0.7-11,1.5c-3.9-2.1-8.2-3.9-10.7-7.7c-0.9-1.4-1.6-3-2-4.6
		c3.8,1.7,7.9,2.8,11.9,4c4.2,1.2,8.4,2.4,12.6,3.3C110.3,55.1,110.1,56.3,110.1,57.5z M125,41c2.7,2.2,6,4.9,8,7.5
		c0.2,0.2,0.3,0.5,0.5,0.7c0.1,0.1,0.1,0.1,0.1,0.1c0,0,0,0.1,0,0.1c0.3,1.1,0.3,2.3,0.1,3.4c-0.4,2.4-1.5,4.7-3,6.6
		c-1.1,1.3-2.5,2.6-4.3,2.7c-2.3,0.1-4.5-0.5-6.7-1.2c-2-0.7-3.9-1.6-5.9-2.4c0.1-5.1,2.3-9.8,5.8-13.6c1.6-1.8,3.1-3.1,4.9-4.3
		C124.6,40.8,124.8,40.9,125,41z M111.5,24.8c1.7,0.9,3.2,2.3,4.5,3.8c2.2,2.5,3.8,5.5,5.2,8.5c0.1,0.3,0.3,0.7,0.4,1
		c-4.3,3-7.9,7.3-9.9,12.2c-3.8-0.8-7.6-1.8-11.3-2.9c-4.8-1.4-9.8-2.8-14.4-4.9c-0.2-0.1-0.3-0.2-0.5-0.2c0-0.4,0-0.7,0-1.1
		c0.2-3.9,1.5-7.9,3.9-11c3.6-4.7,9.1-7.1,14.9-6.9C106.8,23.4,109.3,23.7,111.5,24.8z M105.7,6.2C105.6,6.1,105.7,6,105.7,6.2
		L105.7,6.2z M88.4,20.4c1.2-0.4,2.2-0.4,3.4-0.4c1.2,0,2.4-0.7,2.4-2c0-1.7-1.8-3-2.9-4c-0.5-0.4-1-0.9-1.4-1.3
		c0.7-0.1,1.3-0.2,2-0.2c1.6-0.1,3.2,0,4.7,0.3c1.4,0.3,2.9,0.6,4.1,1.4c1.1,0.6,1.7,2,3.2,1.6c1.5-0.4,2.3-2.7,3-4
		c0.2,0.5,0.4,1.1,0.5,1.6c0.7,2.3,1.4,4.9-0.9,6.4c-5.3-0.5-10.8,0.4-15.2,3.7c-0.9,0.6-1.7,1.3-2.4,2.1c-1.8-1.2-3.6-2.2-5.5-3.3
		c0.3,0,0.7-0.1,1.1-0.2C85.7,21.4,87,20.8,88.4,20.4z M90.6,18.6C90.7,18.7,90.7,18.6,90.6,18.6C90.6,18.6,90.6,18.6,90.6,18.6z
		 M91.9,16.2c0.1,0,0.1,0,0.2,0C92,16.2,91.9,16.2,91.9,16.2z M71.4,25.3c0.6-3.6,4.3-4.2,7.2-3.3c1.5,0.5,2.9,1.4,4.3,2.2
		c1.5,0.8,2.8,1.6,4.3,2.4c0.6,0.7-0.1,2-1.1,1.9c-2.2-1.3-4.4-2.5-6.7-3.7c-1.3-0.7-2.6-1.2-4.1-1c-1.5,0.2-2,1.8-1.6,3.1
		c0.7,2.5,3.5,3.5,5.6,4.5c1.4,0.7,2.7,1.4,4.1,2.1c0.6,0.7,0.2,1.9-0.9,2c-2-1.1-3.9-2-5.9-3.1C73.8,31.1,70.8,28.9,71.4,25.3z
		 M54,58.8c0,0,0.1-0.3,0.1-0.5c0.1-0.3,0.4-1.2,0.7-1.6c0.6-0.9,1.3-2,2.1-2.8c1.5-1.6,3.3-2.6,4.7-4.3c0.6-0.6,1.1-1.3,1.2-2.1
		c0.1-1-0.3-2-1.1-2.5c0,0,0.1-0.1,0.1-0.1c0.7-1,1.6-1.8,2.4-2.7c1.4-1.6,3.6-4.6,0.9-6.2c-0.3-0.2-0.6-0.3-0.9-0.3
		c0.4-0.6,1-1.1,1.4-1.6c1.5-1.3,3.1-2.3,4.7-3.4c1.6,1.9,3.8,3,6,4.1c0.5,0.3,1,0.5,1.4,0.7c-3.3,2.5-4.9,7.1-6.2,10.8
		c-0.5,1.3-1,2.6-1.5,3.9c-2.1-0.2-7.8-0.2-11.5,3.1c-2.4,2.1-3.3,4.5-3.7,6.6c-0.2-0.1-0.3-0.2-0.5-0.4c-0.3-0.3-0.5-0.5-0.5-0.6
		C54,58.9,54,59,54,58.8z M42.3,62.9c0.2-2,7.4,2.7,12.6,1.1c0,0.3,0.1,0.9,0.2,2c0,0.3,0.3,1.1,0.5,1.7c-0.2,0.2-0.4,0.5-0.7,0.8
		c-0.2,0.2-0.3,0.3-0.5,0.5c-2,1.1-4.2,1.7-6.4,1.1c-1.7-0.4-3.2-1.5-4.5-2.7C42.6,66.2,42.2,64.8,42.3,62.9z M39.3,67.3
		C39.3,67.3,39.4,67.3,39.3,67.3C39.4,67.3,39.4,67.3,39.3,67.3c1.4,1.8,3.2,3.4,5.1,4.5c2.2,1.2,4.7,1.7,7.2,1.3
		c0.3,0,0.6-0.1,0.9-0.2c0.3-0.1,0.6-0.1,0.9-0.2c0.4-0.1,0.8-0.3,1.2-0.5c0.4-0.2,0.8-0.4,1.3-0.6c0.5-0.3,0.9-0.5,1.3-0.8
		c0.9,1.4,2.1,2.7,3.6,4c-1.1,2.4-2.4,4.8-4.4,6.7c-1.8,1.7-4,2.2-6.5,2.1c-3.2-0.1-7-0.2-10-1.7c-2.6-1.3-3.7-3.4-3.7-6.3
		C36.2,72.5,37.4,69.7,39.3,67.3z M20.5,79.8C20.5,79.8,20.5,79.8,20.5,79.8C20.5,79.7,20.5,79.8,20.5,79.8z M19.2,81.1
		C19.2,81.1,19.2,81,19.2,81.1C19.2,80.8,19.3,80.9,19.2,81.1z M15.1,96.2c0,0,0-0.1-0.1-0.2C15,96.1,15.1,96.2,15.1,96.2z
		 M13.6,95.1C13.6,95.1,13.6,95.1,13.6,95.1C13.6,95.1,13.6,95.1,13.6,95.1z M14,105.3c-0.1,0-0.1,0.1-0.2,0.1
		c0.2-0.5,0.5-1,0.8-1.5c0.8-1.4,1.7-2.8,2.6-4.2c0.6-0.9,1.4-1.9,1.4-3c0-1.3-0.9-2.5-2.3-2.5c-0.4,0-0.7,0.1-1.1,0.2
		c0.3-1.2,0.7-2.3,1.4-3.4c1.2-2.1,2.8-3.8,4.2-5.7c1.1-1.3,2.6-3,2.1-4.9c-0.3-1-1.2-1.6-2.1-1.8c0,0,0-0.1,0-0.1
		c0.8-2.3,2.3-4.6,4-6.3c1.6-1.6,3.5-2.8,5.6-3.6c-0.9,1-1.7,2.1-2.3,3.4c-1.5,3.2-1.3,6.7-0.9,10.1c0.1,0.7,0.2,1.4,0.3,2.2
		c0.1,0.7,0.2,1.5,0.3,1.9C28,86.7,28,87.3,28,88c0,0.3,0,0.6,0,0.9c0,0,0,0.2,0,0.3c0,0.1,0,0.2-0.1,0.4c-0.2,0.7-0.3,0.8-0.7,1.6
		c-0.5,0.9-1.1,1.7-1.7,2.5c-1.4,1.8-3,3.4-4.6,5c-1.6,1.6-3.3,3.1-4.9,4.7C15.4,104,14.6,104.6,14,105.3z M16.3,98
		c0,0,0.1,0,0.1-0.1c0,0,0,0,0,0C16.2,98,16.2,98,16.3,98z M58.4,110.1c-3.2-1.3-5.1-4.5-7.1-7.3c2.1-0.4,4.3-0.5,6.5-0.4
		c2.8,0.1,5.8,0.5,8.4,1.5c-0.5,2.1-0.7,5.9,0.3,8.2C63.6,111.7,60.9,111.1,58.4,110.1z M126.4,110.5c-3.3,2.6-5.5,6.4-6.7,9
		c-6.7-7-13.4-13.9-20.1-20.9c-1-1-1.9-2-2.9-3c-1.7-1.7-4.3,0.9-2.7,2.7c6.9,7.2,13.9,14.5,20.8,21.7c0.3,0.3,0.7,0.7,1,1
		c-3.6,0.7-6.5,2.8-8,4.2c-2.7,2.5-4.5,7-5.3,9.4c-4.5-4.3-8.9-8.8-13.2-13.3c-2.9-3-5.8-5.9-8.6-9c-0.1-0.1-0.1-0.1-0.2-0.2
		c0,0,0,0,0,0c-1.4-2-2.8-4.1-4.5-5.8c-2.2-2.3-5.2-4.5-8.2-5.7c-3.2-1.3-6.7-1.7-10.1-1.9c-3.4-0.2-6.9,0.1-10.2,1.3c0,0,0,0,0,0
		c0,0-0.1,0-0.1,0c-1.5,0.3-3,1-4.3,1.7c-3.3,1.7-7.8,4.7-7.9,8.8c0,1.3,0.4,2.4,1,3.6c-2.6,0.8-5.2,2.5-6.7,4c-2.2,2.2-4,4.8-5,6.5
		c-2.3-2.3-4.6-4.7-6.6-7.2c-0.4-0.5-0.8-1.1-1.2-1.7c-0.1-0.1-0.3-0.6-0.3-0.5c-0.2-0.7-0.4-1.4-0.4-2.1c-0.2-1.7,0-3.5,0.5-5.1
		c0.1-0.1,0.2-0.2,0.3-0.3c0.5-0.5,1-1,1.5-1.5c1.4-1.3,2.8-2.7,4.2-4c3-2.9,6.1-6,8-9.7c2.8-5.4-0.9-11.4,0.2-16.8
		c0.5-2.4,1.7-4.2,3.4-5.6c-0.5,1.3-0.8,2.7-0.9,4.1c-0.3,3.2,0.4,6.5,2.9,8.7c3.2,2.8,7.7,3.2,11.8,3.4c3.1,0.2,6.1,0.2,8.8-1.6
		c3-1.9,4.9-5.1,6.4-8.2c1.1,0.8,2.3,1.6,3.5,2.4c0.5,0.3-2.9,0.6-2.6,1.2c1.7,3,15.9,5.7,19.9,6.9c0.8,0.2-1.3,2.2-0.9,2.7
		c1.7,1.8,15.3-0.9,20.4-1.7c1.2-0.2-0.1,2.1,0.8,2.7c0.9,0.6,3-0.3,5.2-1.8c0.2,0.2,0.5,0.5,0.8,0.8c2.9,2.8,5.9,5.6,8.9,8.4
		c3.6,3.4,7.6,6.6,11.2,10.1C129.1,108.8,127.9,109.3,126.4,110.5z"/>
</g>
</svg>
