<?xml version="1.0" encoding="utf-8"?>
<!-- Generator: Adobe Illustrator 19.1.0, SVG Export Plug-In . SVG Version: 6.00 Build 0)  -->
<svg version="1.1" id="Layer_1" xmlns="http://www.w3.org/2000/svg" xmlns:xlink="http://www.w3.org/1999/xlink" x="0px" y="0px"
	 viewBox="0 0 150 150" style="enable-background:new 0 0 150 150;" xml:space="preserve">
<metadata><?xpacket begin="﻿" id="W5M0MpCehiHzreSzNTczkc9d"?>
<x:xmpmeta xmlns:x="adobe:ns:meta/" x:xmptk="Adobe XMP Core 5.6-c067 79.157747, 2015/03/30-23:40:42        ">
   <rdf:RDF xmlns:rdf="http://www.w3.org/1999/02/22-rdf-syntax-ns#">
      <rdf:Description rdf:about=""/>
   </rdf:RDF>
</x:xmpmeta>
                                                                                                    
                                                                                                    
                                                                                                    
                                                                                                    
                                                                                                    
                                                                                                    
                                                                                                    
                                                                                                    
                                                                                                    
                                                                                                    
                                                                                                    
                                                                                                    
                                                                                                    
                                                                                                    
                                                                                                    
                                                                                                    
                                                                                                    
                                                                                                    
                                                                                                    
                                                                                                    
                           
<?xpacket end="w"?></metadata>
<style type="text/css">
	.st0{fill:#FFFFFF;}
</style>
<g>
	<path class="st0" d="M109.7,42c1.3-0.1,2.4-1,2.8-2c0.5-1.6-0.8-2.8-0.9-2.9c-0.2-0.2-0.9-0.8-1.8-0.8c-1.5-0.1-3.3,1.2-3.3,2.9
		C106.4,40.7,108,42.1,109.7,42z"/>
	<path class="st0" d="M127.8,49.7c-0.3,0.6,0.3,1.6,1.2,2.1c0.7,0.3,1.5,0.3,1.9-0.1c0.6-0.5,0.1-1.4,0.1-1.4
		c-0.1-0.1-0.3-0.5-0.8-0.8C129.4,49,128.2,49,127.8,49.7z"/>
	<path class="st0" d="M111.2,28.9c1.9,2.1,3.5,4.5,4.3,7.2c0.7,2.4,2.2,4.4,4.1,6c1.8,1.6,4,3.1,6.4,3.7c1.4,0.3,4.4,0.2,4.3-1.9
		c-0.1-1-1-1.8-1.7-2.4c-1.2-1-2.5-1.9-3.7-3c-2.1-1.8-3.1-4.4-4.3-6.9c-1.5-3-3.2-5.5-6.2-7.1c-1.7-1-3.7-1.6-5.7-1.9
		c-0.1,0-0.2-0.1-0.4-0.1c-0.2,0-0.4,0-0.6,0.1c-1.1,0.3-1.2,1.6-0.3,2.5C108.6,26.4,110,27.5,111.2,28.9z M127.9,43.9
		c0.1,0.1,0.2,0.3,0.2,0.3C127.5,44.3,127.7,44.1,127.9,43.9z M112.2,25.9c2.2,1,3.9,2.4,5.1,4.5c1.2,2.1,2.1,4.3,3.3,6.4
		c1.2,2.1,2.8,3.5,4.7,5c0.8,0.6,1.6,1.2,2.3,1.9c-0.2,0-0.3,0-0.3,0c-1.8,0-3.8-1.3-5.2-2.4c-1.6-1.2-3.2-2.8-4.1-4.6
		c-0.5-1-0.7-2-1.1-3c-0.5-1.1-1.1-2.2-1.7-3.2c-1.2-1.8-2.7-3.5-4.3-5C111.5,25.6,111.8,25.8,112.2,25.9z"/>
	<path class="st0" d="M142.8,112.4c-0.8-2.1-2.5-3.9-4-5.6c-2.4-2.6-5-4.8-7.6-7.2c-5.9-5.3-11.8-10.7-17.5-16.3
		c-1.1-1.1-2.2-2.2-3.3-3.4c-0.3-0.4-0.7-0.8-1-1.2c0,0,0,0,0,0c0,0,0,0,0,0c-0.1-0.1-0.2-0.3-0.3-0.4c-0.4-0.5-0.8-1.1-1.2-1.6
		c-2.6-3.8-5.5-8.5-5.5-13.2c0-0.9,0.1-1.7,0.4-2.5c0.4-0.8,0.6-1.1,1.4-1.5c1.8-0.8,4.1-0.8,6-0.7c0.9,0,1.7,0.1,2.6,0.3
		c0.3,0.1,0.7,0.2,1,0.3c0,0,0.6,0.3,0.7,0.3c2,0.9,4.1,1.8,6.2,2.5c4.4,1.5,9.6,2.7,13.5-0.5c3.9-3.1,6.5-8.8,5.9-13.8
		c-0.5-3.8-4-6.6-6.7-9c-1.4-1.2-2.8-2.4-4.3-3.6c-0.5-0.4-1-0.8-1.6-1.2c0,0,0,0,0-0.1c-2.7-5.2-5.7-11-10.7-14.1
		c0.3-0.3,0.6-0.6,0.9-1c0.7-1.1,0.4-2.4-0.1-3.6c-1.5-3-4.3-5.3-6.2-8c-0.5-0.7-0.9-1.4-1.3-2.2c-0.2-0.5-0.4-1-1-1.2
		c-1.3-0.3-1.5,1-1.6,1.9c-0.1,1.7-0.2,3.3-0.3,5c-0.2-0.2-0.3-0.3-0.5-0.5c-1.3-1.4-2.9-2.3-4.7-2.9c-1.6-0.5-3.8-1-4.4,1
		c-0.2,0.7-0.1,1.4-0.2,2c0,0,0,0.1,0,0.2c-0.4,0-1.1-0.1-1.1-0.1c-2-0.3-4-0.8-6-1.2c-1.2-0.2-3.4-0.8-4.4,0.2
		c-1.6,1.5,2.2,3.8,3.1,4.5c0.5,0.3,0.9,0.7,1.4,1c-1.6-0.2-3.2-0.3-4.7,0.2c-1.2,0.4-2.4,1-3.5,1.7c-3-1.2-6.6-1.4-9.1,1
		c-2.4,2.4-3,5.9-1.6,9c-1.2,1.7-1.4,4-2.7,5.6c-0.5,0.7-1.2,1.3-1.9,1.8c-0.8,0.6-2.1,1-2.6,1.9c-0.8,1.4,0.1,3.3,0.7,4.7
		c0.3,0.6,0.6,1.3,0.9,1.9c0,0,0,0.1,0.1,0.1c-0.1,0.1-0.1,0.3-0.2,0.3c-1.2,1.4-3,2.4-4.7,3.1c-1,0.5-2.1,0.7-2.5,1.9
		c-0.3,0.8,0.1,1.6,0.6,2.2c0.8,0.9,2,1.5,2.7,2.4c0,0.1-0.1,0.4-0.2,0.5c-0.1,0.3-0.6,1.1-1,1.6c-1,1.3-2.2,2.4-3.6,3.3
		c-0.8,0.5-1.7,1-2.6,1.3c-0.4,0.1-0.8,0.2-1.3,0.4c0,0,0,0,0,0c-0.9,0.1-1.9,0.2-2.8,0.3c-3.1,0.3-6.2,0.5-9.4,0.8
		c-2.4,0.2-4.8,0.4-7.2,1c-3.7,0.9-8.2,2.2-10.8,5.1c-1.3,1.5-2.2,3.3-3.3,5c-0.6,0.9-1.2,1.7-1.9,2.4c-0.8,0.8-2.2,1.3-2.6,2.4
		c-0.3,0.8,0.2,1.7,0.9,2.1c0.5,0.3,1.2,0.4,1.7,0.5c0.3,0.1,0.6,0.1,0.9,0.2c0.1,0,0.2,0,0.3,0.1c0,0.2-0.1,0.4-0.2,0.6
		c-0.4,1-1.1,1.8-1.8,2.6c-2,2.2-4.3,4-6.4,5.9c-0.7,0.7-1.8,1.3-2.2,2.4c-0.3,0.9,0.1,1.9,0.9,2.3c1,0.6,2.5,0.4,3.6,0.3
		c0.6,0,1.2-0.1,1.9-0.1c0,0.1,0,0.1,0,0.1c-0.1,0.5-0.3,1-0.5,1.5c-0.5,1.3-1.3,2.5-2.1,3.6c-0.7,1-1.6,1.9-2.4,2.8
		c-0.7,0.7-1.6,1.4-1.9,2.4c-0.6,2.4,1.8,3.5,3.7,3.6c1.1,0.1,2.2,0,3.3-0.2c-0.2,1.6-0.1,3.2,0.1,4.6c0.4,2.5,1.7,4.2,3.3,6.1
		c3.2,3.9,6.8,7.7,10.7,10.9c5.5,4.5,13.7,1.6,17.4-3.8c1.8-2.6,2.5-5.7,0.9-8.5c-1.4-2.4-3.5-4.3-5-6.7c-0.3-0.5-0.6-1-0.7-1.5
		c-0.1-0.4-0.1-0.5,0.1-1c0.5-1.2,1.6-2.3,2.7-3c1.6-1.2,3.6-2.4,5.6-3.1c0.3,0.4,0.5,0.7,0.8,1.1c0.9,1.3,1.9,2.5,2.8,3.8
		c1.7,2.2,3.4,3.8,6,4.9c2.6,1.1,5.5,1.7,8.3,2.1c2.7,0.4,5.4,0.7,8.1,0.7c1.7,0,3.7-0.1,5.5-0.6c5.8,6.4,12,12.5,18.1,18.5
		c2.1,2.1,4.2,4.4,6.6,6.2c5.4,4,12.7,2.1,17.2-2.4c1.4-1.4,2.6-3.1,3-5.1c0.3-1.5,0.2-3.1-0.1-4.6c0.6,0.2,1.2,0.4,1.8,0.5
		c5.4,0.8,11.6-2,14.1-6.9C143.5,117.6,143.8,115,142.8,112.4z M87.5,10.3C87.5,10.3,87.5,10.3,87.5,10.3
		C87.4,10.2,87.6,10.3,87.5,10.3z M11,90.3C10.6,90.4,10.9,90.3,11,90.3L11,90.3z M109.7,5.6C109.7,5.7,109.7,5.7,109.7,5.6
		C109.7,5.7,109.7,5.6,109.7,5.6C109.7,5.6,109.7,5.6,109.7,5.6z M108,12.3C108,12.3,108,12.4,108,12.3C108,12.4,108,12.3,108,12.3
		C108,12.3,108,12.3,108,12.3z M107.8,6C107.8,6,107.8,6,107.8,6C107.7,5,107.7,5,107.8,6z M106.9,12.4
		C106.8,12.6,106.8,12.5,106.9,12.4L106.9,12.4z M92.1,28.1c3.5-4.6,8.9-7,14.7-6.9c2.4,0.1,5,0.4,7.2,1.5c1.7,0.9,3.1,2.2,4.4,3.7
		c2.2,2.6,3.7,5.6,5.2,8.6c0.5,0.9,0.9,1.7,1.7,2.3c0.1,0.1,0.3,0.2,0.4,0.3c0.1,0.1,0.2,0.1,0.3,0.2c0,0,0,0,0,0c0,0,0.1,0,0.1,0.1
		c0.6,0.5,1.2,1,1.8,1.5c1.5,1.2,2.9,2.5,4.3,3.8c1.2,1.1,2.7,2.5,3.5,3.7c0.1,0.2,0.2,0.4,0.3,0.6c-0.1-0.1,0.2,0.6,0.2,0.8
		c0.2,1.1,0.1,2.3-0.2,3.4c-0.5,2.2-1.6,4.4-3.1,6.1c-1.3,1.5-2.7,2.5-4.7,2.5c-2.2,0-4.4-0.6-6.4-1.3c-3.4-1.1-6.5-3.1-10.1-3.5
		c-3.1-0.4-7.6-0.5-10.4,1.6c-3.9-2.1-8.2-3.9-10.7-7.7c-2-3-2.6-6.6-2.5-10.1C88.3,35.2,89.7,31.2,92.1,28.1z M75,21.6
		c1.6-2.3,4.3-1.6,6.5-0.5c2.7,1.4,5.3,2.9,7.8,4.5c-1.7,2.1-3,4.6-3.8,7.2c-3-1.5-6-2.9-8.7-4.7C74.8,26.8,73.4,23.7,75,21.6z
		 M78.3,41.8c0.9-2.3,2.1-4.9,4.3-6.4c0.7,0.4,1.4,0.7,2.1,1.1c-0.4,2.7-0.3,5.5,0.2,8.2c0.5,2.5,1.5,4.9,3,7
		c1.9,2.6,4.5,4.5,7.3,6.2c1.3,0.8,2.7,1.4,4,2.1c-0.5,1.3-0.7,2.8-0.6,4.3c-0.9-0.4-1.8-0.6-2.6-0.9c-3.9-1.5-7.8-2.8-11.7-4
		c-3.6-1.1-7.2-2.3-10.9-3.1c-0.3-0.1-0.6-0.1-0.8-0.2C75.3,51.7,76.4,46.3,78.3,41.8z M98.8,68.5C98.9,68.5,98.9,68.5,98.8,68.5
		C99.1,68.7,99.1,68.8,98.8,68.5z M71.3,59.1c0,0-0.1,0.1-0.2,0.1C71.2,59.2,71.2,59.1,71.3,59.1z M70.5,59.4
		C70.4,59.4,70.3,59.4,70.5,59.4L70.5,59.4z M65.9,43.2C65.9,43.1,65.9,43.1,65.9,43.2L65.9,43.2z M65.8,43.3
		C65.9,43.5,65.8,43.4,65.8,43.3L65.8,43.3z M69,60.6c0.5-0.3,1-0.5,1.5-0.9c0,0,0.2-0.1,0.3-0.2c0,0,0,0,0,0c0,0,0.4,0,0.6,0.1
		c0.3,0,0.5,0.1,0.8,0.2c0.7,0.1,1.3,0.3,2,0.5c1.7,0.4,3.3,0.9,5,1.4c3.8,1.1,7.7,2.4,11.4,3.7c1.6,0.6,3.3,1.2,4.9,1.8
		c0.6,0.2,1.2,0.5,1.7,0.7c0,0,0,0,0,0c0,0,0,0,0,0c0.1,0.1,0.2,0.1,0.4,0.2c0.2,0.1,0.5,0.2,0.7,0.3c0.1,0,0.2,0.1,0.3,0.1
		c0,0,0,0.1,0,0.1c0.4,0.9,0.8,1.8,1.2,2.7c-0.5-0.2-0.8-0.4-2.2-0.9c-0.5-0.2,0.7,8.1,1.1,10.6c0.2,1.5,5.1,1.6,7.6,1.5
		c0.3,0.4,0.5,0.9,0.8,1.4c0.3,0.7,0.6,1.4,0.8,2.1c0,0.1,0.1,0.7,0.1,1.1c-0.3,0-0.5,0.1-0.9,0.1c-1.2,0.1-2.3,0-3.5-0.1
		c-3.1-0.4-6.1-1.4-8.9-2.7c-3.6-1.6-7.1-3.3-10.5-5.4c-4.9-3-9.8-6.6-14.1-10c-1.6-1.3-3.3-2.5-4.7-4.1c-0.7-0.8-1.4-1.5-2.1-2.3
		C65.4,62.2,67.3,61.5,69,60.6z M61.8,53.2C61.8,53.1,61.8,53.1,61.8,53.2C61.8,53.2,61.8,53.2,61.8,53.2z M53.1,60.2
		C53,60.2,53,60.2,53.1,60.2L53.1,60.2z M42.2,116.5c0.5,0.6,1,1.2,1.4,1.8c1.1,1.6,1.3,2.5,0.3,4.4c-1.2,2.4-3.6,4.4-6.2,5
		c-1.9,0.5-4,0.1-5.5-0.6c-0.1,0-0.2-0.1-0.3-0.1c0,0,0,0,0,0c-0.2-0.1-0.4-0.3-0.6-0.5c-0.1-0.1-0.2-0.2-0.3-0.3
		c1.1-3,3.2-5.6,5.9-7.4C38.3,117.8,40.3,116.7,42.2,116.5z M49.4,101.1C49.4,101.2,49.5,101.2,49.4,101.1
		C49.4,101.2,49.4,101.1,49.4,101.1z M62.6,108.6c-0.5-0.2-1.1-0.4-1.6-0.6c-3.2-1.3-5.1-4.5-7.1-7.3c2.1-0.4,4.3-0.5,6.5-0.4
		c0.9,0,1.9,0.1,2.8,0.2C62,103.2,62,105.9,62.6,108.6z M77.5,110.5c-1.5,0.1-3.1,0-4.6-0.1c-0.8-0.1-1.5-0.1-2.3-0.2
		c-0.7-2.6-1.3-5.2-0.3-7.7c3.5,1.8,6.2,4.7,8.5,7.9C78.3,110.4,77.9,110.5,77.5,110.5z M122.8,129.8c-0.2,1.6-1.4,2.9-2.5,4
		c-1.8,1.7-4.1,2.9-6.6,3.2c-1.3,0.2-2.8-0.2-4-0.7c-0.3-0.2-0.7-0.4-1-0.6c-0.1-0.1-0.8-0.6-0.5-0.4c0,0-0.1-0.1-0.1-0.1
		c-0.4-0.3-0.7-0.6-1.1-1c1.4-6.3,6.6-11.8,12.9-13.4c0.3,0.5,0.7,1,1.1,1.5c0.8,1.5,1.3,3.2,1.6,4.8
		C122.7,127.5,122.9,128.9,122.8,129.8z M121.1,104.1c-2,1.9-3.8,4.4-4.9,7c-4.7-4.9-9.4-9.8-14-14.6c-1-1-1.9-2-2.9-3
		c-1.7-1.7-4.3,0.9-2.7,2.7c5.3,5.6,10.7,11.1,16,16.7c-6.3,1.8-11.7,7.4-13.5,13.7c-2.4-2.4-4.8-4.9-7.2-7.3c-2.9-3-5.8-5.9-8.6-9
		c-0.1-0.1-0.1-0.1-0.2-0.2c0,0,0,0,0,0c-1.4-2-2.8-4.1-4.5-5.8c-2.2-2.3-5.2-4.5-8.2-5.7c-3.2-1.3-6.7-1.7-10.1-1.9
		c-3.4-0.2-6.9,0.1-10.2,1.3c0,0,0,0,0,0c0,0-0.1,0-0.1,0c-1.5,0.3-3,1-4.3,1.7c-3.3,1.7-7.8,4.7-7.9,8.8c0,0.1,0,0.2,0,0.4
		c-2.4,0.3-4.7,1.4-6.6,2.7c-3,2.1-5.5,4.9-6.9,8.2c-1.3-1.4-2.6-2.9-3.8-4.4c-0.4-0.5-0.8-1.1-1.2-1.7c-0.1-0.1-0.3-0.6-0.3-0.5
		c-0.2-0.7-0.4-1.4-0.4-2.1c-0.2-1.9,0.1-4,0.8-5.8c0.1-0.3,0.1-0.5,0.1-0.8c0.3-0.3,0.7-0.6,1-0.9c1.4-1.3,2.8-2.6,4.2-3.9
		c3-2.9,6.2-6,8-9.7c1.2-2.4,0.9-5,0.6-7.6c-0.4-2.9-1-5.9-0.3-8.9c0.9-4,4-6.6,7.5-8.3c0.1,0,0.2,0,0.4,0c3.1-0.3,6.3-0.5,9.4-0.8
		c2.4-0.2,4.5-0.4,6.7-1.4c0.6-0.1,1.2-0.1,1.7-0.2c0.6,1.1,1.6,2.1,2.2,2.7c1.4,1.7,2.9,3.3,4.6,4.6c3.6,2.8,7.3,5.6,11.1,8.3
		c4.7,3.2,9.4,6.3,14.6,8.6c5.1,2.2,10.4,4.5,16.1,4.2c1-0.1,2.2-0.1,3.1-0.7c1.1-0.7,1.5-2,1.6-3.3c0,0,0-0.1,0-0.1
		c0.4,0.4,0.8,0.8,1.2,1.1c2.9,2.8,5.9,5.6,8.9,8.4c1.6,1.4,3.2,2.9,4.8,4.3C124.7,101.3,122.7,102.5,121.1,104.1z M139.7,115.9
		c-0.1,2-1.5,3.8-3,5c-2,1.6-4.8,2.5-7.4,2.4c-1.6-0.1-3.3-1.3-4.6-2.6c-0.2-0.2-0.5-0.5-0.7-0.8c0-0.1-0.1-0.2-0.1-0.2
		c0.8-2.7,2.6-5.3,4.4-7.5c1.8-2.1,4.2-3.4,6.9-3.7c0.6,0.6,1.1,1.2,1.7,1.8C138.3,112,139.8,113.7,139.7,115.9z"/>
</g>
</svg>
