<?xml version="1.0" encoding="utf-8"?>
<!-- Generator: Adobe Illustrator 19.1.0, SVG Export Plug-In . SVG Version: 6.00 Build 0)  -->
<svg version="1.1" id="Layer_1" xmlns="http://www.w3.org/2000/svg" xmlns:xlink="http://www.w3.org/1999/xlink" x="0px" y="0px"
	 viewBox="0 0 150 150" style="enable-background:new 0 0 150 150;" xml:space="preserve">
<metadata><?xpacket begin="﻿" id="W5M0MpCehiHzreSzNTczkc9d"?>
<x:xmpmeta xmlns:x="adobe:ns:meta/" x:xmptk="Adobe XMP Core 5.6-c067 79.157747, 2015/03/30-23:40:42        ">
   <rdf:RDF xmlns:rdf="http://www.w3.org/1999/02/22-rdf-syntax-ns#">
      <rdf:Description rdf:about=""/>
   </rdf:RDF>
</x:xmpmeta>
                                                                                                    
                                                                                                    
                                                                                                    
                                                                                                    
                                                                                                    
                                                                                                    
                                                                                                    
                                                                                                    
                                                                                                    
                                                                                                    
                                                                                                    
                                                                                                    
                                                                                                    
                                                                                                    
                                                                                                    
                                                                                                    
                                                                                                    
                                                                                                    
                                                                                                    
                                                                                                    
                           
<?xpacket end="w"?></metadata>
<style type="text/css">
	.st0{fill:#FFFFFF;}
</style>
<g>
	<path class="st0" d="M107.9,39.4c-0.4,1-1.4,2-2.8,2c-1.7,0.1-3.3-1.3-3.3-2.9c0-1.7,1.8-3,3.3-2.9c0.9,0,1.6,0.6,1.8,0.8
		C107.1,36.6,108.4,37.8,107.9,39.4z"/>
	<path class="st0" d="M132.6,50.1c-0.4,0.3-1.2,0.4-1.9,0.1c-1-0.4-1.5-1.4-1.2-2.1c0.3-0.7,1.6-0.7,2.4-0.3
		c0.5,0.3,0.7,0.7,0.8,0.8C132.8,48.8,133.3,49.6,132.6,50.1z"/>
	<path class="st0" d="M143.8,113.4c-0.9-2.2-2.7-4.1-4.3-5.8c-2.3-2.5-4.9-4.6-7.4-6.9c-6-5.4-11.9-10.8-17.6-16.5
		c-1.1-1.1-2.2-2.2-3.3-3.4c-0.3-0.3-0.6-0.7-0.9-1c0.1,0.1-0.5-0.6-0.6-0.8c-0.4-0.6-0.8-1.1-1.2-1.7c-2.5-3.8-5.4-8.5-5.4-13.2
		c0-1.8,0.5-3.2,2.1-3.8c2-0.8,4.3-0.7,6.3-0.6c0.8,0.1,1.6,0.2,2.3,0.4c0.1,0,0.8,0.3,0.7,0.2c0.3,0.1,0.6,0.3,0.9,0.4
		c2.1,0.9,4.1,1.8,6.3,2.5c2.4,0.8,4.9,1.5,7.4,1.5c2.4,0,4.3-0.8,6.1-2.4c3.9-3.4,6.4-9.3,5.4-14.4c-0.3-1.7-1.4-3-2.6-4.3
		c-1.3-1.5-2.8-2.8-4.3-4.1c-1.4-1.2-2.8-2.4-4.3-3.5c-0.4-0.3-0.7-0.6-1.1-0.9c0-0.1-0.1-0.1-0.1-0.2c-2.9-5.9-6.6-12.6-12.9-15.2
		c0.9,0,2,0.1,2.9,0.2c2.4,0.3,4.7,1.1,7.1,1.2c1.3,0.1,2.3-0.8,2.5-2.1c0.2-1.2-0.5-2.3-1.4-3c-2.2-1.8-5.1-2.9-7.7-3.9
		c-0.8-0.3-1.6-0.6-2.4-0.9c0.6-0.6,1-1.3,0.4-2.3c-0.9-1.5-3.9-1.8-5.5-2c-4.1-0.5-8.5,0.4-12.2,2.3c-1.3,0.7-2.5,1.5-3.6,2.5
		c-0.1-1.6,0.1-3.3-1.4-4.2c-1.4-0.8-3.1-0.2-4.3,0.6c-3.6,2.3-6.6,6-8.6,9.8c-2.5-0.7-5.2-0.5-7.1,1.5c-1.7,1.7-2.5,4.1-2.2,6.4
		c-0.1,0.1-0.2,0.1-0.3,0.2c-1.8,1.6-3.4,3.3-4.9,5.1c-1.9,2.3-3.9,4.7-4.9,7.6c-0.4,1.2-0.7,3,0.3,4c0.3,0.3,0.5,0.4,0.9,0.5
		c-0.3,0.4-0.7,0.7-1,1.1c-1,1.1-2,2.2-2.8,3.5c-0.7,1.3-1.4,3.4-0.1,4.7c0.2,0.2,0.3,0.3,0.5,0.4c-0.2,0.3-0.3,0.6-0.5,0.8
		c-1,1.6-2,3.1-3.2,4.6c-0.4,0.6-0.9,1.1-1.4,1.7c-0.2,0.3-0.5,0.5-0.7,0.8c-0.1,0.1-0.2,0.2-0.3,0.3c0,0,0,0,0,0
		c-0.1,0-0.3,0.1-0.4,0.1c-0.1,0-0.2,0-0.2,0c0,0-0.1,0-0.3,0c-0.3,0-0.7,0.1-1,0.1c-3.4,0.3-6.7,0.4-10.1,0.6
		c-1.6,0.1-3.1,0.2-4.7,0.5c-1.7,0.3-3.3,0.9-4.8,1.4c-1.8,0.6-3.5,1.3-5.1,2.3c-1.6,1.1-3,2.4-4.3,3.9c-3.5,3.8-5.7,8.1-7.3,13
		c-1.5,4.2-2.2,8.6-3.5,12.9c0,0,0,0.1-0.1,0.1c-0.1,0.2-0.2,0.3-0.3,0.5c-0.2,0.4-0.5,0.7-0.7,1.1c-0.6,0.8-1.2,1.6-1.7,2.4
		c-1.2,1.8-2.6,4.5-0.8,6.5c1.7,1.9,4.9,1.8,7.7,1.4c-0.3,1.8-0.3,3.6,0,5.3c0.4,2.5,1.7,4.2,3.3,6.1c3.2,3.9,6.8,7.7,10.7,10.9
		c5.5,4.5,13.7,1.6,17.4-3.8c1.8-2.6,2.5-5.7,0.9-8.5c-1.4-2.4-3.5-4.3-5-6.7c-0.3-0.5-0.6-1-0.7-1.5c-0.1-0.4-0.1-0.5,0.1-1
		c0.5-1.2,1.6-2.3,2.7-3c1.6-1.2,3.6-2.4,5.6-3.1c0.3,0.4,0.5,0.7,0.8,1.1c0.9,1.3,1.9,2.5,2.8,3.8c1.7,2.2,3.4,3.8,6,4.9
		c2.6,1.1,5.5,1.7,8.3,2.1c2.7,0.4,5.4,0.7,8.1,0.7c1.7,0,3.7-0.1,5.5-0.6c5.8,6.4,12,12.5,18.1,18.5c2.1,2.1,4.2,4.4,6.6,6.2
		c5.4,4,12.7,2.1,17.2-2.4c1.4-1.4,2.6-3.1,3-5.1c0.3-1.5,0.2-3.1-0.1-4.6c0.6,0.2,1.2,0.4,1.8,0.5c5.4,0.8,11.6-2,14.1-6.9
		C144.4,118.5,144.8,115.9,143.8,113.4z M113.6,56.4c-0.1,0-0.2,0-0.2,0c-3.3-0.5-8.1-0.7-11,1.5c-3.2-1.7-6.7-3.2-9.3-5.9l-1.6-5.7
		c5.4,2.1,11,3.6,16.6,5.1c2,0.5,4.1,1,6.2,1.5C113.9,54,113.7,55.2,113.6,56.4z M87.5,44.4c0.1,0,0.2,0.1,0.1,0.2
		c-0.1,0.3-0.1,0.6-0.2,0.9c0,0.1-0.2,0.2-0.3,0.1c-0.5-0.5-1.1-1-1.6-1.5c0,0-0.1-0.1-0.1-0.1c0,0,0,0,0,0c0,0,0,0,0,0
		c0.2-0.5,0.4-1,0.6-1.4c0.2-0.6,0.2-0.7,0.8-0.9c0.1,0,0.2,0.1,0.2,0.2c0,0.4,0,0.8,0,1.2C87.1,43.4,87,44.2,87.5,44.4z M85.5,40.6
		c-2.3,0-4.2-1.9-4.2-4.2c0-2.3,1.9-4.2,4.2-4.2c2.3,0,4.2,1.9,4.2,4.2C89.7,38.7,87.8,40.6,85.5,40.6z M84.7,44.6
		c0.1,0.1,0.1,0.2,0,0.2c-0.1,0.3-0.3,0.5-0.4,0.8c-0.1,0.1-0.3,0.1-0.3,0c-0.3-0.6-0.7-1.3-1-1.9c0,0,0-0.1,0-0.1c0,0,0-0.1,0-0.1
		c0.3-0.4,0.6-0.7,1-1.1c0.4-0.5,0.4-0.6,1.1-0.6c0.1,0,0.2,0.1,0.2,0.2C85,42.6,84.1,44.1,84.7,44.6z M82,43.8c0,0.1,0,0.2,0,0.2
		c-0.2,0.2-0.4,0.4-0.6,0.5c0,0-0.1,0.1-0.2,0.1c-0.1,0-0.2-0.1-0.2-0.2c-0.1-0.7-0.2-1.4-0.3-2.1c0-0.1,0-0.1,0.1-0.2
		c0.4-0.2,0.9-0.5,1.3-0.7c0.2-0.1,0.4-0.3,0.6-0.3c0.2-0.1,0.4,0.1,0.6,0.2c0.1,0.1,0.1,0.2,0,0.3c-0.3,0.3-0.5,0.6-0.8,0.9
		C82.2,42.9,81.7,43.3,82,43.8z M79.6,42.2c0,0.1-0.1,0.2-0.1,0.2c-0.3,0.1-0.6,0.2-0.8,0.3c-0.1,0.1-0.3-0.1-0.2-0.2
		c0.2-0.7,0.3-1.4,0.5-2.1c0-0.1,0-0.1,0.1-0.1c0,0,0,0,0,0c0,0,0,0,0,0c0,0,0,0,0,0c0,0,0,0,0,0c0.5,0,1-0.1,1.5-0.2
		c0.2,0,0.5-0.1,0.7-0.1c0.2,0,0.3,0.2,0.5,0.4c0.1,0.1,0.1,0.2,0,0.3c-0.3,0.2-0.7,0.4-1,0.6C80.2,41.4,79.6,41.5,79.6,42.2z
		 M82.9,31.5c-0.1,0.3-0.3,0.3-0.5,0.4c-0.1,0.1-0.2,0-0.3-0.1c-0.1-0.4-0.2-0.7-0.4-1.1c-0.2-0.5-0.2-1.1-0.8-1.1
		c-0.1,0-0.2-0.1-0.2-0.1c-0.1-0.3-0.1-0.6-0.2-0.9c0,0,0-0.1,0-0.1c0-0.1,0.1-0.2,0.2-0.1c0,0,0.1,0,0.1,0c0.6,0.3,1.3,0.5,1.9,0.8
		c0.1,0,0.1,0.1,0.1,0.2c0,0.5,0,1,0,1.5C82.9,31.1,82.9,31.3,82.9,31.5z M80.7,30.7c0.1,0.4,0.3,0.8,0.4,1.2
		c0.1,0.2,0.2,0.5,0.2,0.7c0.1,0.3-0.1,0.4-0.3,0.6c-0.1,0.1-0.2,0.1-0.3,0c-0.2-0.3-0.5-0.6-0.7-0.9c-0.3-0.4-0.6-1-1.2-0.8
		c-0.1,0-0.2,0-0.2-0.1c-0.1-0.3-0.3-0.5-0.4-0.8c0-0.1,0-0.1,0-0.2c0-0.1,0.1-0.1,0.2-0.1c0.7,0,1.4,0.1,2.2,0.1
		C80.6,30.6,80.7,30.7,80.7,30.7z M78.8,32.7c0,0,0.1,0,0.2,0c0,0,0,0,0,0c0,0,0,0,0,0c0.3,0.4,0.6,0.8,0.9,1.2
		c0.4,0.5,0.5,0.5,0.3,1.2c0,0.1-0.2,0.2-0.3,0.1c-0.6-0.4-1.7-1.4-2.4-0.9c-0.1,0.1-0.2,0-0.2,0c-0.2-0.2-0.4-0.4-0.7-0.6
		c-0.1-0.1,0-0.3,0.1-0.3C77.5,33.1,78.2,32.9,78.8,32.7z M78,35.2C78,35.1,78,35.1,78,35.2C78,35.1,78,35.1,78,35.2
		c0.1,0,0.2,0,0.2,0c0.4,0.3,0.8,0.5,1.2,0.8c0.6,0.3,0.6,0.3,0.7,1c0,0.1-0.1,0.2-0.2,0.2c-0.6-0.1-2.1-0.7-2.5-0.1
		c0,0.1-0.1,0.1-0.2,0.1c-0.3-0.1-0.5-0.2-0.8-0.3c-0.2-0.1-0.2-0.2,0-0.3C76.8,36,77.4,35.6,78,35.2z M76.8,39.7
		c0.4-0.6,0.8-1.2,1.2-1.8c0-0.1,0.1-0.1,0.1-0.1c0,0,0.1,0,0.1,0c0.5,0.1,0.9,0.2,1.4,0.3c0.6,0.1,0.7,0.1,1,0.7
		c0,0.1,0,0.3-0.1,0.3c-0.6,0.1-2.3,0-2.5,0.8c0,0.1-0.1,0.1-0.2,0.1c-0.3,0-0.6,0-0.9,0C76.8,40,76.7,39.8,76.8,39.7z M83.5,28.5
		c-0.1,0-0.2-0.1-0.1-0.2c0.1-0.3,0.1-0.6,0.2-0.9c0-0.1,0.2-0.2,0.3-0.1c0.5,0.5,1.1,1,1.6,1.5c0,0,0.1,0.1,0.1,0.1c0,0,0,0,0,0
		c0,0,0,0,0,0c-0.2,0.5-0.4,0.9-0.6,1.4c-0.2,0.6-0.2,0.7-0.8,0.9c-0.1,0-0.2-0.1-0.2-0.2C83.9,30.4,84.3,28.8,83.5,28.5z
		 M86.4,28.2c-0.1-0.1-0.1-0.2,0-0.2c0.1-0.3,0.3-0.5,0.4-0.8c0.1-0.1,0.3-0.1,0.3,0c0.3,0.6,0.7,1.3,1,1.9c0,0,0,0.1,0,0.1
		c0,0,0,0.1,0,0.1c-0.3,0.4-0.6,0.7-1,1.1C86.7,31,86.7,31.1,86,31c-0.1,0-0.2-0.1-0.2-0.2C86.1,30.2,87,28.8,86.4,28.2z M89.1,29
		c0-0.1,0-0.2,0-0.2c0.2-0.2,0.4-0.4,0.6-0.5c0,0,0.1-0.1,0.2-0.1c0.1,0,0.2,0.1,0.2,0.2c0.1,0.7,0.2,1.4,0.3,2.1
		c0,0.1,0,0.1-0.1,0.2c-0.4,0.2-0.9,0.5-1.3,0.7c-0.2,0.1-0.4,0.3-0.6,0.3c-0.2,0.1-0.4-0.1-0.6-0.2c-0.1-0.1-0.1-0.2,0-0.3
		c0.3-0.3,0.5-0.6,0.8-0.9C88.9,30,89.4,29.6,89.1,29z M91.4,30.7c0-0.1,0.1-0.2,0.1-0.2c0.3-0.1,0.6-0.2,0.8-0.3
		c0.1-0.1,0.3,0.1,0.2,0.2c-0.2,0.7-0.3,1.4-0.5,2.1c0,0.1,0,0.1-0.1,0.1c0,0,0,0,0,0c0,0,0,0,0,0c0,0,0,0,0,0c0,0,0,0,0,0
		c-0.5,0.1-1,0.1-1.4,0.2c-0.2,0-0.5,0.1-0.7,0.1c-0.3,0-0.3-0.2-0.5-0.4c-0.1-0.1-0.1-0.2,0-0.3c0.4-0.2,0.7-0.4,1.1-0.6
		C90.9,31.5,91.5,31.3,91.4,30.7z M93.1,37.7C93.1,37.7,93.1,37.7,93.1,37.7C93.1,37.7,93.1,37.7,93.1,37.7c-0.1,0-0.2,0-0.2,0
		c-0.4-0.3-0.9-0.5-1.3-0.8c-0.5-0.3-0.7-0.3-0.7-1c0-0.1,0.1-0.2,0.2-0.2c0.6,0.1,2.2,0.8,2.6,0.1c0-0.1,0.1-0.1,0.2-0.1
		c0.3,0.1,0.6,0.2,0.8,0.3c0.2,0.1,0.2,0.2,0,0.3C94.3,36.8,93.7,37.3,93.1,37.7z M94.3,39.6c-0.7,0.2-1.4,0.4-2.1,0.6
		c0,0-0.1,0-0.2,0c0,0,0,0,0,0c0,0,0,0,0,0c-0.3-0.4-0.6-0.8-1-1.2c-0.4-0.5-0.6-0.5-0.4-1.2c0-0.1,0.2-0.2,0.3-0.1
		c0.4,0.2,0.7,0.4,1.1,0.7c0.4,0.3,0.9,0.7,1.4,0.3c0.1-0.1,0.2,0,0.2,0c0.2,0.2,0.4,0.4,0.7,0.6C94.5,39.4,94.4,39.5,94.3,39.6z
		 M94.3,33.2c-0.4,0.6-0.8,1.2-1.2,1.8c0,0.1-0.1,0.1-0.1,0.1c0,0-0.1,0-0.1,0c-0.5-0.1-1-0.2-1.4-0.3c-0.6-0.1-0.8,0-1-0.6
		c0-0.1,0-0.3,0.1-0.3c0.7-0.1,2.4,0,2.5-0.8c0-0.1,0.1-0.1,0.2-0.1c0.3,0,0.6,0,0.9,0C94.3,32.9,94.4,33.1,94.3,33.2z M88.2,41.2
		c0.1-0.2,0.2-0.3,0.5-0.4c0.1-0.1,0.2,0,0.3,0.1c0.1,0.4,0.2,0.7,0.4,1.1c0.2,0.5,0.2,1.2,0.9,1.2c0.1,0,0.2,0.1,0.2,0.1
		c0,0.3,0.1,0.6,0.1,0.9c0,0,0,0.1,0,0.1c0,0.1-0.1,0.2-0.2,0.1c0,0-0.1,0-0.1,0c-0.6-0.3-1.3-0.5-1.9-0.8c-0.1,0-0.1-0.1-0.1-0.2
		c0-0.5,0-1,0.1-1.5C88.2,41.7,88.1,41.4,88.2,41.2z M90.4,42.1c-0.1-0.4-0.3-0.9-0.4-1.3c-0.1-0.2-0.2-0.5-0.2-0.7
		c0-0.3,0.1-0.3,0.2-0.6c0.1-0.1,0.2-0.1,0.3,0c0.3,0.3,0.5,0.6,0.8,1c0.3,0.4,0.6,1,1.2,0.8c0.1,0,0.2,0,0.2,0.1
		c0.1,0.3,0.3,0.5,0.4,0.8c0,0.1,0,0.1,0,0.2c0,0.1-0.1,0.1-0.2,0.1c-0.7,0-1.4-0.1-2.2-0.1C90.5,42.3,90.4,42.2,90.4,42.1z
		 M115.3,49.2c-4.2-0.9-8.5-2.1-12.6-3.3c-2.7-0.8-5.6-1.6-8.3-2.6c0.1-0.1,0.2-0.3,0.2-0.4c0-0.2-0.1-0.3-0.1-0.4L93.6,41
		c0,0,0,0,0,0l2.2-0.7c0.2-0.1,0.4-0.3,0.5-0.5c0-0.2,0-0.5-0.2-0.7L94.7,38c0,0,0,0,0,0l1.8-1.4c0.2-0.2,0.3-0.4,0.3-0.6
		c0-0.2-0.2-0.5-0.4-0.5l-1.7-0.6c0,0,0,0,0,0l1.2-1.9c0.1-0.2,0.1-0.5,0-0.7c-0.1-0.2-0.3-0.4-0.6-0.4l-1.8,0l0.3-1.1
		c3.6,0,7.1,0.1,10.6,0.8c2,0.4,4.1,0.9,5.9,1.9c1.6,1,2.8,2.5,3.8,4c1.4,2.2,2.5,4.7,3.8,7C116.9,45.9,116,47.5,115.3,49.2z
		 M130.8,61c-0.3,0.1-0.6,0.1-0.9,0.2c-2.3,0.1-4.5-0.5-6.7-1.2c-2-0.7-3.9-1.6-5.9-2.4c0.1-3.5,1.2-6.9,3-9.8
		c1.3,1.3,3.2,1.8,4.9,2.7c1.7,0.9,3.4,1.9,4.6,3.3C131.5,55.7,131,58.4,130.8,61z M128.5,40c2.7,2.2,6,4.9,8,7.5
		c0.2,0.2,0.3,0.5,0.5,0.7c0.1,0.1,0.1,0.1,0.1,0.1c0,0,0,0.1,0,0.1c0.3,1.1,0.3,2.3,0.1,3.4c-0.4,2.4-1.5,4.7-3,6.6
		c-0.3,0.4-0.7,0.8-1,1.1c0.2-2,0.2-4-0.7-5.9c-0.8-1.5-2-2.6-3.4-3.6c-0.9-0.7-1.9-1.2-2.9-1.7c-1.2-0.6-2.6-1-3.7-1.7
		c-0.3-0.2-0.6-0.5-0.9-0.8c0.5-0.6,1-1.3,1.6-1.9c1.6-1.8,3.1-3.1,4.9-4.3C128.2,39.7,128.3,39.8,128.5,40z M119.5,27.5
		c2.2,2.5,3.8,5.5,5.2,8.5c0.1,0.3,0.3,0.7,0.4,1c-2.2,1.5-4.1,3.3-5.8,5.3c-1-1.9-1.9-3.8-3.1-5.6c-1.1-1.7-2.3-3.5-3.9-4.7
		c-1.7-1.3-3.8-2-5.8-2.5c-4.3-1-8.7-1.2-13-1.2c3.6-4.2,8.8-6.4,14.4-6.2c2.4,0.1,4.9,0.4,7,1.6C116.8,24.7,118.2,26,119.5,27.5z
		 M90.6,12.4c0.4-0.3,0.8-0.6,1.2-0.9c0.1,0.6,0.2,1.2,0.3,1.7c0.4,2.2,2.3,4.5,4.6,3c1.1-0.7,1.7-1.9,2.8-2.6
		c1.3-0.9,2.8-1.6,4.3-2.1c1.9-0.6,3.8-0.9,5.7-0.9c0.7,0,1.4,0,2,0.1c0,0.1,0,0.1-0.1,0.2c-0.4,1.7,1,2.8,2.4,3.3
		c1.7,0.7,3.5,1.3,5.2,2c-0.4-0.1-0.8-0.1-1.3-0.1c-2.9-0.2-6.4,0-8.2,2.3c-5.2-0.5-10.5,0.5-14.8,3.7c-0.8,0.6-1.5,1.2-2.1,1.8
		c-2.5-1.6-5.1-3.1-7.8-4.5C86.3,16.8,88.3,14.4,90.6,12.4z M75.7,22.3c1.4-1.8,3.4-1.9,5.3-1.2c0.8,0.3,1.2,0.4,1.8,0.8
		c2.7,1.3,5.2,2.8,7.7,4.4c0,0-0.1,0.1-0.1,0.1c-0.2,0-0.3,0-0.4,0.2l-1.4,1.2l-1.1-2.1c-0.1-0.2-0.3-0.4-0.6-0.4
		c-0.3,0-0.5,0.1-0.6,0.3l-0.9,1.6l-1.7-1.6c-0.2-0.2-0.4-0.2-0.7-0.1c-0.2,0.1-0.4,0.3-0.5,0.5l-0.3,1.8l-2.2-0.9
		c-0.2-0.1-0.5-0.1-0.7,0.1c-0.2,0.2-0.3,0.4-0.2,0.6l0.3,1.8l-2.1-0.1C75.2,27.7,74,24.6,75.7,22.3z M62.7,55.4
		c0.8-1.4,1.8-3.2,1.4-4.9c-0.1-0.6-0.5-1.1-1-1.4c0.7-0.9,1.5-1.7,2.2-2.6c1.3-1.4,3.3-3.6,2.1-5.6c-0.4-0.6-1.1-1-1.8-1.2
		c0-0.1,0.1-0.2,0.1-0.3c0.9-2.2,2.5-4.1,4.1-5.9c1.2-1.4,2.4-2.7,3.7-3.9c0.8,1.1,1.8,1.9,2.9,2.6l-1.2,0.4
		c-0.2,0.1-0.4,0.3-0.5,0.5c0,0.2,0,0.5,0.2,0.7l1.4,1.2l-1.9,1.4c-0.2,0.2-0.3,0.4-0.3,0.6c0,0.2,0.2,0.5,0.4,0.5l1.7,0.6l-1.3,2
		c-0.1,0.2-0.1,0.4,0,0.6c0.1,0.2,0.3,0.3,0.6,0.3h0.1c-0.6,1-1.3,1.9-1.9,2.8c-3.4,4.8-6.8,9.8-11.3,13.6c-0.6,0.5-1.3,1-2,1.5
		C61.3,57.7,62.1,56.6,62.7,55.4z M53.6,61.4C53.4,61.6,53.4,61.4,53.6,61.4L53.6,61.4z M11.9,96.1C12,95.9,12,96,11.9,96.1
		L11.9,96.1z M11,104.2C11,104.2,11,104.2,11,104.2C11.1,104.2,11,104.2,11,104.2C11,104.2,11,104.2,11,104.2z M11,104.2
		C11,104.2,11,104.2,11,104.2C11,104.2,11.1,104.2,11,104.2C11.1,104.2,11.1,104.2,11,104.2C11.1,104.2,11.1,104.2,11,104.2z
		 M11.1,104.5C11.1,104.5,11.1,104.4,11.1,104.5C11.2,104.4,11.2,104.4,11.1,104.5C11.1,104.4,11.1,104.5,11.1,104.5z M11.2,104.3
		C11.2,104.3,11.2,104.3,11.2,104.3C11.2,104.3,11.2,104.3,11.2,104.3C11.2,104.3,11.2,104.3,11.2,104.3z M11.2,104.3
		C11.2,104.3,11.2,104.3,11.2,104.3C11.2,104.3,11.2,104.3,11.2,104.3C11.2,104.3,11.2,104.3,11.2,104.3z M11.2,104.3
		C11.2,104.1,11.3,103.9,11.2,104.3C11.2,104.3,11.2,104.3,11.2,104.3z M17.7,104c-1.9,0.3-3.8,0.6-5.8,0.5c-0.3,0-0.1,0-0.4-0.1
		c-0.1,0-0.2-0.1-0.4-0.1c0,0,0,0,0,0c0.1-0.1,0.1-0.3,0.1-0.4c0,0,0.2-0.4,0.3-0.5c0.5-0.9,1.1-1.7,1.7-2.5
		c0.5-0.7,1.1-1.5,1.6-2.2c0.8-1.3,1-2.8,1.4-4.2c1.2-4.9,2.3-9.8,4.4-14.4c1.7-3.7,4.5-7.6,7.8-10c1.5-1.1,3.2-1.7,4.9-2.3
		c0.2-0.1,0.4-0.1,0.6-0.2c-1,1-1.8,2.1-2.4,3.4c-1.5,3.2-1.3,6.7-0.9,10.1c0.1,0.7,0.2,1.4,0.3,2.2c0.1,0.7,0.2,1.5,0.3,1.9
		c0.1,0.6,0.1,1.2,0.1,1.8c0,0.3,0,0.6,0,0.9c0,0,0,0.2,0,0.3c0,0.1,0,0.2-0.1,0.4c-0.2,0.7-0.3,0.8-0.7,1.6
		c-0.5,0.9-1.1,1.7-1.7,2.5c-1.4,1.8-3,3.4-4.6,5c-1.6,1.6-3.3,3.1-4.9,4.7C19,102.8,18.3,103.4,17.7,104z M43.2,117.5
		c-2.6,1-5.4,2.2-6.9,3.7c-2.2,2.2-3.7,4.3-4.6,5.7c-0.4-0.3-0.8-0.7-1.1-1c-0.7-0.7-1.4-1.3-2.1-2c0,0,0-0.1,0-0.1c0,0,0,0,0,0
		c0-0.1,0.1-0.2,0.1-0.2c0.2-0.5,0.5-0.9,0.7-1.4c0.8-1.5,1.8-2.8,2.9-4.1c2.1-2.4,4.9-3.8,8-4.3C41.1,115,42.2,116.3,43.2,117.5z
		 M66.7,107c-0.1,1.1-0.1,2.3,0,3.5c-1.6-0.4-3.3-0.8-4.8-1.4c-3.2-1.3-5.1-4.5-7.1-7.3c2.1-0.4,4.3-0.5,6.5-0.4
		c2.1,0.1,4.3,0.3,6.4,0.8C67,103.7,66.8,105.5,66.7,107z M70.6,111.1c0-0.2-0.1-0.3-0.1-0.4c0-0.1-0.1-0.6-0.1-0.9
		c-0.1-0.9,0-1.9,0-2.8c0.1-1.1,0.2-2.4,0.7-3.5c0.9,0.4,1.7,0.9,2.4,1.5c-0.3,1.8-0.4,4.4,0,6.5C72.6,111.3,71.6,111.2,70.6,111.1z
		 M111.4,124c-2.7,2.5-4.5,7-5.3,9.4c-4.5-4.3-8.9-8.8-13.2-13.3c-2.9-3-5.8-5.9-8.6-9c-0.1-0.1-0.1-0.1-0.2-0.2c0,0,0,0,0,0
		c-1.4-2-2.8-4.1-4.5-5.8c-2.2-2.3-5.2-4.5-8.2-5.7c-3.2-1.3-6.7-1.7-10.1-1.9c-3.4-0.2-6.9,0.1-10.2,1.3c0,0,0,0,0,0
		c0,0-0.1,0-0.1,0c-1.5,0.3-3,1-4.3,1.7c-3.3,1.7-7.8,4.7-7.9,8.8c0,0.3,0,0.6,0,0.8c-3.7,0.8-7,2.5-9.5,5.5c-1.3,1.6-2.5,3.2-3.5,5
		c-0.1,0.1-0.1,0.2-0.2,0.3c-1.5-1.5-2.9-3.1-4.1-4.7c-0.4-0.5-0.8-1.1-1.2-1.7c-0.1-0.1-0.3-0.6-0.3-0.5c-0.2-0.7-0.4-1.4-0.4-2.1
		c-0.2-1.7,0-3.5,0.5-5.1c0.1-0.1,0.2-0.2,0.3-0.3c0.5-0.5,1-1,1.5-1.5c1.4-1.3,2.8-2.7,4.2-4c3-2.9,6.1-6,8-9.7
		c2.8-5.4-0.9-11.4,0.2-16.8c0.9-4.4,4.5-7,8.5-8.6c0.2-0.1,0.4-0.2,0.6-0.3c1.5-0.1,3.1-0.2,4.6-0.3c1.5-0.1,3-0.2,4.5-0.3
		c0.8-0.1,1.7-0.1,2.5-0.4c0.1,0,0.3,0,0.4,0c6-1,10.8-5.2,14.6-9.7c3-3.5,5.5-7.4,8.2-11.1l1.3-0.5l0.2,1.2l-3.4,12
		c-0.1,0.2,0,0.5,0.2,0.7c0.2,0.2,0.4,0.2,0.7,0.2l2.5-0.7l1.6,1.8c0.1,0.1,0.3,0.2,0.5,0.2c0.1,0,0.1,0,0.2,0
		c0.2-0.1,0.4-0.2,0.5-0.5l2.9-10.9l2.9,11c0.1,0.2,0.3,0.4,0.5,0.5c0.1,0,0.1,0,0.2,0c0.2,0,0.4-0.1,0.5-0.2l1.6-1.8l2.5,0.7
		c0.2,0.1,0.4,0,0.6-0.1c0.6,0.4,1.2,0.8,1.9,1.2c1.3,0.8,2.7,1.4,4,2.1c-1.2,3.3-0.2,7.3,1,10.4c1.6,4.1,3.9,8,6.7,11.4
		c1.8,2.2,4,4.2,6.1,6.2c2.8,2.7,5.7,5.4,8.6,8.1c-3.2,1.1-6,3.1-8.1,5.8c-0.9,1.2-1.8,2.4-2.4,3.8c-2.9-3-5.8-6.1-8.7-9.1
		c-1-1-1.9-2-2.9-3c-1.7-1.7-4.3,0.9-2.7,2.7c6.9,7.2,13.9,14.5,20.8,21.7c0.3,0.3,0.7,0.7,1,1C115.9,120.5,113,122.7,111.4,124z
		 M129.9,109.4c-3.3,2.6-5.5,6.4-6.7,9c-2.8-2.9-5.6-5.9-8.4-8.8c0-0.1,0-0.1,0-0.2c0,0,0-0.1,0-0.1c0.1-0.3,0.2-0.6,0.4-0.9
		c0.6-1.3,1.4-2.5,2.3-3.6c2.2-2.5,5-4.2,8.3-4.7c2.7,2.4,5.5,4.8,8.1,7.3C132.6,107.7,131.4,108.2,129.9,109.4z"/>
</g>
</svg>
