<?xml version="1.0" encoding="utf-8"?>
<!-- Generator: Adobe Illustrator 19.1.0, SVG Export Plug-In . SVG Version: 6.00 Build 0)  -->
<svg version="1.1" id="Layer_1" xmlns="http://www.w3.org/2000/svg" xmlns:xlink="http://www.w3.org/1999/xlink" x="0px" y="0px"
	 viewBox="0 0 150 150" style="enable-background:new 0 0 150 150;" xml:space="preserve">
<metadata><?xpacket begin="﻿" id="W5M0MpCehiHzreSzNTczkc9d"?>
<x:xmpmeta xmlns:x="adobe:ns:meta/" x:xmptk="Adobe XMP Core 5.6-c067 79.157747, 2015/03/30-23:40:42        ">
   <rdf:RDF xmlns:rdf="http://www.w3.org/1999/02/22-rdf-syntax-ns#">
      <rdf:Description rdf:about=""/>
   </rdf:RDF>
</x:xmpmeta>
                                                                                                    
                                                                                                    
                                                                                                    
                                                                                                    
                                                                                                    
                                                                                                    
                                                                                                    
                                                                                                    
                                                                                                    
                                                                                                    
                                                                                                    
                                                                                                    
                                                                                                    
                                                                                                    
                                                                                                    
                                                                                                    
                                                                                                    
                                                                                                    
                                                                                                    
                                                                                                    
                           
<?xpacket end="w"?></metadata>
<style type="text/css">
	.st0{fill:#FFFFFF;}
</style>
<g>
	<path class="st0" d="M62.6,40.5C62.6,40.5,62.6,40.5,62.6,40.5C62.6,40.5,62.6,40.5,62.6,40.5z"/>
	<path class="st0" d="M109.2,41.5c1.3-0.1,2.4-1,2.8-2c0.5-1.6-0.8-2.8-0.9-2.9c-0.2-0.2-0.9-0.8-1.8-0.8c-1.5-0.1-3.3,1.2-3.3,2.9
		C105.9,40.1,107.5,41.5,109.2,41.5z"/>
	<path class="st0" d="M142.3,111.9c-0.8-2.1-2.5-3.9-4-5.6c-2.4-2.6-5-4.8-7.6-7.2c-5.9-5.3-11.8-10.7-17.5-16.3
		c-0.9-0.9-1.9-1.9-2.8-2.8c-0.5-0.7-1.1-1.3-1.6-2c-1.1-1.4-2.1-2.9-3.1-4.4c-0.1-0.1-0.1-0.2-0.2-0.3c-2-3.2-3.7-6.8-3.8-10.4
		c0-0.9,0.1-1.7,0.4-2.5c0.4-0.8,0.6-1.1,1.4-1.5c1.8-0.8,4.1-0.8,6-0.7c0.9,0,1.7,0.1,2.6,0.3c0.3,0.1,0.7,0.2,1,0.3
		c0,0,0.6,0.3,0.7,0.3c2,0.9,4.1,1.8,6.2,2.5c4.4,1.5,9.6,2.7,13.5-0.5c3.9-3.1,6.5-8.8,5.9-13.8c-0.5-3.8-4-6.6-6.7-9
		c-1.4-1.2-2.8-2.4-4.3-3.6c-0.5-0.4-1-0.8-1.6-1.2c0,0,0,0,0-0.1c-3.4-6.7-7.4-14.4-15.6-16.1c-0.5-0.1-1-0.2-1.4-0.3
		c-0.3-3-1-6.2-3.3-8.1c-1.9-1.6-4.3-1.6-6.6-1.1c-1.8,0.4-3.4,1.2-5.2,1.7c0.1,0,0,0,0,0c-0.8-0.7-2.3-1.2-3.3-1.4
		c-1.8-0.3-3.2,0.5-4.2,1.9c-1.2,1.7-1.7,3.7-2.7,5.4c-0.7,1.3-1.8,1.7-3.1,1.9c-3.1-1.5-7.1-1.9-9.8,0.7c-2,2-2.8,4.8-2.2,7.5
		c-1.7,1.5-3.3,3.1-4.8,4.8c-1.8,2.1-4,4.6-4.6,7.5c-0.3,1.4-0.3,3.4,1.4,3.9c-1.3,1.6-2.9,3-3.9,4.9c-0.7,1.4-1.2,3.5,0.2,4.6
		c0.1,0.1,0.2,0.2,0.3,0.2c-0.4,0.8-0.9,1.5-1.4,2.3c-1.2,1.9-2.6,3.7-4.1,5.4c-0.1,0.1-0.5,0.4-0.7,0.6c-0.2,0-0.5,0.1-0.7,0.1
		c-0.5,0.1-0.3,0-0.9,0.1c-2.2,0.2-4.3,0.4-6.5,0.5c-3.7,0.2-7.8,0.1-11.3,1.3c-5.2,1.8-9.9,4.5-14.1,8.1c-1.7,1.5-4,3.5-4.2,6
		c-0.1,1.2,0.4,2.7,1.8,2.9c0,0,0.1,0,0.1,0c0,0-0.1,0.1-0.1,0.1c-1.6,2-3.3,3.9-4.6,6c-1.4,2.2-2.5,4.6-2.7,7.3
		c-0.1,1.1,0,2.4,1.1,3c0.7,0.4,1.6,0.4,2.4,0.1c-1.3,2.4-2.6,5-3,7.7c-0.2,1.4-0.3,3,0.8,4c1.1,1.1,2.7,1,4.1,0.5
		c-0.1,1.4-0.1,2.9,0.2,4.3c0.4,2.5,1.7,4.2,3.3,6.1c3.2,3.9,6.8,7.7,10.7,10.9c5.5,4.5,13.7,1.6,17.4-3.8c1.8-2.6,2.5-5.7,0.9-8.5
		c-1.4-2.4-3.5-4.3-5-6.7c-0.3-0.5-0.6-1-0.7-1.5c-0.1-0.4-0.1-0.5,0.1-1c0.5-1.2,1.6-2.3,2.7-3c1.6-1.2,3.6-2.4,5.6-3.1
		c0.3,0.4,0.5,0.7,0.8,1.1c0.9,1.3,1.9,2.5,2.8,3.8c1.7,2.2,3.4,3.8,6,4.9c2.6,1.1,5.5,1.7,8.3,2.1c2.7,0.4,5.4,0.7,8.1,0.7
		c1.7,0,3.7-0.1,5.5-0.6c5.8,6.4,12,12.5,18.1,18.5c2.1,2.1,4.2,4.4,6.6,6.2c5.4,4,12.7,2.1,17.2-2.4c1.4-1.4,2.6-3.1,3-5.1
		c0.3-1.5,0.2-3.1-0.1-4.6c0.6,0.2,1.2,0.4,1.8,0.5c5.4,0.8,11.6-2,14.1-6.9C143,117,143.3,114.4,142.3,111.9z M111.3,54.7
		c-3.1-0.4-7.6-0.5-10.4,1.6c-3.9-2.1-8.2-3.9-10.7-7.7c-0.9-1.4-1.5-2.8-1.9-4.4c0.3,0.1,0.6,0.3,0.8,0.4
		c5.3,2.4,10.9,4.2,16.5,5.8c1.9,0.6,3.8,1.1,5.7,1.5c0.1,1,0.3,1.9,0.6,2.8C111.6,54.7,111.5,54.7,111.3,54.7z M128,48.5
		c0.2-0.1,0.4-0.1,0.5-0.1c0.4,0,0.8,0.1,1.1,0.3c0.5,0.3,0.7,0.6,0.8,0.8c0,0,0.5,0.8-0.1,1.3c-0.3,0.3-1.1,0.4-1.8,0.1
		c-0.5-0.2-1-0.7-1.2-1.2c-0.1-0.3-0.1-0.5,0-0.7C127.6,48.7,127.8,48.6,128,48.5z M127.4,38.7c0.3,0.2,0.5,0.4,0.8,0.7
		c-1.4,0-3.1,0.4-5.2,1.4c-5.4,2.8-5.5,8.2-5.5,8.8c0,1.1,0.1,4.7,1.8,7.8c-1-0.4-1.9-0.8-2.9-1.2c-2.2-3.9-2.1-9.2,0.1-13.1
		c1.2-2,3.1-3.5,5.2-4.5c1.5-0.7,2.8-0.8,4.4-0.9C126.6,38.1,127,38.4,127.4,38.7z M116.9,30.5C116.9,30.5,117,30.5,116.9,30.5
		C116.9,30.5,116.9,30.5,116.9,30.5z M106.5,21c1.1,0,2.2-0.1,3.3,0c-0.2,0,0.5,0.2,0.7,0.3c0.5,0.2,1.1,0.5,1.5,0.9
		c0.8,0.6,1.4,1.3,1.8,2.1c0.4,0.7,0.5,1.3,0.8,2c0.4,1,0.9,2,1.5,3c0,0,0,0.1,0.1,0.1c-0.3,0-0.7,0.1-1,0c-1.2-0.1-3.6-0.3-4.4-1.5
		c-0.3-0.5-0.3-1.2-0.6-1.8c-0.4-0.7-1-1.3-1.6-1.7c-1.4-1-3.2-1.5-4.9-2.1c-0.8-0.3-1.5-0.6-2-1.1C103.4,21.1,104.9,21.1,106.5,21z
		 M91.6,27.5c1.9-2.5,4.3-4.3,7-5.4c1.6,2.6,5.2,3.1,7.8,4.4c0.5,0.3,1.1,0.6,1.4,1.2c0.4,0.8,0.4,1.6,1.1,2.4
		c1.5,1.6,3.9,2.1,5.9,2.3c1.5,0.2,4.6,0.6,5.1-1.3c0.2-0.9-0.3-1.9-0.7-2.6c-0.5-0.9-1.1-1.8-1.5-2.8c0.1,0.1,0.1,0.2,0.2,0.2
		c2.2,2.6,3.7,5.6,5.2,8.6c0,0,0,0,0,0c-1,0.2-2,0.5-3,0.9c-2.7,1.3-5.2,3.2-6.7,5.9c-1.2,2.1-1.9,4.4-2.2,6.9
		c-5.1-1.2-10.1-2.9-15-4.7c-2.8-1-5.6-2.1-8.3-3.6c-0.1,0-0.2-0.1-0.3-0.1c0-0.4,0-0.8,0-1.2C87.9,34.6,89.2,30.6,91.6,27.5z
		 M73.8,21.5c1.6-2.3,4.3-1.6,6.5-0.5c2.8,1.4,5.4,3,8.1,4.6c-1.6,2.2-2.8,4.6-3.5,7.3c-3.1-1.6-6.4-3-9.3-4.9
		C73.5,26.7,72.2,23.7,73.8,21.5z M74.3,50.6c1.2-3,2.2-6.2,3.4-9.2c0.8-1.9,1.7-3.9,3.1-5.5c0.3,2.5,1.5,4.3,3.2,5.7
		c0.1,0.8,0.2,1.7,0.4,2.5c0.5,2.5,1.5,4.9,3,7c1.9,2.6,4.5,4.5,7.3,6.2c1.3,0.8,2.7,1.4,4,2.1c-0.5,1.4-0.7,2.9-0.6,4.4
		c-0.2-0.1-0.5-0.2-0.7-0.3c-3.8-1.6-7.8-2.9-11.7-4.2c-4-1.3-8-2.6-12-3.5c-0.5-0.1-1.1-0.3-1.7-0.4C72.9,53.8,73.6,52.2,74.3,50.6
		z M96,68.6c-7.3-3.1-15-5.5-22.7-7.5c-1.4-0.4-0.8-2.5,0.6-2.2c7.7,2,15.4,4.4,22.7,7.5C97.9,67,97.3,69.1,96,68.6z M62.6,40.6
		C62.6,40.6,62.6,40.6,62.6,40.6C62.6,40.6,62.6,40.6,62.6,40.6C62.6,40.6,62.6,40.6,62.6,40.6C62.6,40.6,62.6,40.6,62.6,40.6
		C62.5,40.3,62.7,40.5,62.6,40.6z M64.4,63.1c1.1,1.3,2.3,2.6,3.5,3.7c6.6,6.4,14.1,11.5,22.1,16c2.7,1.5,5.4,2.9,8.3,3.7
		c3.3,0.9,7.9,2.5,10.6-0.4c1-1.1,2.6,0.5,1.6,1.6c-3.3,3.6-8.5,2.1-12.6,1c-3.2-0.9-6.1-2.3-8.9-3.9c-4.8-2.7-9.5-5.7-13.9-9
		c-4.4-3.3-8.8-6.9-12.3-11.2C61.9,63.6,63.4,62,64.4,63.1z M62.4,38.2C62.2,38.4,62.4,38.2,62.4,38.2L62.4,38.2z M59,49.7
		C59,49.7,59,49.7,59,49.7C59,49.7,59,49.7,59,49.7z M61.3,107.8c-0.3-0.1-0.6-0.2-0.8-0.3c-3.2-1.3-5.1-4.5-7.1-7.3
		c2.1-0.4,4.3-0.5,6.5-0.4c0.8,0,1.5,0.1,2.3,0.2C61.2,102.4,61,105.2,61.3,107.8z M68.5,109.5c-1.1-0.1-2.1-0.3-3.2-0.6
		c0,0,0-0.1,0-0.1c-0.5-2.1-0.4-4.3,0.1-6.4c0.2-0.6,0.3-1.2,0.6-1.9c0.9,0.2,1.9,0.5,2.7,0.9C68,103.2,67.7,106.9,68.5,109.5z
		 M111,122.2c-3.1,2.8-5,8.3-5.5,10.4c-1-0.9-2-1.9-3-2.9c0.6-3.6,2.4-7.7,5-10.2c2-2,4.7-3.5,7.5-4.3c0.8,0.8,1.6,1.6,2.4,2.4
		c0.2,0.2,0.4,0.4,0.6,0.6C114.8,119.2,112.3,121,111,122.2z M128.5,107.3c-3.5,2.7-5.7,6.8-6.8,9.3c-5.8-5.9-11.5-11.7-17.3-17.6
		c-0.9-0.9-1.7-1.7-2.6-2.6c-1.7-1.7-4.3,0.9-2.7,2.7c4.3,4.4,8.6,8.7,12.9,13.1c-2.7,1-5.3,2.6-7.2,4.6c-2.2,2.2-3.7,5.1-4.8,7.9
		c-0.2,0.6-0.5,1.3-0.7,1.9c-2.7-2.7-5.3-5.4-7.9-8c-2.9-3-5.8-5.9-8.6-9c-0.1-0.1-0.1-0.1-0.2-0.2c0,0,0,0,0,0
		c-1.4-2-2.8-4.1-4.5-5.8c-2.2-2.3-5.2-4.5-8.2-5.7c-3.2-1.3-6.7-1.7-10.1-1.9c-3.4-0.2-6.9,0.1-10.2,1.3c0,0,0,0,0,0
		c0,0-0.1,0-0.1,0c-1.5,0.3-3,1-4.3,1.7c-3.3,1.7-7.8,4.7-7.9,8.8c-0.1,2.1,1.1,4,2.5,5.7c-2.5,0.7-5.1,2.3-6.5,3.8
		c-2.2,2.2-3.9,4.8-4.8,6.4c-3-2.8-5.9-5.8-8.4-9c-0.4-0.5-0.8-1.1-1.2-1.7c-0.1-0.1-0.3-0.6-0.3-0.5c-0.2-0.7-0.4-1.4-0.4-2.1
		c-0.2-1.9,0.1-4,0.8-5.8c0.1-0.3,0.1-0.5,0.1-0.8c0.3-0.3,0.6-0.6,0.9-0.8c1.4-1.3,2.8-2.7,4.2-4c2.9-2.8,6-5.9,7.9-9.5
		c2.7-5.2-0.9-11.1,0.1-16.6c0.8-4.1,3.9-6.6,7.4-8.3c4.1-0.3,7.9-0.5,12-1.1c1.1-0.2,4.2-0.8,5.3-1.1c0.1,0.7,0.3,1.3,0.6,1.9
		c1.1,2,2.8,3.7,4.4,5.3c1.5,1.4,3.1,2.6,4.6,4c1.8,1.7,3.7,3.4,5.7,4.9c5.3,4.1,11,7.7,17,10.6c5.5,2.6,11.2,4.7,17.4,4.7
		c2.2,0,5.3-0.1,6.6-2.2c0.5-0.9,0.8-1.9,0.9-2.9c2.5,2.4,5,4.7,7.5,7.1c3.5,3.2,7.1,6.2,10.6,9.5
		C130.9,105.8,129.8,106.3,128.5,107.3z"/>
</g>
</svg>
