<?xml version="1.0" encoding="utf-8"?>
<!-- Generator: Adobe Illustrator 19.1.0, SVG Export Plug-In . SVG Version: 6.00 Build 0)  -->
<svg version="1.1" id="Layer_1" xmlns="http://www.w3.org/2000/svg" xmlns:xlink="http://www.w3.org/1999/xlink" x="0px" y="0px"
	 viewBox="0 0 150 150" style="enable-background:new 0 0 150 150;" xml:space="preserve">
<metadata><?xpacket begin="﻿" id="W5M0MpCehiHzreSzNTczkc9d"?>
<x:xmpmeta xmlns:x="adobe:ns:meta/" x:xmptk="Adobe XMP Core 5.6-c067 79.157747, 2015/03/30-23:40:42        ">
   <rdf:RDF xmlns:rdf="http://www.w3.org/1999/02/22-rdf-syntax-ns#">
      <rdf:Description rdf:about=""/>
   </rdf:RDF>
</x:xmpmeta>
                                                                                                    
                                                                                                    
                                                                                                    
                                                                                                    
                                                                                                    
                                                                                                    
                                                                                                    
                                                                                                    
                                                                                                    
                                                                                                    
                                                                                                    
                                                                                                    
                                                                                                    
                                                                                                    
                                                                                                    
                                                                                                    
                                                                                                    
                                                                                                    
                                                                                                    
                                                                                                    
                           
<?xpacket end="w"?></metadata>
<style type="text/css">
	.st0{fill:#FFFFFF;}
</style>
<g>
	<path class="st0" d="M140.3,111.7c-0.8-2.1-2.5-3.9-4-5.6c-2.4-2.6-5-4.8-7.6-7.2c-5.9-5.3-11.8-10.7-17.5-16.3
		c-0.9-0.9-1.9-1.9-2.8-2.8c-0.5-0.7-1.1-1.3-1.6-2c-1.1-1.4-2.1-2.9-3.1-4.4c-0.1-0.1-0.1-0.2-0.2-0.3c-2-3.2-3.7-6.8-3.8-10.4
		c0-0.9,0.1-1.7,0.4-2.5c0.4-0.8,0.6-1.1,1.4-1.5c1.8-0.8,4.1-0.8,6-0.7c0.9,0,1.7,0.1,2.6,0.3c0.3,0.1,0.7,0.2,1,0.3
		c0,0,0.6,0.3,0.7,0.3c2,0.9,4.1,1.8,6.2,2.5c4.4,1.5,9.6,2.7,13.5-0.5c3.9-3.1,6.5-8.8,5.9-13.8c-0.5-3.8-4-6.6-6.7-9
		c-1.4-1.2-2.8-2.4-4.3-3.6c-0.5-0.4-1-0.8-1.6-1.2c0,0,0,0,0-0.1c-3.4-6.7-7.4-14.4-15.6-16.1c-0.2,0-0.5-0.1-0.7-0.1
		c-0.3-3.2-1-6.7-3.5-8.8c-2.1-1.8-4.8-1.9-7.3-1.3c-1.6,0.4-3.2,1.1-4.8,1.6c-0.4-0.3-1.3-0.6-1.6-0.7c-0.6-0.3-1.1-0.5-1.8-0.6
		c-2.1-0.4-3.9,0.5-5,2.3c-1.2,1.7-1.7,3.7-2.7,5.4c-0.2,0.4-0.4,0.6-0.5,0.7c-0.3,0.3-0.1,0.2-0.5,0.4c-0.2,0.1-0.6,0.2-1,0.3
		c-0.5,0.1-1,0.1-1.5,0.1c-3.1-1.3-6.8-1.6-9.4,0.9c-2.3,2.3-3,5.7-1.8,8.7c-1.3,1.1-2.2,1.9-3.5,3.3c-2.1,2.2-4.3,4.7-5.4,7.5
		c-0.4,1.2-0.8,2.8,0,3.9c0.3,0.4,0.7,0.5,1.2,0.6c-0.3,0.4-0.7,0.8-1,1.1c-1,1.1-2,2.2-2.8,3.5c-0.8,1.3-1.4,3.3-0.3,4.6
		c0.2,0.2,0.4,0.4,0.7,0.6c-0.4,0.8-0.9,1.5-1.4,2.3c-1.2,1.9-2.6,3.7-4.1,5.4c-0.1,0.1-0.5,0.4-0.7,0.6c-0.2,0-0.5,0.1-0.7,0.1
		c-0.5,0.1-0.3,0-0.9,0.1c-2.2,0.2-4.3,0.4-6.5,0.5c-3.7,0.2-7.8,0.1-11.3,1.3c-5.2,1.8-9.9,4.5-14.1,8.1c-1.7,1.5-4,3.5-4.2,6
		c-0.1,1.2,0.4,2.7,1.8,2.9c0,0,0.1,0,0.1,0c0,0-0.1,0.1-0.1,0.1c-1.6,2-3.3,3.9-4.6,6c-1.4,2.2-2.5,4.6-2.7,7.3
		c-0.1,1.1,0,2.4,1.1,3c0.7,0.4,1.6,0.4,2.4,0.1c-1.3,2.4-2.6,5-3,7.7c-0.2,1.4-0.3,3,0.8,4c1.1,1.1,2.7,1,4.1,0.5
		c-0.1,1.4-0.1,2.9,0.2,4.3c0.4,2.5,1.7,4.2,3.3,6.1c3.2,3.9,6.8,7.7,10.7,10.9c5.5,4.5,13.7,1.6,17.4-3.8c1.8-2.6,2.5-5.7,0.9-8.5
		c-1.4-2.4-3.5-4.3-5-6.7c-0.3-0.5-0.6-1-0.7-1.5c-0.1-0.4-0.1-0.5,0.1-1c0.5-1.2,1.6-2.3,2.7-3c1.6-1.2,3.6-2.4,5.6-3.1
		c0.3,0.4,0.5,0.7,0.8,1.1c0.9,1.3,1.9,2.5,2.8,3.8c1.7,2.2,3.4,3.8,6,4.9c2.6,1.1,5.5,1.7,8.3,2.1c2.7,0.4,5.4,0.7,8.1,0.7
		c1.7,0,3.7-0.1,5.5-0.6c5.8,6.4,12,12.5,18.1,18.5c2.1,2.1,4.2,4.4,6.6,6.2c5.4,4,12.7,2.1,17.2-2.4c1.4-1.4,2.6-3.1,3-5.1
		c0.3-1.5,0.2-3.1-0.1-4.6c0.6,0.2,1.2,0.4,1.8,0.5c5.4,0.8,11.6-2,14.1-6.9C141,116.9,141.3,114.3,140.3,111.7z M106.6,86.6
		c1.2-0.8,2.4,1.2,1.1,1.9c-3.3,2.1-7.2,1.6-10.8,0.8c-3.4-0.8-6.7-2.3-9.8-3.9c-5-2.6-9.7-5.7-14.3-9c-3.4-2.5-6.6-5.2-9.7-8.1
		c-0.9-0.8-1.8-1.7-2.7-2.6c-0.3-0.3-0.5-0.5-0.8-0.8c0,0-0.1-0.1-0.1-0.1c-0.2-0.1-0.2-0.1,0,0c0.1,0,0.2,0.1,0.3,0.1
		c0,0,0,0,0.1,0c-0.8-0.2-1.3-1.2-0.6-1.9c0.8-0.8,1.6,0,2.2,0.6c0.8,0.8,1.7,1.7,2.5,2.5c6.9,6.6,14.8,12.3,23.2,16.9
		c3.2,1.7,6.5,3.3,10.1,4.2C100.4,87.8,103.9,88.4,106.6,86.6z M82.4,44c0.5,2.5,1.5,4.9,3,7c1.9,2.6,4.5,4.5,7.3,6.2
		c1.3,0.8,2.7,1.4,4,2.1c-0.5,1.4-0.7,2.9-0.6,4.4c-0.2-0.1-0.5-0.2-0.7-0.3c-3.8-1.6-7.8-2.9-11.7-4.2c-4-1.3-8-2.6-12-3.5
		c-0.3-0.1-0.6-0.1-0.9-0.2c0.9-1.5,1.6-3.1,2.3-4.7c1.2-3,2.2-6.2,3.4-9.2c0.9-2.2,2-4.6,3.8-6c0.4,0.2,0.7,0.4,1.1,0.6
		c0,0,0,0,0,0c0,0,0,0,0,0c0.2,0.1,0.5,0.2,0.7,0.2C81.8,38.8,81.9,41.4,82.4,44z M71.4,58.8c8.3,2.4,16.6,5.1,24.6,8.5
		c1.3,0.6,0.7,2.7-0.6,2.2c-8-3.3-16.3-6.1-24.6-8.5C69.4,60.6,70,58.4,71.4,58.8z M130.3,42.9c1.1,1,2.3,2.2,3,3.2
		c0.1,0.2,0.2,0.4,0.3,0.6c-0.1-0.1,0.2,0.6,0.2,0.8c0.2,1.1,0.1,2.3-0.2,3.4c-0.5,2.2-1.6,4.4-3.1,6.1c-1.3,1.5-2.7,2.5-4.7,2.5
		c-2.2,0-4.4-0.6-6.4-1.3c-0.2-0.1-0.5-0.2-0.7-0.2c0-0.1,0-0.1,0-0.2c-1.4-4-1.3-9.1,1.7-12.4c1.5-1.6,3.6-2.5,5.8-2.7
		C127.8,42.5,129,42.7,130.3,42.9z M111.5,22c1.7,0.9,3.1,2.2,4.4,3.7c2.2,2.6,3.7,5.6,5.2,8.6c0.5,0.9,0.9,1.7,1.7,2.3
		c0.1,0.1,0.3,0.2,0.4,0.3c0.1,0.1,0.2,0.1,0.3,0.2c0,0,0,0,0,0c0,0,0.1,0,0.1,0.1c0.6,0.5,1.2,1,1.8,1.5c0.1,0.1,0.3,0.2,0.4,0.3
		c-0.3,0-0.5,0.1-0.8,0.1c-2.8,0.4-5.6,1.7-7.5,3.9c-3.1,3.6-4,8.6-3.1,13.2c-1.7-0.7-3.3-1.3-5.1-1.5c-3.1-0.4-7.6-0.5-10.4,1.6
		c-3.9-2.1-8.2-3.9-10.7-7.7c-2-3-2.6-6.6-2.5-10.1c0.2-3.9,1.5-7.9,3.9-11c3.5-4.6,8.9-7,14.7-6.9C106.7,20.6,109.3,20.9,111.5,22z
		 M83.4,19.1c1.3-0.9,1.9-2.3,2.5-3.7c0.6-1.3,1.2-3.6,2.4-4.4c0.1-0.1,0.6-0.1,1.1,0.1c0.9,0.3,1.7,1,2.6,1.3
		c1.5,0.4,3.3-0.5,4.7-1c0.9-0.3,1.9-0.6,2.8-0.8c0,0,0.1,0,0.1,0c0.1,0,0.2,0,0.4,0c0.2,0,0.5,0,0.7,0c0.1,0,0.5,0,0.5,0
		c0.2,0,0.4,0.1,0.6,0.1c0.3,0.1,0.7,0.3,1,0.6c0.5,0.5,0.6,0.6,1,1.3c0.7,1.2,1,2.7,1.1,4.2c-4.9-0.2-9.9,0.9-13.9,4
		c-0.7,0.6-1.4,1.2-2.1,1.8c-0.1-0.1-0.2-0.2-0.4-0.3C86.8,21.2,85.1,20.1,83.4,19.1C83.4,19.2,83.4,19.1,83.4,19.1z M71.3,20.9
		c1.6-2.3,4.3-1.6,6.5-0.5c3,1.5,5.8,3.2,8.7,5c-1.6,2.2-2.8,4.6-3.6,7.2c-3.3-1.7-6.8-3.2-9.8-5.2C71,26.1,69.7,23,71.3,20.9z
		 M59.1,50.8C59.1,50.8,59.1,50.8,59.1,50.8C59.1,50.8,59.1,50.8,59.1,50.8C59.1,50.8,59.1,50.8,59.1,50.8z M57,49.6
		C57,49.6,57,49.6,57,49.6C57,49.6,57,49.6,57,49.6z M57.6,56.4c1.2-1.8,2.7-3.8,3.1-6c0.2-1.1,0-2.4-1-3c0,0,0,0,0,0
		c0.7-0.9,1.4-1.7,2.2-2.5c1.3-1.5,3.5-3.9,1.8-5.9c-0.4-0.5-1-0.8-1.6-0.9c0.1-0.1,0.1-0.2,0.2-0.4c1.1-2.1,2.8-4,4.5-5.7
		c1.3-1.3,1.6-1.7,2.7-2.6c1.5,1.5,3.5,2.5,5.5,3.5c0.6,0.3,1.1,0.6,1.7,0.9c-1,1.1-1.9,2.5-2.5,3.8c-1.4,2.9-2.4,6-3.5,9
		c-1,2.8-2.1,5.7-3.8,8.1c-0.4,0.5-0.7,0.9-1.2,1.4c-0.2,0.2-0.3,0.3-0.5,0.5c-0.5,0.3-1.1,0.5-1.6,0.8c-0.2,0.1-0.4,0.1-0.6,0.2
		c-2.4,0.8-4.9,1.4-7.4,1.9C56.3,58.3,57,57.3,57.6,56.4z M50.2,59.7C50.4,59.6,50.6,59.6,50.2,59.7L50.2,59.7z M50,59.8
		C50,59.8,50,59.8,50,59.8C50,59.8,50,59.8,50,59.8C50,59.8,50,59.8,50,59.8z M16.3,75.9c0.1,0.3-0.2,0.3,0,0.1
		C16.1,76.2,16.2,76,16.3,75.9z M16.1,76.4C16.1,76.4,16.1,76.4,16.1,76.4C16.1,76.4,16.1,76.4,16.1,76.4
		C16.1,76.3,16.1,76.3,16.1,76.4z M10.7,104.1C10.7,104.1,10.7,104.1,10.7,104.1C10.7,104.1,10.7,104.1,10.7,104.1
		C10.7,104.1,10.7,104.1,10.7,104.1c-0.2,0.1-0.3,0.1-0.2,0C10.6,104.1,10.6,104.1,10.7,104.1C10.7,104.1,10.7,104.1,10.7,104.1z
		 M10.7,92.9C10.9,93.1,10.7,93.2,10.7,92.9L10.7,92.9z M14.1,102.5c-0.9,0.5-1.9,1.1-2.7,1.4c-0.1,0-0.2,0.1-0.3,0.1
		c0,0,0-0.1,0-0.1c0,0-0.1,0.2,0-0.1c0.1-0.3,0.2-0.7,0.2-1c0.7-2.6,2-4.8,3.3-7.3c0.7-1.4,1.2-3.4-0.2-4.5
		c-1.1-0.9-2.4-0.5-3.6,0.1c0.2-0.7,0.4-1.3,0.7-1.9c1.1-2.4,2.8-4.5,4.5-6.5c1.3-1.6,3.2-3.3,3.6-5.4c0.3-1.5-0.7-2.9-2.3-2.9
		c0,0-0.1,0-0.1,0c0.7-0.8,1.6-1.6,2.4-2.3c1.9-1.6,4-3.1,6.3-4.3c1.4-0.7,3-1.5,4.5-2c-1,1-1.8,2.1-2.4,3.5
		c-1.5,3.2-1.3,6.7-0.9,10.1c0.1,0.7,0.2,1.4,0.3,2.2c0.1,0.7,0.2,1.5,0.3,1.9c0.1,0.6,0.1,1.2,0.1,1.8c0,0.3,0,0.6,0,0.9
		c0,0,0,0.2,0,0.3c0,0.1,0,0.2-0.1,0.4c-0.2,0.7-0.3,0.8-0.7,1.6c-0.5,0.9-1.1,1.7-1.7,2.5c-1.4,1.8-3,3.4-4.6,5
		c-1.6,1.6-3.3,3.1-4.9,4.7C15.5,101.2,14.7,101.8,14.1,102.5z M11.7,92.9C11.7,92.9,11.7,92.9,11.7,92.9
		C11.6,92.8,11.7,92.9,11.7,92.9z M17.5,78.1C17.5,78.1,17.5,78.1,17.5,78.1C17.8,77.9,17.5,78.1,17.5,78.1z M41.1,117.6
		c1.1,1.6,1.3,2.5,0.3,4.4c-1.2,2.4-3.6,4.4-6.2,5c-1.9,0.5-4,0.1-5.5-0.6c-0.1,0-0.2-0.1-0.3-0.1c0,0,0,0,0,0
		c-0.2-0.1-0.4-0.3-0.6-0.5c-0.5-0.4-1-0.9-1.5-1.3c1.6-3.9,3.9-7.7,7.7-9.7c0.4-0.2,0.8-0.4,1.5-0.6c0.3-0.1,0.5-0.1,0.8-0.2
		c0.1,0,0.1,0,0.1,0c0,0,0.1,0,0.1,0c0.2,0,0.3,0,0.5,0C39.2,115.2,40.3,116.4,41.1,117.6z M58.5,107.4c-3.2-1.3-5.1-4.5-7.1-7.3
		c2.1-0.4,4.3-0.5,6.5-0.4c2.2,0.1,4.6,0.3,6.7,0.9c-0.6,2.7-0.5,5.7,0.1,8.5C62.5,108.7,60.4,108.2,58.5,107.4z M75,109.8
		c-1.5,0.1-3.1,0-4.6-0.1c-0.6,0-1.1-0.1-1.7-0.1c-0.7-2.4-1-5.1-0.6-7.6c3.4,1.8,5.9,4.6,8.2,7.7C75.8,109.7,75.4,109.8,75,109.8z
		 M120.3,129.1c-0.2,1.6-1.4,2.9-2.5,4c-1.8,1.7-4.1,2.9-6.6,3.2c-1.3,0.2-2.8-0.2-4-0.7c-0.3-0.2-0.7-0.4-1-0.6
		c-0.1-0.1-0.8-0.6-0.5-0.4c0,0-0.1-0.1-0.1-0.1c-0.1-0.1-0.3-0.3-0.4-0.4c1.7-4.6,4.1-9.2,8-12.2c0.2-0.2,1.1-0.8,1.6-1.1
		c0.3-0.2,0.6-0.3,0.8-0.4c0.1,0,0.2-0.1,0.2-0.1c0,0,0.1,0,0.1,0c0.3-0.1,0.7-0.2,1-0.3c0.1,0,0.2,0,0.3-0.1
		c0.4,0.6,0.8,1.2,1.3,1.7c0.8,1.5,1.3,3.2,1.6,4.8C120.2,126.8,120.4,128.2,120.3,129.1z M115.8,120.3
		C115.7,120.3,115.7,120.3,115.8,120.3L115.8,120.3z M116.9,119.9c0.1,0,0.2,0,0.3-0.1c0,0,0,0,0,0
		C117.2,119.8,117.1,119.9,116.9,119.9z M118.3,115.4c-5.2-5.4-10.4-10.7-15.6-16.1c-0.9-0.9-1.7-1.8-2.6-2.7
		c-1.7-1.7-4.3,0.9-2.7,2.7c5.7,5.8,11.3,11.7,17,17.5c-1.4,0.6-2.6,1.4-3.7,2.3c-4,3.1-6.6,7.6-8.5,12.2
		c-4.4-4.1-8.5-8.5-12.7-12.8c-2.9-3-5.8-5.9-8.6-9c-0.1-0.1-0.1-0.1-0.2-0.2c0,0,0,0,0,0c-1.4-2-2.8-4.1-4.5-5.8
		c-2.2-2.3-5.2-4.5-8.2-5.7c-3.2-1.3-6.7-1.7-10.1-1.9c-3.4-0.2-6.9,0.1-10.2,1.3c0,0,0,0,0,0c0,0-0.1,0-0.1,0c-1.5,0.3-3,1-4.3,1.7
		c-3.3,1.7-7.8,4.7-7.9,8.8c0,1,0.2,1.9,0.6,2.7c-1,0.2-1.9,0.6-2.7,1c-4.1,2.1-6.8,6-8.7,10.2c-2.3-2.2-4.4-4.6-6.4-7
		c-0.4-0.5-0.8-1.1-1.2-1.7c-0.1-0.1-0.3-0.6-0.3-0.5c-0.2-0.7-0.4-1.4-0.4-2.1c-0.2-1.7,0-3.5,0.5-5.1c0.1-0.1,0.2-0.2,0.3-0.3
		c0.5-0.5,1-1,1.5-1.5c1.4-1.3,2.8-2.7,4.2-4c3-2.9,6.1-6,8-9.7c2.8-5.4-0.9-11.4,0.2-16.8c0.9-4.4,4.5-7,8.5-8.6
		c0.1,0,0.2-0.1,0.3-0.1c3.3-0.2,6.5-0.4,9.8-0.8c0.1,0,0.3,0,0.4,0c1.7-0.1,3.4-0.3,5.1-0.5c0.1,0.4,0.3,0.8,0.5,1.2
		c1.1,2,2.8,3.7,4.4,5.3c1.5,1.4,3.1,2.6,4.6,4c1.8,1.7,3.7,3.4,5.7,4.9c5.3,4.1,11,7.7,17,10.6c5.5,2.6,11.2,4.7,17.4,4.7
		c2.2,0,5.3-0.1,6.6-2.2c0.5-0.9,0.8-1.9,0.9-2.9c2.5,2.4,5,4.7,7.5,7.1c3.2,2.9,6.5,5.7,9.7,8.7c-1.7,0.5-3.4,1.5-4.8,2.5
		C121.4,109,119.5,112,118.3,115.4z M137.2,115.2c-0.1,2-1.5,3.8-3,5c-2,1.6-4.8,2.5-7.4,2.4c-1.6-0.1-3.3-1.3-4.6-2.6
		c-0.2-0.2-0.5-0.5-0.7-0.8c-0.1-0.1-0.1-0.2-0.2-0.4c0,0,0-0.1,0-0.1c0.8-3.2,2.3-6.5,4.9-8.4c0.8-0.6,1.7-1.1,2.6-1.6
		c0.8-0.4,1.6-0.8,2.4-0.8c0.4,0,0.4,0,0.7,0c0.2,0,0.8,0.3,0-0.1c0.3,0.1,0.7,0.2,1,0.2c0.5,0.5,1,1.1,1.5,1.6
		C135.8,111.3,137.3,113,137.2,115.2z"/>
	<path class="st0" d="M107.2,41.1c1.3-0.1,2.4-1,2.8-2c0.5-1.6-0.8-2.8-0.9-2.9c-0.2-0.2-0.9-0.8-1.8-0.8c-1.5-0.1-3.3,1.2-3.3,2.9
		C103.9,39.8,105.5,41.2,107.2,41.1z"/>
	<path class="st0" d="M126.5,50.9c0.3,0.1,0.7,0.2,1,0.2c0.4,0,0.8-0.1,1-0.3c0.6-0.5,0.3-1.2,0.1-1.6c-0.1-0.1-0.3-0.6-0.9-0.9
		c-0.6-0.3-1.3-0.4-1.9-0.2c-0.3,0.1-0.6,0.3-0.7,0.5c-0.1,0.3-0.1,0.6,0,0.9C125.4,50.1,125.9,50.6,126.5,50.9z"/>
</g>
</svg>
