<?xml version="1.0" encoding="utf-8"?>
<!-- Generator: Adobe Illustrator 19.1.0, SVG Export Plug-In . SVG Version: 6.00 Build 0)  -->
<svg version="1.1" id="Layer_1" xmlns="http://www.w3.org/2000/svg" xmlns:xlink="http://www.w3.org/1999/xlink" x="0px" y="0px"
	 viewBox="0 0 150 150" style="enable-background:new 0 0 150 150;" xml:space="preserve">
<metadata><?xpacket begin="﻿" id="W5M0MpCehiHzreSzNTczkc9d"?>
<x:xmpmeta xmlns:x="adobe:ns:meta/" x:xmptk="Adobe XMP Core 5.6-c067 79.157747, 2015/03/30-23:40:42        ">
   <rdf:RDF xmlns:rdf="http://www.w3.org/1999/02/22-rdf-syntax-ns#">
      <rdf:Description rdf:about=""/>
   </rdf:RDF>
</x:xmpmeta>
                                                                                                    
                                                                                                    
                                                                                                    
                                                                                                    
                                                                                                    
                                                                                                    
                                                                                                    
                                                                                                    
                                                                                                    
                                                                                                    
                                                                                                    
                                                                                                    
                                                                                                    
                                                                                                    
                                                                                                    
                                                                                                    
                                                                                                    
                                                                                                    
                                                                                                    
                                                                                                    
                           
<?xpacket end="w"?></metadata>
<style type="text/css">
	.st0{fill:#FFFFFF;}
</style>
<g>
	<path class="st0" d="M141.3,111.2c-0.8-2.1-2.5-3.9-4-5.6c-2.4-2.6-5-4.8-7.6-7.2c-5.9-5.3-11.8-10.7-17.5-16.3
		c-1.1-1.1-2.2-2.2-3.3-3.4c-0.3-0.4-0.7-0.8-1-1.2c0,0,0,0,0,0c0,0,0,0,0,0c-0.1-0.1-0.2-0.3-0.3-0.4c-0.4-0.5-0.8-1.1-1.2-1.6
		c-2.6-3.8-5.5-8.5-5.5-13.2c0-0.9,0.1-1.7,0.4-2.5c0.4-0.8,0.6-1.1,1.4-1.5c1.8-0.8,4.1-0.8,6-0.7c0.9,0,1.7,0.1,2.6,0.3
		c0.3,0.1,0.7,0.2,1,0.3c0,0,0.6,0.3,0.7,0.3c2,0.9,4.1,1.8,6.2,2.5c4.4,1.5,9.6,2.7,13.5-0.5c3.9-3.1,6.5-8.8,5.9-13.8
		c-0.5-3.8-4-6.6-6.7-9c-1.4-1.2-2.8-2.4-4.3-3.6c-0.5-0.4-1-0.8-1.6-1.2c0,0,0,0,0-0.1c-2.2-4.2-4.6-8.9-8.1-12.1
		c2,0.3,4.1,0.7,6.1,0.4c1.8-0.3,3.3-1.8,3.3-3.7c0-1.8-1.7-2.7-3.1-3.4c-1.5-0.6-3-1.1-4.5-1.5c0.2-0.2,0.3-0.4,0.4-0.7
		c0.4-1.5-0.8-2.2-2-2.7c-2.2-0.8-4.7-0.7-7-0.2c-2.7,0.6-5.3,1.7-7.7,3.2c-1.2,0.8-2.4,1.6-3.5,2.6c-0.4,0.3-0.7,0.7-1.1,1
		c-0.4-0.5-0.8-0.9-1.2-1.3c-1.6-1.2-3.5-1.4-5.5-1.1c-1.7,0.3-3.3,1-4.9,1.6c-2.1,0.7-4.1,1.1-6.3,0.9c-0.2,0-0.3,0-0.4,0
		c-3-1.2-6.5-1.4-9,1.1c-2.1,2-2.8,4.9-2.1,7.6c-1.5,1.4-3,2.8-4.5,4.3c-2.1,2.2-4.3,4.7-5.4,7.5c-0.4,1.2-0.8,2.8,0,3.9
		c0.3,0.4,0.7,0.6,1.1,0.8c-0.3,0.3-0.6,0.7-0.9,1c-1,1.1-2,2.2-2.8,3.5c-0.8,1.3-1.4,3.3-0.3,4.6c0.2,0.2,0.4,0.4,0.7,0.6
		c-0.4,0.8-0.9,1.5-1.4,2.3c-1.2,1.9-2.6,3.7-4.1,5.4c-0.1,0.1-0.5,0.4-0.7,0.6c-0.2,0-0.5,0.1-0.7,0.1c-0.5,0.1-0.3,0-0.9,0.1
		c-2.2,0.2-4.3,0.4-6.5,0.5c-3.7,0.2-7.8,0.1-11.3,1.3c-5.2,1.8-9.9,4.5-14.1,8.1c-1.7,1.5-4,3.5-4.2,6c-0.1,1.2,0.4,2.7,1.8,2.9
		c0,0,0.1,0,0.1,0c0,0-0.1,0.1-0.1,0.1c-1.6,2-3.3,3.9-4.6,6C9.3,86.5,8.2,89,8,91.6c-0.1,1.1,0,2.4,1.1,3c0.7,0.4,1.6,0.4,2.4,0.1
		c-1.3,2.4-2.6,5-3,7.7c-0.2,1.4-0.3,3,0.8,4c1.1,1.1,2.7,1,4.1,0.5c-0.1,1.4-0.1,2.9,0.2,4.3c0.4,2.5,1.7,4.2,3.3,6.1
		c3.2,3.9,6.8,7.7,10.7,10.9c5.5,4.5,13.7,1.6,17.4-3.8c1.8-2.6,2.5-5.7,0.9-8.5c-1.4-2.4-3.5-4.3-5-6.7c-0.3-0.5-0.6-1-0.7-1.5
		c-0.1-0.4-0.1-0.5,0.1-1c0.5-1.2,1.6-2.3,2.7-3c1.6-1.2,3.6-2.4,5.6-3.1c0.3,0.4,0.5,0.7,0.8,1.1c0.9,1.3,1.9,2.5,2.8,3.8
		c1.7,2.2,3.4,3.8,6,4.9c2.6,1.1,5.5,1.7,8.3,2.1c2.7,0.4,5.4,0.7,8.1,0.7c1.7,0,3.7-0.1,5.5-0.6c5.8,6.4,12,12.5,18.1,18.5
		c2.1,2.1,4.2,4.4,6.6,6.2c5.4,4,12.7,2.1,17.2-2.4c1.4-1.4,2.6-3.1,3-5.1c0.3-1.5,0.2-3.1-0.1-4.6c0.6,0.2,1.2,0.4,1.8,0.5
		c5.4,0.8,11.6-2,14.1-6.9C142,116.3,142.3,113.7,141.3,111.2z M114,55c-1.2-0.4-2.4-0.8-3.7-0.9c-3.1-0.4-7.6-0.5-10.4,1.6
		c-3.9-2.1-8.2-3.9-10.7-7.7c-1-1.6-1.7-3.3-2.1-5.1c0.8,0.5,1.7,0.9,2.6,1.3c5.9,2.6,12.1,4.6,18.3,6.4c2.1,0.6,4.3,1.2,6.5,1.8
		C114.2,53.2,114.1,54.1,114,55z M98.8,69.5c0,0.1,0,0.1,0.1,0.2c-3.2-0.7-6.3-1.5-9.4-2.5c-2.9-0.9-5.8-2-8.4-3.6
		c-2.1-1.2-3.8-3.2-5.5-4.9c-1.3-1.3-2.5-2.6-3.7-4c0.9-1.5,1.5-3,2.2-4.6c1.2-3,2.2-6.2,3.4-9.2c0.8-1.9,1.7-3.9,3.1-5.4
		c0.4,1.6,1.2,3,2.3,4.2c0,1.2,0.2,2.5,0.4,3.7c0.5,2.5,1.5,4.9,3,7c1.9,2.6,4.5,4.5,7.3,6.2c1.3,0.8,2.7,1.4,4,2.1
		C96.3,62.1,97.4,66.3,98.8,69.5z M82,71.9c2.2,1.7,5,3.3,7.9,3.5c1.9,0.1,4-0.3,5.7-1.2c0.5-0.3,1-0.6,1.4-1
		c0.1-0.1,0.3-0.5,0.1-0.1c0.5-1.3,2.7-0.8,2.2,0.6c-1.1,2.9-5.6,3.8-8.3,4c-6.2,0.3-11.4-4.6-15.7-8.5c-3.2-2.8-6.2-5.7-9.3-8.7
		c-1-1,0.6-2.6,1.6-1.6c1,1,2.1,2,3.1,3C74.3,65.4,78,68.9,82,71.9z M128,39.4c0.9,0.8,1.9,1.6,2.8,2.5c1.2,1.1,2.7,2.5,3.5,3.7
		c0.1,0.2,0.2,0.4,0.3,0.6c-0.1-0.1,0.2,0.6,0.2,0.8c0.2,1.1,0.1,2.3-0.2,3.4c-0.5,2.2-1.6,4.4-3.1,6.1c-1.3,1.5-2.7,2.5-4.7,2.5
		c-2.2,0-4.4-0.6-6.4-1.3c-0.9-0.3-1.9-0.7-2.8-1.1c0.2-4.9,2.3-9.3,5.6-12.9C124.8,41.8,126.2,40.5,128,39.4z M123.6,18
		C123.6,18,123.6,18,123.6,18C123.6,18,123.6,18,123.6,18C123.6,18,123.6,18,123.6,18z M117,12.7C117.4,12.9,117.3,13.1,117,12.7
		L117,12.7z M116.9,9.9C117,9.8,117,9.8,116.9,9.9L116.9,9.9z M108.4,13.7c1.4-0.6,3-1.1,4.6-1.3c0.4-0.1,0.9-0.1,1.3-0.1
		c-0.3,1.2,0.5,2.4,1.6,2.9c2,1.1,4.5,1.2,6.6,2.1c0.1,0,0.2,0.1,0.3,0.1c-0.4,0-1.1,0-1.5-0.1c-3.7-0.3-7.4-1.3-11.2-0.9
		c-0.1,0-0.3,0-0.4,0.1c-1.9-0.3-3.8-0.5-5.6-0.4C105.3,15.2,106.8,14.4,108.4,13.7z M105.3,19.9c2.4,0.1,5,0.4,7.2,1.5
		c1.7,0.9,3.1,2.2,4.4,3.7c2.2,2.6,3.7,5.6,5.2,8.6c0.5,0.9,0.9,1.7,1.7,2.3c0.1,0.1,0.3,0.2,0.4,0.3c0.1,0.1,0.2,0.1,0.3,0.2
		c0,0,0,0,0,0c0,0,0.1,0,0.1,0.1c0.1,0.1,0.2,0.2,0.4,0.3c-4.1,2.9-7.5,7.1-9.4,11.8c-4.4-1.1-8.8-2.4-13.2-3.8
		c-5.1-1.6-10.3-3.3-14.9-6.1c-0.4-0.2-0.6-0.4-0.8-0.5c0-0.1,0-0.3,0-0.4c0.2-3.9,1.5-7.9,3.9-11C94.1,22.2,99.5,19.8,105.3,19.9z
		 M90,17.9c1.9-0.7,4.2-1.6,5.7,0.1c-1.3,0.6-2.6,1.3-3.8,2.2c-0.5,0.4-1,0.8-1.5,1.3c-1.3-0.9-2.6-1.7-4-2.5
		C87.6,18.8,88.8,18.3,90,17.9z M73.5,20.3c1.6-2.3,4.3-1.6,6.5-0.5c2.7,1.4,5.3,2.9,7.8,4.5c-1.7,2.1-3,4.6-3.8,7.2
		c-3-1.5-6-2.9-8.8-4.7C73.3,25.5,71.9,22.5,73.5,20.3z M62.8,41.1c-0.3,0.2-0.5,0.2-0.7,0.2C62.4,41.2,62.7,41.2,62.8,41.1z
		 M60.1,50.2C60.1,50.2,60.1,50.2,60.1,50.2C60.1,50.2,60.1,50.2,60.1,50.2C60.1,50.2,60.1,50.2,60.1,50.2z M58,49
		C58,49,58,49.1,58,49C58,49,58,49,58,49z M58.6,55.8c1.2-1.8,2.7-3.8,3.1-6c0.2-1.1,0-2.4-1-3c0,0,0,0,0,0c0.7-0.9,1.4-1.7,2.2-2.5
		c1.3-1.5,3.5-3.9,1.8-5.9c-0.4-0.5-1-0.8-1.6-0.9c0.1-0.1,0.1-0.2,0.2-0.4c1.1-2.1,2.8-4,4.5-5.7c1.1-1.1,2.2-2.2,3.3-3.2
		c1.6,1.9,3.9,3,6.1,4.1c0.3,0.2,0.6,0.3,0.9,0.5c-1.2,1.2-2.2,2.7-3,4.3c-1.4,2.9-2.4,6-3.5,9c-1,2.8-2.1,5.7-3.8,8.1
		c-0.4,0.5-0.7,0.9-1.2,1.4c-0.2,0.2-0.4,0.4-0.6,0.6c-0.1,0.1-0.2,0.1-0.2,0.2c-0.6,0.3-1.2,0.5-1.9,0.7c-2.4,0.8-4.9,1.4-7.4,1.9
		C57.3,57.7,58,56.7,58.6,55.8z M51.2,59.1C51.4,59.1,51.6,59.1,51.2,59.1L51.2,59.1z M51,59.3C51,59.3,51,59.3,51,59.3
		C51,59.3,51,59.3,51,59.3C51,59.3,51,59.3,51,59.3z M48.1,66.5c-1.9,2.6-4.9,7.6-1.8,10.3c1.4,1.2,3.3,1.9,5,2.5
		c2.5,0.8,5,1.4,7.5,1.9c5.7,1,11.5,1.6,17.2,1.9c5.3,0.3,11,0.6,16.2-0.8c2.4-0.7,4.3-1.9,5.7-4c0.8-1.2,2.7-0.1,1.9,1.1
		c-1.9,3-4.7,4.6-8.1,5.3c-6,1.3-12.3,0.9-18.4,0.5c-6.3-0.4-12.6-1.1-18.8-2.6c-2.5-0.6-4.9-1.3-7.2-2.4c-1.5-0.8-3.2-1.8-4-3.3
		c-1.9-3.6,0.6-8.5,2.8-11.4C46.9,64.2,48.9,65.3,48.1,66.5z M17.3,75.3c0.1,0.3-0.2,0.3,0,0.1C17.1,75.6,17.2,75.5,17.3,75.3z
		 M17.1,75.8C17.1,75.8,17.1,75.9,17.1,75.8C17.1,75.9,17.1,75.9,17.1,75.8C17.1,75.8,17.1,75.7,17.1,75.8z M11.7,103.5
		C11.7,103.5,11.7,103.5,11.7,103.5C11.7,103.5,11.7,103.5,11.7,103.5C11.7,103.5,11.7,103.5,11.7,103.5c-0.2,0.1-0.3,0.1-0.2,0
		C11.6,103.5,11.6,103.5,11.7,103.5C11.7,103.5,11.7,103.5,11.7,103.5z M11.7,92.3C11.9,92.6,11.7,92.6,11.7,92.3L11.7,92.3z
		 M15.1,101.9c-0.9,0.5-1.9,1.1-2.7,1.4c-0.1,0-0.2,0.1-0.3,0.1c0,0,0-0.1,0-0.1c0,0-0.1,0.2,0-0.1c0.1-0.3,0.2-0.7,0.2-1
		c0.7-2.6,2-4.8,3.3-7.3c0.7-1.4,1.2-3.4-0.2-4.5c-1.1-0.9-2.4-0.5-3.6,0.1c0.2-0.7,0.4-1.3,0.7-1.9c1.1-2.4,2.8-4.5,4.5-6.5
		c1.3-1.6,3.2-3.3,3.6-5.4c0.3-1.5-0.7-2.9-2.3-2.9c0,0-0.1,0-0.1,0c0.7-0.8,1.6-1.6,2.4-2.3c1.9-1.6,4-3.1,6.3-4.3
		c1.4-0.7,3-1.5,4.5-2c-1,1-1.8,2.1-2.4,3.5c-1.5,3.2-1.3,6.7-0.9,10.1c0.1,0.7,0.2,1.4,0.3,2.2c0.1,0.7,0.2,1.5,0.3,1.9
		c0.1,0.6,0.1,1.2,0.1,1.8c0,0.3,0,0.6,0,0.9c0,0,0,0.2,0,0.3c0,0.1,0,0.2-0.1,0.4c-0.2,0.7-0.3,0.8-0.7,1.6
		c-0.5,0.9-1.1,1.7-1.7,2.5c-1.4,1.8-3,3.4-4.6,5c-1.6,1.6-3.3,3.1-4.9,4.7C16.5,100.6,15.7,101.3,15.1,101.9z M12.7,92.3
		C12.7,92.3,12.7,92.3,12.7,92.3C12.6,92.3,12.7,92.3,12.7,92.3z M18.5,77.5C18.5,77.5,18.5,77.5,18.5,77.5
		C18.8,77.3,18.5,77.6,18.5,77.5z M42.1,117c1.1,1.6,1.3,2.5,0.3,4.4c-1.2,2.4-3.6,4.4-6.2,5c-1.9,0.5-4,0.1-5.5-0.6
		c-0.1,0-0.2-0.1-0.3-0.1c0,0,0,0,0,0c-0.2-0.1-0.4-0.3-0.6-0.5c-0.5-0.4-1-0.9-1.5-1.4c1.5-5.3,6-9.2,11.2-10.1
		C40.4,114.9,41.4,115.9,42.1,117z M67.4,108.8c-2.7-0.4-5.5-1-8-2c-3.2-1.3-5.1-4.5-7.1-7.3c2.1-0.4,4.3-0.5,6.5-0.4
		c2.9,0.2,6.1,0.5,8.8,1.7c0,0,0.1,0,0.1,0.1C66.7,103.2,66.9,106.1,67.4,108.8z M76,109.3c-1.5,0.1-3.1,0-4.6-0.1
		c-0.5-1.9-0.9-3.9-0.5-5.8c0-0.2,0.1-0.5,0.2-0.7c2.4,1.7,4.4,4,6.2,6.4C76.8,109.2,76.4,109.2,76,109.3z M102,129.6
		c-3.9-3.8-7.7-7.7-11.5-11.6c-2.9-3-5.8-5.9-8.6-9c-0.1-0.1-0.1-0.1-0.2-0.2c0,0,0,0,0,0c-1.4-2-2.8-4.1-4.5-5.8
		c-2.2-2.3-5.2-4.5-8.2-5.7c-3.2-1.3-6.7-1.7-10.1-1.9c-3.4-0.2-6.9,0.1-10.2,1.3c0,0,0,0,0,0c0,0-0.1,0-0.1,0c-1.5,0.3-3,1-4.3,1.7
		c-3.3,1.7-7.8,4.7-7.9,8.8c0,1.1,0.3,2.2,0.8,3.2c-5.3,1.4-9.8,5.5-11.9,10.6c-2.2-2.2-4.3-4.5-6.2-6.9c-0.4-0.5-0.8-1.1-1.2-1.7
		c-0.1-0.1-0.3-0.6-0.3-0.5c-0.2-0.7-0.4-1.4-0.4-2.1c-0.2-1.7,0-3.5,0.5-5.1c0.1-0.1,0.2-0.2,0.3-0.3c0.5-0.5,1-1,1.5-1.5
		c1.4-1.3,2.8-2.7,4.2-4c3-2.9,6.1-6,8-9.7c2.8-5.4-0.9-11.4,0.2-16.8c0.9-4.4,4.5-7,8.5-8.6c0.1,0,0.2-0.1,0.3-0.1
		c0.9-0.1,1.8-0.1,2.7-0.2c-0.2,0.4-0.4,0.7-0.7,1.1c-1.3,2-2.4,4.1-3.1,6.4c-1.1,3.6-1.1,8,2.2,10.5c2.7,2,6.3,3,9.5,3.9
		c4.7,1.3,9.5,2.1,14.3,2.7c5.1,0.6,10.2,1,15.2,0.9c4.1,0,8.3-0.2,12.3-1.3c4.4-1.2,8.7-3.8,9.9-8.5c0.1-0.4,0.2-0.8,0.2-1.2
		c0.6,0.8,1.2,1.6,1.9,2.4c1.9,2.3,4.1,4.3,6.2,6.3c2.9,2.8,5.9,5.6,8.9,8.4c2.9,2.7,5.9,5.2,8.9,7.9c-0.9,0.3-1.8,0.7-2.6,1.2
		c-3.9,2.1-6.4,5.8-7.9,9.9c-6-6.3-12.1-12.6-18.1-18.9c-1-1-1.9-2-2.9-3c-1.7-1.7-4.3,0.9-2.7,2.7c6.9,7.2,13.9,14.5,20.8,21.7
		c0,0,0,0,0,0c-1.4,0.2-2.7,0.5-4,1.1C106.8,119.8,103.5,124.3,102,129.6z M121.3,128.5c-0.2,1.6-1.4,2.9-2.5,4
		c-1.8,1.7-4.1,2.9-6.6,3.2c-1.3,0.2-2.8-0.2-4-0.7c-0.3-0.2-0.7-0.4-1-0.6c-0.1-0.1-0.8-0.6-0.5-0.4c0,0-0.1-0.1-0.1-0.1
		c-0.5-0.5-1-0.9-1.5-1.4c0,0,0-0.1,0-0.1c0.6-2.8,1.7-5.7,3.6-7.9c1.3-1.5,3.1-2.8,4.7-3.4c0.8-0.3,1.7-0.5,2.5-0.7
		c0.2,0,0.3-0.1,0.5-0.1c0.1,0,0.1,0,0.2,0c0,0,0,0,0.1,0c0.3,0,0.6-0.1,0.9-0.1c0.5,0,0.9,0,1.4,0c0.2,0.3,0.4,0.5,0.6,0.8
		c0.8,1.5,1.3,3.2,1.6,4.8C121.2,126.3,121.4,127.6,121.3,128.5z M138.2,114.6c-0.1,2-1.5,3.8-3,5c-2,1.6-4.8,2.5-7.4,2.4
		c-1.6-0.1-3.3-1.3-4.6-2.6c-0.2-0.2-0.5-0.5-0.7-0.8c-0.1-0.2-0.3-0.5-0.4-0.7c0-0.2-0.1-0.5-0.3-0.7c1.1-4.1,3.2-7.9,7-9.9
		c0.9-0.5,2-0.8,3.2-1.1c0.1,0,0.2,0,0.2,0c0.1,0,0.3,0,0.4,0c0.9,0.9,1.8,1.9,2.7,2.9C136.8,110.8,138.3,112.4,138.2,114.6z"/>
	<path class="st0" d="M11.7,103.5C11.7,103.5,11.7,103.5,11.7,103.5C11.7,103.5,11.7,103.5,11.7,103.5
		C11.6,103.5,11.6,103.6,11.7,103.5z"/>
	<path class="st0" d="M108.2,40.8c1.3-0.1,2.4-1,2.8-2c0.5-1.6-0.8-2.8-0.9-2.9c-0.2-0.2-0.9-0.8-1.8-0.8c-1.5-0.1-3.3,1.2-3.3,2.9
		C104.9,39.5,106.5,40.9,108.2,40.8z"/>
	<path class="st0" d="M127.5,50.5c0.7,0.3,1.5,0.3,1.9-0.1c0.6-0.5,0.1-1.4,0.1-1.4c-0.1-0.1-0.3-0.5-0.8-0.8
		c-0.8-0.4-2-0.4-2.4,0.3C126,49.1,126.6,50.1,127.5,50.5z"/>
</g>
</svg>
