<?xml version="1.0" encoding="utf-8"?>
<!-- Generator: Adobe Illustrator 19.1.0, SVG Export Plug-In . SVG Version: 6.00 Build 0)  -->
<svg version="1.1" id="Layer_1" xmlns="http://www.w3.org/2000/svg" xmlns:xlink="http://www.w3.org/1999/xlink" x="0px" y="0px"
	 viewBox="0 0 150 150" style="enable-background:new 0 0 150 150;" xml:space="preserve">
<metadata><?xpacket begin="﻿" id="W5M0MpCehiHzreSzNTczkc9d"?>
<x:xmpmeta xmlns:x="adobe:ns:meta/" x:xmptk="Adobe XMP Core 5.6-c067 79.157747, 2015/03/30-23:40:42        ">
   <rdf:RDF xmlns:rdf="http://www.w3.org/1999/02/22-rdf-syntax-ns#">
      <rdf:Description rdf:about=""/>
   </rdf:RDF>
</x:xmpmeta>
                                                                                                    
                                                                                                    
                                                                                                    
                                                                                                    
                                                                                                    
                                                                                                    
                                                                                                    
                                                                                                    
                                                                                                    
                                                                                                    
                                                                                                    
                                                                                                    
                                                                                                    
                                                                                                    
                                                                                                    
                                                                                                    
                                                                                                    
                                                                                                    
                                                                                                    
                                                                                                    
                           
<?xpacket end="w"?></metadata>
<style type="text/css">
	.st0{fill:#FFFFFF;}
</style>
<path class="st0" d="M141.3,112.1c-0.8-2.1-2.5-3.9-4-5.6c-2.4-2.6-5-4.8-7.6-7.2c-5.9-5.3-11.8-10.7-17.5-16.3
	c-1.1-1.1-2.2-2.2-3.3-3.4c-0.3-0.4-0.7-0.8-1-1.2c0,0,0,0,0,0c0,0,0,0,0,0c-0.1-0.1-0.2-0.3-0.3-0.4c-0.4-0.5-0.8-1.1-1.2-1.6
	c-2.6-3.8-5.5-8.5-5.5-13.2c0-0.9,0.1-1.7,0.4-2.5c0.4-0.8,0.6-1.1,1.4-1.5c1.8-0.8,4.1-0.8,6-0.7c0.9,0,1.7,0.1,2.6,0.3
	c0.3,0.1,0.7,0.2,1,0.3c0,0,0.6,0.3,0.7,0.3c2,0.9,4.1,1.8,6.2,2.5c4.4,1.5,9.6,2.7,13.5-0.5c3.9-3.1,6.5-8.8,5.9-13.8
	c-0.5-3.8-4-6.6-6.7-9c-1.4-1.2-2.8-2.4-4.3-3.6c-0.5-0.4-1-0.8-1.6-1.2c0,0,0,0,0-0.1c-2.7-5.3-5.8-11.2-10.9-14.3
	c-0.2-3.7-1-8-4.2-10.2c-2.2-1.6-5.1-1.4-7.7-0.9c-1.2,0.3-2.3,0.6-3.5,1c-0.4,0.1-0.9,0.3-1.3,0.4c-0.2,0.1-0.4,0.1-0.7,0.2
	c-0.1,0-0.1,0-0.2,0c-0.1,0-0.1,0-0.1,0c0,0,0,0,0,0c0,0-0.1,0-0.2,0c-0.2-0.1-0.5-0.3-0.7-0.4c-1.2-0.6-2.5-1.1-3.8-1.2
	c-1.8-0.1-3.2,0.8-4.3,2.2c-1.2,1.6-1.8,3.6-3.1,5.2c-0.8,1-2.2,1.3-3.5,1.4c-0.1,0-0.2-0.1-0.3-0.1c-3.2-1.6-7.3-2.2-10.1,0.6
	c-2.1,2-2.8,4.9-2.1,7.6c-1.5,1.4-3,2.8-4.5,4.3c-2.1,2.2-4.3,4.7-5.4,7.5c-0.4,1.2-0.8,2.8,0,3.9c0.3,0.4,0.7,0.6,1.1,0.8
	c-0.3,0.3-0.6,0.7-0.9,1c-1,1.1-2,2.2-2.8,3.5c-0.8,1.3-1.4,3.3-0.3,4.6c0.2,0.2,0.4,0.4,0.7,0.6c-0.4,0.8-0.9,1.5-1.4,2.3
	c-1.2,1.9-2.6,3.7-4.1,5.4c-0.1,0.1-0.5,0.4-0.7,0.6c-0.2,0-0.5,0.1-0.7,0.1c-0.5,0.1-0.3,0-0.9,0.1c-2.2,0.2-4.3,0.4-6.5,0.5
	c-3.7,0.2-7.8,0.1-11.3,1.3c-5.2,1.8-9.9,4.5-14.1,8.1c-1.7,1.5-4,3.5-4.2,6c-0.1,1.2,0.4,2.7,1.8,2.9c0,0,0.1,0,0.1,0
	c0,0-0.1,0.1-0.1,0.1c-1.6,2-3.3,3.9-4.6,6c-1.4,2.2-2.5,4.6-2.7,7.3c-0.1,1.1,0,2.4,1.1,3c0.7,0.4,1.6,0.4,2.4,0.1
	c-1.3,2.4-2.6,5-3,7.7c-0.2,1.4-0.3,3,0.8,4c1.1,1.1,2.7,1,4.1,0.5c-0.1,1.4-0.1,2.9,0.2,4.3c0.4,2.5,1.7,4.2,3.3,6.1
	c3.2,3.9,6.8,7.7,10.7,10.9c5.5,4.5,13.7,1.6,17.4-3.8c1.8-2.6,2.5-5.7,0.9-8.5c-1.4-2.4-3.5-4.3-5-6.7c-0.3-0.5-0.6-1-0.7-1.5
	c-0.1-0.4-0.1-0.5,0.1-1c0.5-1.2,1.6-2.3,2.7-3c1.6-1.2,3.6-2.4,5.6-3.1c0.3,0.4,0.5,0.7,0.8,1.1c0.9,1.3,1.9,2.5,2.8,3.8
	c1.7,2.2,3.4,3.8,6,4.9c2.6,1.1,5.5,1.7,8.3,2.1c2.7,0.4,5.4,0.7,8.1,0.7c1.7,0,3.7-0.1,5.5-0.6c5.8,6.4,12,12.5,18.1,18.5
	c2.1,2.1,4.2,4.4,6.6,6.2c5.4,4,12.7,2.1,17.2-2.4c1.4-1.4,2.6-3.1,3-5.1c0.3-1.5,0.2-3.1-0.1-4.6c0.6,0.2,1.2,0.4,1.8,0.5
	c5.4,0.8,11.6-2,14.1-6.9C142,117.2,142.3,114.6,141.3,112.1z M97.2,10.1C97.2,10.2,97.2,10.2,97.2,10.1
	C97.2,10.2,97.2,10.2,97.2,10.1C97.1,10.1,97.1,10.1,97.2,10.1z M97.1,10.1C97.1,10.1,97.1,10.1,97.1,10.1
	C97.1,10.1,97.1,10.1,97.1,10.1C97.1,10.1,97.1,10.1,97.1,10.1z M97.1,10.1C97.1,10.1,97.1,10.1,97.1,10.1
	C97,10.1,97,10.1,97.1,10.1z M105.3,20.8c2.4,0.1,5,0.4,7.2,1.5c1.7,0.9,3.1,2.2,4.4,3.7c2.2,2.6,3.7,5.6,5.2,8.6
	c0.5,0.9,0.9,1.7,1.7,2.3c0.1,0.1,0.3,0.2,0.4,0.3c0.1,0.1,0.2,0.1,0.3,0.2c0,0,0,0,0,0c0,0,0.1,0,0.1,0.1c0.6,0.5,1.2,1,1.8,1.5
	c1.5,1.2,2.9,2.5,4.3,3.8c1.2,1.1,2.7,2.5,3.5,3.7c0.1,0.2,0.2,0.4,0.3,0.6c-0.1-0.1,0.2,0.6,0.2,0.8c0.2,1.1,0.1,2.3-0.2,3.4
	c-0.5,2.2-1.6,4.4-3.1,6.1c-1.3,1.5-2.7,2.5-4.7,2.5c-2.2,0-4.4-0.6-6.4-1.3c-3.4-1.1-6.5-3.1-10.1-3.5c-3.1-0.4-7.6-0.5-10.4,1.6
	c-3.9-2.1-8.2-3.9-10.7-7.7c-2-3-2.6-6.6-2.5-10.1c0.2-3.9,1.5-7.9,3.9-11C94.1,23.1,99.5,20.7,105.3,20.8z M72.2,22.6
	c0.6-3.7,4.5-4.4,7.5-3.3c1.6,0.5,3.1,1.5,4.5,2.3c1.5,0.9,3.1,1.7,4.6,2.6c1.3,0.7,0.1,2.7-1.1,1.9c-2.4-1.4-4.8-2.8-7.3-4.1
	c-1.3-0.7-2.8-1.3-4.3-1c-1.4,0.2-1.9,1.7-1.7,3c0.6,2.7,3.7,3.8,5.9,4.9c1.6,0.8,3.1,1.6,4.7,2.4c1.3,0.7,0.2,2.5-1.1,1.9
	c0,0,0,0,0,0c-0.1,0-0.1-0.1-0.2-0.1c-2-1.1-4.1-2.1-6.1-3.1c-1.4-0.7-2.8-1.4-3.8-2.6C72.7,26.2,71.9,24.4,72.2,22.6z M76.8,41.5
	c0.9-2.3,2.1-4.9,4.3-6.4c0.7,0.4,1.4,0.7,2.1,1.1c-0.4,2.7-0.3,5.5,0.2,8.2c0.5,2.5,1.5,4.9,3,7c1.9,2.6,4.5,4.5,7.3,6.2
	c1.3,0.8,2.7,1.4,4,2.1c-0.5,1.3-0.7,2.8-0.6,4.3c-0.9-0.4-1.8-0.6-2.6-0.9c-3.9-1.5-7.8-2.8-11.7-4c-3.6-1.1-7.2-2.3-10.9-3.1
	c-0.3-0.1-0.6-0.1-0.8-0.2C73.8,51.4,74.9,46,76.8,41.5z M97.3,68.2C97.4,68.2,97.4,68.2,97.3,68.2C97.6,68.3,97.6,68.5,97.3,68.2z
	 M69.8,58.8c0,0-0.1,0.1-0.2,0.1C69.7,58.8,69.7,58.8,69.8,58.8z M69,59.1C68.9,59.1,68.8,59.1,69,59.1L69,59.1z M62.8,42
	c-0.3,0.2-0.5,0.2-0.7,0.2C62.4,42.1,62.7,42.1,62.8,42z M67.5,60.2c0.5-0.3,1-0.5,1.5-0.9c0,0,0.2-0.1,0.3-0.2c0,0,0,0,0,0
	c0,0,0.4,0,0.6,0.1c0.3,0,0.5,0.1,0.8,0.2c0.7,0.1,1.3,0.3,2,0.5c1.7,0.4,3.3,0.9,5,1.4c3.8,1.1,7.7,2.4,11.4,3.7
	c1.6,0.6,3.3,1.2,4.9,1.8c0.6,0.2,1.2,0.5,1.7,0.7c0,0,0,0,0,0c0,0,0,0,0,0c0.1,0.1,0.2,0.1,0.4,0.2c0.2,0.1,0.5,0.2,0.7,0.3
	c0.1,0,0.2,0.1,0.3,0.1c0,0,0,0.1,0,0.1c0.4,1,0.9,2.1,1.4,3.1c-0.9-0.2-0.9-0.4-2.6-1c-0.5-0.2,0.7,8.1,1.1,10.6
	c0.3,1.5,5.7,1.6,8,1.5c0.2,0.4,0.4,0.7,0.6,1.1c0.3,0.7,0.6,1.4,0.8,2.1c0,0.1,0.1,0.7,0.1,1.1c-0.3,0-0.5,0.1-0.9,0.1
	c-1.2,0.1-2.3,0-3.5-0.1c-3.1-0.4-6.1-1.4-8.9-2.7c-3.6-1.6-7.1-3.3-10.5-5.4c-4.9-3-9.8-6.6-14.1-10c-1.6-1.3-3.3-2.5-4.7-4.1
	c-0.7-0.8-1.4-1.5-2.1-2.3C63.9,61.8,65.8,61.1,67.5,60.2z M58,49.9C58,49.9,58,50,58,49.9C58,49.9,58,49.9,58,49.9z M51.2,60
	C51.4,60,51.6,59.9,51.2,60L51.2,60z M17.3,76.4C17.3,76.5,17.2,76.5,17.3,76.4C17.2,76.4,17.3,76.4,17.3,76.4z M17.2,76.4
	C17.2,76.4,17.2,76.4,17.2,76.4C17.2,76.4,17.2,76.4,17.2,76.4z M17.1,76.7C17.1,76.7,17.1,76.7,17.1,76.7
	C17.1,76.8,17.1,76.8,17.1,76.7C17.1,76.7,17.1,76.6,17.1,76.7z M32,117.1c-2.3,2.3-4,5-4.9,6.6c-0.8-0.7-1.6-1.5-2.3-2.3
	c0-0.1,0-0.1,0-0.2c0,0,0,0.1-0.1,0.1c0,0,0,0,0,0c0-0.2,0-0.5,0-0.7c0,0.2,0.1,0.4,0.1,0.6c0-0.1,0.1-0.2,0.1-0.2
	c0.3-0.6,0.6-1.1,0.9-1.6c0.9-1.5,1.9-2.9,3-4.2c2.1-2.3,4.9-3.9,8-4.6c0.4,1,1,1.9,1.6,2.8C35.9,114,33.4,115.6,32,117.1z
	 M59.5,107.3c0,0.1,0,0.3,0.1,0.5c0,0-0.1,0-0.1,0c-3.2-1.3-5.1-4.5-7.1-7.3c2.1-0.4,4.3-0.5,6.5-0.4c0.4,0,0.8,0,1.1,0.1
	C59.4,102.4,59.2,104.8,59.5,107.3z M63.7,109c0-0.1-0.1-0.2-0.1-0.3c-0.2-0.7-0.3-1.3-0.4-2c-0.2-2.1,0-4.1,0.5-6.2
	c1.2,0.2,2.4,0.5,3.5,1c-0.5,2.1-0.7,5.9,0.3,8.2C66.2,109.5,64.9,109.3,63.7,109z M127.5,108c-3.3,2.6-5.5,6.4-6.7,9
	c-6.7-7-13.4-13.9-20.1-20.9c-1-1-1.9-2-2.9-3c-1.7-1.7-4.3,0.9-2.7,2.7c6.9,7.2,13.9,14.5,20.8,21.7c0.3,0.3,0.7,0.7,1,1
	c-3.6,0.7-6.5,2.8-8,4.2c-2.7,2.5-4.5,7-5.3,9.4c-4.5-4.3-8.9-8.8-13.2-13.3c-2.9-3-5.8-5.9-8.6-9c-0.1-0.1-0.1-0.1-0.2-0.2
	c0,0,0,0,0,0c-1.4-2-2.8-4.1-4.5-5.8c-2.2-2.3-5.2-4.5-8.2-5.7c-3.2-1.3-6.7-1.7-10.1-1.9c-3.4-0.2-6.9,0.1-10.2,1.3c0,0,0,0,0,0
	c0,0-0.1,0-0.1,0c-1.5,0.3-3,1-4.3,1.7c-2.9,1.5-6.9,4.1-7.8,7.6c-4.2,0.7-8.2,3.1-10.9,6.3c-1.3,1.6-2.5,3.2-3.5,5
	c0,0.1-0.1,0.2-0.1,0.2c-1-1.1-2-2.3-2.9-3.4c-0.4-0.5-0.8-1.1-1.2-1.7c-0.1-0.1-0.3-0.6-0.3-0.5c-0.2-0.7-0.4-1.4-0.4-2.1
	c-0.2-1.9,0.1-4,0.8-5.8c0.1-0.3,0.1-0.5,0.1-0.8c0.3-0.3,0.6-0.6,0.9-0.8c1.4-1.3,2.8-2.7,4.2-4c2.9-2.8,6-5.9,7.9-9.5
	c2.7-5.2-0.9-11.1,0.1-16.6c0.8-4.1,3.9-6.6,7.4-8.3c4.1-0.3,8.3-0.4,12.4-1c0.1,0,0.1,0,0.2,0c0.1,0,0.2,0,0.3,0c2-0.3,4-0.7,6-1.1
	c0.6,0.9,1.4,1.7,1.9,2.3c1.4,1.7,2.9,3.3,4.6,4.6c3.6,2.8,7.3,5.6,11.1,8.3c4.7,3.2,9.4,6.3,14.6,8.6c5.1,2.2,10.4,4.5,16.1,4.2
	c1-0.1,2.2-0.1,3.1-0.7c1.1-0.7,1.5-2,1.6-3.3c0,0,0-0.1,0-0.1c0.4,0.4,0.8,0.8,1.2,1.1c2.9,2.8,5.9,5.6,8.9,8.4
	c3.6,3.3,7.4,6.5,10.9,9.9C130.2,106.4,128.9,106.9,127.5,108z"/>
<path class="st0" d="M110.8,38.2c-0.2-0.2-0.9-0.8-1.8-0.8c-1.5-0.1-3.3,1.2-3.3,2.9c0,1.6,1.6,3,3.3,2.9c1.3-0.1,2.4-1,2.8-2
	C112.2,39.5,110.9,38.3,110.8,38.2z"/>
<path class="st0" d="M129.5,50.6c-0.8-0.4-2-0.4-2.4,0.3c-0.3,0.6,0.3,1.6,1.2,2.1c0.7,0.3,1.5,0.3,1.9-0.1c0.6-0.5,0.1-1.4,0.1-1.4
	C130.2,51.3,130,50.8,129.5,50.6z"/>
<path class="st0" d="M131.6,45.8c0-1.1-0.9-1.8-1.6-2.4c-0.9-0.8-2-1.6-3-2.3l-0.3-0.2c-0.3-0.2-0.6-0.5-0.9-0.7
	c-1-0.7-1.9-1.4-2.9-2.2c-0.9-0.7-1.4-1.8-1.9-2.9c-0.2-0.5-0.5-1-0.8-1.5c-1.7-3-3.8-6.4-6.6-8.5c0,0-0.1-0.1-0.1-0.1
	c0,0-0.1-0.1-0.1-0.1c-2.7-1.8-6.6-2.7-9.8-2.1c-1.2,0.2-2.1,0.8-2.5,1.8c-0.6,1.2-0.4,3,0.4,4.5c0.7,1.3,1.8,2.5,3.1,3.4
	c1.2,0.8,2.5,1.1,3.8,1.3c0.4,0.1,0.8,0.2,1.3,0.3l0.3,0.1c1.8,0.4,3.9,0.9,5.1,2.2c0.1,0.1,0.2,0.3,0.4,0.4
	c0.4,0.4,0.9,0.9,1.2,1.4c0.7,1,1.3,2.1,1.9,3.2c0.3,0.7,0.7,1.3,1.1,2c0.7,1.2,1.5,2.4,2.7,3c1,0.6,2.2,1,3.7,1.3
	c0.7,0.2,1.6,0.3,2.6,0.3c0.9,0,1.8-0.2,2.4-0.6C131.5,47.1,131.7,46.5,131.6,45.8z M103.5,25.5c0.8-0.6,2.6-0.3,3.6-0.2l0.2,0
	c2.1,0.3,3.7,0.9,5.1,1.8c2,1.4,3.8,3.8,5.1,5.9c0.5,0.7,0.9,1.5,1.3,2.3c0.9,1.7,1.7,3.4,3.3,4.6c0.9,0.7,1.9,1.4,2.8,2.1
	c1.1,0.8,2,1.8,3,2.6c0.3,0.3,0.7,0.6,1,0.9c0,0,0.1,0.1,0.1,0.1c-0.2,0-0.3,0-0.5,0c-0.2,0-0.5,0-0.7,0c-2.7-0.3-4.5-1.1-5.4-2.4
	c-0.7-1-1.3-2.1-1.8-3.1c-0.9-1.6-1.7-3.3-3.1-4.6l-0.2-0.2c-0.7-0.8-1.4-1.5-2.4-1.9c-1.1-0.5-2.2-0.9-3.2-1.1
	c-0.6-0.2-1.3-0.3-1.9-0.4c-1-0.2-2-0.4-2.9-0.8c-1.6-0.6-2.6-2.2-3-2.9C103.2,27.3,102.7,26,103.5,25.5L103.5,25.5z"/>
</svg>
