<?xml version="1.0" encoding="utf-8"?>
<!-- Generator: Adobe Illustrator 19.1.0, SVG Export Plug-In . SVG Version: 6.00 Build 0)  -->
<svg version="1.1" id="Layer_1" xmlns="http://www.w3.org/2000/svg" xmlns:xlink="http://www.w3.org/1999/xlink" x="0px" y="0px"
	 viewBox="0 0 150 150" style="enable-background:new 0 0 150 150;" xml:space="preserve">
<metadata><?xpacket begin="﻿" id="W5M0MpCehiHzreSzNTczkc9d"?>
<x:xmpmeta xmlns:x="adobe:ns:meta/" x:xmptk="Adobe XMP Core 5.6-c067 79.157747, 2015/03/30-23:40:42        ">
   <rdf:RDF xmlns:rdf="http://www.w3.org/1999/02/22-rdf-syntax-ns#">
      <rdf:Description rdf:about=""/>
   </rdf:RDF>
</x:xmpmeta>
                                                                                                    
                                                                                                    
                                                                                                    
                                                                                                    
                                                                                                    
                                                                                                    
                                                                                                    
                                                                                                    
                                                                                                    
                                                                                                    
                                                                                                    
                                                                                                    
                                                                                                    
                                                                                                    
                                                                                                    
                                                                                                    
                                                                                                    
                                                                                                    
                                                                                                    
                                                                                                    
                           
<?xpacket end="w"?></metadata>
<style type="text/css">
	.st0{fill:#FFFFFF;}
</style>
<path class="st0" d="M141.8,112.2c-0.8-2.1-2.5-3.9-4-5.6c-2.4-2.6-5-4.8-7.6-7.2c-5.9-5.3-11.8-10.7-17.5-16.3
	c-1.1-1.1-2.2-2.2-3.3-3.4c-0.3-0.4-0.7-0.8-1-1.2c0,0,0,0,0,0c0,0,0,0,0,0c-0.1-0.1-0.2-0.3-0.3-0.4c-0.4-0.5-0.8-1.1-1.2-1.6
	c-2.6-3.8-5.5-8.5-5.5-13.2c0-0.9,0.1-1.7,0.4-2.5c0.4-0.8,0.6-1.1,1.4-1.5c1.8-0.8,4.1-0.8,6-0.7c0.9,0,1.7,0.1,2.6,0.3
	c0.3,0.1,0.7,0.2,1,0.3c0,0,0.6,0.3,0.7,0.3c2,0.9,4.1,1.8,6.2,2.5c4.4,1.5,9.6,2.7,13.5-0.5c3.9-3.1,6.5-8.8,5.9-13.8
	c-0.5-3.8-4-6.6-6.7-9c-1.4-1.2-2.8-2.4-4.3-3.6c-0.5-0.4-1-0.8-1.6-1.2c0,0,0,0,0-0.1c-2.7-5.3-5.7-11.1-10.8-14.2
	c-0.3-3.7-1.2-7.9-4.5-10.1c-2.4-1.6-5.4-1.4-8-0.8c-1.2,0.3-2.3,0.6-3.4,1c-0.4,0.1-0.9,0.3-1.3,0.4c-0.2,0.1-0.4,0.1-0.6,0.1
	c0,0-0.1,0-0.1,0c0,0-0.1,0-0.1-0.1c-0.3-0.1-0.5-0.3-0.8-0.4c-1.3-0.6-2.6-1-4-1.1c-2.1,0-3.7,1-4.9,2.6c-0.6,0.9-1.2,1.8-1.6,2.8
	c-0.2,0.5-0.7,1.6-0.7,1.7c-0.1,0.2-0.3,0.5-0.3,0.6c-0.1,0-0.4,0.5-0.9,0.6c-0.9,0.2-1.9,0.3-3.1-0.2c-3.1-1.4-7.1-1.6-9.7,0.9
	c-2.1,2.1-2.9,5.1-2,7.9c-1.6,1.4-3.1,2.9-4.5,4.4c-2,2.2-4.1,4.6-5,7.4c-0.4,1.2-0.6,3,0.4,4c0.3,0.2,0.5,0.4,0.8,0.5
	c-0.4,0.4-0.7,0.8-1.1,1.2c-1,1.1-2,2.2-2.7,3.4c-0.7,1.3-1.4,3.4-0.1,4.7c0.2,0.2,0.3,0.3,0.5,0.4c-0.4,0.8-0.9,1.5-1.4,2.3
	c-1.2,1.9-2.6,3.7-4.1,5.4c-0.1,0.1-0.5,0.4-0.7,0.6c-0.2,0-0.5,0.1-0.7,0.1c-0.5,0.1-0.3,0-0.9,0.1c-2.2,0.2-4.3,0.4-6.5,0.5
	c-3.7,0.2-7.8,0.1-11.3,1.3c-5.2,1.8-9.9,4.5-14.1,8.1c-1.7,1.5-4,3.5-4.2,6c-0.1,1.2,0.4,2.7,1.8,2.9c0,0,0.1,0,0.1,0
	c0,0-0.1,0.1-0.1,0.1c-1.6,2-3.3,3.9-4.6,6c-1.4,2.2-2.5,4.6-2.7,7.3c-0.1,1.1,0,2.4,1.1,3c0.7,0.4,1.6,0.4,2.4,0.1
	c-1.3,2.4-2.6,5-3,7.7c-0.2,1.4-0.3,3,0.8,4c1.1,1.1,2.7,1,4.1,0.5c-0.1,1.4-0.1,2.9,0.2,4.3c0.4,2.5,1.7,4.2,3.3,6.1
	c3.2,3.9,6.8,7.7,10.7,10.9c5.5,4.5,13.7,1.6,17.4-3.8c1.8-2.6,2.5-5.7,0.9-8.5c-1.4-2.4-3.5-4.3-5-6.7c-0.3-0.5-0.6-1-0.7-1.5
	c-0.1-0.4-0.1-0.5,0.1-1c0.5-1.2,1.6-2.3,2.7-3c1.6-1.2,3.6-2.4,5.6-3.1c0.3,0.4,0.5,0.7,0.8,1.1c0.9,1.3,1.9,2.5,2.8,3.8
	c1.7,2.2,3.4,3.8,6,4.9c2.6,1.1,5.5,1.7,8.3,2.1c2.7,0.4,5.4,0.7,8.1,0.7c1.7,0,3.7-0.1,5.5-0.6c5.8,6.4,12,12.5,18.1,18.5
	c2.1,2.1,4.2,4.4,6.6,6.2c5.4,4,12.7,2.1,17.2-2.4c1.4-1.4,2.6-3.1,3-5.1c0.3-1.5,0.2-3.1-0.1-4.6c0.6,0.2,1.2,0.4,1.8,0.5
	c5.4,0.8,11.6-2,14.1-6.9C142.5,117.3,142.8,114.7,141.8,112.2z M127.3,49.7c0.3-0.7,1.6-0.7,2.4-0.3c0.5,0.3,0.7,0.7,0.8,0.8
	c0,0.1,0.5,0.9-0.1,1.4c-0.4,0.3-1.2,0.4-1.9,0.1C127.6,51.3,127,50.3,127.3,49.7z M105.5,82.3c0.3,0.4,0.5,0.9,0.8,1.4
	c0.3,0.7,0.6,1.4,0.8,2.1c0,0.1,0.1,0.7,0.1,1.1c-0.3,0-0.5,0.1-0.9,0.1c-1.2,0.1-2.3,0-3.5-0.1c-3.1-0.4-6.1-1.4-8.9-2.7
	c-3.6-1.6-7.1-3.3-10.5-5.4c-4.9-3-9.8-6.6-14.1-10c-1.6-1.3-3.3-2.5-4.7-4.1c-0.7-0.8-1.4-1.5-2.1-2.3c1.4-0.4,2.9-0.9,4.2-1.5
	c0.5-0.2,0.9-0.4,1.4-0.7c0.5-0.2,0.9-0.5,1.4-0.8c0,0,0.2-0.1,0.3-0.2c0,0,0,0,0,0c0,0,0.4,0,0.6,0.1c0.3,0,0.5,0.1,0.8,0.2
	c0.7,0.1,1.3,0.3,2,0.5c1.7,0.4,3.3,0.9,5,1.4c3.8,1.1,7.7,2.4,11.4,3.7c1.6,0.6,3.3,1.2,4.9,1.8c0.6,0.2,1.2,0.5,1.7,0.7
	c0,0,0,0,0,0c0,0,0,0,0,0c0.1,0.1,0.2,0.1,0.4,0.2c0.2,0.1,0.5,0.2,0.7,0.3c0.1,0,0.2,0.1,0.3,0.1c0,0,0,0.1,0,0.1
	c0.4,0.9,0.8,1.8,1.2,2.7c-0.5-0.2-0.8-0.4-2.2-0.9c-0.5-0.2,0.7,8.1,1.1,10.6C98.1,82.2,103,82.3,105.5,82.3z M70.1,59
	c0.1-0.1,0.2-0.1,0.2-0.1C70.3,58.9,70.2,58.9,70.1,59z M83.8,44.4c0.5,2.5,1.5,4.9,3,7c1.9,2.6,4.5,4.5,7.3,6.2
	c1.3,0.8,2.7,1.4,4,2.1c-0.5,1.3-0.7,2.8-0.6,4.3c-0.9-0.4-1.8-0.6-2.6-0.9c-3.9-1.5-7.8-2.8-11.7-4c-3.6-1.1-7.2-2.3-10.9-3.1
	c0,0-0.1,0-0.1,0c0.9-1.5,1.6-3.1,2.3-4.7c1.2-3,2.2-6.2,3.4-9.2c0.9-2.2,2-4.9,3.9-6.4c0.6,0.3,1.2,0.6,1.8,0.9l0,0
	C83.3,39.1,83.3,41.8,83.8,44.4z M97.8,68.2C97.8,68.3,97.9,68.3,97.8,68.2C98.1,68.4,98.1,68.6,97.8,68.2z M111.9,40
	c-0.4,1-1.4,2-2.8,2c-1.7,0.1-3.3-1.3-3.3-2.9c0-1.7,1.8-3,3.3-2.9c0.9,0,1.6,0.6,1.8,0.8C111.1,37.1,112.5,38.4,111.9,40z
	 M118.4,27.5c2.3,2.5,3.1,7,5.1,9c0.5,0.5,0.9,1.6,0.1,2c-3,1.6-5.3-0.8-6.6-5.3c-2.3-8.4-9.6-9.9-7.1-9.9
	C109.9,23.3,115.1,24,118.4,27.5z M87.3,19.6c1.1-0.7,1.5-1.8,2-3c0.4-1,1.4-3,2.2-3.6c1.3-1,3.2,0.1,4.6,0.8
	c1.8,0.8,3.9-0.2,5.6-0.7c1.1-0.4,2.2-0.7,3.3-0.9c0.5-0.1,0,0,0.5-0.1c0.3,0,0.6,0,0.9,0c0.3,0,0.6,0,0.9,0c0,0,0.1,0,0.1,0
	c0.1,0,0.3,0,0.4,0.1c1.2,0.3,1.9,0.8,2.6,1.9c0.7,1.2,1.1,2.5,1.3,3.9c-0.3-0.1-0.5-0.1-0.8-0.2c-6.3-1.3-13.2-0.5-18.4,3.5
	c-0.6,0.5-1.2,0.9-1.7,1.5c0,0,0,0,0,0c-1.4-0.9-2.9-1.8-4.3-2.7C86.7,19.9,87,19.8,87.3,19.6z M72.4,22.6c0.6-3.5,4.3-4.2,7.2-3.1
	c1.6,0.5,3,1.5,4.5,2.3c1.5,0.9,3.1,1.7,4.6,2.6c1,0.6,0.1,2.1-0.9,1.5c-2.4-1.4-4.8-2.8-7.3-4.1c-1.4-0.7-2.9-1.3-4.5-1
	c-1.5,0.3-2.1,1.9-1.8,3.3c0.6,2.8,3.8,3.9,6,5.1c1.6,0.8,3.1,1.6,4.7,2.4c1,0.5,0.1,2-0.9,1.5c0,0,0,0,0,0c0,0,0,0,0,0
	C82,32,79.9,31,77.8,29.9C75,28.4,71.8,26.2,72.4,22.6z M62.1,40.8C62.1,40.8,62.1,40.8,62.1,40.8C62,40.7,62.1,40.8,62.1,40.8z
	 M58.5,50C58.5,50,58.5,50,58.5,50C58.5,50,58.5,50,58.5,50z M59.1,56.8c1.2-1.8,2.7-3.8,3.1-6c0.2-1.1,0-2.4-1-3
	c0.6-0.9,1.4-1.7,2.1-2.5c1.3-1.4,3.3-3.6,2.2-5.7c-0.3-0.6-1.1-1.1-1.9-1.3c0,0,0,0,0-0.1c1-2.2,2.7-4.1,4.3-5.8
	c1.1-1.1,2.2-2.2,3.4-3.3c1.6,1.7,3.8,2.8,5.9,3.9c0.4,0.2,0.9,0.5,1.3,0.7c-1.3,1.1-2,2.4-2.9,4.1c-1.4,2.9-2.4,6-3.5,9
	c-1,2.8-2.1,5.7-3.8,8.1c-0.4,0.5-0.7,0.9-1.2,1.4c-0.2,0.2-0.4,0.3-0.5,0.5c-0.4,0.2-0.9,0.5-1.3,0.6c-0.3,0.1-0.6,0.2-0.8,0.3
	c-2.4,0.8-4.9,1.4-7.4,1.9C57.8,58.7,58.4,57.7,59.1,56.8z M51.7,60.1C51.9,60,52,60,51.7,60.1L51.7,60.1z M51.5,60.2
	C51.5,60.2,51.5,60.3,51.5,60.2C51.5,60.3,51.5,60.3,51.5,60.2C51.5,60.3,51.5,60.2,51.5,60.2z M17.8,76.3c0.1,0.3-0.2,0.3,0,0.1
	C17.6,76.6,17.7,76.4,17.8,76.3z M17.6,76.8C17.6,76.8,17.6,76.8,17.6,76.8C17.6,76.9,17.6,76.9,17.6,76.8
	C17.6,76.8,17.6,76.7,17.6,76.8z M12.2,104.5C12.2,104.5,12.2,104.5,12.2,104.5C12.2,104.5,12.2,104.5,12.2,104.5
	C12.1,104.5,12.1,104.5,12.2,104.5c-0.2,0.1-0.3,0.1-0.2,0C12.1,104.5,12.1,104.5,12.2,104.5C12.2,104.5,12.2,104.5,12.2,104.5z
	 M12.2,93.3C12.4,93.5,12.2,93.6,12.2,93.3L12.2,93.3z M15.6,102.9c-0.9,0.5-1.9,1.1-2.7,1.4c-0.1,0-0.2,0.1-0.3,0.1
	c0,0,0-0.1,0-0.1c0,0-0.1,0.2,0-0.1c0.1-0.3,0.2-0.7,0.2-1c0.7-2.6,2-4.8,3.3-7.3c0.7-1.4,1.2-3.4-0.2-4.5c-1.1-0.9-2.4-0.5-3.6,0.1
	c0.2-0.7,0.4-1.3,0.7-1.9c1.1-2.4,2.8-4.5,4.5-6.5c1.3-1.6,3.2-3.3,3.6-5.4c0.3-1.5-0.7-2.9-2.3-2.9c0,0-0.1,0-0.1,0
	c0.7-0.8,1.6-1.6,2.4-2.3c1.9-1.6,4-3.1,6.3-4.3c1.4-0.7,3-1.5,4.5-2c-1,1-1.8,2.1-2.4,3.5c-1.5,3.2-1.3,6.7-0.9,10.1
	c0.1,0.7,0.2,1.4,0.3,2.2c0.1,0.7,0.2,1.5,0.3,1.9c0.1,0.6,0.1,1.2,0.1,1.8c0,0.3,0,0.6,0,0.9c0,0,0,0.2,0,0.3c0,0.1,0,0.2-0.1,0.4
	c-0.2,0.7-0.3,0.8-0.7,1.6c-0.5,0.9-1.1,1.7-1.7,2.5c-1.4,1.8-3,3.4-4.6,5c-1.6,1.6-3.3,3.1-4.9,4.7C17,101.6,16.2,102.2,15.6,102.9
	z M13.2,93.3C13.2,93.3,13.2,93.3,13.2,93.3C13.1,93.2,13.2,93.3,13.2,93.3z M19,78.5C19,78.5,19,78.5,19,78.5
	C19.3,78.3,19,78.6,19,78.5z M32.5,117.2c-2.3,2.3-4,5-4.9,6.6c-2.9-2.7-5.7-5.6-8.1-8.7c-0.4-0.5-0.8-1.1-1.2-1.7
	c-0.1-0.1-0.3-0.6-0.3-0.5c-0.2-0.7-0.4-1.4-0.4-2.1c-0.1-0.6-0.1-1.2,0-1.8c7.7-4.3,16.4-2.6,19.3-1.8c-0.1,0.3-0.1,0.6-0.1,0.9
	c-0.1,1.9,0.9,3.7,2.1,5.3C36.4,114.1,33.9,115.7,32.5,117.2z M60,107.8c-3.2-1.3-5.1-4.5-7.1-7.3c2.1-0.4,4.3-0.5,6.5-0.4
	c2.8,0.1,5.8,0.5,8.4,1.5c-0.5,2.1-0.7,5.9,0.3,8.2C65.2,109.4,62.5,108.8,60,107.8z M127.9,108.1c-3.3,2.6-5.5,6.4-6.7,9
	c-6.7-7-13.4-13.9-20.1-20.9c-1-1-1.9-2-2.9-3c-1.7-1.7-4.3,0.9-2.7,2.7c6.9,7.2,13.9,14.5,20.8,21.7c0.3,0.3,0.7,0.7,1,1
	c-3.6,0.7-6.5,2.8-8,4.2c-2.7,2.5-4.5,7-5.3,9.4c-4.5-4.3-8.9-8.8-13.2-13.3c-2.9-3-5.8-5.9-8.6-9c-0.1-0.1-0.1-0.1-0.2-0.2
	c0,0,0,0,0,0c-1.4-2-2.8-4.1-4.5-5.8c-2.2-2.3-5.2-4.5-8.2-5.7c-3.2-1.3-6.7-1.7-10.1-1.9c-3.4-0.2-6.9,0.1-10.2,1.3c0,0,0,0,0,0
	c0,0-0.1,0-0.1,0c-0.2,0-0.4,0.1-0.5,0.1l0.4-1.6l0,0c0.2-1.6-0.2-2.9-1.3-3.9c-3.3-3.1-11.5-2.4-15.3-1.9c0,0,0,0,0,0
	c2.8-5.4-0.9-11.4,0.2-16.8c0.9-4.4,4.5-7,8.5-8.6c0.1,0,0.2-0.1,0.3-0.1c3.3-0.2,6.5-0.4,9.8-0.8c0.1,0,0.3,0,0.4,0
	c1.6-0.1,3.2-0.3,4.8-0.5c-0.6,1.1-1.3,2.6-1.9,4.3c-1.4,3.5-2.7,8.7-1.4,13.1c0.9,3.2,3.1,5.5,6.4,7.1c2.3,1,4.3,1.6,5.9,1.6
	c1.5,0,2.7-0.4,3.7-1.2c1.9-1.6,2.8-4.7,2.6-9.3c-0.1-1.6-0.3-3.1-0.5-4.3c1.5,1.1,3.1,2.3,4.6,3.3c4.7,3.2,9.4,6.3,14.6,8.6
	c5.1,2.2,10.4,4.5,16.1,4.2c1-0.1,2.2-0.1,3.1-0.7c1.1-0.7,1.5-2,1.6-3.3c0,0,0-0.1,0-0.1c0.4,0.4,0.8,0.8,1.2,1.1
	c2.9,2.8,5.9,5.6,8.9,8.4c3.6,3.3,7.4,6.5,10.9,9.9C130.6,106.5,129.4,107,127.9,108.1z"/>
</svg>
