<?xml version="1.0" encoding="utf-8"?>
<!-- Generator: Adobe Illustrator 19.1.0, SVG Export Plug-In . SVG Version: 6.00 Build 0)  -->
<svg version="1.1" id="Layer_1" xmlns="http://www.w3.org/2000/svg" xmlns:xlink="http://www.w3.org/1999/xlink" x="0px" y="0px"
	 viewBox="0 0 150 150" style="enable-background:new 0 0 150 150;" xml:space="preserve">
<style type="text/css">
	.st0{fill:#FFFFFF;}
</style>
<g>
	<g>
		<path class="st0" d="M66.6,50.4c1.5,0,2.6-1.2,2.6-2.6c0-1.5-1.2-2.6-2.6-2.6c-1.4,0-2.6,1.2-2.6,2.6C64,49.2,65.2,50.4,66.6,50.4
			z"/>
	</g>
	<g>
		<path class="st0" d="M82.4,50.4c1.4,0,2.6-1.2,2.6-2.6c0-1.5-1.2-2.6-2.6-2.6c-1.5,0-2.6,1.2-2.6,2.6
			C79.8,49.2,80.9,50.4,82.4,50.4z"/>
	</g>
	<g>
		<path class="st0" d="M73.1,59.8c0.3,0.9,1.2,1.5,2.2,1.5c0.2,0,0.4,0,0.6-0.1l10.5-2.6c1-0.3,1.8-1.2,1.7-2.3c0-1.1-0.8-2-1.9-2.2
			l-12.4-2.4c-0.8-0.2-1.7,0.1-2.2,0.8c-0.5,0.6-0.7,1.5-0.4,2.3L73.1,59.8z"/>
	</g>
	<g>
		<path class="st0" d="M81.9,65c-0.7,0.4-1,1.3-0.6,2.1c0.3,0.5,0.8,0.8,1.4,0.8c0.2,0,0.5-0.1,0.7-0.2c0.7-0.4,1-1.3,0.6-2.1
			C83.6,64.9,82.7,64.6,81.9,65z"/>
	</g>
	<g>
		<path class="st0" d="M85.4,62.1c-0.6,0.6-0.5,1.6,0.2,2.2c0.3,0.2,0.6,0.4,1,0.4c0.4,0,0.9-0.2,1.2-0.5c0.6-0.7,0.5-1.6-0.2-2.2
			C86.9,61.4,86,61.5,85.4,62.1z"/>
	</g>
	<g>
		<path class="st0" d="M72.4,69.2c0.1,0,0.2,0,0.3,0c0.7,0,1.3-0.5,1.5-1.2c0.2-0.8-0.3-1.7-1.1-1.8c-0.8-0.2-1.7,0.3-1.8,1.1
			C71,68.2,71.5,69,72.4,69.2z"/>
	</g>
	<g>
		<path class="st0" d="M68,67.2c0.5,0,1-0.2,1.3-0.7c0.5-0.7,0.3-1.7-0.4-2.1c-0.7-0.5-1.7-0.3-2.1,0.4c-0.5,0.7-0.3,1.7,0.4,2.1
			C67.4,67.1,67.7,67.2,68,67.2z"/>
	</g>
	<g>
		<path class="st0" d="M77.6,66.4c-0.8,0.1-1.4,0.9-1.3,1.7c0.1,0.8,0.8,1.3,1.5,1.3c0.1,0,0.1,0,0.2,0c0.8-0.1,1.4-0.9,1.3-1.7
			C79.2,66.9,78.4,66.3,77.6,66.4z"/>
	</g>
	<g>
		<path class="st0" d="M39.5,141.4c2.4,0,4.7,0.4,6.5,1.1l3.8,1.6c2.2,0.9,5,1.4,8,1.4c3,0,5.9-0.5,8-1.4l4.3-1.8
			c3.5-1.5,9.5-1.5,13,0l4,1.7c4.4,1.9,11.7,1.9,16.1,0l3.9-1.7c0.4-0.2,0.9-0.4,1.5-0.5c3.6-1,8.5-0.7,11.5,0.5l4,1.7
			c4.5,1.9,11.6,1.9,16.1,0c0.5-0.2,0.9-0.6,1.1-1.1c0.2-0.5,0.2-1,0-1.5l0,0c-0.2-0.5-0.6-0.9-1.1-1.1c-0.5-0.2-1-0.2-1.5,0
			c-3.5,1.5-9.4,1.5-12.9,0l-4-1.7c-3.7-1.6-9.5-1.8-14-0.7l-3.1,0.8l1.3-1.9c4.6-6.6,7.3-14.5,7.2-22.5c-0.1-5.6-1.3-11-3.7-16
			l-0.4-0.8l6.6-6.6h9.2c1,0,1.9-0.7,2.1-1.7c0.2-1.3-0.8-2.4-2-2.4h-5.3l4.8-4.8c0.4-0.4,0.6-0.9,0.6-1.4c0-0.5-0.2-1-0.6-1.4
			c-0.8-0.8-2.1-0.8-2.9,0l-14.7,14.7l-0.8-1.1c-2.9-4-6.4-7.4-10.5-10L95,82.4v-7.9c0-0.8-0.5-1.6-1.3-1.9L92,72l1.2-1.3
			c4.3-4.6,6.6-10.5,6.6-16.7c0-7.8-3.8-15.2-10.1-19.8l-2-1.4l4.2-1.1c1.1-0.3,1.7-1.4,1.4-2.5l-0.2-0.7c-0.3-1-1.3-1.6-2.3-1.3
			l-7,1.6L77.3,5.4c0-0.2-0.2-0.3-0.3-0.4c-0.2-0.1-0.4-0.1-0.5-0.1L49,12.2c-0.4,0.1-0.6,0.5-0.5,0.9L55,36.6l-7,1.9
			c-1.2,0.3-1.9,1.5-1.6,2.7l0,0.2c0.3,1.3,1.6,2,2.8,1.7l4.6-1.2l-1,2.2c-1.4,3.2-2.1,6.5-2.1,9.9c0,6.1,2.3,12,6.5,16.6l1.3,1.5
			l-1.9,0.5c-0.9,0.2-1.5,1-1.5,2v8.2l-0.5,0.3c-2.2,1.4-4.2,3.1-6,4.9l-0.7,0.7L28.8,75.1c-0.8-0.6-2-0.6-2.7,0.1
			c-0.9,0.9-0.7,2.4,0.3,3.1l6.5,4.6h-7.1c-1,0-1.9,0.7-2.1,1.7c-0.2,1.3,0.8,2.4,2,2.4h9c0.5,0,1-0.2,1.4-0.6l0.7-0.7l8.5,6l-0.7,1
			c-5,7-7.4,15.3-7,23.9c0.4,7.1,2.9,13.9,6.9,19.8l1.1,1.6l-2.6-0.3c-4.1-0.5-8.4-0.1-11.4,1.2l-3.6,1.5c-3.5,1.5-9.4,1.5-13,0
			c-0.5-0.2-1-0.2-1.5,0c-0.5,0.2-0.9,0.6-1.1,1.1c-0.2,0.5-0.2,1,0,1.5c0.2,0.5,0.6,0.9,1.1,1.1c4.5,1.9,11.6,1.9,16.1,0l3.6-1.5
			C34.8,141.8,37.2,141.4,39.5,141.4z M57.9,141.5c-1,0-2-0.1-3-0.2l-0.3,0l-0.3-0.2c-8.1-6.5-12.8-16.1-12.8-26.4
			c0-7.1,2.2-13.9,6.3-19.6l0.7-1l3.6,2.5c0.9,0.6,2.2,0.4,2.8-0.5c0.3-0.4,0.4-1,0.3-1.5c-0.1-0.5-0.4-1-0.8-1.3L51.2,91l1-1
			c0.5-0.4,1-0.9,1.5-1.3l1-0.8l0.7,1.1c0.4,0.6,1,0.9,1.7,0.9h13.3v32.6c0,1.1,0.9,2,2,2h14.7c1.1,0,2-0.9,2-2V89.8H93
			c0.7,0,1.4-0.4,1.8-1.1l0.7-1.2l1.1,0.9c2.7,2.2,5,4.7,6.9,7.6l0.5,0.8l-4.6,4.6c-0.8,0.8-0.8,2.1,0,2.9c0.8,0.8,2.1,0.8,2.9,0
			l3.8-3.8l0.7,1.7c1.6,4,2.4,8.2,2.4,12.4c0,10.3-4.7,20-12.8,26.4l-0.3,0.2l-0.4,0c-2.6,0-5.1-0.3-6.9-1.1l-4-1.7
			c-4.5-1.9-11.6-1.9-16.1,0l-4.3,1.8C62.6,141.1,60.3,141.5,57.9,141.5z M85.1,120.7H74.5v-13h10.6V120.7z M85.1,103.8H74.5V91.1
			l10.6,0V103.8z M90.4,85.8h-6.8v-8.7l1-0.4c0.1,0,0.2-0.1,0.3-0.1l0.2-0.1h5.2V85.8z M78.5,85.8H71v-7.6l1.3,0.2
			c2,0.2,3.5,0.2,5,0.1l1.3-0.1V85.8z M65.9,85.8h-6.8v-9.3h6.8V85.8z M75.3,74.5c-11.3,0-20.6-9.2-20.6-20.5c0-5,1.8-9.8,5.2-13.6
			l0.2-0.3l21.3-5.7l0.3,0.1c8.4,2.8,14,10.6,14,19.5C95.8,65.3,86.6,74.5,75.3,74.5z M61.7,33.9c-1.3,0-2.5-0.9-2.9-2.2l-3.6-12
			c-0.5-1.6,0.4-3.3,2-3.8l0,0c1.6-0.5,3.3,0.4,3.8,2l3.6,12c0.2,0.8,0.2,1.6-0.2,2.3c-0.4,0.7-1,1.2-1.8,1.5
			C62.3,33.8,62,33.9,61.7,33.9z"/>
	</g>
</g>
</svg>
