<?xml version="1.0" encoding="utf-8"?>
<!-- Generator: Adobe Illustrator 19.1.0, SVG Export Plug-In . SVG Version: 6.00 Build 0)  -->
<svg version="1.1" id="Layer_1" xmlns="http://www.w3.org/2000/svg" xmlns:xlink="http://www.w3.org/1999/xlink" x="0px" y="0px"
	 viewBox="0 0 150 150" style="enable-background:new 0 0 150 150;" xml:space="preserve">
<metadata><?xpacket begin="﻿" id="W5M0MpCehiHzreSzNTczkc9d"?>
<x:xmpmeta xmlns:x="adobe:ns:meta/" x:xmptk="Adobe XMP Core 5.6-c067 79.157747, 2015/03/30-23:40:42        ">
   <rdf:RDF xmlns:rdf="http://www.w3.org/1999/02/22-rdf-syntax-ns#">
      <rdf:Description rdf:about=""/>
   </rdf:RDF>
</x:xmpmeta>
                                                                                                    
                                                                                                    
                                                                                                    
                                                                                                    
                                                                                                    
                                                                                                    
                                                                                                    
                                                                                                    
                                                                                                    
                                                                                                    
                                                                                                    
                                                                                                    
                                                                                                    
                                                                                                    
                                                                                                    
                                                                                                    
                                                                                                    
                                                                                                    
                                                                                                    
                                                                                                    
                           
<?xpacket end="w"?></metadata>
<style type="text/css">
	.st0{fill:#FFFFFF;}
</style>
<g>
	<path class="st0" d="M141.3,111.8c-0.8-2.1-2.5-3.9-4-5.6c-2.4-2.6-5-4.8-7.6-7.2c-5.9-5.3-11.8-10.7-17.5-16.3
		c-1.1-1.1-2.2-2.2-3.3-3.4c-0.3-0.4-0.7-0.8-1-1.2c0,0,0,0,0,0c0,0,0,0,0,0c-0.1-0.1-0.2-0.3-0.3-0.4c-0.4-0.5-0.8-1.1-1.2-1.6
		c-0.4-0.6-0.8-1.1-1.2-1.7l-4.3-10.1c-0.1-0.5-0.1-0.9-0.1-1.4c0-0.9,0.1-1.7,0.4-2.5c0.4-0.8,0.6-1.1,1.4-1.5
		c1.8-0.8,4.1-0.8,6-0.7c0.9,0,1.7,0.1,2.6,0.3c0.3,0.1,0.7,0.2,1,0.3c0,0,0.6,0.3,0.7,0.3c2,0.9,4.1,1.8,6.2,2.5
		c4.4,1.5,9.6,2.7,13.5-0.5c3.9-3.1,6.5-8.8,5.9-13.8c-0.5-3.8-4-6.6-6.7-9c-1.4-1.2-2.8-2.4-4.3-3.6c-0.5-0.4-1-0.8-1.6-1.2
		c0,0,0,0,0-0.1c-2.8-5.4-5.9-11.4-11.2-14.4c-0.3-3.4-1.3-7.1-4.5-9c-2.4-1.4-5.3-1.3-7.9-0.8c-1.2,0.2-2.3,0.5-3.4,0.9
		c-0.4,0.1-0.9,0.3-1.3,0.4c-0.2,0-0.4,0.1-0.5,0.1c-0.1,0-0.1,0-0.1,0c0,0,0,0,0,0c0,0-0.1,0-0.1-0.1c-0.3-0.1-0.6-0.3-0.9-0.4
		c-1.2-0.5-2.4-0.9-3.7-0.9c-1.8,0-3.4,0.8-4.5,2.1c-1.2,1.4-1.8,3.1-2.8,4.6c0,0,0,0,0,0c0,0,0,0-0.1,0.1c0,0-0.1,0.1-0.1,0.1
		c0,0,0,0-0.1,0c-0.1,0-0.3,0.1-0.4,0.1c-1,0.2-2,0.2-3,0.3c-0.1,0-0.2,0-0.3,0c-3.1-1.4-6.9-1.7-9.4,0.9c-2.1,2-2.8,4.9-2.1,7.6
		c-1.5,1.4-3,2.8-4.5,4.3c-2.1,2.2-4.3,4.7-5.4,7.5c-0.4,1.2-0.8,2.8,0,3.9c0.3,0.4,0.7,0.6,1.1,0.8c-0.3,0.3-0.6,0.7-0.9,1
		c-1,1.1-2,2.2-2.8,3.5c-0.8,1.3-1.4,3.3-0.3,4.6c0.2,0.2,0.4,0.4,0.7,0.6c-0.4,0.8-0.9,1.5-1.4,2.3c-1.2,1.9-2.6,3.7-4.1,5.4
		c-0.1,0.1-0.5,0.4-0.7,0.6c-0.2,0-0.5,0.1-0.7,0.1c-0.5,0.1-0.3,0-0.9,0.1c-2.2,0.2-4.3,0.4-6.5,0.5c-3.7,0.2-7.8,0.1-11.3,1.3
		c-5.2,1.8-9.9,4.5-14.1,8.1c-1.7,1.5-4,3.5-4.2,6c-0.1,1.2,0.4,2.7,1.8,2.9c0,0,0.1,0,0.1,0c0,0-0.1,0.1-0.1,0.1
		c-1.6,2-3.3,3.9-4.6,6c-1.4,2.2-2.5,4.6-2.7,7.3c-0.1,1.1,0,2.4,1.1,3c0.7,0.4,1.6,0.4,2.4,0.1c-1.3,2.4-2.6,5-3,7.7
		c-0.2,1.4-0.3,3,0.8,4c1.1,1.1,2.7,1,4.1,0.5c-0.1,1.4-0.1,2.9,0.2,4.3c0.4,2.5,1.7,4.2,3.3,6.1c3.2,3.9,6.8,7.7,10.7,10.9
		c5.5,4.5,13.7,1.6,17.4-3.8c1.8-2.6,2.5-5.7,0.9-8.5c-1.4-2.4-3.5-4.3-5-6.7c-0.3-0.5-0.6-1-0.7-1.5c-0.1-0.4-0.1-0.5,0.1-1
		c0.5-1.2,1.6-2.3,2.7-3c1.6-1.2,3.6-2.4,5.6-3.1c0.3,0.4,0.5,0.7,0.8,1.1c0.9,1.3,1.9,2.5,2.8,3.8c1.7,2.2,3.4,3.8,6,4.9
		c2.6,1.1,5.5,1.7,8.3,2.1c2.7,0.4,5.4,0.7,8.1,0.7c1.7,0,3.7-0.1,5.5-0.6c5.8,6.4,12,12.5,18.1,18.5c2.1,2.1,4.2,4.4,6.6,6.2
		c5.4,4,12.7,2.1,17.2-2.4c1.4-1.4,2.6-3.1,3-5.1c0.3-1.5,0.2-3.1-0.1-4.6c0.6,0.2,1.2,0.4,1.8,0.5c5.4,0.8,11.6-2,14.1-6.9
		C142,117,142.3,114.4,141.3,111.8z M81.8,35.2c0.4,0.2,0.9,0.5,1.3,0.7c-0.4,2.7-0.3,5.5,0.2,8.2c0.5,2.5,1.5,4.9,3,7
		c1.9,2.6,4.5,4.5,7.3,6.2c1.3,0.8,2.7,1.4,4,2.1c-0.4,1-0.6,2.1-0.6,3.1c-11.3-0.1-21.5-6.5-24.4-8.5c0.5-1,1-2.1,1.4-3.2
		c1.2-3,2.2-6.2,3.4-9.2C78.4,39.2,79.7,36.5,81.8,35.2z M41.5,66c0.9-1,1.8-1.4,2.1-1.6c1,0,4.5-0.2,8.9-0.9
		c3.8-0.3,7.5-1,11.2-2.1c0.7-0.2,1.4-0.4,2-0.7c0.8-0.2,1.5-0.5,2.2-0.9c1.2-0.6,2.3-1.8,3.1-2.7c3.7,2.5,14.2,8.9,26.3,8.9
		c0,0,0.1,0,0.1,0c0.3,1,0.8,2.9,1.4,4.2c1,2.4,2.3,4.8,3.7,7.1c-6,0.3-20.9,1.4-27.7,4.5c-8.4,3.8-18.8,8.1-25,7.8
		c-6.2-0.2-12.3-4.7-13.1-9.5C35.9,74.8,36.1,72.1,41.5,66z M116.9,25.8c2.2,2.6,3.7,5.6,5.2,8.6c0.5,0.9,0.9,1.7,1.7,2.3
		c0.1,0.1,0.3,0.2,0.4,0.3c0.1,0.1,0.2,0.1,0.3,0.2c0,0,0,0,0,0c0,0,0.1,0,0.1,0.1c0.6,0.5,1.2,1,1.8,1.5c1.5,1.2,2.9,2.5,4.3,3.8
		c1.2,1.1,2.7,2.5,3.5,3.7c0.1,0.2,0.2,0.4,0.3,0.6c-0.1-0.1,0.2,0.6,0.2,0.8c0.2,1.1,0.1,2.3-0.2,3.4c-0.5,2.2-1.6,4.4-3.1,6.1
		c-1.3,1.5-2.7,2.5-4.7,2.5c-2.2,0-4.4-0.6-6.4-1.3c-3.4-1.1-6.5-3.1-10.1-3.5c-3.1-0.4-7.6-0.5-10.4,1.6c-3.9-2.1-8.2-3.9-10.7-7.7
		c-2-3-2.6-6.6-2.5-10.1c0.2-3.9,1.5-7.9,3.9-11c3.5-4.6,8.9-7,14.7-6.9c2.4,0.1,5,0.4,7.2,1.5C114.2,23,115.6,24.3,116.9,25.8z
		 M88.7,17c0.7-1.2,1.3-2.8,2.4-3.6c0.9-0.7,3,0.1,4.2,0.7c1.7,0.8,3.8-0.1,5.5-0.6c1.1-0.3,2.1-0.6,3.2-0.7c0.1,0,0.2,0,0.6-0.1
		c0.2,0,0.5,0,0.7,0c0.7,0,1.1,0,1.5,0.1c1.2,0.3,1.9,0.7,2.6,1.6c0.7,0.9,1,2,1.2,3.1c-0.1,0-0.3-0.1-0.4-0.1
		c-6.3-1.3-13.2-0.5-18.4,3.5c-0.5,0.4-1,0.8-1.5,1.3c-1.3-0.9-2.7-1.7-4.1-2.5c0,0,0.1,0,0.1,0C87.5,19,88.2,18,88.7,17z M73.5,21
		c1.6-2.3,4.3-1.6,6.5-0.5c2.7,1.4,5.3,2.9,7.8,4.5c-1.7,2.1-3,4.6-3.8,7.2c-3-1.5-6-2.9-8.8-4.7C73.3,26.1,71.9,23.1,73.5,21z
		 M67.8,31.9c1.1-1.1,2.2-2.2,3.3-3.2c1.6,1.9,3.9,3,6.1,4.1c0.3,0.2,0.6,0.3,0.9,0.5c-1.2,1.2-2.2,2.7-3,4.3c-1.4,2.9-2.4,6-3.5,9
		c-1,2.8-2.1,5.7-3.8,8.1c-0.4,0.5-0.7,0.9-1.2,1.4c-0.2,0.2-0.4,0.4-0.6,0.6c-0.1,0.1-0.2,0.1-0.2,0.2c-0.6,0.3-1.2,0.5-1.9,0.7
		c-1,0.3-2.1,0.7-3.2,0.9c-0.1,0-0.2,0-0.3,0.1c-1.1,0.2-2.4,0.5-3.9,0.8c0.7-0.9,1.4-1.8,2-2.8c1.2-1.8,2.7-3.8,3.1-6
		c0.2-1.1,0-2.4-1-3c0,0,0,0,0,0c0.7-0.9,1.4-1.7,2.2-2.5c1.3-1.5,3.5-3.9,1.8-5.9c-0.4-0.5-1-0.8-1.6-0.9c0.1-0.1,0.1-0.2,0.2-0.4
		C64.5,35.5,66.2,33.7,67.8,31.9z M60.1,50.9C60.1,50.9,60.1,50.9,60.1,50.9C60.1,50.9,60.1,50.9,60.1,50.9
		C60.1,50.9,60.1,50.9,60.1,50.9z M60.4,50.7C60.4,50.7,60.4,50.7,60.4,50.7C60.4,50.7,60.4,50.7,60.4,50.7z M58,49.7
		C58,49.7,58,49.6,58,49.7C58,49.7,58,49.7,58,49.7z M62.8,41.7c-0.3,0.2-0.5,0.2-0.7,0.2C62.4,41.9,62.7,41.8,62.8,41.7z
		 M51.2,59.8C51.4,59.7,51.6,59.7,51.2,59.8L51.2,59.8z M51,59.9C51,59.9,51,59.9,51,59.9C51,59.9,51,59.9,51,59.9
		C51,59.9,51,59.9,51,59.9z M17.2,76.1c-0.1,0.2,0,0,0-0.1C17.4,76.2,17.1,76.3,17.2,76.1z M17.1,76.5
		C17.1,76.5,17.1,76.5,17.1,76.5C17.1,76.5,17.1,76.5,17.1,76.5C17.1,76.4,17.1,76.3,17.1,76.5z M11.7,93
		C11.9,93.2,11.7,93.2,11.7,93L11.7,93z M12.7,93C12.7,93,12.7,93,12.7,93C12.6,92.9,12.7,93,12.7,93z M11.5,104.2c0,0,0.1,0,0.1,0
		c0,0,0.1,0,0,0c0,0,0,0,0,0c0,0,0,0,0,0c0,0,0,0,0,0C11.5,104.2,11.4,104.3,11.5,104.2z M12.1,104.1c0,0,0-0.1,0-0.1
		c0,0-0.1,0.2,0-0.1c0.1-0.3,0.2-0.7,0.2-1c0.7-2.6,2-4.8,3.3-7.3c0.7-1.4,1.2-3.4-0.2-4.5C14.5,90,13.2,90.5,12,91
		c0.2-0.7,0.4-1.3,0.7-1.9c1.1-2.4,2.8-4.5,4.5-6.5c1.3-1.6,3.2-3.3,3.6-5.4c0.3-1.5-0.7-2.9-2.3-2.9c0,0-0.1,0-0.1,0
		c0.7-0.8,1.6-1.6,2.4-2.3c1.9-1.6,4-3.1,6.3-4.3c1.7-0.9,3.5-1.7,5.3-2.3c-1.2,1.1-2.2,2.4-2.9,3.9c-1.4,3.1-1.3,6.5-0.8,9.8
		c0.3,2.4,1.2,5.4,0.6,7.6c-0.4,1.4-1.5,3-2.5,4.3c-1.4,1.8-3,3.4-4.6,5c-1.6,1.6-3.3,3.1-4.9,4.7c-0.5,0.4-1,0.9-1.5,1.3
		c-0.2,0-0.5,0.1-0.7,0.2c-0.9,0.6-1.9,1.2-2.8,1.5C12.3,104,12.2,104,12.1,104.1z M18.5,78.2C18.5,78.2,18.5,78.2,18.5,78.2
		C18.8,77.9,18.5,78.2,18.5,78.2z M36.3,107.8c-0.1,1.9,0.9,3.7,2.1,5.3c-2.5,0.7-5,2.3-6.4,3.8c-2.3,2.3-4,5-4.9,6.6
		c-2.9-2.7-5.7-5.6-8.1-8.7c-0.4-0.5-0.8-1.1-1.2-1.7c-0.1-0.1-0.3-0.6-0.3-0.5c-0.2-0.7-0.4-1.4-0.4-2.1c-0.2-1.9,0.1-4,0.8-5.8
		c0,0,0-0.1,0-0.1c0.4-0.4,0.8-0.8,1.2-1.2c1.4-1.3,2.8-2.7,4.2-4c2.9-2.9,6.1-5.9,8-9.6c2.8-5.3-0.9-11.1,0.1-16.7
		c0.6-3.3,2.8-5.6,5.5-7.2c-4.4,5.5-4.7,9.1-3.8,14.8c1.1,7.1,9.4,12.2,16.4,12.5c0.2,0,0.4,0,0.6,0c2.6,0,5.7-0.6,9-1.6
		c0.3,1.2,0.8,2.8,2,4.6c-0.9-0.1-1.7-0.1-2.5-0.2c-3.4-0.2-6.9,0.1-10.2,1.3c0,0,0,0,0,0c0,0-0.1,0-0.1,0c-1.5,0.3-3,1-4.3,1.7
		C41,100.7,36.4,103.6,36.3,107.8z M47.9,100.5C47.9,100.5,48,100.6,47.9,100.5C47.9,100.6,47.9,100.5,47.9,100.5z M59.5,107.4
		c-3.2-1.3-5.1-4.5-7.1-7.3c2.1-0.4,4.3-0.5,6.5-0.4c2.8,0.1,5.8,0.5,8.4,1.5c-0.5,2.1-0.7,5.9,0.3,8.2
		C64.7,109.1,62,108.5,59.5,107.4z M90.5,118.6c-2.9-3-5.8-5.9-8.6-9c-0.1-0.1-0.1-0.1-0.2-0.2c0,0,0,0,0,0c-1.4-2-2.8-4.1-4.5-5.8
		c-2.2-2.3-5.2-4.5-8.2-5.7c-0.8-0.3-1.5-0.6-2.3-0.8c-2.9-2.9-3.7-5.3-3.9-6.6C67.1,89,71.8,87,76.2,85c7.4-3.3,26.3-4.2,28.8-4.3
		c0.1,0.2,0.2,0.3,0.4,0.5c1.9,2.3,4.1,4.3,6.2,6.3c2.9,2.8,5.9,5.6,8.9,8.4c3.6,3.3,7.4,6.5,10.9,9.9c-1.3,0.5-2.5,1-4,2.1
		c-3.3,2.6-5.5,6.4-6.7,9c-6.7-7-13.4-13.9-20.1-20.9c-1-1-1.9-2-2.9-3c-1.7-1.7-4.3,0.9-2.7,2.7c6.9,7.2,13.9,14.5,20.8,21.7
		c0.3,0.3,0.7,0.7,1,1c-3.6,0.7-6.5,2.8-8,4.2c-2.7,2.5-4.5,7-5.3,9.4C99.2,127.6,94.8,123.1,90.5,118.6z"/>
	<path class="st0" d="M11.7,104.2C11.7,104.2,11.7,104.2,11.7,104.2C11.7,104.2,11.7,104.2,11.7,104.2
		C11.6,104.2,11.6,104.2,11.7,104.2z"/>
	<path class="st0" d="M110,36.5c-0.2-0.2-0.9-0.8-1.8-0.8c-1.5-0.1-3.3,1.2-3.3,2.9c0,1.6,1.6,3,3.3,2.9c1.3-0.1,2.4-1,2.8-2
		C111.5,37.8,110.1,36.6,110,36.5z"/>
	<path class="st0" d="M127.5,51.1c0.7,0.3,1.5,0.3,1.9-0.1c0.6-0.5,0.1-1.4,0.1-1.4c-0.1-0.1-0.3-0.5-0.8-0.8
		c-0.8-0.4-2-0.4-2.4,0.3C126,49.7,126.6,50.7,127.5,51.1z"/>
</g>
</svg>
