<?xml version="1.0" encoding="utf-8"?>
<!-- Generator: Adobe Illustrator 19.1.0, SVG Export Plug-In . SVG Version: 6.00 Build 0)  -->
<svg version="1.1" id="Mobile_Phone_1" xmlns="http://www.w3.org/2000/svg" xmlns:xlink="http://www.w3.org/1999/xlink" x="0px"
	 y="0px" viewBox="-443 316 300 300" style="enable-background:new -443 316 300 300;" xml:space="preserve">
<style type="text/css">
	.st0{fill:#FFFFFF;}
</style>
<g>
	<path class="st0" d="M-149.0002136,466.2255554c0-3.2611084-2.6448212-5.9059448-5.9059601-5.9059448h-20.2658081
		l19.6342163-19.6393127c2.3065796-2.3069153,2.3065796-6.0463562,0-8.3516235
		c-2.3095856-2.3068848-6.0476837-2.3031311-8.3518982,0l-27.983139,27.9909363h-28.499588l14.3705902-14.3730164
		c2.3066101-2.3068848,2.3066101-6.0460815,0-8.3516541c-2.3068695-2.3068542-6.0450134-2.3068542-8.3518829,0
		l-22.7219086,22.7246704h-17.1332855l-14.2734222-24.7196045l8.6635437-15.0035706l31.1683044-8.348938
		c3.1508026-0.8442078,5.0198822-4.0814514,4.1756744-7.2322693c-0.8439484-3.1470642-4.0656281-5.0212402-7.232254-4.1759644
		l-19.7625275,5.2926331l14.3861542-24.91745l37.9941711-10.178833c3.1508179-0.8442078,5.0198822-4.0814514,4.1756897-7.2325439
		c-0.8439484-3.1467896-4.0683136-5.0212402-7.2322845-4.1756897l-26.585968,7.1222229l10.04245-17.394165
		c1.6304626-2.8244324,0.6632843-6.436676-2.1627197-8.0674133c-2.8179626-1.6330872-6.4379883-0.6630249-8.0659943,2.161438
		l-10.128891,17.5461121l-7.1877136-26.8219604c-0.8442078-3.1508179-4.0895081-5.0223083-7.2325439-4.1756897
		c-3.1508026,0.8439636-5.0198822,4.0827942-4.1756744,7.2322998l10.2443085,38.2301636l-14.2498016,24.6815186l-5.2612-19.6339722
		c-0.8412476-3.1508179-4.0919189-5.0252686-7.2322693-4.1759338c-3.1507874,0.8442078-5.0198669,4.0814514-4.1759338,7.2325439
		l8.3178101,31.0435181l-8.8602905,15.3468933h-27.9557495l-8.9585571-15.5159912l8.3569946-31.1629944
		c0.8442078-3.1508179-1.0248718-6.3883362-4.1745911-7.2336121c-3.1454468-0.8439331-6.3869934,1.0248413-7.2336121,4.1745911
		l-5.297699,19.7598572l-14.3875122-24.9201355l10.1801453-37.9850769c0.8439636-3.1494751-1.0248413-6.388092-4.1759338-7.2322998
		c-3.1454468-0.8466187-6.3883362,1.0248718-7.2322693,4.1759644l-7.1235657,26.5765991l-10.0386658-17.3888245
		c-1.6317749-2.8257446-5.2467041-3.7955933-8.0670776-2.161377c-2.8246765,1.6307068-3.7918396,5.2429504-2.1614075,8.0673523
		l10.1302185,17.5461121l-26.8232117-7.1890869c-3.1441345-0.8452454-6.388092,1.0262451-7.2322998,4.1759644
		c-0.8439331,3.1494751,1.0248718,6.3883667,4.1759338,7.2322693l38.2301331,10.245697l14.2471008,24.6763916l-19.6315002-5.2598572
		c-3.1521606-0.8428955-6.3883362,1.0261841-7.2322693,4.1759033c-0.8442078,3.1495056,1.0248413,6.3883667,4.1756897,7.2322998
		l31.0397034,8.3175354l8.8694153,15.3627319l-14.2602539,24.6946411h-17.5933228l-22.8663635-22.8677063
		c-2.3066101-2.3066101-6.0447388-2.3066101-8.3516235,0c-2.305542,2.3055115-2.3068848,6.0450134,0,8.3518982
		l14.5144653,14.5158081h-28.727478l-27.896698-27.8994141c-2.3068848-2.3066101-6.0447388-2.3066101-8.3516235,0
		c-2.305542,2.305542-2.3068848,6.0450134,0,8.3518982l19.5461731,19.5475159h-19.9262695
		c-3.2611389,0-5.9059753,2.6448364-5.9059753,5.9059448c0,3.2608948,2.6448364,5.9060059,5.9059753,5.9060059h19.9275818
		l-19.5474854,19.552887c-2.3068848,2.3066101-2.305542,6.0474243,0,8.3516235
		c1.1534424,1.1534424,2.6647034,1.7300415,4.1759644,1.7300415c1.5109558,0,3.0235596-0.5765991,4.1756592-1.7300415
		l27.896698-27.9045105h28.5374146l-14.3244019,14.3204041c-2.305542,2.3068848-2.3068848,6.0450134,0,8.3518982
		c1.1534424,1.1534424,2.6646729,1.730011,4.1759338,1.730011s3.022522-0.5765686,4.1756897-1.730011l22.6763-22.6723022h17.4950867
		l14.2589111,24.6959839l-8.5129395,14.7450562l-31.2284241,8.3623962
		c-3.1508179,0.8439331-5.0212097,4.0814209-4.1770325,7.2322388c0.8426208,3.1483765,4.0814819,5.0067749,7.2309265,4.1759644
		l19.8242493-5.3057861l-14.3624878,24.8769531l-38.1069336,10.2075195
		c-3.1497498,0.8441772-5.0198975,4.0814209-4.1759338,7.2325439c0.842865,3.1508179,4.0749817,5.0145264,7.2325134,4.1757202
		l26.6984253-7.151001l-9.9610901,17.2538452c-1.6304321,2.8233032-0.6632996,6.4355469,2.161377,8.065979
		c0.9306335,0.5374146,1.9450378,0.791626,2.9476318,0.791626c2.0408325,0,4.0250549-1.05896,5.1197205-2.9543457
		l9.9651489-17.2591553l7.1600342,26.7092285c0.7078552,2.6397095,3.0933838,4.3778076,5.7003479,4.3778076
		c0.506012,0,1.020874-0.0654907,1.5335693-0.2019043c3.1494446-0.8441772,5.0185242-4.0841064,4.1743164-7.2325439
		l-10.2180176-38.1171265l14.2680664-24.711853l5.2429199,19.5684204c0.7062378,2.6397705,3.0931091,4.3778687,5.7001038,4.3778687
		c0.5059814,0,1.0197449-0.0654907,1.5321655-0.2018433c3.1508179-0.8442383,5.0198975-4.0814819,4.1759644-7.2322998
		l-8.2992859-30.9769897l8.4498596-14.6376648h29.1116028l8.2155457,14.2315369l-8.3701477,31.2282104
		c-0.8439331,3.1484375,1.0248413,6.3883667,4.1759338,7.2325439c0.5110779,0.1363525,1.0275574,0.2019043,1.5308533,0.2019043
		c2.6083069,0,4.9935608-1.7380981,5.701416-4.3778076l5.3135376-19.8226929l14.3625336,24.8793335l-10.2129059,38.1069336
		c-0.8442078,3.1508179,1.0249023,6.3883667,4.1759491,7.2322998c0.5110931,0.1363525,1.0275421,0.2018433,1.5308533,0.2018433
		c2.6083221,0,4.993576-1.737793,5.701416-4.3775024l7.156311-26.6987305l9.9611053,17.2537842
		c1.0933075,1.8953857,3.0775299,2.9543457,5.1197357,2.9543457c1.001236,0,2.0183105-0.2542114,2.9463043-0.791626
		c2.8259888-1.6304321,3.7931366-5.2426758,2.1627045-8.06604l-9.9664917-17.2618408l26.709198,7.1539307
		c3.1430054,0.8334351,6.3856201-1.0275879,7.2322388-4.1759644c0.8442078-3.1508179-1.0248566-6.3883667-4.1756592-7.2322998
		l-38.1173859-10.2102051l-14.2629242-24.7091675l19.5659943,5.2453613
		c3.1454468,0.8334961,6.3856659-1.0250854,7.2322693-4.1759033c0.8442078-3.1481323-1.0248566-6.3883667-4.1759491-7.2322998
		l-30.9739532-8.3019714l-8.4487915-14.6325989l14.2734222-24.7220154h16.7531586l22.813736,22.8191223
		c1.1534271,1.1531982,2.6633606,1.7300415,4.1759338,1.7300415c1.5099335,0,3.0225067-0.5768433,4.1759491-1.7300415
		c2.3066101-2.3041687,2.3066101-6.0450134,0-8.3518677l-14.4621277-14.4672546h28.764267l27.8099976,27.8100281
		c1.1534271,1.1534424,2.6633453,1.7302856,4.1759338,1.7302856s3.0225067-0.5768433,4.1759644-1.7302856
		c2.3065796-2.3066101,2.3065796-6.0447388,0-8.3516235l-19.4586639-19.4584045h20.0902557
		C-151.6450348,472.1315613-149.0002136,469.4864502-149.0002136,466.2255554z M-264.2958679,466.4747009l-14.2656555,24.7115479
		h-28.526947l-14.2683105-24.7115479l14.2683105-24.7078247h28.526947L-264.2958679,466.4747009z"/>
</g>
</svg>
