<?xml version="1.0" encoding="utf-8"?>
<!-- Generator: Adobe Illustrator 19.1.0, SVG Export Plug-In . SVG Version: 6.00 Build 0)  -->
<svg version="1.1" id="Desktop_1" xmlns="http://www.w3.org/2000/svg" xmlns:xlink="http://www.w3.org/1999/xlink" x="0px" y="0px"
	 viewBox="-390 378 300 300" style="enable-background:new -390 378 300 300;" xml:space="preserve">
<style type="text/css">
	.st0{fill:#FFFFFF;}
</style>
<g>
	<g>
		<path class="st0" d="M-257.9742737,483.8948059c2.6087494,0,4.688858-2.0899048,4.688858-4.671051
			s-2.0801086-4.6710815-4.688858-4.6710815c-2.5659485,0-4.6434937,2.0899353-4.6434937,4.6710815
			S-260.5402222,483.8948059-257.9742737,483.8948059z"/>
	</g>
	<g>
		<path class="st0" d="M-229.8947601,483.8948059c2.5662079,0,4.6486359-2.0899048,4.6486359-4.671051
			s-2.082428-4.6710815-4.6486359-4.6710815c-2.6087189,0-4.6860199,2.0899353-4.6860199,4.6710815
			S-232.503479,483.8948059-229.8947601,483.8948059z"/>
	</g>
	<g>
		<path class="st0" d="M-246.4073486,500.713501c0.6118927,1.6203613,2.1569672,2.6440735,3.8227081,2.6440735
			c0.328537,0,0.6634674-0.0404968,0.9958344-0.1235352l18.66185-4.6811218
			c1.8583679-0.4659424,3.1450653-2.163147,3.0896301-4.0782776c-0.0528564-1.9161072-1.4326477-3.5377808-3.3137054-3.8979797
			l-22.0222321-4.2229309c-1.4594574-0.2795105-2.9426575,0.2480774-3.8956909,1.3813477
			c-0.9530334,1.1317139-1.2186279,2.6891785-0.6975098,4.0741272L-246.4073486,500.713501z"/>
	</g>
	<g>
		<path class="st0" d="M-230.7962189,509.9298096c-1.3142853,0.7227478-1.8029327,2.3985596-1.0827332,3.7128906
			c0.4909515,0.90271,1.4455719,1.4189453,2.3998566,1.4189453c0.4381256,0,0.901474-0.1031494,1.3143005-0.3349609
			c1.3145599-0.7478027,1.805542-2.3983154,1.0830078-3.7141418
			C-227.8045654,509.6716919-229.4790955,509.208313-230.7962189,509.9298096z"/>
	</g>
	<g>
		<path class="st0" d="M-224.553772,504.8242493c-0.9819183,1.1343079-0.8259125,2.8632507,0.3349609,3.8425903
			c0.4886322,0.4383545,1.1332703,0.6446228,1.752655,0.6446228c0.7730408,0,1.5460968-0.3346863,2.0876007-0.9543152
			c0.9819031-1.1608887,0.8259125-2.8882446-0.307373-3.8678589
			C-221.8467712,503.5097046-223.574173,503.6646423-224.553772,504.8242493z"/>
	</g>
	<g>
		<path class="st0" d="M-247.7621307,517.4337158c0.2065277,0.0252686,0.4130859,0.0518188,0.6196442,0.0518188
			c1.2377167,0,2.3720093-0.8511963,2.6553802-2.1141968c0.3347015-1.47052-0.5667419-2.9398193-2.037323-3.2747803
			c-1.4692688-0.3362427-2.9398193,0.5665283-3.2747803,2.0373535
			C-250.1591644,515.6031494-249.2313995,517.0724487-247.7621307,517.4337158z"/>
	</g>
	<g>
		<path class="st0" d="M-255.4712524,513.8492432c0.8761749,0,1.7526245-0.4118652,2.2688599-1.1861572
			c0.8512115-1.2627563,0.5412445-2.9650879-0.7227631-3.8160095c-1.2377167-0.8511963-2.9385223-0.5149536-3.7897186,0.7224731
			c-0.8511963,1.2630005-0.5162354,2.9651184,0.7214661,3.8163147
			C-256.5289917,513.6942749-255.9875031,513.8492432-255.4712524,513.8492432z"/>
	</g>
	<g>
		<path class="st0" d="M-238.4537811,512.4567871c-1.4945068,0.2062988-2.552002,1.598999-2.3457184,3.0947876
			c0.1802368,1.3659058,1.3661194,2.3720093,2.7069855,2.3720093c0.1297302,0,0.2581024-0.0252686,0.3865204-0.0252686
			c1.4958191-0.206543,2.5282745-1.598938,2.3217621-3.0947876
			C-235.5905151,513.3077393-236.9579468,512.2502441-238.4537811,512.4567871z"/>
	</g>
	<g>
		<path class="st0" d="M-306.1299744,645.7161255c4.1964111,0,8.3948975,0.6533813,11.52005,1.9611206l6.7253113,2.8183594
			C-284.039856,652.1112061-278.9678345,653-273.6012573,653c5.359436,0,10.4253235-0.8878174,14.2639771-2.498291
			l7.6477661-3.1975098c6.2513275-2.6063232,16.8091736-2.6063232,23.0605011-0.0061035l7.0320892,2.9457397
			c7.8586731,3.2919922,20.7174835,3.2900391,28.5751495-0.0043335l7.0012665-2.9353027
			c0.798111-0.3302612,1.6838684-0.6258545,2.640976-0.8817139c6.3603973-1.6950684,15.1405792-1.3179321,20.4215546,0.8756104
			l7.0361786,2.9457397c8.0075836,3.3657227,20.5530396,3.3646851,28.5606155,0.0010376
			c0.8827057-0.3710327,1.5686874-1.0631714,1.9315567-1.9499512c0.3618469-0.8867798,0.3577728-1.8612061-0.0132523-2.7438965l0,0
			c-0.3720474-0.8858032-1.0661697-1.5737915-1.9550018-1.9356689c-0.8827133-0.3587646-1.8551254-0.3536987-2.7357864,0.0162964
			c-6.2492828,2.6216431-16.7877808,2.6185913-23.0166779-0.0009766l-7.0433044-2.9508667
			c-6.6620941-2.7734985-16.91008-3.2597046-24.9135742-1.1844482l-5.4460754,1.4137573l2.3608856-3.4039917
			c8.1654663-11.7731934,12.9231873-25.7225952,12.7867279-40.0496826
			c-0.0945129-9.9238892-2.3162079-19.4694824-6.6059418-28.3809814l-0.6431732-1.3342896l11.668869-11.6658325l16.3806763,0.000061
			c1.7868652,0,3.4467926-1.2168579,3.7370758-2.9799805c0.3694763-2.2438965-1.359787-4.1917725-3.5358887-4.1917725h-9.4080811
			l8.5844879-8.5845337c0.6778412-0.6777954,1.0498657-1.5778809,1.0498657-2.5349731
			c0-0.9581299-0.3730469-1.8581543-1.0498657-2.5360107c-1.3964233-1.3964233-3.6714935-1.3953857-5.071991,0.0010376
			l-26.0725098,26.0673828l-1.4310913-2.012085c-5.075058-7.137085-11.3814392-13.1376343-18.744812-17.8335571l-0.965271-0.6156616
			v-14.0906982c0-1.4857788-0.9230652-2.8152466-2.3152008-3.3344116l-2.9535217-1.1015625l2.1252289-2.2862549
			c7.5611115-8.1349792,11.7249298-18.6734619,11.7249298-29.6746826c0-13.8369141-6.7232666-27.0133362-17.9854279-35.2461548
			l-3.5186157-2.5726929l7.3999176-1.9837036c1.9160767-0.5136414,3.0277557-2.5101318,2.4552765-4.4094238l-0.3875885-1.2859802
			c-0.5269165-1.7481384-2.3213959-2.7861023-4.0994568-2.3712158l-12.4940338,2.9152527l-11.3773499-41.479126
			c-0.0866394-0.3251648-0.2955933-0.596283-0.5891418-0.7644653c-0.2894745-0.1671753-0.6227875-0.2140503-0.9408112-0.1243591
			l-48.7691193,13.0683594c-0.6686401,0.1794128-1.0682068,0.8694763-0.8888245,1.5381165l11.4211731,41.8522034
			l-12.5193787,3.3565979c-2.0817871,0.558136-3.3370361,2.6763916-2.8269043,4.7704773l0.0678711,0.278595
			c0.5463867,2.2428284,2.8312683,3.5968628,5.0609741,2.999115l8.1860046-2.194458l-1.7776489,3.9966431
			c-2.498291,5.6193848-3.7652893,11.5598145-3.7652893,17.6562195c0,10.9053955,4.1077576,21.3776245,11.5669556,29.4871216
			l2.3973694,2.6053467l-3.4411316,0.8358154c-1.6084595,0.390686-2.7408752,1.8310547-2.7408752,3.4862671v14.6408081
			l-0.9377441,0.6187134c-3.84375,2.5380859-7.4143372,5.4491577-10.6118774,8.6517944l-1.246582,1.2496338l-33.8889465-24.079895
			c-1.4568787-1.0351562-3.5152893-1.007019-4.7748108,0.2609253c-1.602356,1.6130981-1.3222046,4.204895,0.4524841,5.4666138
			l11.5251465,8.1869507h-12.5888977c-1.7868652,0-3.4468079,1.2167969-3.7370911,2.9799194
			c-0.3694763,2.2439575,1.3598022,4.1918335,3.5358887,4.1918335h16.0056458c0.9370422,0,1.8375244-0.3635864,2.5118713-1.0142212
			l1.245575-1.2017212l15.0529175,10.6923828l-1.2200928,1.7032471
			c-8.8697205,12.3886719-13.2151184,27.1552734-12.4437256,42.4538574
			c0.6370544,12.6338501,5.1017456,24.7781372,12.2085571,35.242981l1.8833618,2.7733154l-4.6133118-0.6064453
			c-7.2013245-0.9510498-14.9632263-0.1539307-20.2635498,2.0681152l-6.4358215,2.6878662
			c-6.2391052,2.6206055-16.7857361,2.6236572-23.0248413,0.0010376c-0.883728-0.3710327-1.8581543-0.3751221-2.743927-0.012207
			c-0.8867798,0.362854-1.5788879,1.0477905-1.9499207,1.930481c-0.3699951,0.8827515-0.3750916,1.8571777-0.012207,2.742981
			c0.3618469,0.8867798,1.047821,1.5788574,1.930542,1.9488525c8.0075684,3.3636475,20.5550537,3.3667603,28.5687561,0.005127
			l6.4347839-2.6879272C-314.520813,646.3695068-310.326416,645.7161255-306.1299744,645.7161255z M-273.5533447,645.8241577
			c-1.7695007,0-3.5583801-0.1161499-5.2921753-0.3557129l-0.567749-0.0784912l-0.4474792-0.3567505
			c-14.4087219-11.4813232-22.6731567-28.5809937-22.6731567-46.9160156c0-12.5658569,3.8763733-24.6170044,11.2091675-34.850708
			l1.210907-1.6889648l6.3614197,4.5164795c1.5625916,1.1130981,3.8977661,0.7043457,5.0006409-0.8449707
			c0.5545044-0.7797852,0.7716064-1.7297363,0.6116028-2.673584c-0.1600342-0.9448853-0.6768188-1.7695312-1.4565735-2.322998
			l-5.8018188-4.1209717l1.8571472-1.7460938c0.848053-0.7970581,1.714447-1.5747681,2.6073608-2.3188477l1.7633667-1.4698486
			l1.2955322,1.8948975c0.6727295,0.9825439,1.7796631,1.5686646,2.9620667,1.5686646h23.699585v57.9723511
			c0,1.977417,1.6084442,3.5858154,3.5858765,3.5858154h26.0959473c1.9774323,0,3.5858765-1.6083984,3.5858765-3.5858154
			v-57.9723511h6.8466034c1.2995911,0,2.5003204-0.7277832,3.1332855-1.8989258l1.1966553-2.2159424l1.9560394,1.5870361
			c4.7733459,3.8753662,8.9116669,8.4376831,12.300827,13.5606689l0.9408112,1.421936l-8.2613831,8.2592773
			c-1.3974457,1.3984985-1.3974457,3.6725464,0,5.0709839c1.3556671,1.3557129,3.7194061,1.3536377,5.0709839,0l6.7823792-6.7772827
			l1.1711731,2.9468384c2.8091736,7.067749,4.2341461,14.503479,4.2341461,22.102356
			c0,18.3839722-8.2960358,35.512146-22.7608337,46.9934692l-0.5524445,0.4393311l-0.7063751,0.0132446
			c-4.6693878,0.0764771-9.106369-0.619751-12.2294922-1.9325562l-7.041275-2.9508667
			c-8.0095978-3.3290405-20.5672913-3.3290405-28.5809784,0.0040894l-7.6630554,3.2026367
			C-265.1095276,645.1442871-269.2753906,645.8241577-273.5533447,645.8241577z M-225.1175537,608.9316406h-18.9241943v-23.0280151
			h18.9241943V608.9316406z M-225.1175537,578.921814h-18.9241943v-22.6402588l18.9241943-0.0020752V578.921814z
			 M-215.7757263,546.8884888h-12.0898438v-15.4300537l1.8347321-0.7165527
			c0.1936646-0.0713501,0.3883514-0.1417236,0.5779419-0.2232666l0.3944702-0.1691895h9.2826996V546.8884888z
			 M-236.8241425,546.8884888h-13.4169617v-13.5005493l2.3392792,0.2844238
			c3.4829407,0.4229736,6.1381989,0.3944092,8.8230133,0.1793823l2.2546692-0.1824951V546.8884888z M-259.2027283,546.8884888
			H-271.32724v-16.5390625h12.1245117V546.8884888z M-242.5831451,526.859375
			c-20.140213,0-36.5253754-16.3708801-36.5253754-36.4927368c0-8.8994751,3.2872314-17.4961853,9.2562256-24.2061768
			l0.414856-0.4668579l37.7913055-10.1317749l0.596283,0.1997986c14.9214478,4.9934998,24.9461975,18.9007568,24.9461975,34.605011
			C-206.103653,510.4884949-222.468399,526.859375-242.5831451,526.859375z M-266.6425476,454.5965576
			c-2.3749695,0-4.5124207-1.5890808-5.1983948-3.8631287l-6.4133911-21.2522583
			c-0.865387-2.8662415,0.7624207-5.9027405,3.6296997-6.7680969l0.0010071-0.0010376
			c2.8642273-0.8633423,5.9027405,0.7655029,6.7681274,3.6307373l6.4133911,21.2532959
			c0.4189148,1.3882751,0.2721558,2.8580933-0.4138489,4.1362915c-0.6859741,1.2771606-1.8286133,2.211853-3.2168884,2.6307983
			C-265.5875854,454.5180664-266.114563,454.5965576-266.6425476,454.5965576z"/>
	</g>
</g>
</svg>
