<?xml version="1.0" encoding="utf-8"?>
<!-- Generator: Adobe Illustrator 19.1.0, SVG Export Plug-In . SVG Version: 6.00 Build 0)  -->
<svg version="1.1" id="Desktop_1" xmlns="http://www.w3.org/2000/svg" xmlns:xlink="http://www.w3.org/1999/xlink" x="0px" y="0px"
	 viewBox="0 0 178.0148773 193.7663574" style="enable-background:new 0 0 178.0148773 193.7663574;" xml:space="preserve">
<style type="text/css">
	.st0{fill:#FFFFFF;}
</style>
<g>
	<g>
		<path class="st0" d="M75.0761948,62.698761c2.0219574,0,3.6341782-1.619812,3.6341782-3.6203651
			c0-2.0005569-1.6122208-3.6204033-3.6341782-3.6204033c-1.9887619,0-3.598999,1.6198463-3.598999,3.6204033
			C71.4771957,61.078949,73.0874329,62.698761,75.0761948,62.698761z"/>
	</g>
	<g>
		<path class="st0" d="M96.8396683,62.698761c1.9889679,0,3.6029968-1.619812,3.6029968-3.6203651
			c0-2.0005569-1.6140289-3.6204033-3.6029968-3.6204033c-2.0219345,0-3.6319733,1.6198463-3.6319733,3.6204033
			C93.207695,61.078949,94.8177338,62.698761,96.8396683,62.698761z"/>
	</g>
	<g>
		<path class="st0" d="M84.0413208,75.7343597c0.4742584,1.2558899,1.6717911,2.0493164,2.9628601,2.0493164
			c0.254631,0,0.5142212-0.0313797,0.7718353-0.0957489l14.4641495-3.6281586
			c1.440361-0.3611374,2.4376373-1.67659,2.3946686-3.1609344c-0.0409698-1.4851074-1.1103973-2.7420197-2.5683441-3.0212021
			L84.9978256,64.604599c-1.1311798-0.2166443-2.2807541,0.1922607-3.0194168,1.0706253
			c-0.7386627,0.8771667-0.944519,2.0842972-0.5406113,3.1577225L84.0413208,75.7343597z"/>
	</g>
	<g>
		<path class="st0" d="M96.140976,82.877594c-1.0186615,0.5601807-1.3973923,1.8590622-0.8391953,2.8777237
			c0.3805237,0.6996918,1.1204147,1.0998077,1.860054,1.0998077c0.3395767,0,0.6987-0.0799484,1.0186691-0.2596283
			c1.0188599-0.5795822,1.3994064-1.8588409,0.8393936-2.8787079C98.4597015,82.6775436,97.1618347,82.3183975,96.140976,82.877594z
			"/>
	</g>
	<g>
		<path class="st0" d="M100.9792786,78.9204559c-0.7610474,0.8791656-0.6401367,2.2192001,0.259613,2.9782486
			c0.3787231,0.3397522,0.8783646,0.4996414,1.3584213,0.4996414c0.5991669,0,1.1983337-0.2594147,1.6180267-0.7396698
			c0.7610474-0.8997498,0.6401367-2.2385788-0.2382278-2.9978333
			C103.0773849,77.9015884,101.738533,78.0216904,100.9792786,78.9204559z"/>
	</g>
	<g>
		<path class="st0" d="M82.9912796,88.6935959c0.16008,0.0195847,0.3201675,0.0401688,0.4802704,0.0401688
			c0.9593048,0,1.8384552-0.6597214,2.0580902-1.6386337c0.2594147-1.1397552-0.4392624-2.2785339-1.5790558-2.5381622
			c-1.1387787-0.2605972-2.2785568,0.4390945-2.5381699,1.579071
			C81.1334229,87.2748184,81.8525009,88.4135971,82.9912796,88.6935959z"/>
	</g>
	<g>
		<path class="st0" d="M77.0162125,85.9153976c0.6790924,0,1.3583984-0.3191833,1.7585144-0.9193344
			c0.6597366-0.9787064,0.4194946-2.2981339-0.5601959-2.9576569c-0.9593124-0.659729-2.2775345-0.3991165-2.9372787,0.5599747
			c-0.6597214,0.9789124-0.4001083,2.2981567,0.5591965,2.9578629
			C76.1963882,85.7952881,76.6160812,85.9153976,77.0162125,85.9153976z"/>
	</g>
	<g>
		<path class="st0" d="M90.205864,84.8361816c-1.1583405,0.1598816-1.9779739,1.2393036-1.8180847,2.3986664
			c0.1396942,1.0586319,1.0588303,1.8384705,2.0980835,1.8384705c0.1005478,0,0.2000504-0.0195999,0.2995834-0.0195999
			c1.1593628-0.1600723,1.9595795-1.2392883,1.7995148-2.3986511C92.4250793,85.4957047,91.3652267,84.6760941,90.205864,84.8361816
			z"/>
	</g>
	<g>
		<path class="st0" d="M37.7523804,188.1208801c3.2525063,0,6.5065956,0.5064087,8.9287949,1.5200043l5.2125473,2.1844025
			c2.97995,1.252182,6.911087,1.9410706,11.0705376,1.9410706c4.1539192,0,8.0803185-0.6881104,11.0555305-1.9363403
			l5.9275131-2.4782867c4.8451843-2.0200806,13.0282059-2.0200806,17.8733902-0.0047302l5.4503403,2.2831421
			c6.0909805,2.5515289,16.0573959,2.5500183,22.1476059-0.0033417l5.4264374-2.2750702
			c0.6185913-0.2559662,1.3051147-0.4850616,2.046936-0.6833649c4.929718-1.313797,11.7349396-1.0214996,15.8280334,0.6786346
			l5.4535065,2.2831421c6.2063904,2.6086426,15.9299469,2.6078644,22.1363373,0.0007935
			c0.6841583-0.2875671,1.2158356-0.8239899,1.4970856-1.5113068c0.2804565-0.6873169,0.277298-1.4425659-0.0102692-2.1267242l0,0
			c-0.2883606-0.6865234-0.826355-1.2197876-1.5152588-1.5002441c-0.6841583-0.2780914-1.4378357-0.2741394-2.1204071,0.0126343
			c-4.8436127,2.0319366-13.0116272,2.0295563-17.8394318-0.0007935l-5.4590302-2.2871094
			c-5.163559-2.1496277-13.1064148-2.526474-19.3096466-0.9179993l-4.2210693,1.0957642l1.8298492-2.6383362
			c6.3287659-9.1250153,10.0163116-19.9367065,9.910553-31.0411377c-0.0732574-7.6916656-1.7952118-15.0901184-5.1200409-21.9971313
			l-0.4985046-1.0341339l9.0441437-9.0417709l12.6960907,0.0000076c1.3849335,0,2.6714935-0.9431229,2.8964844-2.3096466
			c0.2863617-1.7391968-1.0539246-3.2489319-2.7405548-3.2489319h-7.2918701l6.6535339-6.6535416
			c0.5253754-0.5253677,0.8137207-1.2229538,0.8137207-1.9647751c0-0.7426224-0.2891388-1.4402084-0.8137207-1.9655685
			c-1.0823212-1.0823288-2.8456421-1.0815353-3.9311218,0.0007858l-20.207901,20.203949l-1.1091919-1.559494
			c-3.9335022-5.5317154-8.8213577-10.1825562-14.52845-13.8221741l-0.7481537-0.4771729V95.9248581
			c0-1.1515961-0.7154388-2.1819992-1.7944336-2.5844116l-2.2891693-0.8537521l1.6471863-1.7720108
			c5.8603592-6.3051453,9.0875931-14.4731522,9.0875931-22.9998322c0-10.7245064-5.210968-20.9370842-13.939888-27.3180695
			l-2.72715-1.9940071l5.7354202-1.5374908c1.4850769-0.3981018,2.3467102-1.9455109,1.9029999-3.4176064l-0.300415-0.9967079
			c-0.4083939-1.3549252-1.7992249-2.1594181-3.1773376-1.8378582l-9.6836929,2.2595272L89.8296509,0.7235999
			c-0.0671539-0.2520161-0.2291031-0.4621612-0.4566269-0.5925143c-0.2243652-0.1295632-0.4827042-0.165904-0.7291946-0.0963823
			L50.8445778,10.1635389c-0.5182533,0.1390429-0.8279419,0.6738863-0.6889,1.1921387l8.8521652,32.4381866l-9.7033539,2.6015892
			c-1.6135178,0.4326019-2.5864067,2.0743866-2.1910172,3.6974297l0.052597,0.2159195
			c0.423481,1.7383575,2.1944046,2.7878113,3.9225807,2.3245277l6.3446846-1.7008553l-1.3777924,3.0976677
			c-1.9363365,4.3553734-2.9183311,8.9596062-2.9183311,13.6847076c0,8.4524155,3.1837769,16.5690765,8.9651375,22.8544693
			l1.8581276,2.0192871l-2.6671066,0.6478119c-1.2466698,0.3028107-2.1243629,1.4192047-2.1243629,2.7021179v11.3475876
			l-0.7268143,0.479538c-2.9791641,1.9671478-5.7466011,4.2234421-8.2248917,6.7056885l-0.9661942,0.9685593L22.9849606,96.7764206
			c-1.1291771-0.8023453-2.7245865-0.7805252-3.7007961,0.2022324c-1.2419243,1.2502518-1.024786,3.2590714,0.3507061,4.2369614
			l8.932745,6.3454361h-9.7572231c-1.3849277,0-2.6714935,0.9431152-2.8964891,2.3096466
			c-0.2863541,1.7391891,1.0539293,3.2489319,2.7405519,3.2489319h12.4054165c0.7262669,0,1.424202-0.2817993,1.9468613-0.7860718
			l0.9654045-0.9314346l11.6670036,8.2873001l-0.945652,1.3201218c-6.8746109,9.6020584-10.2425842,21.0471268-9.6446953,32.9045181
			c0.4937439,9.7920532,3.9541855,19.2046967,9.4624214,27.3156433l1.4597321,2.1494904l-3.5756264-0.4700623
			c-5.5814857-0.7370911-11.5974808-0.1192932-15.7055798,1.6029358l-4.9881821,2.0832825
			c-4.8357067,2.0311432-13.0100346,2.0335083-17.8457413,0.0007935c-0.6849468-0.2875671-1.4402051-0.2907257-2.1267316-0.0094757
			c-0.6873167,0.28125-1.2237396,0.8121338-1.5113066,1.4962921c-0.286777,0.6841583-0.290727,1.4394226-0.0094802,2.125946
			c0.2804568,0.6873169,0.8121397,1.2237396,1.4962963,1.5105133c6.2063904,2.6070557,15.9315271,2.609436,22.1426563,0.003952
			l4.9873905-2.0832825C31.2489414,188.6272888,34.4998703,188.1208801,37.7523804,188.1208801z M63.0013924,188.2046204
			c-1.3714752,0-2.7579575-0.0900574-4.1017799-0.2757111l-0.4400406-0.0608368l-0.3468208-0.2765045
			c-11.1677094-8.8987732-17.573185-22.1521301-17.573185-36.3629913c0-9.7393646,3.0044441-19.0797577,8.6878395-27.0115509
			l0.9385452-1.3090668l4.9305077,3.5005798c1.2111015,0.8627014,3.0210342,0.5458984,3.8758354-0.6549301
			c0.4297714-0.6043625,0.5980453-1.3406601,0.4740105-2.0722198c-0.1240311-0.7323456-0.5245705-1.3714676-1.1289368-1.8004532
			l-4.496788-3.194046l1.439415-1.353302c0.6572952-0.6177979,1.3288116-1.2205811,2.0208664-1.7972946l1.3667336-1.1392059
			l1.0041161,1.4686432c0.5214119,0.7615814,1.3793716,1.2158432,2.2957954,1.2158432h18.3687325v44.9323425
			c0,1.5326385,1.2466507,2.7792816,2.7792892,2.7792816h20.2260742c1.5326309,0,2.7792816-1.2466431,2.7792816-2.7792816
			v-44.9323425h5.3065643c1.0072708,0,1.937912-0.5640793,2.4285126-1.4718094l0.9274826-1.7174988l1.5160522,1.2300568
			c3.6996613,3.0036545,6.907135,6.5397797,9.5339508,10.5104141l0.729187,1.1020813l-6.4031067,6.4015198
			c-1.0831146,1.0839081-1.0831146,2.8464355,0,3.9303436c1.0507278,1.0507355,2.882782,1.0491486,3.9303436,0l5.2567902-5.2528381
			l0.9077301,2.2839508c2.1772919,5.4779968,3.2817383,11.2411804,3.2817383,17.1307831
			c0,14.2487793-6.4299622,27.5242615-17.6411285,36.4230347l-0.4281845,0.3404999l-0.5474854,0.0102692
			c-3.6190796,0.0592499-7.0580292-0.4803314-9.478653-1.497879l-5.4574509-2.2871094
			c-6.2079697-2.5802002-15.9410019-2.5802002-22.1521378,0.0031738l-5.9393616,2.4822388
			C69.5459061,187.6776886,66.3171005,188.2046204,63.0013924,188.2046204z M100.5423126,159.6104736H85.8748169v-17.8481903
			h14.6674957V159.6104736z M100.5423126,136.3509216H85.8748169v-17.547699l14.6674957-0.0015793V136.3509216z
			 M107.7828369,111.522995h-9.3704147V99.5636902l1.4220352-0.5553894c0.1501007-0.0552979,0.3009949-0.1098099,0.447937-0.1730118
			l0.3057404-0.1311417h7.1947021V111.522995z M91.4689407,111.522995h-10.399025v-10.4637985l1.8130951,0.2204132
			c2.699501,0.327858,4.7574997,0.3057327,6.8384094,0.1390457l1.7475204-0.1414185V111.522995z M74.1240692,111.522995h-9.3972778
			V98.7041473h9.3972778V111.522995z M87.0053329,95.9991226c-15.6099854,0-28.3095474-12.6884995-28.3095474-28.2842712
			c0-6.8976555,2.5478134-13.5606766,7.1741638-18.7613716l0.3215408-0.3618279l29.2907486-7.8527908l0.4621582,0.1548424
			c11.565094,3.8703041,19.3349304,14.6493263,19.3349304,26.8211479
			C115.2793274,83.3106232,102.5955734,95.9991226,87.0053329,95.9991226z M68.3577194,39.9907112
			c-1.840744,0-3.4974136-1.2316399-4.0290985-2.9941711l-4.9707985-16.4719009
			c-0.6707268-2.2215328,0.5909348-4.5749998,2.8132591-5.2457266l0.0007896-0.0007896
			c2.2199516-0.6691465,4.5750008,0.5933046,5.2457237,2.8140478l4.9708023,16.4726906
			c0.3246994,1.076004,0.2109375,2.2152138-0.3207474,3.2058983c-0.5316849,0.9898911-1.4172897,1.7143402-2.4933014,2.0390396
			C69.1753922,39.929882,68.7669525,39.9907112,68.3577194,39.9907112z"/>
	</g>
</g>
</svg>
