<?xml version="1.0" encoding="utf-8"?>
<!-- Generator: Adobe Illustrator 19.1.0, SVG Export Plug-In . SVG Version: 6.00 Build 0)  -->
<svg version="1.1" id="LOGO" xmlns="http://www.w3.org/2000/svg" xmlns:xlink="http://www.w3.org/1999/xlink" x="0px" y="0px"
	 viewBox="0 0 574.1739502 432.15625" style="enable-background:new 0 0 574.1739502 432.15625;" xml:space="preserve">
<style type="text/css">
	.st0{fill:#FFFFFF;}
</style>
<g>
	<path class="st0" d="M573.9058228,250.6015625c-0.3261719-2.6035156-2.7016602-4.4541016-5.3032227-4.1230469
		c-2.6030273,0.3251953-4.4492188,2.7001953-4.1235352,5.3027344c1.7460938,13.9453125-8.7626953,23.5-34.0732422,30.9824219
		c-22.7651672,6.7294922-46.4761047,12.1777344-69.4062805,17.4453125
		c-6.9003906,1.5859375-13.7929688,3.1699219-20.6621094,4.7861328c-8.4642944,1.9926758-16.8832397,3.9544067-25.1976929,5.8770142
		c0.2365112-1.6674194,0.4608154-3.3087769,0.6679688-4.9056396c0.7445679-5.7596436,1.3198242-11.043396,1.7713013-15.7297363
		c2.9177856-2.0471191,5.6940918-4.1985474,8.2693481-6.4556274c2.6054688-2.2712402,5.0103149-4.6278687,7.215271-7.0002441
		c0.5578003-0.5883789,1.0978394-1.1816406,1.6184692-1.7808838l0.7855225-0.8886719l0.1951904-0.2209473l0.262207-0.3092651
		l0.3549805-0.4338989c0.4768066-0.5910034,0.9299927-1.1182861,1.4135132-1.7461548
		c0.4931641-0.6676025,0.9815063-1.3285522,1.4648438-1.9827271c1.5994263-2.2890625,2.9448853-4.5835571,4.1113281-6.8536987
		c0.6982422,1.3504028,1.6171265,2.569458,2.770874,3.6287231c1.3686523,1.2138672,2.9711914,2.0888672,4.7607422,2.5996094
		c0.8916016,0.2558594,1.8388672,0.3847656,2.8344727,0.3837891c1.0405273,0,2.1337891-0.1396484,3.2724609-0.4189453
		l0.1503906-0.0361328c3.7763672-0.9248047,6.972168-3.0087891,9.4990234-6.1943359
		c2.4111328-3.0400391,4.3945312-6.6376953,5.8930664-10.6904297c0.3314209-0.8927612,0.6464844-1.7987061,0.946106-2.715332
		c1.696106,2.3410645,3.7368164,4.2060547,6.0374146,5.5109253c2.2842407,1.3858032,4.8301392,2.210022,7.5664062,2.4492188
		c1.5391235,0.1358032,3.125,0.1494141,4.7421875,0.0430298c1.1514282-0.0762329,2.3213501-0.2129517,3.5-0.4121094
		l0.4766235-0.1152344c3.9276733-0.7470703,7.8203125-2.0839844,11.571228-3.9755859
		c3.7724609-1.9042969,7.3497009-4.5957031,10.6329041-8c3.2705078-3.3936157,6.164978-7.6231079,8.6054077-12.5723267
		c2.4287109-4.9315796,4.3378906-11.0526733,5.6923828-18.2890625c0.1464844-1.2324219-0.1337891-2.3768921-0.8339844-3.3984375
		c-0.7070312-1.0380859-1.7089844-1.7108765-2.9755859-1.9989624l-0.15625-0.0274048
		c-1.2314453-0.1445312-2.3730469,0.1348267-3.3954468,0.8330078c-1.0410156,0.7099609-1.7129517,1.7119751-2.0137329,3.0498047
		c-0.4818726,2.7575073-1.0725098,5.3337402-1.765686,7.7191162c-0.0063477,0.0236816-0.0137939,0.0458374-0.0202026,0.069458
		c-0.6954956,2.3826904-1.4936523,4.5741577-2.3898926,6.5620117c0.0233154-0.0065308,0.0463867-0.0115967,0.0697021-0.0179443
		c-3.8132935,8.5595093-9.0569763,13.144043-9.1595154,13.2330933c-5.1046143,4.013916-7.9912109,4.9782715-7.9912109,4.9782715
		s0.0048828-0.0098267,0.0048828-0.0117188c-2.5986938,1.1826172-5.2354126,2.0819702-7.890686,2.6455078l-0.2265015,0.0565796
		c-1.8408813,0.3574219-3.5996094,0.4501953-5.2246094,0.2714844c-1.5518188-0.1679688-2.9268188-0.6102905-4.1708984-1.3612671
		c-2.5820923-1.3477173-4.3671875-4.1611938-5.3096313-8.3945923l-0.0526733-0.2041016
		c-0.5361938-3.0068359-0.756897-6.3154297-0.656311-9.8369141c0.1005859-3.5526733,0.4667969-7.2557983,1.0820312-10.9697266
		c0.7138672-3.75,1.6983032-7.4745483,2.9257812-11.0683594c1.2109985-3.5488281,2.6201172-6.7275391,4.2128906-9.4960327
		c0.5234375-0.9902954,1.1426392-1.9151001,1.8417969-2.7519531c0.7089844-0.8486328,1.4238281-1.6113281,2.1279297-2.2686157
		c0.7333984-0.5625,1.4541016-1.0507202,2.1416016-1.4511108c0.6582031-0.3809204,1.3202515-0.6542969,1.9649048-0.8134766
		l0.3612671-0.0879517c1.4335938-0.1688843,2.5869141,0.0508423,3.5791016,0.7167969
		c1.1182251,0.6768188,1.9794922,2.2158203,2.5565796,4.5742188l0.1456299,0.593811
		c0.3115234,1.2684937,0.3496094,2.5233765,0.1141968,3.7313843l-0.0244141,0.1924438
		c-0.093689,1.4823608-0.4159546,2.7460938-0.9569702,3.7548828l-0.1035156,0.2391968
		c-0.4199829,1.2695923-0.3740845,2.4981079,0.1328125,3.6484985c0.5097046,1.1591797,1.3983765,2.0175781,2.6542969,2.5166016
		c1.2694702,0.4179077,2.4979858,0.3739624,3.656189-0.1328125c1.1699219-0.5186157,2.0039062-1.3828125,2.4960938-2.6152954
		c0.3818359-1.0537109,0.7227173-2.125,1.015625-3.1884155c0.2988892-1.0986938,0.4815063-2.2333984,0.5440063-3.375
		c0.2948608-2.4238892,0.1914062-4.6835938-0.3067017-6.718811l-0.21875-0.8895874
		c-1.1269531-4.5966797-3.2597656-8.0175781-6.3173828-10.1494751c-1.5858765-1.1503296-3.3339844-1.8934937-5.1981812-2.2128296
		c-1.8067017-0.3067017-3.6729126-0.2890625-5.6298828,0.0722046l-0.7442017,0.1826172
		c-2.8027344,0.6865845-5.4453125,2.1386719-7.7861328,4.2548828c-2.4110718,1.921936-4.546875,4.4024048-6.3789062,7.4277954
		c-1.7802734,3.2236328-3.3895874,6.9199219-4.7860718,10.984314c-1.3984985,4.0703125-2.4863892,8.328186-3.2285156,12.640686
		c-0.7514648,4.1221924-1.1873779,8.2550049-1.3068848,12.293335c-0.0471802,0.152771-0.1054688,0.296875-0.1415405,0.458374
		c-0.5830078,3.1826172-1.234375,6.6132812-1.9536133,10.2978516c-0.7045898,3.6020508-1.6889648,7.0756836-2.9243164,10.3217773
		c-1.0961914,2.8730469-2.4047852,5.3701172-3.8896484,7.4238281c-1.3637695,1.8876953-2.9682617,3.0361328-4.9116211,3.5117188
		l-0.1411133,0.0351562c-1.3183594,0.3222656-1.9331055-0.0458984-2.2607422-0.3349609
		c-0.3833008-0.3505859-0.7143555-0.8378906-0.984375-1.4511719c-0.3168945-0.7177734-0.578125-1.4892578-0.7749023-2.2900391
		l-0.0727539-0.2998047c-0.2192383-0.8945312-0.362793-1.9794922-0.4257812-3.2246094
		c-0.0664062-1.3037109-0.1074219-2.8603516-0.1245117-4.5458984c0.0742188-1.6552734,0.1489258-3.4003906,0.2270508-5.2333984
		l0.0214844-0.5004883c0.0795898-1.9833984,0.2602539-4.1035156,0.5390625-6.328125
		c0.1293945-1.1953125,0.2592773-2.6044922,0.3925781-4.2275391c0.1289062-1.5791016,0.3105469-3.4082031,0.5405273-5.4375
		c0.2304688-2.050293,0.4897461-4.4267578,0.7744141-7.1220703c0.2851562-2.6948242,0.5932617-5.7084961,0.9306641-9.043457
		l0.4272461-4.0625l0.6616211-7.5136719c0.1503906-1.269043-0.2216797-2.4741211-1.0791016-3.4887695
		c-0.8515625-1-1.9545898-1.5424805-3.1938477-1.5727539c-1.2407227-0.1254883-2.4155273,0.2485352-3.4023438,1.0844727
		c-1.0024414,0.8505859-1.5463867,1.9526367-1.5766602,3.1923828l-0.8442383,7.421875l-0.1967773,2.4033203
		c-0.0522461,0.612793-0.0810547,1.1538086-0.0859375,1.6103516c-0.3740234,2.6625977-0.7026367,5.4038086-0.9765625,8.1513672
		c-0.2709961,2.7441406-0.5239258,5.3525391-0.7583008,7.8232422c-0.2324219,2.4521484-0.4580078,4.5292969-0.6704102,6.1733398
		c-0.2207031,1.7055664-0.3334961,2.9750977-0.34375,3.8754883c-0.0784912,0.6310425-0.1280518,1.2510376-0.1893921,1.8759766
		c-0.1484375,1.128479-0.3308716,2.3834229-0.5684204,3.7643433c-0.536438,3.1430664-1.3192139,6.9125977-2.6789551,11.0101929
		c-0.7062378,2.0348511-1.5345459,4.1607666-2.5792236,6.3051758c-1.0596924,2.1296997-2.3240967,4.3049927-3.807312,6.4229736
		c-0.367981,0.4995117-0.7396851,1.0042725-1.1151733,1.5140381c-0.4075317,0.5321655-0.9176636,1.1269531-1.3783569,1.6958618
		l-0.355896,0.4332275l-0.0346069,0.0421143c-0.0126953,0.0147095-0.0317993,0.0369263-0.0234375,0.0265503l-0.0446167,0.0502319
		l-0.178772,0.2011108l-0.718811,0.8093872c-0.4764404,0.5472412-0.9691772,1.0862427-1.4766846,1.6182861
		c-2.0082397,2.1518555-4.1795044,4.2704468-6.5317993,6.3128052c-0.3571167,0.3115234-0.7269897,0.6172485-1.0928345,0.9248047
		c0.2154541-3.0045166,0.3674927-5.4450073,0.4655151-7.1464844c0.2546997-3.1002197,0.5566406-6.2327271,0.9030151-9.3278809
		l1.2998047-12.6728516c0.3989258-3.9277344,0.7817383-7.7207031,1.1391602-11.328125
		c0.3276367-2.453125,0.6557617-5.1162109,1.003418-8.1420898c0.3325195-2.909668,0.6743164-5.7973633,1.0205078-8.659668
		c0.3466797-2.8642578,0.6748047-5.597168,0.9824219-8.1904297c0.3037109-2.5527344,0.5976562-4.7749023,0.8740234-6.6049805
		l0.0844727-0.3969727c0.1499023-1.2675781-0.2207031-2.4716797-1.078125-3.4897461
		c-0.8251953-0.9677734-1.8583984-1.5400391-3.0708008-1.7026367c-1.3203125-0.2734375-2.5615234,0.0419922-3.5991211,0.9189453
		c-0.9707031,0.8251953-1.5444336,1.8632812-1.706543,3.0874023l-0.0820312,0.3935547
		c-0.1054688,0.8808594-0.2050781,1.8930664-0.2988281,3.0371094c-0.0136719,0.168457-0.0292969,0.3388672-0.0463867,0.5102539
		c-0.2792969-0.2314453-0.5712891-0.4619141-0.8754883-0.6914062l-0.0834961-0.0581055
		c-1.8891602-1.2333984-3.9150391-2.1147461-6.0224609-2.6191406c-2.1206055-0.5063477-4.3139648-0.6064453-6.5224609-0.2958984
		l-1.5200195,0.3657227c-4.4599609,1.2089844-8.2202148,3.9536133-11.1757812,8.1577148
		c-2.8369141,4.0390625-5.1333008,8.800293-6.8339844,14.1806641c-1.0473633,3.5673828-1.8769531,7.3271484-2.4658203,11.1748047
		c-0.5883789,3.8325195-0.996582,7.6313477-1.2143555,11.2905273c-0.000061,0.0014648-0.0001221,0.0028076-0.0001831,0.0042725
		c-0.0238647,0.0865479-0.0598145,0.1655884-0.079895,0.2545166l-0.0649414,0.6298828
		c-0.4941406,2.9716797-1.1245117,6.2597656-1.875,9.7753906c-0.7397461,3.4599609-1.6708984,6.7509766-2.7685547,9.78125
		c-1.0761719,2.9697266-2.387207,5.5722656-3.8974609,7.7333984c-1.3896484,1.9892578-3.0019531,3.1845703-4.9301758,3.6572266
		c-1.6171875,0.3945312-2.2280273-0.140625-2.4086914-0.2998047c-0.3808594-0.3476562-0.7119141-0.8349609-0.9829102-1.4482422
		c-0.3188477-0.7246094-0.5795898-1.4960938-0.7753906-2.296875l-0.0727539-0.2949219
		c-0.2202148-0.8964844-0.3623047-1.9814453-0.4238281-3.2265625c-0.0668945-1.28125-0.0600586-2.8212891,0.0209961-4.578125
		l0.0024414-0.0537109l-0.0014648-0.0537109c-0.0825195-3.2460938,0.1323242-7.2558594,0.6430664-11.9599609
		c0.1787109-2.2128906,0.4189453-4.6767578,0.7338867-7.5332031c0.3100586-2.8056641,0.6201172-5.71875,0.9296875-8.7260742
		c0.4916992-4.4404297,0.9775391-8.6035156,1.4443359-12.3745117c0.4648438-3.7583008,0.8349609-6.9003906,1.0996094-9.3256836
		c0.1464844-1.2436523-0.184082-2.4345703-0.9575195-3.4472656c-0.7827148-1.0185547-1.8608398-1.6367188-3.1186523-1.7880859
		c-1.2602539-0.1523438-2.4179688,0.1699219-3.4506836,0.9560547c-1.0195312,0.784668-1.637207,1.8637695-1.7822266,3.0864258
		c-0.15625,1.1044922-0.3022461,2.2573242-0.4296875,3.456543c-0.0307617,0.2851562-0.0634766,0.5766602-0.0976562,0.8745117
		c-0.1987305-0.1694336-0.3979492-0.3334961-0.5986328-0.4926758l-0.1123047-0.0810547
		c-1.887207-1.2329102-3.9125977-2.1137695-6.0209961-2.6191406c-2.1230469-0.5068359-4.3188477-0.605957-6.5258789-0.293457
		l-1.5170898,0.3637695c-4.5625,1.2324219-8.3491211,3.9853516-11.2553711,8.1821289
		c-2.784668,4.0214844-5.0546875,8.7739258-6.7568359,14.1557617c-1.0410156,3.5493164-1.894043,7.309082-2.5356445,11.175293
		c-0.6445312,3.8896484-1.0546875,7.7011719-1.21875,11.3291016c-0.1655273,3.6201172-0.1806641,7.0576172-0.0449219,10.2158203
		c0.1362305,3.2011719,0.4750977,5.9199219,0.9931641,8.0214844c0.5063477,2.5019531,1.237793,4.7998047,2.1738281,6.8271484
		c0.9702148,2.1044922,2.2714844,3.8544922,3.8676758,5.203125c2.3686523,2.3486328,5.2006836,3.5292969,8.4477539,3.5292969
		c1.0639648,0,2.1728516-0.1269531,3.3237305-0.3808594c4.1054688-0.8916016,7.5834961-3.0390625,10.3369141-6.3808594
		c1.8862305-2.2871094,3.5556641-4.9179688,4.9863281-7.8505859c0.1206055,0.2773438,0.2460938,0.5507812,0.3769531,0.8203125
		c0.71875,1.4824219,1.699707,2.7988281,2.934082,3.9287109c1.371582,1.2148438,2.9741211,2.0898438,4.7602539,2.5986328
		c1.824707,0.5234375,3.8793945,0.5097656,6.0966797-0.0322266l0.1601562-0.0380859
		c3.6757812-0.9023438,6.7431641-2.8457031,9.1176758-5.7763672c2.2405396-2.7651978,4.1428833-6.043396,5.6576538-9.737915
		c0.9401245,1.9202881,2.1100464,3.5510864,3.4634399,4.7896729c3.1542969,3.1552734,7.1845703,4.21875,11.9541016,3.1621094
		c3.0449219-0.6308594,5.753418-1.9912109,8.0488281-4.0410156c0.8163452-0.727417,1.5944214-1.5175171,2.3341064-2.3638306
		c-0.0211792,0.3082886-0.0424805,0.6175537-0.0651855,0.9402466c-0.0526733,0.7329712-0.1098022,1.5065918-0.1704712,2.3081055
		c-0.0305786,0.3356323-0.0604858,0.6690674-0.0927734,1.0099487l0.0155029-0.0039673
		c-0.107605,1.3879395-0.2277222,2.8677368-0.3623047,4.4338989c-1.5547485,0.9920654-3.1515503,1.9654541-4.7952881,2.9182739
		c-2.9669189,1.7513428-6.1742554,3.3938599-9.5155029,5.3190918c-1.6539917,0.9556885-3.3085938,1.9564819-4.9450073,3.0107422
		l-1.227478,0.8004761l-1.2055664,0.8096313c-0.8692017,0.5967407-1.7457886,1.2420044-2.5778809,1.9101562
		c-3.3312378,2.694519-6.2144775,5.9096069-8.5579834,9.5404053c-2.2348633,3.4744873-3.97229,7.3615723-4.9111328,11.5610962
		c-10.1560059,2.2940674-19.9210205,4.4857788-29.1412964,6.5498657
		c-12.3152466,2.756958-24.7401123,5.5402222-37.2243652,8.3765869c1.2796631-19.3206787,3.1553955-45.289917,3.4816895-49.1490479
		c0.5043945-5.9765625,1.0864258-12.1181641,1.7294922-18.2548828c0.6713867-6.4238281,1.3408203-12.5390625,1.9897461-18.1757812
		c0.4375-3.7900391,0.8168945-7.4423828,1.1274414-10.855957c0.3100586-3.4267578,0.6220703-6.6445312,0.9326172-9.6518555
		c0.4428711-4.25,0.6010742-8.3286133,0.4692383-12.1230469c-0.1362305-3.8432617-0.6630859-7.4370117-1.5537109-10.6362305
		c-1.1962891-4.8764648-3.1186523-8.7841797-5.7138672-11.6152344l-0.0405273-0.0424805
		c-3.159668-3.1865234-7.0068359-5.0576172-11.5019531-5.5668945c-2.8291016-0.1953125-5.7353516,0.1235352-8.5834961,0.9311523
		c-3.2641602,0.8007812-6.3359375,2.3144531-9.1308594,4.4985352c-2.7250977,2.1298828-5.3125,4.7636719-7.706543,7.8500977
		c-2.1064453,2.8198242-4.1269531,6.0854492-6.0288086,9.7416992c-0.3818359-0.9897461-0.8105469-1.9296875-1.284668-2.8149414
		c-1.0297852-1.9213867-2.1674805-3.5439453-3.3696289-4.8100586c-3.1225433-3.3657227-6.9965668-5.1513672-11.4457855-5.3041992
		c-0.7231445-0.0581055-1.4702148-0.0551758-2.3125,0.0180664c-0.6420898,0.0595703-1.3100586,0.1210938-1.9975586,0.1879883
		l-0.1582031,0.0244141c-2.8774414,0.5947266-5.5766602,1.7387695-8.0239258,3.4008789
		c-2.4291992,1.6538086-4.8549805,4.168457-7.1962891,7.4541016c-1.921875,2.6079102-3.9555664,5.8540039-6.0454102,9.6484375
		c-1.0625,1.9326172-2.184082,4.1035156-3.3564453,6.4941406l1.4482422-19.4423828
		c0.1108398-1.3657227-0.3398438-2.6567383-1.3398438-3.8374023l-0.1723633-0.1728516
		c-0.9580078-0.815918-2.121582-1.2050781-3.3886719-1.1259766c-1.2548828,0.0864258-2.362793,0.6152344-3.293457,1.5717773
		l-0.0698242,0.0771484c-0.9204102,1.0874023-1.8813477,2.1875-2.8564453,3.2685547
		c-1.0405273,1.1538086-2.1342773,2.4008789-3.2978516,3.753418c-2.347168,2.8027344-4.9116211,5.8085938-7.6220703,8.9345703
		c-2.6123047,3.0131836-5.4042969,5.8901367-8.2998047,8.5512695c-3.0791016,2.8354492-15.5410156,13.6108398-18.5317383,15.7182617
		c-2.9472656,2.0732422-5.9873047,3.6044922-9.0361328,4.5507812l-0.1030273,0.0361328
		c-1.3041992,0.5107422-2.6176758,0.8339844-3.9692383,0.9667969c-3.7470703,0.53125-7.0419922-0.0644531-10.0756836-1.828125
		c-2.7392578-1.5830078-4.5410156-3.8935547-5.5083008-7.0629883l-0.0771484-0.2001953
		c-0.3579102-0.7612305-0.5678711-1.6254883-0.6318359-2.6577148c-0.1445312-1.2060547-0.7597656-2.265625-1.7802734-3.0649414
		c-1.0253906-0.8017578-2.2587891-1.1362305-3.5444336-0.9677734c-1.2050781,0.1430664-2.2651367,0.7573242-3.065918,1.7773438
		c-0.8007812,1.0219727-1.1479492,2.1972656-1.0048828,3.3886719c0.0976562,0.8647461,0.2426758,1.6899414,0.4301758,2.4536133
		l0.5092773,2.0771484l0.0400391,0.1357422c1.8920898,5.4462891,5.2387695,9.6074219,9.9267578,12.3583984
		c2.2363281,1.3583984,4.7387695,2.3076172,7.4375,2.8183594c2.6767578,0.5097656,5.5517578,0.5644531,8.5336914,0.1611328
		c0.9589844-0.1230469,1.9262695-0.3046875,2.875-0.5371094l2.8183594-0.6914062l0.1157227-0.0341797
		c3.7104492-1.234375,7.3481445-3.0576172,10.8120117-5.4169922c3.4941406-2.3798828,16.4375-13.5351562,19.5410156-16.3789062
		c3.1508789-2.8857422,6.1987305-5.9628906,9.059082-9.1445312c1.7412109-1.9355469,3.4350586-3.8642578,5.0644531-5.7666016
		l-2.5449219,33.3349609c-0.9042969,2.5771484-1.7602539,5.0390625-2.5683594,7.3916016
		c-0.8271484,2.4101562-1.6049805,4.703125-2.3432617,6.9101562c-0.6743164,2.1796875-1.3330078,4.2070312-1.9584961,6.0244141
		c-0.5825195,1.6865234-1.1357422,3.1757812-1.6450195,4.4257812c-0.1289062,0.2451172-0.2260742,0.5224609-0.2915039,0.8251953
		c-0.0380859,0.1611328-0.0776367,0.3027344-0.1225586,0.4277344c-0.0102539,0.0283203-0.0546875,0.1386719-0.1889648,0.3603516
		l-0.0776367,0.1464844c-0.8227539,1.7744141-1.9960938,4.4873047-3.4887695,8.0634766
		c-1.5068359,3.6162109-2.9301758,7.5234375-4.2299805,11.6123047c-1.3129883,4.1240234-2.362793,8.2773438-3.1206055,12.3447266
		c-0.78125,4.1904297-0.8759766,7.7705078-0.2685547,10.7021484l0.0952148,0.3779297
		c0.5839844,2.8789062,2.0039062,5.1191406,4.1704102,6.6230469c2.0019531,1.5175781,4.4560547,2.0615234,7.2871094,1.6123047
		l0.4208984-0.0976562c3.3139648-0.8134766,5.9887695-2.6279297,7.949707-5.3945312
		c1.8491211-2.6113281,3.253418-5.6660156,4.1733398-9.0791016c0.8989258-3.3310547,1.5224609-6.875,1.8535156-10.5332031
		c0.3237305-3.5810547,0.5585938-6.8632812,0.6992188-9.8212891c0.0029297-0.8193359,0.0170898-1.5917969,0.0458984-2.3193359
		c0.0273438-0.7148438,0.065918-1.3857422,0.1186523-2.0185547l2.7802734-36.5009766
		c0.871582-2.2421875,1.7319336-4.4345703,2.5771484-6.5712891c0.8779297-2.2089844,1.7641602-4.4765625,2.6416016-6.7363281
		c2.9282227-6.6152344,5.5415039-12.1850586,7.7670898-16.5541992c2.1845703-4.2802734,4.3037109-7.7802734,6.3085938-10.4135742
		c1.7236328-2.3110352,3.3422852-4.0322266,4.8100586-5.1152344c1.3793945-1.0170898,2.9072266-1.6977539,4.543457-2.0244141
		c0.5053711-0.0234375,0.934082-0.0522461,1.277832-0.0878906c0.3139648-0.0292969,0.6582031-0.043457,0.9897461-0.0439453
		c1.9130859,0.0498047,3.5483398,0.8452148,5.0258636,2.4604492c0.8657379,0.8969727,1.6474762,2.0610352,2.3232574,3.4584961
		c0.6879883,1.4257812,1.2563477,3.2480469,1.6928558,5.4355469c0.6713867,3.1464844,0.8916016,7.1948242,0.6547852,12.0385742
		c-0.331543,7.2475586-0.6982422,13.9458008-1.0898285,19.9086914c-0.3833008,5.8730469-0.8105469,11.8925781-1.3046875,18.3857422
		c-0.5483398,6.3251953-1.1088867,12.7021484-1.6782227,19.1347656c-0.5742188,6.4345703-1.2368164,13.6757812-1.9897461,21.7265625
		l-0.0063477,0.1308594c-0.0068359,1.1777344,0.3686523,2.2685547,1.1123047,3.2373047
		c0.7802734,1.0244141,1.8603516,1.6445312,3.1196289,1.7939453c1.2719574,0.1503906,2.4804535-0.2177734,3.4892426-1.0751953
		c0.9912109-0.8408203,1.5683594-1.9003906,1.71875-3.1865234c0.7792969-8.3740234,1.46875-15.8349609,2.0683594-22.3818359
		c0.5976562-6.5458984,1.1679688-12.7705078,1.7182617-18.7148438c0.3964844-6.078125,0.7910156-12.1816406,1.1757812-18.3105469
		c0.3862305-6.1308594,0.7851562-12.9296875,1.184082-20.1757812c0.0561523-0.7260742,0.0649414-1.3876953,0.0268555-2.0249023
		c-0.0273438-0.4423828-0.0234375-0.918457,0.0112305-1.4174805c1.3608398-3.9741211,2.9643555-7.8007812,4.769043-11.3774414
		c1.8203125-3.6152344,3.7890625-6.8994141,5.8413086-9.7475586c1.8041992-2.4418945,3.7299805-4.4824219,5.7231445-6.0639648
		c1.9301758-1.5292969,3.949707-2.5595703,6.0014648-3.0625c2.0986328-0.5151367,3.9985352-0.6943359,5.621582-0.5317383
		c2.2607422,0.2680664,4.1333008,1.1884766,5.7231445,2.8115234c1.6230469,1.6635742,2.8540039,4.1689453,3.6577148,7.4462891
		c1.3349609,5.4443359,1.6044922,12.0322266,0.7978516,19.6166992c-0.2319336,2.8354492-0.5258789,6.0488281-0.8745117,9.5507812
		c-0.3393555,3.3969727-0.7250977,6.9584961-1.1791992,10.8989258c-0.6469727,5.9326172-1.2895508,12.0712891-1.9375,18.4238281
		c-0.6577148,6.4619141-1.2543945,12.6767578-1.7724609,18.4716797c-0.3588867,4.0018311-2.4604492,32.0341797-3.7937012,51.8757324
		c-33.1246338,7.5865479-66.5903168,15.6032104-99.5573578,24.6486816
		c-3.4321289,0.9414062-6.8613281,1.8916016-10.2880859,2.8515625l-0.9013672,0.2529297
		c-20.1328125,5.6523438-35.2709961,10.5498047-49.0854492,15.8808594
		c-9.8823242,3.8134766-20.1958008,8.3251953-28.6694336,15.4619141
		c-9.8110352,8.2617188-15.6987305,19.203125-16.1523438,30.0175781c-0.1103516,2.6210938,1.925293,4.8349609,4.5463867,4.9453125
		c0.0678711,0.0029297,0.1352539,0.0039062,0.2026367,0.0039062c2.53125,0,4.6352539-1.9980469,4.7421875-4.5507812
		c0.3427734-8.1611328,5.0009766-16.5986328,12.7802734-23.1503906c6.9931641-5.8886719,15.4394531-9.8007812,25.9702148-13.8642578
		c13.5244141-5.21875,28.3999023-10.0292969,48.2304688-15.5966797l0.8994141-0.2519531
		c3.409668-0.9560547,6.8222656-1.9023438,10.237793-2.8378906c31.8840942-8.7489014,64.2861786-16.5421753,96.4042206-23.9180298
		c-0.3288574,5.3578491-0.5158691,9.0883179-0.4613647,9.913147c0.0722656,0.7441406,0.1660156,1.4707031,0.2797852,2.1601562
		c0.1132812,0.6835938,0.2495117,1.3515625,0.4047852,1.984375c1.0161133,4.1455078,3.0673828,7.59375,6.1347656,10.2822266
		c3.0644531,2.5126953,6.6728516,3.78125,10.7456055,3.78125c0.4560547,0,0.9179688-0.0166016,1.3847656-0.0478516
		c0.6791992,0.0722656,1.3847656,0.0224609,2.1030273-0.1533203l1.777832-0.4365234
		c1.1699219-0.2861328,2.1333008-1.0039062,2.7871094-2.0800781c0.6494141-1.0712891,0.8408203-2.2578125,0.5541992-3.4306641
		c-0.2939453-1.2001953-1.0273438-2.1494141-2.1157227-2.7431641c-1.0595703-0.5830078-2.1884766-0.7363281-3.3603516-0.4492188
		c-0.6669922,0.1640625-1.3691406,0.2441406-2.0795898,0.2412109l-0.1489258,0.0068359
		c-2.34375,0.2158203-4.1894531-0.3378906-5.644043-1.7050781l-0.1298828-0.109375
		c-1.5253906-1.1386719-2.5581055-2.8818359-3.1577148-5.3291016l-0.3461914-1.4101562
		c-0.0634766-0.2558594-0.0703125-0.5625-0.0209961-0.9111328l0.0214844-0.1503906l-0.0092773-0.1513672
		c-0.048584-0.8046875,0.1843872-5.1776123,0.5697632-11.3873901c13.3947754-3.0498657,26.730957-6.0409546,39.9370728-8.9973755
		c8.4326172-1.8880615,17.3294067-3.8849487,26.5552368-5.9668579c0.1832275,1.46875,0.4749756,2.9292603,0.9135742,4.3562012
		c0.6903076,2.2510986,1.6286011,4.3086548,2.9041748,6.3482666c0.3268433,0.5105591,0.7001953,1.0998535,0.9528198,1.4213257
		l0.4188232,0.5723267l0.2092896,0.2859497l0.3868408,0.4834595c0.7915039,0.963501,1.6633301,1.8379517,2.59375,2.6231689
		c3.7312622,3.114502,8.3464355,4.9421997,13.2774048,5.0133667c2.4559937,0.0250244,5.0008545-0.4440308,7.3421631-1.4996948
		c0.4988403-0.2054443,1.4412842-0.7216187,1.6853638-0.8783569c0.5965576-0.345459,1.0484009-0.7006836,1.5703735-1.060791
		c0.4851685-0.378418,0.9552002-0.7775269,1.4077148-1.1847534c0.4211426-0.4282227,0.8771973-0.8419189,1.2524414-1.2946777
		c3.1396484-3.6166992,4.6070557-7.6437988,5.6456909-11.2581177c1.019165-3.6974487,1.6153564-6.9859619,2.2547607-10.2959595
		c0.2244263-1.1955566,0.427124-2.3654175,0.6313477-3.5367432c9.5367432-2.1999512,19.2231445-4.453186,28.9728394-6.74823
		c6.8525391-1.6132812,13.7290039-3.1933594,20.6123047-4.7753906c23.0708008-5.2998047,46.9267578-10.78125,69.9726868-17.59375
		C545.2241821,288.2890625,577.4321899,278.7685547,573.9058228,250.6015625z M353.9687805,240.8413086
		c-0.1875,1.5200195-0.4345703,3.1713867-0.7436523,4.9633789c-0.5649414,4.1455078-1.2270508,8.6669922-1.9667969,13.4384766
		c-0.7387695,4.7705078-1.765625,9.2958984-3.0512695,13.4501953c-1.2695312,4.1025391-2.8959961,7.6699219-4.8349609,10.6035156
		c-1.8149414,2.7460938-3.9658203,4.3496094-6.574707,4.9013672c-1.4291992,0.2666016-2.5004883,0.0068359-3.3515625-0.8007812
		c-1.3183594-1.3085938-2.4189453-3.7324219-3.2705078-7.2041016c-0.4370117-1.7851562-0.7172852-4.0771484-0.8344727-6.8125
		c-0.121582-2.7939453-0.0888672-5.8476562,0.0966797-9.078125c0.1821289-3.2167969,0.5532227-6.59375,1.1035156-10.0371094
		c0.5458984-3.4072266,1.3076172-6.7626953,2.2578125-9.9550781c1.3081055-4.171875,2.9506836-7.8012695,4.8833008-10.7871094
		c1.8007812-2.7861328,3.9677734-4.5522461,6.3911133-5.2368164c0.184082-0.0454102,0.2788086-0.0507812,0.2680664-0.0571289
		l0.2539062,0.0551758l0.2744141-0.0424805c1.9682617-0.3046875,3.8066406,0.1191406,5.5849609,1.2651367
		c1.7236328,1.1884766,3.0883789,3.3964844,4.0327148,6.4804688c0.0639648,0.2612305,0.0751953,0.4433594,0.0712891,0.5585938
		C354.358429,237.8291016,354.1601868,239.2744141,353.9687805,240.8413086z M204.0273895,292.6875
		c-0.0551758,0.640625-0.0913086,1.3759766-0.109375,2.2480469c-0.0170898,0.8007812-0.0268555,1.6240234-0.0273438,2.3955078
		c-0.1347656,2.4404297-0.3071289,5.1513672-0.5170898,8.1298828c-0.2041016,2.8867188-0.6044922,5.6640625-1.1914062,8.2558594
		c-0.5708008,2.5185547-1.3745117,4.7431641-2.3881836,6.6113281c-0.8823242,1.6230469-2.0224609,2.5869141-3.4833984,2.9462891
		l-0.1074219,0.0253906c-0.0830078-0.1787109-0.1889648-0.4638672-0.2958984-0.9023438l-0.0732422-0.2949219
		c-0.4765625-1.9423828-0.3422852-4.6308594,0.3999023-7.9931641c0.7792969-3.5390625,1.7871094-7.2089844,2.9956055-10.9101562
		c1.1958008-3.6738281,2.5004883-7.2148438,3.878418-10.5253906c0.4052734-0.9736328,0.7827148-1.8798828,1.1308594-2.7177734
		L204.0273895,292.6875z M407.9160461,258.2109375c-1.2675781,4.1035156-2.871582,7.6679688-4.7670898,10.5957031
		c-1.7680664,2.7275391-3.8935547,4.3222656-6.496582,4.8720703c-1.5239258,0.2919922-2.6445312,0.0439453-3.5126953-0.78125
		c-1.4135742-1.3603516-2.4526367-3.7646484-3.1064453-7.2255859c-0.4345703-1.7724609-0.7158203-4.0634766-0.8349609-6.8105469
		c-0.121582-2.7939453-0.0888672-5.8486328,0.0966797-9.0800781c0.1816406-3.2109375,0.5537109-6.5878906,1.1054688-10.0371094
		c0.5458984-3.4101562,1.3066406-6.765625,2.2646484-9.980957c1.2050781-4.1259766,2.8178711-7.7358398,4.7944336-10.7294922
		c1.8510742-2.8041992,4.0449219-4.5805664,6.4658203-5.265625c0.0791016-0.019043,0.121582-0.0209961,0.1166992-0.0239258
		l0.269043,0.0581055l0.2792969-0.0449219c2.1323242-0.3452148,3.9399414,0.0615234,5.5820312,1.2709961
		c1.9682617,1.3417969,3.2851562,3.4609375,4.0253906,6.4780273l0.1801758,0.7368164
		c-0.4204102,2.4931641-0.8564453,5.5375977-1.2944336,9.0405273c-0.5532227,4.0522461-1.2392578,8.5756836-2.0385742,13.4438477
		C410.2554016,249.5175781,409.2026672,254.0537109,407.9160461,258.2109375z M389.9903259,307.25354
		c0.635498-0.510498,1.2704468-0.9801025,1.9443359-1.4470825l1.1235962-0.7579956l1.1171875-0.7316895
		c1.4972534-0.9690552,3.0172729-1.8928223,4.5553589-2.7858276c2.7130127-1.5743408,5.609375-3.0950928,8.475708-4.7467651
		c-0.2783203,2.5322876-0.5904541,5.1872559-0.9422607,7.9523926c-0.3466797,2.7174683-0.7344971,5.5446777-1.1729126,8.4516602
		c-8.0830078,1.857605-16.0375977,3.6727295-23.8010864,5.4345703
		C383.1855774,314.2557373,386.302887,310.2449341,389.9903259,307.25354z M401.4496765,332.2294312
		c-0.821167,2.9891968-1.9880371,5.7168579-3.5908203,7.5334473c-1.6195068,1.8398438-3.522522,2.715332-6.0270996,2.7172852
		c-2.4584961-0.0007324-5.2113037-1.039917-7.239624-2.7580566c-0.5083618-0.427124-0.9729004-0.8935547-1.3812866-1.3885498
		l-0.0768433-0.0926514l-0.0385742-0.0462036c0.0090942,0.0124512,0,0.0009766-0.0107422-0.0125732l-0.1459351-0.1986084
		l-0.4199829-0.5714111c-0.3295898-0.4258423-0.4376221-0.6536255-0.6248169-0.9386597
		c-0.7340088-1.1712646-1.4033203-2.5924683-1.8223877-3.9840088c-0.3674316-1.1898804-0.5874023-2.4294434-0.6815796-3.694458
		c7.8131104-1.7699585,15.8278198-3.5944214,23.9916382-5.4663696
		C402.8182678,326.3088989,402.2189636,329.4459229,401.4496765,332.2294312z"/>
	<path class="st0" d="M461.8970032,83.583992c0.4501953,0,0.9082031-0.0649414,1.3618164-0.2001953l12.930542-3.8638916
		L473.070343,92.64991c-0.605957,2.5522461,0.9716797,5.112793,3.5239258,5.7192383
		c0.3691406,0.0874023,0.7382812,0.1293945,1.1015625,0.1293945c2.1499023,0,4.0991211-1.4702148,4.6176758-3.6533203
		l3.0766602-12.9519043l9.5029297,9.3220215c0.9243164,0.9072266,2.1254883,1.359375,3.3256836,1.359375
		c1.230957,0,2.4614258-0.4755859,3.3916016-1.4238281c1.8369141-1.8725586,1.8081055-4.8798828-0.0649414-6.7172852
		l-9.7599487-9.5741577l13.1002808-3.9146118c2.5136719-0.7509766,3.9423828-3.3979492,3.1914062-5.9111328
		c-0.7509766-2.5131874-3.3950195-3.9399452-5.9111328-3.1914101l-12.9306641,3.8639565l3.1191406-13.130558
		c0.605957-2.5522461-0.9716797-5.112793-3.5239258-5.7192383c-2.5512695-0.6035156-5.112793,0.972168-5.7192383,3.5239258
		l-3.0766602,12.9519043l-9.5029297-9.3220215c-1.8720703-1.8359375-4.8793945-1.8076172-6.7172852,0.0649414
		c-1.8369141,1.8725586-1.8081055,4.8798828,0.0649414,6.7167969l9.7603149,9.5745277l-13.100647,3.9147339
		c-2.5136719,0.7509766-3.9423828,3.3979492-3.1914062,5.9111328C457.9634094,82.252449,459.851593,83.583992,461.8970032,83.583992
		z"/>
	<path class="st0" d="M90.3115692,347.9658203c-0.2167969,2.6142578,1.7265625,4.9091797,4.3408203,5.1259766
		c0.1337891,0.0117188,0.2666016,0.0166016,0.3984375,0.0166016c2.4453125,0,4.5224609-1.8759766,4.7285156-4.3574219
		l1.1014404-13.2664185l10.7921143,7.7927856c0.8408203,0.6074219,1.8129883,0.8994141,2.7768555,0.8994141
		c1.4736328,0,2.9262695-0.6835938,3.8549805-1.9697266c1.5356445-2.1259766,1.0566406-5.0957031-1.0703125-6.6308594
		l-11.085144-8.0043945l12.3668823-5.8334961c2.3725586-1.1191406,3.3886719-3.9501953,2.2695312-6.3222656
		c-1.1186523-2.3720703-3.9487305-3.3876953-6.3222656-2.2695312l-12.2060547,5.7576294l1.1166992-13.4500122
		c0.2167969-2.6142578-1.7265625-4.9091797-4.3408203-5.1259766c-2.6142578-0.2304688-4.909668,1.7255859-5.1269531,4.3408203
		l-1.1015015,13.2670898l-10.7930298-7.793457c-2.1259766-1.5351562-5.0952148-1.0566406-6.6318359,1.0703125
		c-1.5356445,2.1259766-1.0566406,5.0957031,1.0703125,6.6308594l11.0855103,8.0046387l-12.366272,5.833252
		c-2.3725586,1.1191406-3.3886719,3.9501953-2.2695312,6.3222656c0.8100586,1.7177734,2.5175781,2.7246094,4.2993164,2.7246094
		c0.6787109,0,1.3681641-0.1464844,2.0229492-0.4550781l12.2060547-5.7576294L90.3115692,347.9658203z"/>
	<path class="st0" d="M138.8794403,65.2006912c6.9755859,2.5898438,14.0151367,3.6000977,21.0024414,3.6000977
		c13.4082031,0,26.6171875-3.7226562,38.7573242-7.1450233c12.9736328-3.6567383,24.7504883-6.9819336,36.0151367-10.1621094
		c28.1337738-7.9428711,52.4311371-14.8027344,84.2187347-23.6918945c2.8793945-0.8051758,5.7631836-1.6206055,8.6508789-2.4370117
		c25.6079102-7.2397461,52.0874023-14.7255859,78.7636719-15.7978516
		c14.2695312-0.5698242,23.4624023,2.5678711,28.0834961,9.6064453c1.5737305,2.3964844,1.4423828,6.0917969-0.3198242,8.9858398
		c-0.8144531,1.3383789-2.6308594,3.5424805-5.6542969,3.2202148c-2.6074219-0.2719727-4.9443359,1.6235352-5.2167969,4.2319336
		c-0.2719727,2.609375,1.6230469,4.9453125,4.2324219,5.2172852c5.9174805,0.6123047,11.4321289-2.2729492,14.7539062-7.7299805
		c3.6582031-6.0097656,3.7167969-13.7016602,0.1455078-19.1396484c-6.6064453-10.0620117-18.5117188-14.609375-36.40625-13.8842773
		c-27.7983398,1.1171875-54.8271484,8.7583008-80.9663086,16.1484375c-2.8789062,0.8139648-5.7539062,1.6264648-8.625,2.4291992
		c-31.7988281,8.8925781-56.1015625,15.7539062-84.241684,23.6987305
		c-11.2631836,3.1796875-23.0390625,6.5043945-36.0107422,10.1611328
		c-17.0693359,4.8120117-36.4160156,10.2666016-53.8759766,3.7822266c-2.4575195-0.9121094-5.1928711,0.3408203-6.1064453,2.7998047
		C135.1665497,61.5532265,136.4199677,64.287117,138.8794403,65.2006912z"/>
	<path class="st0" d="M229.0210419,90.9648514c-1.5795898-0.9555664-3.2827148-1.2197266-5.0605469-0.7827148
		c-1.7612305,0.4321289-3.1665039,1.4487305-4.1787109,3.0234375c-1.0214844,1.5966797-1.3168945,3.315918-0.8779297,5.1103516
		c0.4394531,1.7949219,1.4970703,3.1826172,3.1430664,4.125c1.1088867,0.6347656,2.2617188,0.953125,3.4433594,0.953125
		c0.5478516,0,1.1015625-0.0683594,1.6601562-0.2050781c1.7792969-0.4360352,3.1669922-1.4580078,4.1254883-3.0390625
		c0.9560547-1.5800781,1.2202148-3.2822266,0.7851562-5.0600586
		C231.6255341,93.3154373,230.604538,91.9282303,229.0210419,90.9648514z"/>
	<path class="st0" d="M106.2822723,174.4980469c-0.4907227,4.4238281-1.0063477,9.1679688-1.5473633,14.2319336
		c-0.5283203,4.9179688-0.9438477,9.7880859-1.2368164,14.4819336l-0.1123047,0.184082l-0.0229492,0.3720703
		c-0.1049805,1.7006836-0.519043,7.1694336-0.9990234,13.5019531c-0.8925781,11.7739258-2.003418,26.4262695-2.0541992,29.0092773
		c-0.0834961,4.1240234,0.1416016,7.2109375,0.6875,9.4326172l0.1088867,0.4482422
		c0.6074219,2.4775391,1.4648438,4.8427734,2.5473633,7.0263672c1.1166992,2.2626953,2.5727539,4.2255859,4.3139648,5.8222656
		c1.9389648,1.8232422,4.2089844,3.1044922,6.746582,3.8095703c1.2612305,0.3496094,2.6303711,0.5253906,4.1049805,0.5253906
		c1.4804688,0,3.0664062-0.1767578,4.7539062-0.5322266l0.2958984-0.0732422
		c1.2895508-0.3154297,2.3076172-1.0908203,2.9472656-2.2451172c0.5864258-1.0673828,0.8168945-2.1777344,0.6860352-3.3017578
		l-0.0327148-0.1845703c-0.3120117-1.2695312-1.0751953-2.3037109-2.2075195-2.9892578
		c-1.1518555-0.6982422-2.3393555-0.9052734-3.5268555-0.6123047l-0.2944336,0.0722656
		c-1.6269531,0.3984375-3.0063477,0.4560547-4.0996094,0.1689453c-1.1240234-0.2949219-2.1401367-0.8212891-2.9741211-1.5234375
		c-0.9350586-0.8574219-1.7451172-1.9873047-2.4072266-3.3583984c-0.6958008-1.4414062-1.2695312-3.0722656-1.7055664-4.8476562
		l-0.0908203-0.359375c-0.2939453-1.5986328-0.4106445-4.1669922-0.3466797-7.6357422
		c0.0498047-2.7070312,1.6708984-23.3164062,2.5419922-34.3881836c0.2705078-3.4384766,0.4765625-6.0576172,0.5561523-7.1245117
		l0.0170898-0.2353516l-0.0371094-0.1538086c0.315918-4.6171875,0.7485352-9.4160156,1.2871094-14.269043
		c0.5541992-5.0170898,1.0644531-9.7875977,1.5195312-14.2211914c0.1303711-0.7905273,0.3491211-2.800293,0.6889648-6.3261719
		l1.1660156-12.246582c0.4555664-4.7817383,0.9228516-9.9360352,1.40625-15.4638672
		c0.4746094-5.4511719,0.9907227-10.7827148,1.5356445-15.8705978c0.1542969-1.6870117,0.8535156-7.3647461,1.4707031-12.3740234
		c0.5141602-4.1748047,1-8.1181641,1.1240234-9.3696289c0.2714844-2.7441406,0.5112305-5.1899414,0.7192383-7.3408203
		c0.206543-2.1420898,0.3828125-3.8876953,0.5229492-5.2280273c0.144043-1.362793,0.2280273-2.2070312,0.2509766-2.4819336
		c0.1489258-1.2583008-0.1713867-2.4165039-0.9580078-3.4501953c-0.7856445-1.0195312-1.8642578-1.6376953-3.1186523-1.7871094
		l-0.0004883-0.0004883c-1.2641602-0.1503906-2.4213867,0.1708984-3.4453125,0.9536133
		c-1.0234375,0.7832031-1.6435547,1.862793-1.7983398,3.1811523c-0.0253906,0.3154297-0.1079102,1.137207-0.2495117,2.4633789
		c-0.1411133,1.3515625-0.3183594,3.1025391-0.5249023,5.253418c-0.2075195,2.1503906-0.4389648,4.6166992-0.7016602,7.4174805
		c-0.1225586,1.3251953-0.6523438,5.6625977-1.2128906,10.2543945c-0.5966797,4.8891602-1.2138672,9.9453125-1.3598633,11.5429688
		c-0.659668,5.7226486-1.28125,11.8437424-1.8476562,18.1913986c-0.5371094,6.0048828-1.0317383,11.2807617-1.5083008,16.0864258
		l-35.4130859,8.6821289c0.0869141-1.3354492,0.1582031-2.7382812,0.2124023-4.1806641
		c0.2836914-4.4018555,1.7597656-18.8847656,2.7368164-28.4682617c0.2895508-2.8442383,0.5327148-5.2290039,0.6826172-6.7431641
		c0.6357422-6.4457932,1.6733398-12.560051,3.1010742-18.2465744c0.2949219-1.4931641,0.8105469-2.9169922,1.5317383-4.2314453
		l0.1181641-0.2783203c0.1376953-0.4462891,0.3081055-0.8378906,0.5078125-1.1669922l0.7993164-1.3232422
		c0.8085938-1.2001953,1.6499023-2.2885742,2.5004883-3.2348633c0.8735352-0.9726562,1.8203125-1.9521484,2.7416992-2.847168
		c0.9892578-0.8398438,1.5668945-1.8989258,1.7163086-3.1508789c0.1494141-1.2695312-0.2231445-2.4741211-1.1000977-3.5087891
		c-1.9868164-2.2387695-4.5097656-2.390625-6.7392578-0.4160156c-2.7714844,2.4145508-5.1347656,5.1455078-7.0410156,8.1445312
		l-0.5966797,0.9829102c-3.4741211,0.1669922-6.855957,0.1865234-10.0625,0.0581055
		c-3.4711914-0.1381836-6.8901367-0.3271484-10.1733398-0.5634766c-5.4433594-0.3457031-10.7861328-0.5268555-15.8813477-0.5385742
		c-5.1958008-0.019043-10.680666,0.6850586-16.3090839,2.065918c-3.4575195,0.8476562-6.6518555,2.3901367-9.4936523,4.5844727
		c-2.8227539,2.1767578-5.1713862,4.7929688-6.964355,7.7485352c-1.9023438,2.9960938-3.2666016,6.2792969-4.0561523,9.7592773
		c-0.7978516,3.5180664-0.8920898,7.0234299-0.28125,10.41259c0.8378906,4.7724609,2.6171875,8.7856445,5.2490234,11.8823242
		c1.4853516,1.8999023,3.1870112,3.4375,5.0561519,4.5688477c1.8271484,1.109375,3.7866211,1.9804688,5.8540039,2.5966797
		c4.0351562,1.1142578,8.4208984,1.2172852,13.0268555,0.3041992c6.2216816-1.1987305,12.1762714-4.0288086,17.7382832-8.4423828
		c0.9907227-0.8417969,1.5673828-1.9013672,1.7138672-3.1479492c0.1503906-1.2695312-0.2207031-2.4746094-1.0786133-3.4897461
		c-0.8408203-0.9873047-1.8994141-1.5634766-3.1479492-1.7124023c-1.2714844-0.1484375-2.4746094,0.2216797-3.4291992,1.0302734
		c-2.1118164,1.6254883-4.3706055,3.0493164-6.7128906,4.230957c-2.2788086,1.1503906-4.5781269,1.9140625-6.8710957,2.2773438
		c-3.1743164,0.5839844-6.090332,0.5166016-8.715332-0.2104492c-2.4785156-0.6020508-4.4716797-1.8837891-6.0595703-3.8759766
		c-0.722168-0.9780273-1.3969727-2.1206055-2.0048828-3.3959961c-0.5908203-1.2407227-1.0478516-2.715332-1.3510742-4.3369141
		c-0.331543-2.140625-0.25-4.4164963,0.2416992-6.7656174c0.4858398-2.3310547,1.4165039-4.5141602,2.8115234-6.5571289
		c1.2446289-2.0532227,2.8242188-3.84375,4.6953125-5.3232422c1.8422852-1.4555664,3.8681641-2.4619141,6.0214844-2.9897461
		c4.9003906-1.2011719,9.7651386-1.7802734,14.4570332-1.7060547c4.8056641,0.0708008,9.8071289,0.2670898,14.9013672,0.5859375
		c2.9633789,0.1132812,6.0083008,0.2324219,9.1318359,0.3549805c2.5507812,0.1040039,5.1977539,0.1704102,7.8920898,0.1992188
		c-1.4599609,5.8520508-2.5136719,12.1030273-3.1337891,18.5947266c-0.1831055,1.9072189-0.5053711,5.1083908-0.8823242,8.8510666
		c-0.9609375,9.5429688-2.2768555,22.612793-2.5405273,26.715332c-0.1591797,1.5366211-0.2739258,3.0478516-0.3417969,4.4897461
		c-0.0483398,0.9907227-0.1108398,1.9277344-0.1875,2.7973633l-7.2792969,1.7851562
		c-1.2900391,0.3154297-2.3085938,1.090332-2.9472656,2.2426758c-0.6225586,1.128418-0.7802734,2.3408203-0.4697266,3.6015625
		c0.2861328,1.168457,0.9760742,2.1201172,2.0449219,2.8256836c1.0932617,0.7270508,2.355957,0.9428711,3.6508789,0.6264648
		l4.1879883-1.0263672c-0.0791016,0.7685547-0.1333008,1.5488281-0.1591797,2.2719727
		c-0.3916016,5.574707-0.9199219,11.1601562-1.5703125,16.5996094c-0.640625,5.3295898-1.7602539,10.2661133-3.328125,14.6723633
		c-1.5380859,4.3222656-3.8017578,8.0600586-6.7280273,11.109375c-2.8691406,2.9902344-6.8857422,5.0859375-11.9658203,6.2348633
		l-0.987793,0.2431641c-2.7973633,0.4833984-5.42383,0.4638672-7.8071308-0.0541992
		c-2.3999023-0.5219727-4.5541992-1.4335938-6.3710938-2.6875c-3.7768555-2.7553711-6.3330078-6.7705078-7.5981445-11.9326172
		l-0.2373047-0.9570312c-0.6098633-3.2871094-0.5625-6.4243164,0.140625-9.3256836
		c0.7114258-2.9448242,1.8686523-5.6865234,3.4272461-8.1289062c1.9575195-2.9628906,4.3364258-5.456543,7.0703125-7.4121094
		c2.7329102-1.9550781,5.4716797-3.277832,8.1396503-3.9321289c1.2944336-0.3173828,2.3134766-1.0927734,2.9458008-2.2402344
		c0.6220703-1.1240234,0.7802734-2.3364258,0.4702148-3.6040039c-0.2856445-1.1630859-0.9736328-2.1132812-2.0463867-2.8266602
		c-1.097168-0.7255859-2.3583984-0.9418945-3.6899433-0.6137695c-3.684082,1.0131836-7.4560547,2.8457031-11.2119141,5.4472656
		c-3.7832031,2.6235352-7.012207,6.0424805-9.59375,10.1567383c-2.1157227,3.347168-3.7094722,7.0698242-4.7373042,11.0639648
		c-1.046875,4.0605469-1.1035156,8.5063477-0.1533203,13.2797852l0.2822266,1.1459961
		c1.6245117,7.519043,5.4291987,13.4521484,11.3442383,17.6591797c2.8911133,1.9306641,6.1621094,3.3325195,9.7231445,4.1665039
		c3.5825195,0.8374023,7.5273457,0.8515625,11.7978535,0.0283203l1.168457-0.2856445
		c6.7958984-1.5605469,12.2460938-4.2924805,16.199707-8.1191406c3.9077148-3.784668,6.9262695-8.3261719,8.9726562-13.4975586
		c2.0146484-5.0932617,3.40625-10.7944336,4.1357422-16.9448242c0.7192383-6.0478516,1.3110352-12.3046875,1.7602539-18.6240234
		c0.0551758-1.0551758,0.1142578-2.0864258,0.1806641-3.0952148c0.0439453-0.6806641,0.1030273-1.4042969,0.1796875-2.1904297
		l35.1601562-8.6210938C106.522995,171.6274414,106.3413544,173.4355469,106.2822723,174.4980469z"/>
	<path class="st0" d="M455.7392883,174.8203125c-1.5800781-0.9550781-3.28125-1.21875-5.0615234-0.7832031
		c-1.7631836,0.4331055-3.1679688,1.4501953-4.1757812,3.0234375c-1.0234375,1.5976562-1.3193359,3.3173828-0.8793945,5.1108398
		c0.4404297,1.7963867,1.4985352,3.1845703,3.1435547,4.1245117c1.1074219,0.6347656,2.2592773,0.953125,3.4399414,0.953125
		c0.5478516,0,1.1020508-0.0683594,1.6606445-0.2055664c1.7792969-0.4355469,3.1674805-1.4570312,4.1264648-3.0366211
		c0.9575195-1.5795898,1.222168-3.2827148,0.7861328-5.0629883
		C458.3418274,177.1674805,457.3198547,175.7807617,455.7392883,174.8203125z"/>
	<path class="st0" d="M128.2407684,196.6801758c1.3710938,3.4941406,3.4599609,6.1572266,6.2084961,7.9150391
		c1.7739258,1.1347656,3.8833008,1.703125,6.3037109,1.703125c1.4501953,0,3.0126953-0.2045898,4.6811523-0.6132812
		c3.8652344-0.9482422,7.4038086-3.3198242,10.5175781-7.0493164c2.6889648-3.2197266,4.9633789-6.8730469,6.7724609-10.8779297
		c2.0390625,0.8183594,4.2290039,1.3115234,6.5302734,1.4697266l0.0620117,0.0043945l0.0620117-0.0009766
		c1.4750977-0.0214844,3.0239258-0.2285156,4.6025391-0.6162109c2.9726562-0.7294922,5.5180664-1.9311523,7.5654297-3.5727539
		c0.9550781-0.7661133,1.8361816-1.6140137,2.649231-2.5271606c1.0977173,3.6974487,3.006897,6.4939575,5.7003784,8.2976685
		c1.4350586,0.9702148,3.0200195,1.5878906,4.7094727,1.8359375c0.6171875,0.0913086,1.2382812,0.1367188,1.8613281,0.1367188
		c1.0473633,0,2.0996094-0.128418,3.1455078-0.3847656l0.1499023-0.0366211
		c2.3334961-0.5722656,4.5004883-1.5039062,6.3813477-2.7319336c1.949707-1.1464844,3.7431641-2.6044922,5.3769531-4.3852539
		c1.7040405-2.0380249,3.2597046-4.484436,4.6606445-7.2963867c0.0697021,0.152771,0.1345825,0.3092041,0.2075195,0.4594727
		c0.7133789,1.4726562,1.6933594,2.7880859,2.934082,3.9282227c1.3691406,1.2133789,2.9711914,2.0878906,4.7612305,2.5996094
		c0.8916016,0.2558594,1.8383789,0.3837891,2.8349609,0.3837891c1.0405273,0,2.1347656-0.1396484,3.2749023-0.4189453
		l0.1464844-0.0361328c3.7758789-0.9262695,6.972168-3.0102539,9.4995117-6.1953125
		c2.1669312-2.7332764,3.9649048-5.9331055,5.3972778-9.4835815c0.9477539,1.913147,2.1652222,3.5283813,3.6481323,4.7804565
		c2.3696289,2.3491211,5.2021484,3.5297852,8.4496918,3.5297852c1.0634766,0,2.1713867-0.1269531,3.3222656-0.3803711
		c4.206543-0.9160156,7.7509766-3.1357422,10.5351562-6.5991211c1.894043-2.3574219,3.5600586-5.0493164,4.9765625-8.0361328
		c0.3505859,0.7915039,0.7470703,1.5234375,1.1875,2.1914062c1.0043945,1.534668,2.1713867,2.8081055,3.4682617,3.784668
		l0.0957031,0.0664062c2.9604492,1.8891602,6.2685547,2.4033203,9.8237305,1.5297852l0.1582031-0.0375977
		c2.2324219-0.546875,4.3496094-1.4658203,6.2182617-2.6865234c2.0581055-1.1757812,3.9067383-2.6494141,5.5400391-4.4316406
		c2.2675781-2.7108765,4.2756348-6.1443481,6.0010986-10.2185669c0.0629272,0.1432495,0.1190796,0.295166,0.18396,0.4358521
		c0.972168,2.1044922,2.2729492,3.8544922,3.8676758,5.2016602c2.3691406,2.3486328,5.2011719,3.5292969,8.4482422,3.5288086
		c1.0639648,0,2.1738281-0.1269531,3.3251953-0.3808594c4.1040039-0.8920898,7.581543-3.0385742,10.3349609-6.3798828
		c1.8876953-2.2890625,3.5576172-4.9199219,4.9873047-7.8525391c0.1210938,0.277832,0.2470703,0.5517578,0.3779297,0.8208008
		c0.7148438,1.4799805,1.6948242,2.7963867,2.9316406,3.9296875c1.3696289,1.2138672,2.9726562,2.0883789,4.7626953,2.5996094
		c1.8261719,0.5234375,3.8813477,0.5112305,6.1000977-0.0341797l0.1552734-0.0371094
		c3.6738281-0.9003906,6.7412109-2.84375,9.1166992-5.7753906c1.6055908-1.9801636,3.0294189-4.2346802,4.270752-6.7078857
		c0.6537476,1.1210938,1.468811,2.1437988,2.4567261,3.0505371c1.3701172,1.2148438,2.9726562,2.0898438,4.7612305,2.6000977
		c1.8242188,0.5234375,3.8789062,0.5112305,6.1118164-0.0361328l0.2910156-0.0722656
		c2.2768555-0.5571289,4.3393555-1.5600586,6.1313477-2.9814453c0.4634399-0.3682251,0.9129639-0.7698975,1.3553467-1.1867065
		c-0.005188,0.0900269-0.0270386,0.1751709-0.0271606,0.2664185c-0.0024414,2.3120117-0.0595703,4.8720703-0.1728516,7.5830078
		c-2.0292969,1.3168945-4.0556641,2.7036133-6.0415039,4.1542969
		c-15.3291016,11.2006836-22.9472656,22.4492188-22.6420898,33.4321289
		c0.215332,7.762207,5.2138672,14.1459961,12.7338867,16.2641602c1.6044922,0.4521484,3.1953125,0.6708984,4.7319336,0.6708984
		c4.7314453,0,8.9389648-2.0805664,11.3886719-5.8457031c5.9213867-9.1015625,8.1567383-29.6142578,8.9975586-43.190918
		c7.8842773-4.7612305,16.0947266-8.7763672,22.7324219-11.5786133
		c20.7729492-8.7675781,69.3359375-18.1249924,92.8579407-1.2128906
		c9.8447266,7.078125,14.2602539,18.3041992,13.1240234,33.3662109c-0.1977539,2.6162109,1.7631836,4.8964844,4.3789062,5.09375
		c2.6069336,0.1967773,4.8964844-1.7631836,5.09375-4.3789062c1.402832-18.5898438-4.3344727-32.6513672-17.0512695-41.7944336
		c-15.1694641-10.9067307-36.9599915-11.9731369-52.5659485-10.9448166
		c-20.2558594,1.3330078-38.8676758,6.6176682-49.5317383,11.119133c-3.5849609,1.5131836-10.609375,4.6435547-18.5610352,9.0625
		c0.0059814-0.2866211,0.0105591-0.538147,0.0142822-0.7595825c0.3466187-3.7126465,0.7609253-7.8132324,0.84552-8.8513794
		c0.2587891-3.1787109,0.5717773-6.4179688,0.9316406-9.6406174c0.4648438-4.5195312,0.8984375-8.7407227,1.2988281-12.671875
		l0.1181641-1.1645508c0.3569336-3.5146484,0.7021484-6.9194336,1.0229492-10.1655273
		c0.3271484-2.4638672,0.6640625-5.2026367,1.0014648-8.1401367c0.3334961-2.9111328,0.6748047-5.796875,1.0224609-8.6611328
		c0.3447266-2.8632812,0.6728516-5.5961914,0.9804688-8.1894531c0.3032227-2.5478516,0.5981445-4.769043,0.8759766-6.6025391
		l0.0830078-0.3955078c0.1533203-1.269043-0.2182617-2.4750977-1.0766602-3.4892578
		c-0.8242188-0.9702148-1.8574219-1.5439453-3.0722656-1.7055664c-1.3208008-0.2749023-2.5634766,0.0415039-3.597168,0.9179688
		c-0.9711914,0.8232422-1.5454102,1.8603516-1.7070312,3.0839844l-0.0874023,0.4267578
		c-0.1787109,1.8017578-0.4487305,4.0205078-0.8017578,6.59375c-0.362793,2.6313477-0.7138672,5.4291992-1.0424805,8.3139648
		l-1.0039062,8.7436523c-0.328125,2.855957-0.6162109,5.5834961-0.8520508,8.0717773
		c-0.1015625,0.8608398-0.2172852,1.7749023-0.3432617,2.7402344c-0.1259766,0.9570312-0.2387695,1.8613281-0.3398438,2.7104492
		l-0.0615234,0.1000977l-0.0615234,0.7773438c-0.5,3.012207-1.1074219,6.3007812-1.8056641,9.7773438
		c-0.6875,3.4360352-1.5932617,6.7133789-2.6918945,9.7431641c-1.074707,2.9697189-2.3852539,5.5717697-3.894043,7.7333908
		c-1.3901367,1.9882812-3.0029297,3.1850586-4.9316406,3.6582031l-0.1459961,0.0361328
		c-1.315918,0.3237305-1.9345703-0.0488281-2.284668-0.3549805l-0.1000977-0.0805664
		c-0.4052734-0.2983398-0.7001953-0.7070312-0.9033203-1.2514648c-0.2797852-0.7490234-0.5258789-1.5541992-0.730957-2.3920898
		l-0.3544922-1.4487305l-0.0112305,0.0029297c-0.0761719-0.6591797-0.1464844-1.3657227-0.2104492-2.1147461
		c-0.1118164-1.2626953-0.1289062-2.7788086-0.050293-4.50634c0.0830078-1.8041992,0.161499-3.7160034,0.2490234-5.7324219
		c0.0909424-2.0956421,0.3063965-5.2709351,0.3935547-6.2954102c0.1010742-1.1884766,0.3085938-2.9121094,0.5424805-5.1748047
		c0.2319336-2.2548828,0.5141602-4.8359375,0.847168-7.7324219c0.3813477-3.1123047,0.7915039-6.8505859,1.2207031-11.1113281
		c0.4262695-4.2426758,0.8974609-8.734375,1.4111328-13.4604492c0.1474609-1.2431641-0.1826172-2.434082-0.956543-3.4462891
		c-0.7851562-1.0224609-1.8642578-1.6416016-3.1210938-1.7915039c-1.2397461-0.1435547-2.4335938,0.1826172-3.4438477,0.956543
		c-1.0214844,0.7817383-1.640625,1.8608398-1.7924805,3.1303711c-0.465332,4.1020508-0.9360352,8.2822266-1.4116211,12.5419922
		c-0.4765625,4.262207-0.934082,8.2788086-1.3681641,12.0444336c-0.3950195,3.222168-0.6757812,5.8842773-0.8579102,8.1376953
		c-0.1821289,2.2314453-0.3393555,3.9375-0.4677734,5.1508789c-0.0449219,0.5502319-0.0811157,1.0936279-0.1218262,1.6410522
		c-0.4786377,2.8035889-1.0610962,5.8258667-1.7443237,9.0202026c-0.7392578,3.4575195-1.6704102,6.7480392-2.7685547,9.7797775
		c-1.0766602,2.972168-2.3876953,5.5742188-3.8964844,7.7333984c-1.3891602,1.9882812-3.0014648,3.1845703-4.9301758,3.6577148
		c-1.6191406,0.3959961-2.2294922-0.1401367-2.4067383-0.2958984c-0.3842773-0.3525391-0.7158203-0.8413086-0.9853516-1.4521484
		c-0.3188477-0.7250977-0.5795898-1.4970703-0.7763672-2.3022461l-0.0722656-0.2875977
		c-0.2192383-0.8999023-0.3618164-1.9838867-0.4228516-3.2275391c-0.0678711-1.2954102-0.0615234-2.8359375,0.019043-4.5800781
		l0.0024414-0.0532227l-0.0014648-0.0532227c-0.081543-3.2416992,0.1337891-7.2514572,0.644043-11.9589767
		c0.1787109-2.1987305,0.4257812-4.7338867,0.7348633-7.5351562c0.3100586-2.8046875,0.6201172-5.7167969,0.9287109-8.7246094
		c0.4882812-4.3994141,0.9741211-8.5625,1.4453125-12.3735352c0.4594727-3.7202148,0.8295898-6.8618164,1.0981445-9.3227539
		c0.1489258-1.2436523-0.1806641-2.4355469-0.9560547-3.4501953c-0.7856445-1.0219727-1.8642578-1.640625-3.1206055-1.7900391
		c-1.2602539-0.1494141-2.4174805,0.1713867-3.4462891,0.9555664c-1.0219727,0.7836914-1.640625,1.862793-1.7856445,3.0878906
		c-0.15625,1.1044922-0.3022461,2.2592773-0.4287109,3.4560547c-0.03125,0.2851562-0.0639648,0.5771484-0.0981445,0.8754883
		c-0.1982422-0.1694336-0.3979492-0.3339844-0.5986328-0.4931641l-0.112793-0.081543
		c-1.887207-1.2324219-3.9125977-2.1137695-6.0209961-2.6186523c-2.1259766-0.5073242-4.3203125-0.605957-6.5263672-0.2944336
		l-1.5166016,0.3652344c-4.5634766,1.2324219-8.3500977,3.9858398-11.2539062,8.1816406
		c-2.7851562,4.0200195-5.0546875,8.7724609-6.7548828,14.1552734c-1.043457,3.5488281-1.8974609,7.309082-2.5390625,11.1757812
		c-0.6270752,3.7839355-1.0286255,7.505249-1.2018433,11.0707397c-0.0628052,0.1866455-0.133606,0.3665085-0.1790161,0.5679245
		c-1.3461914,7.1503906-2.8515625,13.1713867-4.4692383,17.8808594c-1.605957,4.5136719-3.472168,8.0087891-5.5239258,10.3608398
		c-0.8959961,0.9775391-1.9819336,1.8710938-3.1831055,2.6279297c-1.434082,0.8339844-2.6870117,1.3852539-3.7294922,1.6396484
		l-0.1455078,0.0356445c-1.2246094,0.3007812-1.8173828-0.0219727-2.15625-0.2905273l-0.1547852-0.1079102
		c-0.8608398-0.5209961-1.5541992-1.7685547-2.0058594-3.6098633l-0.0727539-0.2939453
		c-0.1958008-0.8007812-0.3325195-1.8637695-0.4057617-3.1635742c-0.0791016-1.3237305-0.065918-2.8266602,0.0400391-4.4946289
		c0.0820312-1.8081055,0.1586914-3.7470703,0.230957-5.8183594c0.0693359-2.0307617,0.1962891-4.1826172,0.3754883-6.3823242
		c0.6230469-6.8632812,1.2421875-13.5449142,1.8515625-20.0400314c0.6083984-6.4770508,1.2788086-13.0131836,1.9975586-19.4711914
		l0.7963867-9.7626953l0.1123047-0.1850586l0.262207-3.2143555c0.159668-1.5751953,0.3120117-3.3466797,0.453125-5.2661133
		l0.128418-1.7802734c0.3461914-4.8154297,1.4003906-19.4682655,1.5952148-21.1879921
		c0.1489258-1.2412109-0.1811523-2.4326172-0.9570312-3.4487305c-0.7836914-1.0205078-1.8613281-1.6396484-3.1220703-1.7915039
		c-1.2597656-0.1503906-2.418457,0.1738281-3.4423828,0.956543c-1.0209961,0.7822266-1.6411133,1.8608398-1.7988281,3.1762695
		c-0.0712891,0.8710938-0.2768555,3.6567383-0.5258789,7.0327148c-0.4794922,6.4926796-1.1357422,15.3847694-1.2753906,16.6001015
		c-0.2241211,1.9204102-0.3779297,3.6025391-0.4521484,4.9365234l-0.2963867,2.9946289l0.0366211,0.1518555l-0.9443359,9.8530273
		c-0.1738281,1.3632812-0.331543,2.7949219-0.46875,4.2583008c-0.0380859,0.4145508-0.0795898,0.8364258-0.1240234,1.2641602
		c-0.0717773-0.0678711-0.144043-0.1381836-0.215332-0.2109375l-0.2456055-0.2001953
		c-1.8842773-1.2324219-3.9101562-2.1142578-6.0219727-2.6206055c-2.1201172-0.5073242-4.3144531-0.605957-6.5249023-0.2944336
		l-1.5185547,0.3652344c-4.5620117,1.2324219-8.3486176,3.9853516-11.253891,8.1821289
		c-2.7851562,4.0205078-5.0551758,8.7734375-6.7558594,14.1557617c-1.0415039,3.5454102-1.8950195,7.3051682-2.5371094,11.1752853
		c-0.6450195,3.8901367-1.0546875,7.7021484-1.2177734,11.328125c-0.0009766,0.0206299-0.0012817,0.0405273-0.0021973,0.0611572
		c-0.0405884,0.1353149-0.0930786,0.2610474-0.1252441,0.4031982c-0.5820312,3.1826172-1.2324219,6.6137695-1.9526367,10.2988281
		c-0.7011719,3.5888672-1.6855469,7.0625-2.9243164,10.3217773c-1.09375,2.8681641-2.4023438,5.3652344-3.8901367,7.4223633
		c-1.3632812,1.8881836-2.9672852,3.0366211-4.9135742,3.512207l-0.1376953,0.034668
		c-1.3193359,0.3222656-1.9350586-0.0473633-2.2626953-0.3349609c-0.3842773-0.3510742-0.7148438-0.8383789-0.984375-1.4511719
		c-0.3144531-0.7114258-0.574707-1.4833984-0.7753906-2.3007812l-0.0722656-0.2890625
		c-0.21875-0.8925781-0.3613281-1.9770508-0.4238281-3.2246094c-0.0668945-1.2983398-0.1079102-2.8120117-0.1274414-4.5444336
		c0.0830078-1.8056641,0.1640625-3.7158203,0.2480469-5.7324219c0.081543-1.9775391,0.2626953-4.0991211,0.5405273-6.3295898
		c0.1298828-1.1967773,0.2612305-2.6049805,0.3945312-4.2290039c0.1254883-1.5507812,0.3017578-3.3295898,0.5385742-5.4370117
		c0.2304688-2.0512695,0.4907227-4.4267578,0.7753906-7.1230469c0.2841797-2.6923828,0.5922852-5.7070312,0.9306641-9.0414963
		l0.4282227-4.0629883l0.6591797-7.5126953c0.1523438-1.2680664-0.2192383-2.4731445-1.078125-3.4907227
		c-0.8525391-0.9995117-1.9545898-1.5419922-3.1928711-1.5722656c-1.2363281-0.1259766-2.4135742,0.2480469-3.402832,1.0844727
		c-1.0029297,0.8510742-1.5463867,1.9541016-1.5756836,3.1948242l-0.8452148,7.4189453l-0.1982422,2.4082031
		c-0.0512695,0.6235352-0.0795898,1.1635742-0.0844727,1.6064453c-0.3779297,2.6894531-0.706543,5.4311447-0.9755859,8.150383
		c-0.2719727,2.7446289-0.5258789,5.3540039-0.7583008,7.8232422c-0.2407227,2.5283203-0.4599609,4.5473633-0.6713867,6.1748047
		c-0.144165,1.1200562-0.237915,2.0328979-0.291626,2.7926636c-0.1359253,0.3067017-0.2470703,0.6303711-0.324585,0.9754028
		c-0.6689453,3.5512695-1.3769531,6.8774414-2.1044922,9.8837891c-0.7177734,2.9521484-1.5131836,5.6396484-2.3510742,7.956543
		c-0.8720703,2.2485352-1.7705078,4.2802734-2.668457,6.0356445c-0.8681641,1.6918945-1.8442383,3.1723633-2.8701172,4.3657227
		c-0.8955078,0.9775391-1.9814453,1.8706055-3.1850586,2.628418c-1.4228516,0.8300781-2.6757812,1.3813477-3.7299805,1.6401367
		l-0.1425781,0.0356445c-1.2250977,0.2993164-1.8168945-0.0224609-2.1542969-0.2905273l-0.15625-0.1088867
		c-0.8725586-0.5283203-1.546875-1.7421875-2.0048828-3.6103516l-0.0732422-0.2954102
		c-0.1958008-0.7973633-0.3325195-1.8598633-0.4072266-3.1601562c-0.078125-1.3325195-0.0654297-2.8359375,0.0400391-4.4960938
		c0.0830078-1.809082,0.159668-3.7470703,0.230957-5.8178711c0.0688477-2.0170898,0.1958008-4.1689453,0.3764648-6.3823242
		c0.6225586-6.8598633,1.2700195-13.6054688,1.9243164-20.0493164c0.659668-6.5102539,1.3022461-12.990715,1.9243164-19.4492111
		l0.9282227-10.2275391c0.0839844-0.5976562,0.128418-1.1503906,0.1318359-1.6533203
		c0-0.3359375,0.034668-0.7514648,0.1103516-1.2919922c0.1542969-1.5092773,0.3295898-3.2573242,0.5253906-5.2514648
		l0.5986328-6.1733398c0.1523438-1.2695312-0.2202148-2.4750977-1.0786133-3.4892578
		c-0.8422852-0.9887695-1.9013672-1.5649414-3.1479492-1.7119141l-0.1694336-0.0102539c-0.0078125,0-0.0151367,0-0.0224609,0
		c-1.1660156,0-2.2470703,0.3735352-3.2172852,1.1132812c-1.0209961,0.7832031-1.640625,1.8623047-1.7949219,3.1567383
		c-0.2353516,2.4794922-0.4301758,4.6821289-0.5878906,6.6152344c-0.1533203,1.8901367-0.3198242,3.5507812-0.5004883,4.9746094
		l-1.2104492,13.0478516c-0.625,6.5268555-1.2973633,13.2802658-1.9980469,20.0717697
		c-0.635498,6.1387329-1.2036743,12.2496338-1.6977539,18.2006836c-0.2653198,0.484436-0.4486694,1.0059204-0.5146484,1.5625
		c-0.0756836,0.5268555-0.1547852,1.0263672-0.2402344,1.5029297c-0.0849609,0.4697266-0.1738281,0.9189453-0.2695312,1.3378906
		l-0.0224609,0.121582c-0.0678711,0.4741211-0.1499023,0.8828125-0.2416992,1.2084961
		c-0.1201172,0.4208984-0.2333984,0.8676758-0.3481445,1.3725586c-0.3666992,1.809082-0.8676758,3.6157227-1.4887695,5.3691406
		c-0.6132812,1.7333984-1.3876953,3.3769531-2.3007812,4.8837891c-0.7314453,1.2041016-1.6748047,2.2880859-2.8041992,3.2216797
		c-1.0810547,0.8935547-2.4169922,1.5400391-3.9692383,1.9208984c-0.6040039,0.1479492-1.3779297,0.2416992-2.2163086,0.277832
		c-1.2993164-0.0205078-2.4238281-0.300293-3.409668-0.8505859c0.8666992-2.9008789,1.5898438-5.9467773,2.1533203-9.0727539
		c0.6269531-3.5014648,1.0908203-6.96875,1.3793945-10.3056641c0.2900391-3.3579102,0.387207-6.5913086,0.2875977-9.6103516
		c-0.1005859-3.0546875-0.4575195-5.8530273-1.0498047-8.2646484c-0.5922852-2.8657227-1.5385742-5.3129883-2.8134766-7.2734375
		c-1.2749023-1.9584961-2.769043-3.5585938-4.418457-4.7407227c-2.0039062-1.4921875-4.2143555-2.4013596-6.5712891-2.7031174
		c-2.2646484-0.2875977-4.6044922-0.1972656-7.019043,0.2817383l-0.1464844,0.0361328
		c-4.4995117,1.103508-8.2641602,3.7690353-11.1884766,7.9223557c-2.8027344,3.9794922-5.0805664,8.7099609-6.7709961,14.059082
		c-0.8466797,2.6762695-1.6376953,6.0537109-2.3505859,10.0371094c-0.7138672,3.9550781-1.2568359,8.1850586-1.6147461,12.5732422
		c-0.3569336,4.3876953-0.4018555,8.8120117-0.1337891,13.1503906
		C126.128952,189.4072266,126.9311981,193.3432617,128.2407684,196.6801758z M380.639679,194.7470703
		c-1.0576172,1.625-3.5649414,1.777832-5.5825195,1.2114258c-2.7324219-0.7695312-5.6943359-3.1137695-5.8129883-7.3837891
		c-0.2382812-8.5800781,7.8393555-17.4667969,18.3701172-25.2119141
		C386.4184875,176.2382812,384.1235657,189.3920898,380.639679,194.7470703z M315.132843,128.362793
		c0.1816406-3.2084885,0.5532227-6.5859299,1.1044922-10.0385666c0.5454102-3.4082031,1.3071289-6.7631836,2.2583008-9.9526367
		c1.3046875-4.1665039,2.9472656-7.7958984,4.8813477-10.7866211c1.8027344-2.7871094,3.9697266-4.5532227,6.3896484-5.2368164
		c0.1860352-0.0458984,0.2817383-0.0512695,0.2709961-0.0576172l0.2543945,0.0551758l0.2744141-0.0424805
		c1.9697266-0.3051758,3.8066406,0.1181641,5.5844727,1.265625c1.7241211,1.1894531,3.0883789,3.3974609,4.0327148,6.4838867
		c0.0634766,0.2568359,0.074707,0.4389648,0.0703125,0.5551758c-0.2026367,1.3027344-0.4008789,2.7470703-0.5898438,4.2939453
		c-0.1870117,1.5205078-0.4345703,3.1723633-0.7436523,4.9633789c-0.5620117,4.1303711-1.2236328,8.6513672-1.9667969,13.4379883
		c-0.7368164,4.7636642-1.7631836,9.2890549-3.050293,13.4511642c-1.2680664,4.0991211-2.8955078,7.6665039-4.8359375,10.6040039
		c-1.8144531,2.7456055-3.9648438,4.3491211-6.5742188,4.9013672c-1.425293,0.269043-2.5,0.0073242-3.3510742-0.8022461
		c-1.3193359-1.3085938-2.4199219-3.7324219-3.2705078-7.2045898c-0.4375-1.7832031-0.7182617-4.0742188-0.8354492-6.8105469
		C314.9145813,134.6479492,314.9472961,131.59375,315.132843,128.362793z M251.3047333,144.0126953
		c0.1806641-3.2050781,0.5517578-6.5820312,1.1035156-10.0361328c0.546875-3.4125977,1.3085938-6.7685471,2.2583008-9.9545822
		c1.3041992-4.1645508,2.9472504-7.7939453,4.882309-10.7871094c1.8027344-2.7866211,3.9692383-4.5527344,6.3886719-5.2363281
		c0.1835938-0.0449219,0.2792969-0.0512695,0.2685547-0.0576172l0.2539062,0.0556641l0.2763672-0.0424805
		c1.9702148-0.3007812,3.8100586,0.1196289,5.5864258,1.2661133c1.722168,1.1879883,3.0864258,3.3955078,4.0327148,6.4863281
		c0.0629883,0.2529297,0.0737305,0.434082,0.0693359,0.5512695c-0.2041016,1.315918-0.4023438,2.7612305-0.5888672,4.2939453
		c-0.190918,1.543457-0.4384766,3.1953125-0.7446289,4.9638672c-0.559082,4.1088791-1.2202148,8.6298752-1.9648438,13.4379807
		c-0.737793,4.7646484-1.7651367,9.2900391-3.0532227,13.4516602c-1.2670898,4.0976562-2.8935547,7.6650391-4.8339844,10.6025391
		c-1.8154297,2.746582-3.9663086,4.3505859-6.5761719,4.9023438c-1.4272461,0.2670898-2.4985352,0.0058594-3.3505707-0.8022461
		c-1.3178711-1.3076172-2.418457-3.7319336-3.2700195-7.2041016c-0.4379883-1.7890625-0.71875-4.0800781-0.8344727-6.8115234
		C251.085495,150.2988281,251.1182098,147.2451172,251.3047333,144.0126953z M135.8643036,169.409668
		c0.4086914-3.6357422,0.9111328-7.03125,1.4941406-10.0942383c0.5761719-3.0478516,1.1630859-5.4882812,1.7597656-7.3017578
		c1.2070312-4.1323242,2.7783203-7.7080078,4.6699219-10.6289062c1.7651367-2.7285156,3.8325195-4.359375,6.3188477-4.9838867
		c1.2265625-0.2036133,2.3652344-0.230957,3.3828125-0.0810547c0.9785156,0.1469727,1.8554688,0.4956055,2.6831055,1.0664062
		c1.684082,1.1611328,2.8632812,3.2641602,3.5043945,6.2514648c0.7192383,3.3500977,1.0009766,7.4433594,0.8369141,12.1660156
		c-0.0878906,2.5332031-0.3203125,5.1083984-0.6943359,7.7045898c-0.8706055-0.8066406-1.9365234-1.2358398-3.0961914-1.2441406
		l-0.0444336,0.0004883c-1.2963867,0.0297852-2.4194336,0.4589844-3.3452148,1.28125
		c-0.96875,0.8701172-1.4638672,2.0546875-1.4316406,3.3256836c-0.1171875,2.6748047,0.1352539,5.300293,0.7495117,7.8027344
		c0.6352539,2.5927734,1.527832,4.7802734,2.6586914,6.5161133c-1.5161133,3.6572266-3.3320312,7.0161133-5.4047852,9.9946289
		c-2.0634766,2.965332-4.3227539,4.7661133-6.7163086,5.3520508c-2.5576172,0.6274414-3.7304688-0.2475586-4.3920898-0.9619141
		c-1.2314453-1.3276367-2.1269531-3.2993164-2.6616211-5.8598633c-0.5688477-2.7319336-0.8608398-5.9174805-0.8676758-9.4702148
		C135.25737,176.6611328,135.4580536,173.015625,135.8643036,169.409668z"/>
</g>
</svg>
