<?xml version="1.0" encoding="utf-8"?>
<!-- Generator: Adobe Illustrator 19.1.0, SVG Export Plug-In . SVG Version: 6.00 Build 0)  -->
<svg version="1.1" id="Mobile_Phone_1" xmlns="http://www.w3.org/2000/svg" xmlns:xlink="http://www.w3.org/1999/xlink" x="0px"
	 y="0px" viewBox="0 0 71.8685989 70.5553665" style="enable-background:new 0 0 71.8685989 70.5553665;" xml:space="preserve">
<style type="text/css">
	.st0{fill:#FFFFFF;}
</style>
<g>
	<path class="st0" d="M30.2542057,36.255558H4.0450234C1.8145674,36.255558,0,38.0704498,0,40.3005829v26.2098236
		c0,2.2301407,1.8145674,4.04496,4.0450234,4.04496h26.2091827c2.2307796,0,4.0456066-1.8148193,4.0456066-4.04496V40.3005829
		C34.2998123,38.0704498,32.4849854,36.255558,30.2542057,36.255558z M31.4514465,66.5104065
		c0,0.6599274-0.5369987,1.1966019-1.1972408,1.1966019H4.0450234c-0.6599841,0-1.1966581-0.5366745-1.1966581-1.1966019V40.3005829
		c0-0.6485901,0.5480664-1.1966591,1.1966581-1.1966591h26.2091827c0.6491795,0,1.1972408,0.548069,1.1972408,1.1966591V66.5104065z
		"/>
	<path class="st0" d="M67.8236389,36.255558H41.6131668c-2.2301331,0-4.04496,1.8148918-4.04496,4.0450249v26.2098236
		c0,2.2301407,1.814827,4.04496,4.04496,4.04496h26.2104721c2.2301331,0,4.04496-1.8148193,4.04496-4.04496V40.3005829
		C71.8685989,38.0704498,70.053772,36.255558,67.8236389,36.255558z M69.0203018,66.5104065
		c0,0.6485291-0.5480652,1.1966019-1.1966629,1.1966019H41.6131668c-0.6599197,0-1.1965942-0.5366745-1.1965942-1.1966019
		V40.3005829c0-0.6599846,0.5366745-1.1966591,1.1965942-1.1966591h26.2104721c0.6485977,0,1.1966629,0.548069,1.1966629,1.1966591
		V66.5104065z"/>
	<path class="st0" d="M22.3918133,34.2998161h26.2089214c2.2301331,0,4.04496-1.8145714,4.04496-4.045023V4.0449586
		C52.6456947,1.8145087,50.8308678,0,48.6007347,0H22.3918133c-2.2304554,0-4.0449581,1.8145087-4.0449581,4.0449586v26.2098351
		C18.3468552,32.4852448,20.1613579,34.2998161,22.3918133,34.2998161z M21.1952267,4.0449586
		c0-0.6599133,0.5366669-1.1965873,1.1965866-1.1965873h26.2089214c0.6599197,0,1.1966019,0.536674,1.1966019,1.1965873v26.2098351
		c0,0.6599846-0.5366821,1.1966591-1.1966019,1.1966591H22.3918133c-0.6599197,0-1.1965866-0.5366745-1.1965866-1.1966591V4.0449586
		z"/>
	<g>
		<path class="st0" d="M34.7038689,24.3229504c-0.6138,0-1.1883926-0.0921364-1.7233429-0.275753
			c-0.5353851-0.1836166-1.0032501-0.4345379-1.4027195-0.7523289c-0.3999062-0.3180084-0.7139931-0.690033-0.9418278-1.1162949
			c-0.2287025-0.4260445-0.3428383-0.8888969-0.3428383-1.3887806c0-0.5565128,0.1498566-1.0025959,0.4495678-1.3382473
			c0.2997112-0.3352146,0.6852417-0.503149,1.1565914-0.503149c0.3990326,0,0.7383881,0.139183,1.0167542,0.4175491
			s0.4177666,0.6177197,0.4177666,1.017189c0,0.2428627-0.0535812,0.456974-0.1607475,0.6423321
			c-0.1071625,0.1855774-0.2178116,0.3284645-0.3319473,0.4282227c0.1285095,0.1999531,0.3428383,0.3676701,0.6442947,0.503149
			c0.3010178,0.1359158,0.7096367,0.2034378,1.2271614,0.2034378c0.2870789,0,0.5562973-0.0392056,0.8076515-0.1180534
			c0.251358-0.0786324,0.4630737-0.2038746,0.6360168-0.3755112c0.243515-0.2428627,0.4160233-0.5469303,0.516655-0.9115505
			c0.100193-0.3646202,0.1507263-0.8046036,0.1507263-1.319952v-7.2956696h-2.1197624v-2.162672h5.9955406v2.162672h-1.541687
			v7.2799873c0,0.8281288-0.1106491,1.5560608-0.3319473,2.1840191c-0.2212982,0.6283913-0.5319023,1.1422138-0.9313698,1.5416851
			c-0.4142838,0.4140625-0.8886833,0.7139931-1.4240685,0.899353
			C35.9353867,24.2299423,35.3464203,24.3229504,34.7038689,24.3229504z"/>
	</g>
	<g>
		<path class="st0" d="M17.096323,60.7071228c-1.0707722,0-2.0448351-0.1894989-2.9226236-0.5676231
			c-0.8782253-0.3781242-1.6309891-0.8919449-2.2591639-1.5416832c-0.6281748-0.6495209-1.1169491-1.4203644-1.4667578-2.3125305
			c-0.3498087-0.8919449-0.5244951-1.8520699-0.5244951-2.8799324s0.1781712-1.9875488,0.5353861-2.8799324
			c0.3563433-0.8919449,0.8564434-1.6664925,1.498558-2.3232002c0.6425505-0.6564903,1.4096899-1.1703148,2.3018551-1.541687
			c0.8921652-0.3709373,1.8736334-0.5567322,2.9444056-0.5567322c1.0703373,0,2.044836,0.1894989,2.9226246,0.5674057
			c0.8777885,0.3785591,1.6305542,0.8923836,2.258728,1.541687c0.6281757,0.6497383,1.1169491,1.4205818,1.4667568,2.3125267
			c0.3498096,0.8923836,0.5249329,1.8520699,0.5249329,2.8799324s-0.1790447,1.9879875-0.535387,2.8799324
			c-0.357214,0.8921661-0.8564434,1.6667137-1.4989948,2.323204c-0.6421146,0.6567078-1.4096889,1.1707458-2.3018551,1.5419006
			C19.1481285,60.5211105,18.1670952,60.7071228,17.096323,60.7071228z M17.1603603,58.4586334
			c0.6852417,0,1.3134174-0.1248093,1.8845253-0.3748589c0.5706711-0.2493973,1.0668507-0.5994225,1.488102-1.0489922
			c0.4208164-0.4497833,0.749279-0.9814682,0.9849548-1.5952644c0.2352371-0.6135826,0.3532925-1.2918549,0.3532925-2.0341644
			c0-0.727932-0.1180553-1.4025002-0.3532925-2.0234871c-0.2356758-0.6209869-0.5641384-1.1561546-0.9849548-1.6059418
			c-0.4212513-0.4495659-0.9174309-0.79916-1.488102-1.0489922c-0.5711079-0.2496147-1.1992836-0.374855-1.8845253-0.374855
			c-0.6848068,0-1.3164654,0.1252403-1.8949795,0.374855c-0.5780773,0.2498322-1.0777416,0.5994263-1.498558,1.0489922
			c-0.4212513,0.4497871-0.7497149,0.9816856-0.9849539,1.5952682c-0.2356739,0.6140175-0.3532934,1.2920685-0.3532934,2.0341606
			c0,0.7279358,0.1176195,1.402504,0.3532934,2.0234909c0.235239,0.6209869,0.5637026,1.1561546,0.9849539,1.605938
			c0.4208164,0.4495697,0.9204807,0.7995949,1.498558,1.0489922C15.843895,58.3338242,16.4755535,58.4586334,17.1603603,58.4586334z
			"/>
	</g>
	<g>
		<path class="st0" d="M51.7315254,58.287323h1.7769241v-3.2116623l-4.0038528-6.5520554H48.091423v-2.162674h5.3316422v2.162674
			h-1.2419739l2.5906792,4.5178909l2.5697632-4.5178909h-1.3277931v-2.162674h5.331646v2.162674h-1.4131737L55.92836,55.0756607
			v3.2116623h1.7769241v2.1626701h-5.9737587V58.287323z"/>
	</g>
</g>
</svg>
