<?xml version="1.0" encoding="utf-8"?>
<!-- Generator: Adobe Illustrator 19.1.0, SVG Export Plug-In . SVG Version: 6.00 Build 0)  -->
<svg version="1.1" id="Mobile_Phone_1" xmlns="http://www.w3.org/2000/svg" xmlns:xlink="http://www.w3.org/1999/xlink" x="0px"
	 y="0px" viewBox="-443 316 300 300" style="enable-background:new -443 316 300 300;" xml:space="preserve">
<style type="text/css">
	.st0{fill:#FFFFFF;}
</style>
<g>
	<path class="st0" d="M-313.1263733,469.4649048h-92.8674316c-7.9031982,0-14.3327942,6.4307556-14.3327942,14.3328247v92.8696899
		c0,7.9020996,6.4295959,14.3325806,14.3327942,14.3325806h92.8674316c7.9043579,0,14.3348694-6.430481,14.3348694-14.3325806
		v-92.8696899C-298.7915039,475.8956604-305.2220154,469.4649048-313.1263733,469.4649048z M-308.8841553,576.6674194
		c0,2.3383179-1.902771,4.2399292-4.242218,4.2399292h-92.8674316c-2.3385315,0-4.2401428-1.9016113-4.2401428-4.2399292
		v-92.8696899c0-2.2981567,1.9419861-4.2401428,4.2401428-4.2401428h92.8674316c2.3002625,0,4.242218,1.9419861,4.242218,4.2401428
		V576.6674194z"/>
	<path class="st0" d="M-180.0059814,469.4649048h-92.8719788c-7.9020691,0-14.3325806,6.4307556-14.3325806,14.3328247v92.8696899
		c0,7.9020996,6.4305115,14.3325806,14.3325806,14.3325806h92.8719788c7.9020691,0,14.3325806-6.430481,14.3325806-14.3325806
		v-92.8696899C-165.6734009,475.8956604-172.1039124,469.4649048-180.0059814,469.4649048z M-175.7658234,576.6674194
		c0,2.2979736-1.9419708,4.2399292-4.2401581,4.2399292h-92.8719788c-2.3383179,0-4.2399292-1.9016113-4.2399292-4.2399292
		v-92.8696899c0-2.3385315,1.9016113-4.2401428,4.2399292-4.2401428h92.8719788
		c2.2981873,0,4.2401581,1.9419861,4.2401581,4.2401428V576.6674194z"/>
	<path class="st0" d="M-340.985321,462.5350952h92.8665161c7.9020691,0,14.3325653-6.4295959,14.3325653-14.3327942v-92.8697205
		c0-7.9031982-6.4304962-14.3325806-14.3325653-14.3325806h-92.8665161c-7.9031982,0-14.33255,6.4293823-14.33255,14.3325806
		v92.8697205C-355.3178711,456.1054993-348.8885193,462.5350952-340.985321,462.5350952z M-345.2251892,355.3325806
		c0-2.3382874,1.9015808-4.2398987,4.2398682-4.2398987h92.8665161c2.3383026,0,4.2399292,1.9016113,4.2399292,4.2398987v92.8697205
		c0,2.3385315-1.9016266,4.2401428-4.2399292,4.2401428h-92.8665161c-2.3382874,0-4.2398682-1.9016113-4.2398682-4.2401428
		V355.3325806z"/>
	<g>
		<path class="st0" d="M-297.3598022,427.1838989c-2.1748962,0-4.2108459-0.3264465-6.1063538-0.9770508
			c-1.8970337-0.6506348-3.5548401-1.5397339-4.9702759-2.665741c-1.4169922-1.1268311-2.5299072-2.4450073-3.3371887-3.9554138
			c-0.8103638-1.5095825-1.2147827-3.1496277-1.2147827-4.9208679c0-1.9718933,0.5309753-3.5525208,1.5929565-4.7418518
			c1.0619812-1.1877747,2.428009-1.7828064,4.098175-1.7828064c1.4138794,0,2.616333,0.4931641,3.6026611,1.4795227
			c0.9863586,0.9863281,1.4802856,2.1887512,1.4802856,3.6042175c0,0.8605347-0.1898499,1.6192017-0.5695801,2.2759705
			c-0.3796997,0.6575623-0.771759,1.1638489-1.176178,1.517334c0.4553528,0.7084961,1.2147827,1.3027649,2.2829285,1.7828064
			c1.0665894,0.4815979,2.5144653,0.7208557,4.3482361,0.7208557c1.0172119,0,1.9711304-0.138916,2.8617554-0.4183044
			c0.890625-0.2786255,1.6408081-0.7223816,2.2536011-1.3305359c0.862854-0.8605652,1.4740906-1.9379578,1.8306885-3.2299194
			c0.355011-1.2919617,0.5340576-2.8509827,0.5340576-4.677002v-25.8508911h-7.5109863v-7.6630249h21.2441101v7.6630249h-5.4627075
			v25.7953186c0,2.9343262-0.3920593,5.5136108-1.176178,7.738678c-0.7841492,2.2265625-1.8847046,4.0472107-3.3001404,5.462677
			c-1.4679565,1.4671326-3.1488953,2.5298767-5.045929,3.186676
			C-292.9961548,426.8543701-295.0830383,427.1838989-297.3598022,427.1838989z"/>
	</g>
	<g>
		<path class="st0" d="M-359.7489014,556.1045532c-3.7940979,0-7.2455139-0.6714478-10.3558044-2.0112915
			c-3.1118164-1.3397827-5.7791138-3.1604004-8.0049133-5.4626465c-2.2258301-2.3014526-3.9577026-5.0327759-5.1972046-8.1940308
			c-1.2394714-3.1604614-1.858429-6.562439-1.858429-10.2045288c0-3.6420288,0.6313171-7.0424805,1.8970337-10.2044678
			c1.2626343-3.1604614,3.0346375-5.9049072,5.309845-8.2318726c2.2767639-2.3261414,4.9949951-4.1467896,8.1562195-5.462677
			c3.1612244-1.3143311,6.6388855-1.9726868,10.4329529-1.9726868c3.7925415,0,7.2455139,0.6714783,10.3557739,2.010498
			c3.1102905,1.3413696,5.7775879,3.1620178,8.003418,5.4627075c2.2257996,2.3022461,3.9577026,5.0335693,5.1971741,8.1940308
			c1.2394714,3.1619873,1.8599854,6.562439,1.8599854,10.2044678c0,3.6420898-0.6343994,7.0440674-1.8970337,10.2045288
			c-1.2657166,3.1612549-3.0346375,5.9057007-5.3114014,8.2318726c-2.275238,2.3269043-4.9949951,4.1483154-8.1562195,5.4634399
			C-352.4787292,555.4454346-355.954834,556.1045532-359.7489014,556.1045532z M-359.5220032,548.1374512
			c2.428009,0,4.6538391-0.4422607,6.6774597-1.3282471c2.0220642-0.883667,3.7801819-2.1239624,5.2728271-3.7169189
			c1.4910889-1.59375,2.6549377-3.4776611,3.4899902-5.6525269c0.8335266-2.1741333,1.2518311-4.5774536,1.2518311-7.2077026
			c0-2.5792847-0.4183044-4.9694824-1.2518311-7.1698608c-0.8350525-2.2003174-1.9989014-4.0966187-3.4899902-5.6903076
			c-1.4926453-1.5929565-3.2507629-2.8317261-5.2728271-3.7169189c-2.0236206-0.8844604-4.2494507-1.3282471-6.6774597-1.3282471
			c-2.4264832,0-4.6646729,0.4437866-6.7145081,1.3282471c-2.0483093,0.8851929-3.8187866,2.1239624-5.3098755,3.7169189
			c-1.4926147,1.593689-2.6564636,3.4783936-3.4899902,5.6525269c-0.835083,2.1756592-1.2518311,4.578186-1.2518311,7.2076416
			c0,2.5793457,0.416748,4.9695435,1.2518311,7.1698608c0.8335266,2.2003784,1.9973755,4.0966187,3.4899902,5.6903687
			c1.4910889,1.5929565,3.2615662,2.833252,5.3098755,3.7169189
			C-364.186676,547.6951904-361.9484863,548.1374512-359.5220032,548.1374512z"/>
	</g>
	<g>
		<path class="st0" d="M-237.0254211,547.5304565h6.2962036v-11.3799438l-14.1869202-23.2160034h-5.0073242v-7.6630554h18.8916931
			v7.6630554h-4.4007111l9.1795959,16.0083008l9.1054993-16.0083008h-4.7048035v-7.6630554h18.8917084v7.6630554h-5.007309
			l-14.1869202,23.2160034v11.3799438h6.2962036v7.6630249h-21.1669159V547.5304565z"/>
	</g>
</g>
</svg>
