<?xml version="1.0" encoding="utf-8"?>
<!-- Generator: Adobe Illustrator 19.1.0, SVG Export Plug-In . SVG Version: 6.00 Build 0)  -->
<svg version="1.1" id="Desktop_2" xmlns="http://www.w3.org/2000/svg" xmlns:xlink="http://www.w3.org/1999/xlink" x="0px" y="0px"
	 viewBox="-420 323 300 300" style="enable-background:new -420 323 300 300;" xml:space="preserve">
<style type="text/css">
	.st0{fill:#FFFFFF;}
</style>
<g>
	<path class="st0" d="M-142.5754242,420.870575c-7.1409454-6.3338928-14.360321-12.8258667-21.3372345-19.1062927
		l-1.1125031-0.9995728c-1.8422852-1.6972961-4.0340118-3.5799866-6.7225647-5.2118835
		c0.2805023-0.1557312,0.5752716-0.2876587,0.8819275-0.3934326c2.812149-0.946106,5.8715363,0.5610046,6.8271332,3.3636475
		c0.4564209,1.3395386,1.4072876,2.4187622,2.6743011,3.0391846c1.2622681,0.6180725,2.690918,0.7060242,4.0173645,0.2519836
		c1.3335876-0.4528503,2.4104309-1.3989563,3.0332336-2.6624146c0.622818-1.2646179,0.7155304-2.6956787,0.2614899-4.0292358
		c-1.3668518-4.0197449-4.2241821-7.2705078-8.0442505-9.1520081c-1.376358-0.6786804-2.8192902-1.1505432-4.2883606-1.4108276
		c1.2052002-1.1588745,1.8446655-2.8704224,1.5594025-4.6425781c-0.4564056-2.848999-3.1473389-4.8291626-6.0450745-4.3715515
		c-4.2004089,0.6763-7.8849792,2.9488525-10.3714752,6.3956909c-0.1307373,0.1782837-0.2567291,0.3613281-0.3779602,0.5455627
		c-4.6996155-7.3727112-10.5759125-11.8916626-10.8540344-12.1044006c-0.8415222-0.6382751-1.9136047-0.9033203-2.9286499-0.7214661
		c-1.0269165,0.1735229-1.9492493,0.7725525-2.5340271,1.6497192c-0.2733765,0.4160156-6.5062408,9.9756775-6.603714,21.4382629
		c-2.2963104,0.9342346-4.5736237,2.4865112-7.3406067,4.3692017l-1.8827057,1.2765198
		c-10.8896942,7.4345093-25.444931,17.6075134-35.0771179,24.3395691c-4.7233887,3.3030396-8.3461609,5.8346863-9.9222107,6.9162903
		h-57.86203c-9.6630859,0-17.7073364,1.8244629-24.5154724,5.5696716
		c-7.0363464-11.4697266-20.0108032-18.7877808-33.5747681-18.7877808c-21.6605225,0-39.284668,17.0774231-39.284668,38.0687561
		v35.8271179c0,4.8101501,3.8818665,8.7241211,8.6528015,8.7241211c0.5253601,0,1.0483093-0.0475464,1.5522766-0.1366882v9.6107788
		c0,4.8089905,3.9888306,8.7217712,8.8928833,8.7217712c4.5427246,0,8.2986145-3.3589478,8.8263245-7.677002
		c0.5253601,0.0974731,1.0697327,0.1485596,1.6188354,0.1485596c4.7709351,0,8.6528015-3.9127808,8.6528015-8.7229309v-32.7023315
		c0-7.4975281,6.8889771-14.079834,14.7739563-14.1558838c-3.8818665,7.1825256-5.9214783,15.3955383-5.9214783,23.936615
		c0,12.3754272,4.5760193,24.2112122,12.9126587,33.4749451l-16.5948486,30.3644714
		c-2.8406677,5.1785889-3.254303,11.2687988-1.1695557,17.147522c2.0205688,5.7051392,6.2019653,10.5283203,11.7787476,13.5889282
		l0.5919189,0.3197021c3.8390808,2.1049805,8.1203308,3.2174683,12.3801575,3.2174683
		c8.8548584,0,15.6796265-3.5562134,19.2073059-9.9994507l20.3507385-36.3215332h48.7599487
		c2.6861877,4.6318359,15.4015198,26.9092407,20.5242615,35.8924561
		c3.6512909,6.6595459,10.8326416,10.6353149,19.2168274,10.6353149c4.1314697-0.0011597,8.4127045-1.149353,12.4799957-3.3814697
		l0.4896851-0.3161621c11.6313629-6.3778687,16.3713837-20.1748047,10.571167-30.7554932l-20.1177673-36.7220764
		c5.2487335-8.1179504,8.0157318-17.4755859,8.0157318-27.1374817c0-2.2154846-0.164032-4.4393005-0.5015869-6.7736511
		l13.5734863-15.8092041c6.2067261,2.4128113,14.7929688,2.230957,20.81427-0.5372314l23.2579651,7.3477478
		c2.1322937,0.8545837,4.2978821,1.2872314,6.4325562,1.2872314c8.8263245,0,14.788208-7.2954712,16.6423721-12.2006836
		C-123.2183533,440.4891357-128.709549,433.1639709-142.5754242,420.870575z M-143.9779358,456.8022766
		c-1.1790619,0-2.4128265-0.2579346-3.7012177-0.7796936l-25.1834717-7.9705811
		c-1.0126495-0.3208923-2.1061249-0.2032471-3.0142059,0.3173523c-2.3581238,1.3371582-5.4911957,2.0740662-8.8239441,2.0740662
		c-3.404068,0-6.6132202-0.7583008-8.807312-2.0823669c-1.5926971-0.9544373-3.6227722-0.6264038-4.8327332,0.7785034
		l-16.6138611,19.3499451c-0.7440491,0.8688354-1.0554504,2.0110474-0.8533936,3.1295166
		c0.4516602,2.5542297,0.6727295,4.9230652,0.6727295,7.2419434c0,8.894104-2.7527313,17.4399109-7.9562988,24.7104187
		c-0.8438873,1.1766968-0.9389648,2.758667-0.2424622,4.0280762l15.5512695,28.375946l-29.6738739,15.756897l-15.5679169-28.3379517
		c-0.6513367-1.1826172-1.894577-1.8886108-3.5466919-1.8909912c-0.0808411-0.0011597-0.164032-0.0011597-0.2567444-0.0011597
		c-0.1497498,0-0.3280334,0.0023193-0.5823975,0.0094604l-52.3185425-0.0059204
		c-1.400116,0-2.6742859,0.7380981-3.3232422,1.9254761l-15.1019897,27.5368652l-29.6738586-15.7687988l11.8595581-21.6427002
		c0.8058472-1.4726562,0.5372314-3.3280029-0.653717-4.5118408c-8.1940002-8.147644-12.7082214-18.8661804-12.7082214-30.1825867
		c0-20.1961975,15.1376648-38.184021,34.8299255-41.8638611v44.3146973c0,2.2416687,2.1536865,3.8046265,4.0886841,3.8046265
		h62.0695801c1.9944153,0,3.4420929-1.599823,3.4420929-3.8046265v-46.2770081
		c3.6512909-2.0621948,12.2613068-7.9408569,37.5826263-25.2298279l7.6306305-5.2095032
		c4.2479553-2.85495,6.8437958-3.8592834,9.8912964-4.6306763c1.8137665-0.4564209,3.0570068-2.185791,2.8906097-4.0245056
		c-0.5586243-6.0058594,1.4072723-11.8310242,3.1663513-15.6808167c3.2923431,3.3493958,8.2938538,9.4348755,9.8556366,16.7600403
		l0.1117249,0.5431824c0.2852631,1.3632812,1.2907867,2.4579773,2.6267395,2.8561401
		c4.5641174,1.3632812,7.5926056,3.5823669,11.015686,6.7368164l1.1434021,1.0281067
		c6.9935608,6.2899475,14.2224426,12.7937927,21.3776245,19.1419678
		c13.920578,12.3421326,15.4419403,16.1835938,13.1789093,22.1775513l-0.0023804,0.0011902
		C-135.3275146,451.8863525-138.8433075,456.8022766-143.9779358,456.8022766z M-209.6702881,566.7843628l-0.5895386,0.3245239
		c-2.7241974,1.4916382-5.7455444,2.2820435-8.7336121,2.2844238c-5.5007172,0-10.1979523-2.5803833-12.5655823-6.9032593
		l-2.25354-4.1088867l29.6738892-15.756897l2.0395813,3.7190552
		C-198.314682,553.2512817-201.7092438,562.4199219-209.6702881,566.7843628z M-262.4785156,477.5404663h-54.4437256v-41.1043701
		c0.1022339,0.0035706,0.1996765,0.0059509,0.2971497,0.0059509h54.1465759V477.5404663z M-363.9397583,546.3433228
		l2.4674988-4.5058594l29.6738586,15.7592773l-2.6837769,4.8933105c-2.3676453,4.322876-7.0648804,6.9032593-12.5655823,6.9032593
		c-2.9856873,0-6.0070496-0.7904053-8.7336426-2.2832642l-0.5942688-0.3268433
		c-3.9246521-2.1525269-6.8580627-5.5161743-8.2605896-9.4693604
		C-365.98172,553.5115967-365.7368774,549.6154785-363.9397583,546.3433228z"/>
	<g>
		<circle class="st0" cx="-173.0059967" cy="421.9470215" r="4.5978823"/>
		<path class="st0" d="M-173.0052338,427.7619019c-3.2067719,0-5.8144989-2.6089172-5.8144989-5.8156738
			c0-3.2055664,2.6077271-5.8144836,5.8144989-5.8144836s5.8144836,2.6089172,5.8144836,5.8144836
			C-167.1907501,425.1529846-169.7984619,427.7619019-173.0052338,427.7619019z M-173.0052338,418.5659485
			c-1.863678,0-3.3802948,1.5166016-3.3802948,3.3802795c0,1.8648682,1.5166168,3.3815002,3.3802948,3.3815002
			s3.3802948-1.5166321,3.3802948-3.3815002C-169.624939,420.08255-171.1415558,418.5659485-173.0052338,418.5659485z"/>
	</g>
</g>
</svg>
