<?xml version="1.0" encoding="utf-8"?>
<!-- Generator: Adobe Illustrator 19.1.0, SVG Export Plug-In . SVG Version: 6.00 Build 0)  -->
<svg version="1.1" id="Desktop_2" xmlns="http://www.w3.org/2000/svg" xmlns:xlink="http://www.w3.org/1999/xlink" x="0px" y="0px"
	 viewBox="0 0 118.3142929 84.9522629" style="enable-background:new 0 0 118.3142929 84.9522629;" xml:space="preserve">
<style type="text/css">
	.st0{fill:#FFFFFF;}
</style>
<g>
	<path class="st0" d="M111.5048828,21.0606594c-2.9335938-2.6020508-5.8994141-5.2690439-8.765625-7.849122l-0.4570312-0.4106445
		c-0.7568359-0.6972656-1.6572266-1.4707031-2.7617188-2.1411133c0.1152344-0.0639648,0.2363281-0.1181641,0.3623047-0.1616211
		c1.1552734-0.3886719,2.4121094,0.2304688,2.8046799,1.3818359c0.1875076,0.550293,0.5781326,0.9936523,1.0986404,1.2485352
		c0.5185547,0.2539062,1.1054688,0.2900391,1.6503906,0.1035156c0.5478516-0.1860352,0.9902344-0.574707,1.2460938-1.09375
		c0.2558594-0.5195312,0.2939453-1.1074219,0.1074219-1.6552734c-0.5615234-1.6513672-1.7353516-2.9868159-3.3046875-3.7597651
		c-0.5654297-0.2788086-1.1582031-0.4726562-1.7617188-0.5795898c0.4951172-0.4760742,0.7578125-1.1791992,0.640625-1.9072266
		c-0.1875-1.1704102-1.2929688-1.9838867-2.4833984-1.7958984c-1.7255859,0.277832-3.2392578,1.2114258-4.2607422,2.6274414
		c-0.0537109,0.0732422-0.1054688,0.1484375-0.1552734,0.2241211c-1.9306641-3.0288086-4.3447266-4.8852539-4.4589844-4.9726562
		c-0.3457031-0.262207-0.7861328-0.3710938-1.203125-0.2963867c-0.421875,0.0712891-0.8007812,0.3173828-1.0410156,0.6777344
		c-0.1123047,0.1708984-2.6728516,4.0981445-2.7128906,8.8071289c-0.9433594,0.3837891-1.8789062,1.0214844-3.015625,1.7949219
		L82.2597656,11.82726c-4.4736328,3.0541992-10.453125,7.2333994-14.4101562,9.9990244
		c-1.9404297,1.3569336-3.4287109,2.3969727-4.0761719,2.8413086H40.0029297c-3.9697266,0-7.2744141,0.7495117-10.0712891,2.2880859
		c-2.890625-4.7119141-8.2207031-7.7182617-13.7929688-7.7182617C7.2402344,19.2374172,0,26.2530422,0,34.8765755v14.7182617
		c0,1.9760742,1.5947266,3.5839844,3.5546875,3.5839844c0.2158203,0,0.4306641-0.0195312,0.6376953-0.0561523v3.9482422
		c0,1.9755859,1.6386719,3.5830078,3.6533203,3.5830078c1.8662109,0,3.4091797-1.3798828,3.6259766-3.1538086
		c0.2158146,0.0400391,0.4394531,0.0610352,0.6650391,0.0610352c1.9599609,0,3.5546875-1.6074219,3.5546875-3.5834961V40.5430794
		c0-3.0800781,2.8300781-5.7841797,6.0693359-5.8154297c-1.5947266,2.9506836-2.4326172,6.324707-2.4326172,9.8334961
		c0,5.0839844,1.8798828,9.9462891,5.3046875,13.7519531l-6.8173828,12.4741249
		c-1.1669922,2.1274414-1.3369141,4.6293945-0.4804688,7.0444336c0.8300781,2.34375,2.5478516,4.3251953,4.8388672,5.5825195
		l0.2431641,0.1313477c1.5771484,0.8647461,3.3359375,1.3217773,5.0859375,1.3217773
		c3.6376953,0,6.4414062-1.4609375,7.890625-4.1079102l8.3603516-14.9213867h20.03125
		c1.1035156,1.902832,6.3271484,11.0546875,8.4316406,14.7451172c1.5,2.7358398,4.4501953,4.3691406,7.8945312,4.3691406
		c1.6972656-0.0004883,3.4560547-0.472168,5.1269531-1.3891602l0.2011719-0.1298828
		c4.7783203-2.6201172,6.7255859-8.2880859,4.3427734-12.6347656L81.5175781,55.712513
		c2.15625-3.3349609,3.2929688-7.1791992,3.2929688-11.1484375c0-0.9101562-0.0673828-1.8237305-0.2060547-2.7827148
		l5.5761719-6.4946289c2.5498047,0.9912109,6.0771484,0.9165039,8.5507812-0.2207031l9.5546875,3.0185547
		c0.8759766,0.3510742,1.765625,0.5288086,2.6425781,0.5288086c3.6259766,0,6.0751953-2.9970703,6.8369141-5.012207
		C119.4570312,29.1202297,117.2011719,26.1109524,111.5048828,21.0606594z M110.9287109,35.821888
		c-0.484375,0-0.9912186-0.105957-1.5205078-0.3203125l-10.3457108-3.2744141
		c-0.416008-0.1318359-0.8652267-0.0834961-1.2382736,0.1303711c-0.96875,0.5493164-2.2558594,0.8520508-3.625,0.8520508
		c-1.3984375,0-2.7167969-0.3115234-3.6181641-0.8554688c-0.6542969-0.3920879-1.4882812-0.2573242-1.9853516,0.3198242
		l-6.8251953,7.9492188c-0.3056641,0.3569336-0.4335938,0.8261719-0.3505859,1.2856445
		c0.1855469,1.0493164,0.2763672,2.0224609,0.2763672,2.9750977c0,3.6538086-1.1308594,7.1645508-3.2685547,10.1513672
		c-0.3466797,0.4833984-0.3857422,1.1333008-0.0996094,1.6547852l6.3886719,11.6572304l-12.1904297,6.4731445l-6.3955078-11.6416054
		c-0.2675781-0.4858398-0.7783203-0.7758789-1.4570312-0.7768555c-0.0332031-0.0004883-0.0673828-0.0004883-0.1054688-0.0004883
		c-0.0615234,0-0.1347656,0.0009766-0.2392578,0.0039062l-21.4931641-0.0024414
		c-0.5751953,0-1.0986328,0.3032227-1.3652344,0.7910156l-6.2041016,11.3125038l-12.1904297-6.4780273l4.8720703-8.8911171
		c0.3310547-0.6049805,0.2207031-1.3671875-0.2685547-1.8535156c-3.3662109-3.347168-5.2207031-7.7504883-5.2207031-12.3994141
		c0-8.296875,6.21875-15.6865215,14.3085938-17.1982403v18.2050762c0,0.9208984,0.8847656,1.5629883,1.6796875,1.5629883h25.4990234
		c0.8193359,0,1.4140625-0.6572266,1.4140625-1.5629883V26.8799953c1.5-0.847168,5.0371094-3.262207,15.4394531-10.3647461
		l3.1347656-2.1401377c1.7451172-1.1728516,2.8115234-1.5854492,4.0634766-1.9023438
		c0.7451172-0.1875,1.2558594-0.8979492,1.1875-1.6533203c-0.2294922-2.4672852,0.578125-4.8603511,1.3007812-6.4418941
		c1.3525391,1.3759766,3.4072266,3.8759761,4.0488281,6.8852534l0.0458984,0.2231445
		c0.1171875,0.5600586,0.5302734,1.0097656,1.0791016,1.1733398c1.875,0.5600586,3.1191406,1.4716797,4.5253906,2.7675781
		l0.4697266,0.4223633c2.8730469,2.5839853,5.8427734,5.2558603,8.7822189,7.8637705
		c5.7187576,5.0703125,6.3437576,6.6484375,5.4140701,9.1108379l-0.0009766,0.0004883
		C114.4824219,33.8023567,113.0380859,35.821888,110.9287109,35.821888z M83.9414062,81.0040207l-0.2421875,0.1333008
		c-1.1191406,0.612793-2.3603516,0.9375-3.5878906,0.9384766c-2.2597656,0-4.1894531-1.0600586-5.1621094-2.8359375
		l-0.9257812-1.6879883l12.1904297-6.4731445l0.8378906,1.527832
		C88.6064453,75.4444504,87.2119141,79.2110519,83.9414062,81.0040207z M62.2470703,44.3414192H39.8808594V27.4551907
		c0.0419922,0.0014648,0.0820312,0.0024414,0.1220703,0.0024414h22.2441406V44.3414192z M20.5654297,72.6065598l1.0136719-1.8510742
		l12.1904297,6.4741211l-1.1025391,2.0102539c-0.9726562,1.7758789-2.9023438,2.8359375-5.1621094,2.8359375
		c-1.2265625,0-2.4677734-0.324707-3.5878906-0.9379883l-0.2441406-0.1342773
		c-1.6123047-0.8842773-2.8173828-2.2661133-3.3935547-3.8901367C19.7265625,75.551384,19.8271484,73.950798,20.5654297,72.6065598z
		"/>
	<g>
		<circle class="st0" cx="99.0035934" cy="21.502882" r="1.8888721"/>
		<path class="st0" d="M99.0039062,23.8917141c-1.3173828,0-2.3886719-1.0717773-2.3886719-2.3891602
			c0-1.3168945,1.0712891-2.3886719,2.3886719-2.3886719s2.3886719,1.0717773,2.3886719,2.3886719
			C101.3925781,22.8199368,100.3212891,23.8917141,99.0039062,23.8917141z M99.0039062,20.1138821
			c-0.765625,0-1.3886719,0.6230469-1.3886719,1.3886719c0,0.7661133,0.6230469,1.3891602,1.3886719,1.3891602
			s1.3886719-0.6230469,1.3886719-1.3891602C100.3925781,20.7369289,99.7695312,20.1138821,99.0039062,20.1138821z"/>
	</g>
</g>
</svg>
