<?xml version="1.0" encoding="utf-8"?>
<!-- Generator: Adobe Illustrator 19.1.0, SVG Export Plug-In . SVG Version: 6.00 Build 0)  -->
<svg version="1.1" id="Layer_1" xmlns="http://www.w3.org/2000/svg" xmlns:xlink="http://www.w3.org/1999/xlink" x="0px" y="0px"
	 viewBox="0 0 150 150" style="enable-background:new 0 0 150 150;" xml:space="preserve">
<style type="text/css">
	.st0{fill:#FFFFFF;}
</style>
<g>
	<path class="st0" d="M119.7,72.2c0-0.1,0-0.2-0.1-0.2C115,56.7,102.9,46,90.2,46c-5.8,0-9.6,1.9-12.3,3.3c-0.2,0.1-0.4,0.2-0.6,0.3
		c-0.9-19-8.9-27-9.2-27.4c-1.1-1-2.7-1-3.8,0c-1,1.1-1,2.8,0,3.8c0.1,0.1,6.9,7,7.6,24.1c-0.5-0.2-1.1-0.5-1.7-0.8
		c-2.7-1.4-6.5-3.2-12.3-3.2c-7,0-14.3,3.5-20.1,9.7C30,64.4,26,76.6,26.9,90.2c0.1,2.1,0.4,4.1,0.7,6.1c3.6,22,23.1,43.5,35.1,43.5
		h0c4.6,0,6.6-1.5,8.1-2.6c1.1-0.8,1.7-1.2,3.5-1.2c1.7,0,2.4,0.4,3.5,1.2c0.3,0.2,0.7,0.5,1.1,0.7c1.3,0.8,3.3,1.8,7.1,1.8
		c11.9,0,31.4-21.7,34.9-43.7C122.3,87.5,121.8,79.5,119.7,72.2z M115.6,95.2c-3.2,19.8-21,39.2-29.7,39.2c-2.3,0-3.4-0.5-4.2-1
		c-0.3-0.2-0.6-0.4-0.8-0.6c-1.4-1-3.1-2.2-6.6-2.2c-3.5,0-5.2,1.2-6.6,2.2c-1.2,0.9-2.2,1.6-5.1,1.6l0,2.7v-2.7
		c-8.6,0-26.6-19.3-29.8-39.1c-0.3-1.8-0.5-3.6-0.6-5.5c-0.8-12.1,2.6-22.9,9.6-30.4c4.7-5.1,10.6-8,16.2-8c4.5,0,7.4,1.4,9.9,2.7
		c2,1,3.9,2,6.2,2h0c1.2,0,2.5-0.3,4-0.9c0.7-0.3,1.4-0.7,2.2-1.1c2.5-1.3,5.3-2.7,9.9-2.7c8.7,0,19.8,7.6,24.2,22.1
		c0,0.1,0.1,0.2,0.1,0.3C116.5,80.3,116.9,87.5,115.6,95.2z"/>
	<path class="st0" d="M80.2,44.8c0.4,0.3,1,0.5,1.5,0.5c0.2,0,0.3,0,0.5-0.1C98.7,42,109.6,26,106.7,9.5c-0.1-0.7-0.5-1.3-1.1-1.7
		c-0.6-0.4-1.3-0.6-2-0.4c-16.4,3.2-27.4,19.2-24.5,35.7C79.2,43.8,79.6,44.4,80.2,44.8z M101.8,13.3C102.5,25,95.1,35.8,84,39.3
		C83.3,27.7,90.7,16.9,101.8,13.3z"/>
</g>
</svg>
