<?xml version="1.0" encoding="utf-8"?>
<!-- Generator: Adobe Illustrator 19.1.0, SVG Export Plug-In . SVG Version: 6.00 Build 0)  -->
<svg version="1.1" id="Layer_1" xmlns="http://www.w3.org/2000/svg" xmlns:xlink="http://www.w3.org/1999/xlink" x="0px" y="0px"
	 viewBox="-244 166 150 150" style="enable-background:new -244 166 150 150;" xml:space="preserve">
<style type="text/css">
	.st0{fill:#FFFFFF;}
</style>
<g>
	<ellipse class="st0" cx="-197.5" cy="203.6" rx="2.6" ry="2.6"/>
	<path class="st0" d="M-110.5,281.1c-1.3,0-2.4,1.1-2.4,2.4c0,7.2-5.9,13.1-13.1,13.1c-3.5,0-6.8-1.4-9.3-3.8
		c-2.2-2.2-3.6-5.1-3.8-8.3c0-0.7,0.1-1.4,0.1-2.2c0-19-5.2-25.8-11.5-32c-8-8-19.5-22.5-19.9-28.4c0.6-1.9,2.9-10.1,2.9-16.5
		c0-11.4-7.9-19-19.6-19c-5.6,0-10.2,3.9-14.2,7.3c-3.1,2.6-6,5.1-8.3,5.1c-6.9,0-14.7,0.8-15,0.8c-1.1,0.1-2,1-2.1,2.1
		c-0.2,1.9-1.4,18.7,7.6,21.1c1,0.3,2.3,0.6,3.6,0.8c10,2.2,19.7,5.1,19.7,13.5v48.6h-1.1c-8.2,0-14.9,6.7-14.9,14.8
		c0,0.6,0.3,1.2,0.7,1.7c0.4,0.4,1,0.7,1.7,0.7c0,0,0,0,0,0l54.8-0.2c0.1,0,9.3-0.5,13.5-9.7c0.7,1.1,1.5,2.1,2.4,3
		c3.4,3.4,7.8,5.2,12.6,5.2c9.8,0,17.8-8,17.8-17.8C-108.1,282.2-109.2,281.1-110.5,281.1z M-154.6,298h-20.2l-8.3,0.1
		c1.1-4.4,5.1-7.6,9.8-7.6c0.6,0,1.2-0.2,1.7-0.7c0.4-0.4,0.7-1,0.7-1.7l-0.1-19.1c0-3.3,2.7-6,6-6c1.3,0,2.4-1.1,2.4-2.4
		c0-1.3-1.1-2.4-2.4-2.4c-5.9,0-10.7,4.8-10.7,10.7l0.1,16.9c-6.3,1-11.2,5.9-12.3,12.2l-18.8,0.1c1.1-4.4,5.1-7.8,9.9-7.8h3.4
		c1.3,0,2.4-1.1,2.4-2.4v-51c0-12.9-14.6-16.2-23.4-18.1c-1.3-0.3-2.4-0.5-3.4-0.8c-2.8-0.7-3.9-5.8-4.2-10.4c0.2,0,0.4,0.1,0.6,0.1
		c1.8,0,3.3-1.5,3.3-3.3c0-0.3,0-0.6-0.1-0.8c2.6-0.2,5.7-0.3,8.6-0.3c4.1,0,7.6-3,11.4-6.2c3.6-3.1,7.4-6.2,11.2-6.2
		c4.5,0,8.3,1.4,10.9,4c-0.5-0.1-1-0.1-1.5-0.1c-4.4,0-8.1,3.6-8.1,8.1l0,6.3c0,4.4,3.6,8.1,8.1,8.1h0l3.6,0c-0.5,2.1-1,3.5-1,3.5
		c-0.1,0.2-0.1,0.5-0.1,0.7c0,10.3,21.1,31.8,21.3,32c5.7,5.7,10.1,11.5,10.1,28.7c0,0.2,0,0.4,0,0.5c-0.1,0.2-0.1,0.4-0.1,0.7
		c0,0.3,0,0.6,0,0.9C-144.6,297.1-153.6,298-154.6,298z"/>
</g>
</svg>
