<?xml version="1.0" encoding="utf-8"?>
<!-- Generator: Adobe Illustrator 19.1.0, SVG Export Plug-In . SVG Version: 6.00 Build 0)  -->
<svg version="1.1" id="Layer_1" xmlns="http://www.w3.org/2000/svg" xmlns:xlink="http://www.w3.org/1999/xlink" x="0px" y="0px"
	 viewBox="-244 166 150 150" style="enable-background:new -244 166 150 150;" xml:space="preserve">
<style type="text/css">
	.st0{fill:#FFFFFF;}
</style>
<g>
	<path class="st0" d="M-123.2,212.1c0.6-2.6,0.3-5.3-0.9-7.8c-2-4.3-6.1-6.8-11.3-6.8c-9.1,0-21.9,8.2-25.5,26.2
		c-2.1-2.1-5-3.4-8.3-3.4c-3.2,0-6.2,1.3-8.3,3.4c-3.6-18-16.4-26.2-25.5-26.2c-5.2,0-9.3,2.5-11.3,6.8c-1.2,2.6-1.5,5.2-0.8,7.8
		c-4.8,2.3-7.6,6.5-7.5,11.4c0.1,3.6,1.7,6.6,4.4,8.9v19c0,1.2,1,2.1,2.1,2.1h3.7v47.8c0,1.2,1,2.1,2.1,2.1h30.8h19.7h30.8
		c1.2,0,2.1-1,2.1-2.1v-47.8h3.7c1.2,0,2.1-1,2.1-2.1V233c3.2-2.4,4.9-5.6,5.1-9.4C-115.5,218.6-118.3,214.4-123.2,212.1z
		 M-210.3,206.1c1.3-2.8,3.9-4.3,7.4-4.3c7,0,17.3,6.7,20.9,20.8c-6.8-7.8-15.5-12.3-24.4-12.3c-1.6,0-3.1,0.2-4.6,0.5
		C-211.3,209.2-211.1,207.6-210.3,206.1z M-182.5,228.9h-0.8c-7.8-1.2-20.9-7-25.8-14.1c0.9-0.1,1.8-0.2,2.8-0.2
		C-197.6,214.6-188.9,219.9-182.5,228.9z M-218.2,223.4c-0.1-3.2,1.6-5.8,4.8-7.3c4.6,7.8,16.7,13.9,25.8,16.3
		c-3.2,0.7-7,1.1-11,1.1C-203.2,233.5-217.9,232.7-218.2,223.4z M-181.4,299.2H-208v-45.7h26.6V299.2z M-181.4,249.2h-28.7h-3.7V235
		c3.9,1.8,9,2.7,15.1,2.7c6.5,0,12.9-1.1,17.3-2.7V249.2z M-169.1,224.6c3,0,5.6,1.7,6.8,4.3h-13.5
		C-174.7,226.3-172.1,224.6-169.1,224.6z M-161.7,299.2h-15.4v-66h15.4V299.2z M-135.3,201.8c3.5,0,6.1,1.5,7.4,4.3
		c0.7,1.6,0.9,3.1,0.7,4.7c-1.4-0.3-3-0.5-4.6-0.5c-8.9,0-17.6,4.5-24.4,12.3C-152.5,208.4-142.3,201.8-135.3,201.8z M-129,214.8
		c-4.9,7.1-18,12.9-25.8,14.1h-0.9c9.2-13.2,20.5-14.3,23.9-14.3C-130.8,214.6-129.9,214.6-129,214.8z M-130.9,299.2h-26.6v-45.7
		h26.6V299.2z M-125.1,249.2h-3.7h-28.7v-14.5c4.4,1.8,11.1,3,17.9,3c0,0,0,0,0,0c5.8,0,10.6-0.8,14.5-2.4V249.2z M-139.5,233.5
		L-139.5,233.5c-4,0-7.8-0.4-11-1.1c9.1-2.4,21.2-8.4,25.8-16.3c3.2,1.6,4.9,4.2,4.8,7.3C-120.3,232.7-135,233.5-139.5,233.5z"/>
</g>
</svg>
