<?xml version="1.0" encoding="utf-8"?>
<!-- Generator: Adobe Illustrator 19.1.0, SVG Export Plug-In . SVG Version: 6.00 Build 0)  -->
<svg version="1.1" id="Layer_1" xmlns="http://www.w3.org/2000/svg" xmlns:xlink="http://www.w3.org/1999/xlink" x="0px" y="0px"
	 viewBox="0 0 150 150" style="enable-background:new 0 0 150 150;" xml:space="preserve">
<style type="text/css">
	.st0{fill:#FFFFFF;}
</style>
<g>
	<path class="st0" d="M128.3,60c0-1.5-1.3-2.8-2.8-2.8H84.2c-1.5,0-2.8,1.3-2.8,2.8v39.2c-2.6-2.1-6-3.5-9.7-3.5
		c-8.5,0-15.2,6.8-15.2,15.2c0,8.5,6.8,15.2,15.2,15.2c8.2,0,14.9-6.4,15-14.6c0-0.1,0-0.3,0-0.4V77.3h30.1c1.5,0,2.8-1.3,2.8-2.8
		c0-1.5-1.3-2.8-2.8-2.8H86.7v-9h35.8v31c-2.6-2.1-6-3.5-9.7-3.5c-8.5,0-15.2,6.8-15.2,15.2s6.8,15.2,15.2,15.2
		c8.5,0,15.2-6.8,15.2-15.2c0-0.1,0-0.1,0-0.3V105L128.3,60L128.3,60z M71.8,120.4c-5.3,0-9.7-4.3-9.7-9.7c0-5.3,4.3-9.7,9.7-9.7
		c5.3,0,9.7,4.3,9.7,9.7S77.1,120.4,71.8,120.4z M113.1,115c-5.3,0-9.7-4.3-9.7-9.7c0-5.3,4.3-9.7,9.7-9.7c5.3,0,9.7,4.3,9.7,9.7
		C122.7,110.8,118.4,115,113.1,115z"/>
	<path class="st0" d="M78.3,39.4V24.8c0-1-0.6-1.9-1.3-2.4c-0.7-0.6-1.8-0.6-2.6-0.1L46.5,36c-1,0.6-1.5,1.4-1.5,2.5v14.6v0.1v24.5
		c-2.6-2.1-6-3.5-9.7-3.5c-8.5,0-15.2,6.8-15.2,15.2c0,8.5,6.8,15.2,15.2,15.2c8.2,0,14.9-6.4,15-14.6c0-0.1,0-0.3,0-0.4V54.9
		l26.6-13.1C77.8,41.4,78.3,40.4,78.3,39.4z M35.1,99.1c-5.3,0-9.7-4.3-9.7-9.7c0-5.3,4.3-9.7,9.7-9.7c5.3,0,9.7,4.3,9.7,9.7
		C44.7,94.7,40.5,99.1,35.1,99.1z M72.8,37.6L50.2,48.8v-8.5l22.5-11V37.6z"/>
</g>
</svg>
