<?xml version="1.0" encoding="utf-8"?>
<!-- Generator: Adobe Illustrator 19.1.0, SVG Export Plug-In . SVG Version: 6.00 Build 0)  -->
<svg version="1.1" id="Layer_1" xmlns="http://www.w3.org/2000/svg" xmlns:xlink="http://www.w3.org/1999/xlink" x="0px" y="0px"
	 viewBox="-25 0 200 150" style="enable-background:new -25 0 200 150;" xml:space="preserve">
<style type="text/css">
	.st0{fill:#FFFFFF;}
</style>
<path class="st0" d="M116,62.2c-9.8,0-14.5,1.4-18.6,2.5c-3,0.9-5.4,1.6-9.8,1.6c-6.5,0-16.1-12.4-20.8-20.2
	c-0.6-0.9-1.7-1.6-2.8-1.6h-5.4c-0.2,0-0.3,0-0.5,0H40.4H10.2H-2c-1.7,0-3.3,1.4-3.3,3.3v52.6c0,1.9,1.4,3.3,3.3,3.3h12.1h30.2h17.8
	c0.2,0,0.3,0,0.5,0H64c1.1,0,2.2-0.6,2.8-1.6C71.4,94.3,81.2,82,87.6,82c4.3,0,6.6,0.8,9.8,1.6c4.1,1.3,8.7,2.5,18.6,2.5
	c40.6,0,40.6-9,40.6-12C156.6,66.3,142.9,62.2,116,62.2z M36.7,98.6H8.6l2.2-2.5c3-3.3,4.3-8.2,3.7-13c-0.6-4.8-2.8-6.4-5.1-8
	c-2.3-1.6-4.9-3.4-4.9-8.4c0-6,5.4-6.8,8.9-7.3c3-0.4,4.5-0.8,4.6-2c0.1-1.5-1.3-2-4.9-2.7c-2.5-0.5-5-1-5.4-3.2l0-0.4v-1.5h29V98.6
	z M55.4,98.6H41.2v-49h14.2V98.6z M151.1,74.6c-1.4,3.8-15.6,6.3-35.4,6.3c-8.8,0-13-1.1-17.1-2.4L98,78.4c-3-0.9-5.8-1.7-10.5-1.7
	c-8.2,0-18.1,11.4-24.1,21.2L63,98.6h-2.8v-49H63l0.4,0.7c3.1,5,14.1,21.2,24.1,21.2c5,0,7.9-0.9,11.1-1.8l0.5-0.1
	c3.7-1.1,7.8-2.3,16.7-2.3c19.5,0,34.1,2.6,35.4,6.3l0.2,0.5L151.1,74.6z"/>
</svg>
