<?xml version="1.0" encoding="utf-8"?>
<!-- Generator: Adobe Illustrator 19.1.0, SVG Export Plug-In . SVG Version: 6.00 Build 0)  -->
<svg version="1.1" id="Layer_1" xmlns="http://www.w3.org/2000/svg" xmlns:xlink="http://www.w3.org/1999/xlink" x="0px" y="0px"
	 viewBox="-244 166 150 150" style="enable-background:new -244 166 150 150;" xml:space="preserve">
<style type="text/css">
	.st0{fill:#FFFFFF;}
</style>
<g>
	<path class="st0" d="M-205.3,228.1c-4,1.8-7.3,4.6-9,8.7c-1,2.4-1.6,5.5-1.3,8.1c0.2,2.2,1.2,4.2,1.8,6.3c0.2,0.8,0.3,1.5-0.2,2.2
		c-0.4,0.5-0.9,0.9-1.3,1.4c-2.6,2.8-5.2,5.6-7.8,8.4c-2,2.1-4.2,4.2-6,6.6c-0.9,1.2,1.1,2.3,1.9,1.1c-0.3,0.4,0.3-0.3,0.4-0.5
		c0.4-0.4,0.7-0.8,1.1-1.2c1.1-1.2,2.2-2.4,3.3-3.6c2.6-2.8,5.2-5.6,7.8-8.4c0.9-1,2.2-2,2.7-3.2c0.9-1.7,0-3.8-0.6-5.5
		c-0.6-1.8-1.1-3.5-0.9-5.4c0.1-1.2,0.2-2.3,0.5-3.4c1.1-4.6,4.4-7.7,8.7-9.6C-202.8,229.4-204,227.5-205.3,228.1L-205.3,228.1z"/>
	<path class="st0" d="M-136.3,186c3.4-0.4,6.7,0.3,10,0.7c2,0.3,4.9,0.7,6.1-1.4c2.4-4.1-6.1-5.5-8.4-6.2c-0.2-0.1-0.6-0.2-0.5-0.3
		c-0.1,0.2,0,0.7,0,0.7c0,0,0.1-0.1,0.1-0.1c0.2,0,0.5-0.3,0.6-0.3c0.7-0.4,1.7-0.8,1.4-1.8c-0.3-1.1-2.3-1.4-3.2-1.5
		c-1.5-0.2-3-0.1-4.5,0.2c-3.2,0.6-6.2,2.1-8.9,3.9c-1.3,0.9-2.5,1.9-3.6,3c-0.2,0.3-0.5,0.5-0.7,0.8c0,0.1-0.3,0.3-0.3,0.3
		c0,0-0.1,0.1-0.1,0.1c0.4,0,0.9,0,1.3,0c0,0-0.6-0.9-0.7-1c-0.8-1.1-1.8-2.1-3.1-2.5c-1.4-0.4-3-0.2-4.3,0.1
		c-1.5,0.4-2.9,1.1-4.4,1.5c-1.9,0.6-3.9,0.9-5.9,0.8c-1.4-0.1-1.4,2.2,0,2.3c3.1,0.2,5.9-0.6,8.7-1.6c2.1-0.8,4.8-1.9,6.6,0
		c1,1.1,2.1,3.7,3.7,1.7c1.9-2.2,4.3-4,6.9-5.3c2.6-1.3,5.6-2.3,8.5-2.1c0.6,0.1,1.3,0.4,2,0.4c0.5,0,0.3,0.8,0.2-0.7
		c-0.1-2.3,0.2-0.7-0.2-0.8c-0.1,0-0.4,0.2-0.5,0.2c-0.7,0.3-1.5,0.8-1.8,1.6c-0.6,1.9,1.8,2.5,3.1,2.9c1.9,0.5,4.1,1,5.7,2.1
		c0.1,0.1,0.3,0.2,0.4,0.3c0.2,0.1,0,0,0-0.1c-0.1,0.3-0.2,0.5-0.5,0.6c-0.9,0.5-2.5,0.2-3.5,0c-3.4-0.4-6.8-1.2-10.3-0.8
		C-137.7,183.9-137.7,186.1-136.3,186L-136.3,186z"/>
	<path class="st0" d="M-139.1,204c-0.4,1-1.4,2-2.8,2c-1.7,0.1-3.3-1.3-3.3-2.9c0-1.7,1.8-3,3.3-2.9c0.9,0,1.6,0.6,1.8,0.8
		C-139.9,201.2-138.5,202.4-139.1,204z"/>
	<path class="st0" d="M-154.2,189.1c-3-1.9-6-3.7-9.2-5.3c-2.9-1.4-6.7-2-9.2,0.5c-2.2,2.2-2.8,5.5-1.4,8.4c1.4,2.9,4.3,4.3,7,5.7
		c2.1,1.1,4.3,2.2,6.4,3.3c0.4-0.6,0.8-1.3,1.1-1.9c0,0,0,0,0,0c-1.3-0.6-2.4,1.3-1.1,1.9c0,0,0,0,0,0c1.3,0.6,2.4-1.3,1.1-1.9
		c-3.4-1.8-7.1-3.3-10.3-5.4c-2.5-1.6-3.9-5.2-1.9-7.7c1.9-2.5,5-1.8,7.4-0.6c3.1,1.5,6,3.3,8.8,5.1
		C-154.1,191.9-153,189.9-154.2,189.1L-154.2,189.1z"/>
	<path class="st0" d="M-155.8,192.7c-3.2-1.8-5.1-2.9-7.8-4.5c-2.9-1.4-5-2-6.1-0.4c-1.2,1.7-0.3,4,2.3,5.5c1.7,1,3.6,1.9,8.9,4.5
		c0,0,0.6-2.2,1.3-3.3C-156.9,193.9-156.1,193-155.8,192.7z"/>
	<path class="st0" d="M-174.1,191.4c-1.7,1.5-3.4,3.1-5,4.8c-1.9,2-4,4.3-5.1,6.9c-0.4,0.9-0.8,2.2-0.5,3.2c0.2,0.7,0.7,1.1,1.4,1.1
		c0.3,0,0.5,0,0.8-0.1c0.1,0,0.3,0,0.4-0.1c0.1,0,0.1,0,0.2,0c0.2,0,0.1-0.1-0.3-0.3c-0.1,0,0.1-0.1-0.1,0.1
		c-0.1,0.1-0.3,0.5-0.3,0.6c-0.3,0.5-0.8,1-1.2,1.4c-0.9,1.1-1.9,2.1-2.7,3.3c-0.7,1-1.3,2.2-1.2,3.4c0.1,1.2,1.1,2,2.3,1.3
		c0.2-0.1,0.8-0.6,0.8-0.6c-0.2-0.1-0.3-0.2-0.5-0.3c-0.4-0.4-0.6-0.4-0.5-0.1c0,0-0.1,0.2,0,0.1c-0.1,0.1-0.1,0.5-0.2,0.6
		c-0.5,1.2-1.2,2.4-1.9,3.5c-1.5,2.3-3.2,4.4-5,6.4c-0.1,0.1-0.1,0.1,0.1,0c-0.1,0-0.2,0.1-0.3,0.1c-0.4,0.1-0.8,0.2-1.1,0.2
		c-1.1,0.2-2.2,0.2-3.4,0.3c-2.9,0.2-5.9,0.4-8.8,0.6c-2,0.2-4.1,0.2-6,0.9c-3.1,1.1-6.3,2.4-9.1,4.2c-2.6,1.8-5.4,3.8-7.4,6.3
		c-0.8,0.9-1.5,2.1-1.5,3.3c0,1.3,0.8,2,2.1,1.7c0.6-0.1,1.1-0.4,1.7-0.5c0,0,0.4-0.1,0.4-0.1c0,0,0,0,0,0c0.3,0,0.4-0.5-0.3-0.8
		c-0.2-0.1-0.1,0-0.4,0.3c-0.5,0.6-1.1,1.7-1.6,2.4c-1.9,2.4-4,4.7-5.5,7.4c-0.8,1.4-1.4,2.9-1.7,4.4c-0.2,1-0.5,2.8,0.3,3.6
		c0.8,0.8,1.8,0.3,2.6-0.1c0.2-0.1,0.7-0.4,0.9-0.3c0.1,0,0.1,0.1,0.3,0.2c0.1,0.1,0.4,1,0.4,0.8c0-0.1,0,0.4,0,0.3
		c-0.1,0.4-0.1,0.8-0.2,1.2c-0.2,0.9-0.4,1.9-0.6,2.8c-0.4,1.8-0.9,3.7-0.7,5.5c0.2,1.7,1.5,2.8,3.1,1.9c0.4-0.2-0.1-0.8-0.3-0.1
		c-0.3,1.6-0.5,3.3-0.1,5c0.5,2.4,2.2,4.2,3.7,6c1.6,2,3.2,4.1,5,6c0.2,0.2,0.4,0.4,0.6,0.6c0.7,0.7,1.2,1.4,1.8,2.1
		c1,1.3,2.3,2.2,3.8,2.9c3.5,1.5,7.4,1.4,10.7-0.5c3-1.8,6.2-5.2,6-8.9c-0.1-2.5-2.1-5.1-3.4-7.1c-0.8-1.1-1.6-2.3-2.4-3.4
		c-0.3-0.3-0.5-0.7-0.8-1c-0.1-0.1-0.2-0.3-0.3-0.4c-0.3-0.3,0.2,0.1,0,0.2c0,0,0.3-0.8,0.4-1c0.3-0.5,0.8-0.9,1.2-1.3
		c1.1-1,2.4-1.9,3.7-2.7c1.7-1.1,3.5-2.1,5.3-3c-0.5-0.1-1-0.3-1.5-0.4c1.9,2.9,3.9,6.1,6.6,8.4c2.7,2.3,6.7,2.9,10.1,3.5
		c3.4,0.6,6.8,1,10.2,1.2c1.3,0.1,2.6,0,3.8-0.5c0.3-0.1,1.3-0.5,1.4-0.8c-0.3-0.1-0.7-0.1-1-0.2c0.1,0.1,0.1,0.2,0.2,0.2
		c0.1,0.1,0.2,0.2,0.3,0.3c0.3,0.3,0.5,0.6,0.8,0.9c5.5,5.8,11.1,11.5,16.8,17.1c2.1,2.1,4.3,4.3,6.5,6.3c2.5,2.3,6.2,3.7,9.6,3
		c4.6-1,10.3-4.9,10.8-9.9c0.2-2.3-0.3-4.1-1.6-5.9c-0.8-1.1-1.6-2.1-2.5-3.1c-0.5-0.5-0.9-1-1.4-1.6c-0.2-0.2-0.4-0.5-0.7-0.7
		c-0.1-0.1-0.3-0.3-0.4-0.4c-0.3-0.4-0.3-0.3-0.1,0.3c-0.1,0.3-0.2,0.5-0.3,0.8c-0.4,0.5-0.5,0.1-0.3,0.3c0.1,0.1,0.4,0,0.5,0.1
		c0.5,0.1,1,0.2,1.5,0.3c1.3,0.3,2.1,0.9,3.2,1.7c2.6,1.7,5.5,3.7,8.7,3.5c5.7-0.3,11.4-4.7,11.9-10.6c0.4-5-4.7-8-8-10.6
		c-2.1-1.6-4.2-3.2-6.3-4.8c-6.4-4.9-12.9-9.7-18.9-15c-0.9-0.8-1.8-1.6-2.7-2.5c-0.4-0.4-0.2-0.2-0.5-0.7c-0.5-0.9-0.9-1.9-1.3-2.8
		c-1.9-4.5-3.7-9.1-4.8-13.8c-0.4-1.7-0.8-3.7,0.7-5c1-0.9,3.1-0.9,4.5-1c1.9-0.2,4.2-0.6,6-0.2c0.3,0.1,0.5,0.2,0.8,0.3
		c0.7,0.3,1.5,0.7,2.2,1c4,1.7,8.6,3.8,13,3.6c4.9-0.1,8.2-5.2,9.6-9.4c0.7-2.2,1.3-5.1,0.5-7.4c-0.5-1.5-1.9-2.8-3-3.9
		c-2.7-2.7-5.6-5.3-8.7-7.6c-0.1,0-0.3-0.3-0.4-0.3c0.1,0,0.2,0.4,0.2,0.2c0-0.3-0.4-0.9-0.6-1.2c-0.7-1.4-1.4-2.9-2.2-4.2
		c-2.2-3.8-5.1-7.5-9.1-9.5c-2.5-1.3-5.4-1.7-8.2-1.8c-3.3-0.1-6.5,0.5-9.5,1.8c-5.2,2.3-9.2,6.9-11.1,12.3c-1.3,3.5-1.6,7.3-1.1,11
		c0.3,2.4,1.1,4.7,2.3,6.8c1.7,2.8,4.2,4.9,6.9,6.6c1.8,1.2,3.8,2,5.7,3c1.3,0.7,2.4-1.2,1.1-1.9c-3.3-1.8-6.7-3.2-9.5-5.9
		c-2.6-2.5-4-6-4.4-9.6c-0.6-5.9,1.3-12.1,5.5-16.4c3.4-3.5,7.9-5.3,12.8-5.4c3.8-0.1,7.7,0.6,10.7,3c4.2,3.3,6.2,7.9,8.6,12.4
		c0.6,1.2,2.3,2,3.3,2.9c2.3,1.9,4.6,3.9,6.6,6c0.7,0.7,1.5,1.5,1.9,2.4c0.5,1.2,0.2,3.4-0.1,4.7c-0.8,3.3-2.9,7.4-6.2,8.8
		c-2.6,1.1-6.2-0.4-8.7-1.2c-2.5-0.9-4.9-1.9-7.4-3c-2-0.9-4.5-0.5-6.6-0.4c-2.2,0.2-5.5,0.2-7.2,1.9c-2,2.2-1.7,4.9-1,7.5
		c0.9,3.3,2,6.5,3.2,9.7c0.6,1.6,1.2,3.1,1.9,4.7c0.4,0.9,0.8,2,1.4,2.8c0.9,1.3,2.3,2.4,3.5,3.4c7.8,6.7,16.2,12.8,24.3,19
		c0.2,0.2,0,0,0.1,0.1c0.3,0.2,0.6,0.4,0.9,0.7c0.9,0.7,1.8,1.4,2.7,2.1c1.2,0.9,2.5,1.9,3.3,3.2c1.8,2.9,0.7,6.6-1.8,8.7
		c-1.8,1.5-4.1,2.8-6.5,3c-2.4,0.3-4.4-0.9-6.3-2.1c-1.6-1-3.1-2.3-4.9-2.8c-1-0.3-2.6-0.8-3.7-0.5c-2,0.6-0.2,2.4,0.5,3.1
		c1.3,1.4,2.6,2.8,3.7,4.3c0.9,1.1,1.5,2.1,1.6,3.5c0.2,2.3-0.8,4.1-2.5,5.7c-1.3,1.2-2.9,2.2-4.6,2.9c-1.3,0.6-2.3,0.8-3.5,0.8
		c-0.8,0-1.6-0.2-2.4-0.4c-0.5-0.1-1-0.3-1.4-0.5c-0.2-0.1-0.5-0.3-0.7-0.4c0,0-1-0.7-0.6-0.4c-0.4-0.4-0.9-0.7-1.3-1.1
		c-4-3.7-7.8-7.7-11.7-11.6c-4.1-4.1-8.2-8.2-12.1-12.5c-0.7-0.7-1.3-1.1-2.3-0.6c-1,0.6-1.9,0.9-3.1,1c-1.9,0-3.8-0.3-5.7-0.5
		c-3.1-0.3-6.1-0.8-9.1-1.6c-1.3-0.3-2.6-0.7-3.8-1.4c-1.2-0.6-2.1-1.6-3-2.6c-1.6-1.9-3-3.9-4.3-6c-0.3-0.5-1-0.7-1.5-0.4
		c-3.6,1.7-7.5,3.8-10.2,6.8c-1.1,1.2-2.1,2.8-1,4.4c1.4,2,2.9,3.9,4.2,6c0.7,1.1,1.4,2.2,1.8,3.4c0.5,1.3,0.2,2.5-0.4,3.7
		c-1.9,3.8-6.4,6.3-10.6,5.4c-1.2-0.2-2.2-0.6-3.2-1.2c-1.7-1-2.5-2.7-3.9-4c-1.5-1.4-2.8-3.1-4.1-4.7c-0.9-1.2-1.9-2.3-2.8-3.5
		c-0.6-0.8-1.3-1.6-1.7-2.6c-0.6-1.7-0.3-3.6,0.1-5.2c0.2-0.8,0.8-2.4,0.8-2.5c-0.3-0.6-1.3-1.9-1.7-1.5c-0.6,0.6-1.4,1.6-2.1,2.1
		c-0.4,0.2,0.1,0.5,0.1,0.2c-0.1-1.4,0.3-3.4,0.6-4.9c0.3-1.5,0.9-3.2,0.9-4.8c0.1-2.3-2-3.9-4.1-3.1c-0.3,0.1-1.1,0.3-1.3,0.6
		c-0.1,0.1,0.2,1.3,0.7,0.5c0.1-0.2,0-0.8,0-1c0.1-1.5,0.7-3,1.4-4.3c1.4-2.6,3.4-4.9,5.3-7.2c0.9-1.1,3.1-3.4,2.1-5
		c-0.7-1.1-2.1-0.6-3.1-0.3c-0.3,0.1-1.2,0.4-1.3,0.4c0.3,0.2,0.7,0.3,1,0.5c0,0,0.3-1.1,0.4-1.3c1.6-2.5,4.5-4.4,6.9-6.1
		c2.7-1.9,5.8-3.2,8.9-4.3c1.8-0.6,3.7-0.7,5.6-0.8c2.8-0.2,5.6-0.4,8.4-0.6c1.8-0.1,4-0.1,5.7-0.7c0.8-0.3,1.4-1.1,2-1.8
		c0.9-1,1.8-2.1,2.6-3.3c1.5-2,3.3-4.4,4-6.8c0.3-0.9,0.3-2.3-0.7-2.7c-0.5-0.2-0.9-0.1-1.4,0.1c-0.2,0.1-0.4,0.3-0.6,0.5
		c-0.3,0.4-0.6,0.1,0.3,0.5c1.1,0.4,0.4,0.3,0.6-0.1c0.1-0.2,0.2-0.5,0.3-0.8c0.3-0.6,0.7-1.2,1.1-1.7c0.8-1,1.8-2,2.7-3
		c0.6-0.8,1.4-1.7,1.5-2.7c0.1-1.2-0.9-2.1-2.1-2c-0.2,0-0.8,0.1-1,0.2c0,0,0,0,0,0c-0.3,0.1-0.1,0.3,0.6,0.7c0,0,0-0.2,0-0.3
		c0.2-0.4,0.1-0.9,0.3-1.4c0.5-1.2,1.3-2.3,2-3.3c1.7-2.2,3.8-4.3,5.8-6.2c0.6-0.6,1.2-1.1,1.9-1.7
		C-171.4,192-173,190.4-174.1,191.4L-174.1,191.4z"/>
	<path class="st0" d="M-177.2,225.1c4.2-2.9,6-8.1,7.7-12.7c0.9-2.4,1.8-4.9,3-7.1c1-1.9,2.2-3.7,4.2-4.6c1.3-0.6,0.2-2.6-1.1-1.9
		c-4.3,2-6,7.3-7.6,11.4c-1.7,4.4-3.2,10.2-7.3,13C-179.6,224-178.4,225.9-177.2,225.1L-177.2,225.1z"/>
	<path class="st0" d="M-114.3,214.7c-0.4,0.3-1.2,0.4-1.9,0.1c-1-0.4-1.5-1.4-1.2-2.1c0.3-0.7,1.6-0.7,2.4-0.3
		c0.5,0.3,0.7,0.7,0.8,0.8C-114.2,213.4-113.7,214.2-114.3,214.7z"/>
	<path class="st0" d="M-194.7,266.5c2.7-1.5,6.2-1.4,9.2-1.2c3,0.2,6.3,0.6,9,1.8c4.8,2.1,8,6,11,10.2c0.8,1.2,2.8,0.1,1.9-1.1
		c-3.3-4.6-6.9-9-12.3-11.2c-3.1-1.3-6.6-1.7-9.9-1.9c-3.3-0.2-7-0.1-10,1.5C-197.1,265.2-196,267.2-194.7,266.5L-194.7,266.5z"/>
	<path class="st0" d="M-143.9,297.1c1.4-3.3,4.8-7.3,7.2-9.2c2.3-1.9,7.5-4.8,8.4-4.2c2.4,1.8,7.6,8,7.4,10.3
		c-0.2,2.8-1.3,5.5-3.5,7.4c-2.5,2.1-4.6,2.8-6.6,3.3C-136.3,306.3-144.3,298.1-143.9,297.1z"/>
	<path class="st0" d="M-111.1,269.7c-0.7-0.5-6.2,2.1-8.2,4.1c-2,2-5.3,6.9-5.3,10.4c0,0.5,4.7,4.1,6.3,4.8c6.5,3.1,14.9-2.2,15.3-9
		c0.3-4.3-2.3-6-4-7.5C-108.5,271.2-109.8,270.6-111.1,269.7z"/>
	<path class="st0" d="M-205.1,277.2c-3.2,0.3-7.1,2.5-9.1,4.5c-3.7,3.7-6,8.4-5.9,8.5c3.8,5.5,6.7,5.7,9.9,5.8c2,0,7.6-1.9,10-7.4
		C-198.6,285.2-203.1,277.1-205.1,277.2z"/>
	<path class="st0" d="M-176.8,276.4c0.8,2,11.5,2.4,12,0.8c0.6-1.6-2.5-5.1-4.8-6.9c-0.9-0.8-5.5-4.8-7-4.4
		C-177.8,266.2-177.9,273.6-176.8,276.4z"/>
	<path class="st0" d="M-151.1,260c6.7,7.5,13.4,15,20.1,22.6c1,1.1,1.9,2.2,2.9,3.3c1,1.1,2.6-0.5,1.6-1.6
		c-6.7-7.5-13.4-15-20.1-22.6c-1-1.1-1.9-2.2-2.9-3.3C-150.5,257.3-152.1,258.9-151.1,260L-151.1,260z"/>
	<g>
		<path class="st0" d="M-180.1,237.6c0.7-2.1,4.1-15.8,3.1-15.2c-7,4.4-26.3,5.5-26.3,5.5c-3.6,4.9-5.4,11.2-4.4,14.6
			c0.6,2.2,3.8,4.1,7.4,5c2.9,0.7,5.8,0.1,6.2,1.7c1.3,4.2,2.9,8.8,4.6,14.8c0,0,3.6-0.1,7.2,0.5c0,0-2.9-8.4-5.1-16.3
			C-188,245.8-182.4,244.8-180.1,237.6z M-193.7,243.8c-2.5,0.3-5.2,0.4-7.5-0.6c-5.5-2.3-1.9-9.8,0.5-13.2c0.6-0.8,1.9,0,1.3,0.8
			c-1.7,2.4-3,5-3.1,8c0,1.8,0.6,2.7,2.3,3.3c1.2,0.4,2.4,0.5,3.7,0.5c3.6,0,6.8-1.1,9.1-3.9c2.5-2.9,2.8-7,3.6-10.6
			c0.2-0.9,1.7-0.5,1.4,0.4c-0.9,3.8-1.2,7.8-3.8,10.9C-187.9,241.6-190.7,243.4-193.7,243.8z"/>
	</g>
	<path class="st0" d="M-131.7,215.1c-8.7-2.7-17.6-5.4-26.1-8.6c-0.5-0.2-1-0.3-1.4-0.6c0.3,0.1,0.2,0.2,0.1,0
		c-0.2-0.2-0.4-0.4-0.6-0.7c-1.3-1.4-2.5-2.9-3.2-4.7c-0.5-1.4-2.7-0.8-2.2,0.6c0.6,1.7,1.7,3.3,2.8,4.7c0.6,0.8,1.3,1.7,2.2,2.2
		c2.1,1,4.5,1.7,6.7,2.5c5.6,1.9,11.3,3.7,16.9,5.5c1.4,0.4,2.8,0.9,4.2,1.3C-131,217.7-130.4,215.5-131.7,215.1L-131.7,215.1z"/>
	<path class="st0" d="M-130.4,222.6c0-8,5.1-15.6,12-19.6c1.3-0.7,0.1-2.7-1.1-1.9c-7.5,4.3-13.1,12.8-13.1,21.5
		C-132.7,224-130.4,224-130.4,222.6L-130.4,222.6z"/>
</g>
</svg>
