<?xml version="1.0" encoding="utf-8"?>
<!-- Generator: Adobe Illustrator 19.1.0, SVG Export Plug-In . SVG Version: 6.00 Build 0)  -->
<svg version="1.1" id="Layer_1" xmlns="http://www.w3.org/2000/svg" xmlns:xlink="http://www.w3.org/1999/xlink" x="0px" y="0px"
	 viewBox="-244 166 150 150" style="enable-background:new -244 166 150 150;" xml:space="preserve">
<style type="text/css">
	.st0{fill:#FFFFFF;}
</style>
<g>
	<path class="st0" d="M-109.8,218.9c-3.2-2.8-6.4-5.7-9.5-8.5l-0.5-0.4c-0.8-0.8-1.8-1.6-3-2.3c0.1-0.1,0.3-0.1,0.4-0.2
		c1.3-0.4,2.6,0.2,3,1.5c0.2,0.6,0.6,1.1,1.2,1.4c0.6,0.3,1.2,0.3,1.8,0.1c0.6-0.2,1.1-0.6,1.4-1.2c0.3-0.6,0.3-1.2,0.1-1.8
		c-0.6-1.8-1.9-3.2-3.6-4.1c-0.6-0.3-1.3-0.5-1.9-0.6c0.5-0.5,0.8-1.3,0.7-2.1c-0.2-1.3-1.4-2.2-2.7-1.9c-1.9,0.3-3.5,1.3-4.6,2.8
		c-0.1,0.1-0.1,0.2-0.2,0.2c-2.1-3.3-4.7-5.3-4.8-5.4c-0.4-0.3-0.9-0.4-1.3-0.3c-0.5,0.1-0.9,0.3-1.1,0.7c-0.1,0.2-2.9,4.4-2.9,9.6
		c-1,0.4-2,1.1-3.3,1.9l-0.8,0.6c-4.9,3.3-11.3,7.8-15.6,10.8c-2.1,1.5-3.7,2.6-4.4,3.1h-25.8c-4.3,0-7.9,0.8-10.9,2.5
		c-3.1-5.1-8.9-8.4-15-8.4c-9.7,0-17.5,7.6-17.5,17v16c0,2.1,1.7,3.9,3.9,3.9c0.2,0,0.5,0,0.7-0.1v4.3c0,2.1,1.8,3.9,4,3.9
		c2,0,3.7-1.5,3.9-3.4c0.2,0,0.5,0.1,0.7,0.1c2.1,0,3.9-1.7,3.9-3.9V240c0-3.3,3.1-6.3,6.6-6.3c-1.7,3.2-2.6,6.9-2.6,10.7
		c0,5.5,2,10.8,5.8,14.9l-7.4,13.5c-1.3,2.3-1.4,5-0.5,7.6c0.9,2.5,2.8,4.7,5.2,6.1l0.3,0.1c1.7,0.9,3.6,1.4,5.5,1.4
		c3.9,0,7-1.6,8.6-4.5l9.1-16.2h21.7c1.2,2.1,6.9,12,9.1,16c1.6,3,4.8,4.7,8.6,4.7c1.8,0,3.7-0.5,5.6-1.5l0.2-0.1
		c5.2-2.8,7.3-9,4.7-13.7l-9-16.4c2.3-3.6,3.6-7.8,3.6-12.1c0-1-0.1-2-0.2-3l6-7c2.8,1.1,6.6,1,9.3-0.2l10.4,3.3
		c1,0.4,1.9,0.6,2.9,0.6c3.9,0,6.6-3.3,7.4-5.4C-101.2,227.6-103.6,224.4-109.8,218.9z M-110.4,234.9c-0.5,0-1.1-0.1-1.6-0.3
		l-11.2-3.6c-0.5-0.1-0.9-0.1-1.3,0.1c-1.1,0.6-2.4,0.9-3.9,0.9c-1.5,0-2.9-0.3-3.9-0.9c-0.7-0.4-1.6-0.3-2.2,0.3l-7.4,8.6
		c-0.3,0.4-0.5,0.9-0.4,1.4c0.2,1.1,0.3,2.2,0.3,3.2c0,4-1.2,7.8-3.5,11c-0.4,0.5-0.4,1.2-0.1,1.8l6.9,12.6l-13.2,7l-6.9-12.6
		c-0.3-0.5-0.8-0.8-1.6-0.8c0,0-0.1,0-0.1,0c-0.1,0-0.1,0-0.3,0l-23.3,0c-0.6,0-1.2,0.3-1.5,0.9l-6.7,12.3l-13.2-7l5.3-9.6
		c0.4-0.7,0.2-1.5-0.3-2c-3.7-3.6-5.7-8.4-5.7-13.4c0-9,6.7-17,15.5-18.7v19.7c0,1,1,1.7,1.8,1.7h27.7c0.9,0,1.5-0.7,1.5-1.7v-20.6
		c1.6-0.9,5.5-3.5,16.7-11.2l3.4-2.3c1.9-1.3,3-1.7,4.4-2.1c0.8-0.2,1.4-1,1.3-1.8c-0.2-2.7,0.6-5.3,1.4-7c1.5,1.5,3.7,4.2,4.4,7.5
		l0,0.2c0.1,0.6,0.6,1.1,1.2,1.3c2,0.6,3.4,1.6,4.9,3l0.5,0.5c3.1,2.8,6.3,5.7,9.5,8.5c6.2,5.5,6.9,7.2,5.9,9.9l0,0
		C-106.6,232.7-108.2,234.9-110.4,234.9z M-139.7,283.9l-0.3,0.1c-1.2,0.7-2.6,1-3.9,1c-2.5,0-4.5-1.1-5.6-3.1l-1-1.8l13.2-7
		l0.9,1.7C-134.7,277.9-136.2,282-139.7,283.9z M-163.2,244.2h-24.3v-18.3c0,0,0.1,0,0.1,0h24.1V244.2z M-208.4,274.8l1.1-2l13.2,7
		l-1.2,2.2c-1.1,1.9-3.1,3.1-5.6,3.1c-1.3,0-2.7-0.4-3.9-1l-0.3-0.1c-1.7-1-3.1-2.5-3.7-4.2C-209.4,278-209.2,276.3-208.4,274.8z"/>
	<g>
		<circle class="st0" cx="-123.4" cy="219.4" r="2"/>
		<path class="st0" d="M-123.4,222c-1.4,0-2.6-1.2-2.6-2.6c0-1.4,1.2-2.6,2.6-2.6s2.6,1.2,2.6,2.6C-120.8,220.8-121.9,222-123.4,222
			z M-123.4,217.9c-0.8,0-1.5,0.7-1.5,1.5c0,0.8,0.7,1.5,1.5,1.5s1.5-0.7,1.5-1.5C-121.9,218.6-122.5,217.9-123.4,217.9z"/>
	</g>
</g>
</svg>
