<?xml version="1.0" encoding="utf-8"?>
<!-- Generator: Adobe Illustrator 16.0.4, SVG Export Plug-In . SVG Version: 6.00 Build 0)  -->
<!DOCTYPE svg PUBLIC "-//W3C//DTD SVG 1.1//EN" "http://www.w3.org/Graphics/SVG/1.1/DTD/svg11.dtd">
<svg version="1.1" id="Layer_1" xmlns="http://www.w3.org/2000/svg" xmlns:xlink="http://www.w3.org/1999/xlink" x="0px" y="0px"
	 width="200px" height="200px" viewBox="0 0 200 200" enable-background="new 0 0 200 200" xml:space="preserve">
<path fill="#FFFFFF" d="M183.233,102.322C194.046,91.514,200.001,77.139,200,61.845c0-15.293-5.956-29.47-16.77-40.286
	C172.421,10.75,158.049,5,142.759,5h-0.009c-15.291,0-29.665,5.756-40.475,16.566l-2.363,2.335l-2.185-2.198
	C86.914,10.888,72.537,4.925,57.245,4.925c-15.292,0-29.667,5.953-40.475,16.768C5.955,32.503-0.001,46.877,0,62.169
	c0.001,15.29,5.956,29.667,16.77,40.484l2.105,2.105l-4.27,4.266c-6.696,6.706-6.695,17.61,0.004,24.309
	c3.249,3.245,7.566,5.031,12.156,5.031c0.636,0,1.266-0.042,1.89-0.11c-0.069,0.627-0.111,1.26-0.111,1.899
	c0.001,4.587,1.791,8.902,5.04,12.151c3.247,3.244,7.562,5.032,12.151,5.032c0.636,0,1.265-0.042,1.888-0.11
	c-0.069,0.63-0.112,1.265-0.111,1.907c0.003,4.589,1.794,8.901,5.041,12.14c3.249,3.246,7.565,5.034,12.152,5.034
	c0.643,0,1.279-0.044,1.91-0.112c-0.55,5.007,1.078,10.212,4.905,14.045c3.248,3.25,7.565,5.039,12.156,5.039
	c4.583,0,8.897-1.784,12.15-5.028l4.305-4.307c3.241,2.882,7.313,4.342,11.396,4.341c4.401,0,8.804-1.674,12.158-5.023
	c3.832-3.837,5.46-9.049,4.905-14.062c0.634,0.07,1.268,0.116,1.904,0.116c4.402,0,8.806-1.678,12.159-5.03
	c3.831-3.835,5.458-9.046,4.904-14.058c0.636,0.07,1.272,0.116,1.91,0.116c4.401,0,8.805-1.674,12.159-5.021
	c3.828-3.839,5.455-9.052,4.9-14.064c0.635,0.07,1.272,0.115,1.91,0.115c4.401,0,8.806-1.674,12.162-5.023
	c6.529-6.548,6.662-17.093,0.43-23.823L183.233,102.322z M142.751,12h0.008c13.273,0,25.752,5.239,35.136,14.623
	c9.389,9.39,14.56,21.909,14.561,35.187c0,13.277-5.169,25.775-14.558,35.16l-2.184,2.191l-53.987-53.979
	c-1.475-1.473-3.863-1.472-5.337,0.002L87.942,73.632c-3.761,3.757-9.879,3.757-13.637,0.001c-3.756-3.756-3.755-9.868,0-13.626
	l28.201-28.204l-0.004-0.003l5.109-5.152C116.996,17.262,129.476,12,142.751,12z M19.942,127.995c-3.757-3.757-3.756-9.875,0-13.635
	l8.866-8.859c1.817-1.819,4.237-2.821,6.811-2.821c2.576,0,4.997,1.003,6.818,2.823c3.759,3.757,3.762,9.872,0.009,13.633
	c-0.001,0.001-0.002,0.002-0.003,0.003l-8.863,8.863c-1.821,1.816-4.242,2.817-6.814,2.817
	C24.189,130.819,21.766,129.815,19.942,127.995z M38.918,146.968c-1.823-1.823-2.828-4.244-2.828-6.816
	c-0.001-2.571,1.001-4.989,2.821-6.81l8.869-8.868c1.818-1.821,4.237-2.823,6.81-2.823c2.576,0,4.999,1.004,6.822,2.824
	c3.757,3.757,3.757,9.873,0,13.632l-8.865,8.865c-1.822,1.818-4.241,2.819-6.812,2.819C43.161,149.791,40.74,148.788,38.918,146.968
	z M57.883,165.933c-1.82-1.815-2.824-4.232-2.826-6.804c-0.002-2.575,1-4.997,2.822-6.818l8.869-8.868l0,0l0.001-0.001
	c1.818-1.821,4.235-2.823,6.807-2.823c2.577,0,5.001,1.004,6.821,2.821c3.754,3.765,3.755,9.883,0.003,13.637l-8.864,8.868
	c-1.825,1.816-4.243,2.817-6.812,2.817C62.131,168.762,59.71,167.758,57.883,165.933z M90.493,184.912
	c-1.825,1.819-4.246,2.822-6.818,2.822c-2.574,0-4.996-1.006-6.817-2.828c-3.754-3.758-3.755-9.872-0.005-13.628l8.864-8.867
	c0,0,0,0,0,0c1.825-1.819,4.246-2.821,6.818-2.821c2.574,0,4.995,1.002,6.813,2.818c3.755,3.766,3.756,9.884,0.003,13.641
	L90.493,184.912z M175.262,123.016c-3.763,3.755-9.88,3.758-13.636,0.003l-40.019-40.026c-1.475-1.474-3.863-1.473-5.336,0
	c-1.474,1.474-1.474,3.863-0.001,5.336l40.018,40.025c3.752,3.757,3.75,9.877,0.001,13.635c-3.763,3.756-9.878,3.755-13.632,0.003
	l-40.022-40.026c-1.474-1.474-3.863-1.474-5.336,0c-1.474,1.474-1.474,3.862,0,5.337l40.021,40.024
	c3.751,3.755,3.748,9.869-0.005,13.627c-3.761,3.76-9.875,3.764-13.629,0.007l-40.03-40.026c-1.473-1.474-3.862-1.472-5.336,0
	c-1.473,1.474-1.473,3.862,0,5.336l40.029,40.025c3.754,3.757,3.753,9.874-0.001,13.632c-3.534,3.529-9.144,3.741-12.924,0.645
	c5.927-6.736,5.695-17.047-0.736-23.496c-3.248-3.244-7.564-5.031-12.152-5.031c-0.645,0-1.283,0.045-1.915,0.114
	c0.55-5.008-1.079-10.214-4.906-14.052c-3.25-3.246-7.567-5.033-12.158-5.033c-0.64,0-1.272,0.043-1.898,0.111
	c0.551-5.01-1.08-10.215-4.912-14.047c-3.249-3.245-7.566-5.031-12.155-5.031c-0.642,0-1.275,0.043-1.904,0.111
	c0.551-5.012-1.081-10.219-4.915-14.05c-3.245-3.246-7.561-5.033-12.153-5.033c-4.238,0-8.23,1.54-11.37,4.327l-2.143-2.143
	c-9.388-9.392-14.559-21.875-14.56-35.15c0-13.276,5.169-25.756,14.561-35.142c9.383-9.39,21.862-14.561,35.138-14.561
	c13.276,0,25.758,5.171,35.147,14.562l2.109,2.11L68.967,54.673c-6.696,6.701-6.695,17.6,0.002,24.297
	c3.35,3.348,7.751,5.022,12.152,5.022s8.803-1.675,12.154-5.023l25.781-25.782l56.198,56.192
	C179.008,113.14,179.008,119.259,175.262,123.016z"/>
</svg>
