<?xml version="1.0" encoding="utf-8"?>
<!-- Generator: Adobe Illustrator 19.1.0, SVG Export Plug-In . SVG Version: 6.00 Build 0)  -->
<svg version="1.1" id="Layer_1" xmlns="http://www.w3.org/2000/svg" xmlns:xlink="http://www.w3.org/1999/xlink" x="0px" y="0px"
	 viewBox="-244 166 150 150" style="enable-background:new -244 166 150 150;" xml:space="preserve">
<style type="text/css">
	.st0{fill:#FFFFFF;}
</style>
<g>
	<path class="st0" d="M-128.3,220c-0.1-0.6-0.5-1.2-1.2-1.4l-6.4-2.4l4.7-7.3c0.4-0.6,0.4-1.3,0.1-1.8c-0.3-0.6-0.9-0.9-1.6-0.9
		l-6.9,0l1.9-8.4c0.1-0.6-0.1-1.3-0.6-1.7c-0.5-0.4-1.2-0.6-1.8-0.3l-6.5,2.3l-1.1-8.6c-0.1-0.7-0.5-1.2-1.1-1.4
		c-0.6-0.2-1.3-0.1-1.8,0.3l-5.3,4.4l-3.9-7.7c-0.3-0.6-0.9-1-1.5-1c-0.7,0-1.3,0.3-1.6,0.9l-3.5,5.9l-6.3-5.9
		c-0.5-0.4-1.2-0.6-1.8-0.4c-0.6,0.2-1.1,0.7-1.2,1.4l-1.2,6.8l-8-3.3c-0.6-0.3-1.3-0.2-1.8,0.3c-0.5,0.4-0.8,1.1-0.7,1.7l1.2,6.8
		l-8.6-0.4c-0.6,0-1.3,0.3-1.6,0.9c-0.3,0.6-0.4,1.3,0,1.8l3.4,6l-8.2,2.6c-0.6,0.2-1.1,0.7-1.2,1.4c-0.1,0.6,0.1,1.3,0.6,1.7
		l5.2,4.4l-6.9,5.2c-0.5,0.4-0.8,1-0.7,1.7c0.1,0.6,0.5,1.2,1.2,1.4l6.4,2.4l-4.7,7.3c-0.4,0.6-0.4,1.3-0.1,1.8s0.9,0.9,1.6,0.9
		l6.9,0l-1.9,8.4c-0.1,0.6,0.1,1.3,0.6,1.7c0.3,0.3,0.8,0.5,1.2,0.5c0.2,0,0.4,0,0.6-0.1l6.5-2.3l0.6,5l-11.6,41
		c-0.2,0.6,0,1.3,0.5,1.8c0.5,0.5,1.1,0.6,1.8,0.4l8.8-2.6l5.8,6.4c0.3,0.4,0.8,0.6,1.3,0.6c0.1,0,0.3,0,0.4-0.1
		c0.6-0.2,1.1-0.6,1.3-1.3l10.5-39.2l10.6,39.3c0.2,0.6,0.7,1.1,1.3,1.3c0.1,0,0.3,0,0.4,0c0.5,0,1-0.2,1.3-0.6l5.8-6.4l8.8,2.6
		c0.6,0.2,1.3,0,1.8-0.4c0.5-0.5,0.6-1.1,0.5-1.8l-10.6-37.4c0.9-0.1,1.6-0.9,1.6-1.8c0-0.2,0-0.4-0.1-0.6l-1.1-6.5l8.6,0.4
		c0,0,0.1,0,0.1,0c0,0,0,0,0,0c1,0,1.8-0.8,1.8-1.8c0-0.4-0.1-0.8-0.4-1.1l-3.3-5.7l8.2-2.6c0.6-0.2,1.1-0.7,1.2-1.4
		c0.1-0.6-0.1-1.3-0.6-1.7l-5.2-4.4l6.9-5.2C-128.5,221.3-128.2,220.6-128.3,220z M-140.6,210.6l0.2-0.9l4.4,0l-4.7,7.3l-8.2-1.7
		c-0.3-0.8-0.6-1.5-1-2.2l7.8-1.1C-141.4,211.9-140.8,211.4-140.6,210.6z M-146.9,204.3c0.7-0.4,1-1.1,0.9-1.8l-0.1-0.9l4.1-1.5
		l-1.9,8.5l-8.2,1.2c-0.5-0.6-1.1-1.2-1.7-1.8L-146.9,204.3z M-153.7,196.7l-0.4-0.8l3.4-2.8l1.1,8.7l-7.3,3.9
		c-0.7-0.4-1.4-0.8-2.2-1.1l5.2-5.7C-153.5,198.2-153.4,197.4-153.7,196.7z M-163,194l-0.7-0.6l2.2-3.8l4,7.8l-5.4,6.1
		c-0.8-0.2-1.6-0.2-2.5-0.3l2.9-7.1C-162.2,195.2-162.4,194.5-163,194z M-172.7,189.8l6.4,5.9l-3,7.5c-0.8,0.1-1.7,0.3-2.5,0.5
		l0.3-7.6c0-0.7-0.4-1.4-1.1-1.7l-0.9-0.4L-172.7,189.8z M-175.2,197.3l-0.3,8c-0.7,0.4-1.5,0.9-2.1,1.4l-2.3-7.1
		c-0.2-0.7-0.9-1.2-1.6-1.2l-1-0.1l-0.8-4.4L-175.2,197.3z M-184.2,201.8C-184.2,201.8-184.1,201.8-184.2,201.8l1.3,0.1l1.4,4.4
		l1,3.2c-0.6,0.6-1.1,1.3-1.5,2l-4.6-5.9c-0.5-0.6-1.2-0.8-1.9-0.6l-0.9,0.3l-2.2-3.8L-184.2,201.8z M-197,211.3l8.3-2.6l4.9,6.3
		c-0.3,0.8-0.6,1.6-0.7,2.5l-6.4-4c-0.6-0.4-1.4-0.4-2,0.1l-0.7,0.6L-197,211.3z M-198.7,222.5l6.9-5.3l6.8,4.2c0,0.1,0,0.1,0,0.1
		c0,0.8,0.1,1.6,0.2,2.4l-7.4-1.6c-0.7-0.2-1.5,0.2-1.9,0.8l-0.5,0.8L-198.7,222.5z M-191.9,232.6l-0.2,0.9l-4.4,0l4.7-7.3l7.9,1.7
		c0.3,0.8,0.6,1.6,1,2.3l-7.5,1.1C-191.1,231.4-191.7,231.9-191.9,232.6z M-185.6,238.9c-0.7,0.4-1,1.1-0.9,1.8l0.1,0.9l-4.1,1.5
		l1.9-8.5l8-1.1c0.5,0.6,1.1,1.2,1.8,1.8L-185.6,238.9z M-178.8,246.5l0.4,0.8l-3.4,2.8l-1.1-8.7l7.2-3.8c0.7,0.4,1.5,0.8,2.3,1.1
		l-5.1,5.7C-179,245.1-179.1,245.9-178.8,246.5z M-179.7,292.4l-4.3-4.8c-0.3-0.4-0.8-0.6-1.3-0.6c-0.2,0-0.3,0-0.5,0.1l-6.8,2
		l9.5-33.7c0.4,0,0.8-0.1,1.1-0.4l5.3-4.4l3.9,7.7c0.3,0.6,0.9,1,1.5,1c0,0,0,0,0,0c0.1,0,0.3,0,0.4,0L-179.7,292.4z M-169.5,249.3
		l0.7,0.6l-2.2,3.8l-4-7.8l5.5-6.1c0.8,0.1,1.6,0.2,2.5,0.2l-2.9,7.2C-170.3,248-170.1,248.8-169.5,249.3z M-181.4,221.6
		c0-8.3,6.7-15,15-15c8.3,0,15,6.7,15,15c0,8.3-6.7,15-15,15C-174.7,236.5-181.4,229.8-181.4,221.6z M-152.6,243.7
		c0.2,0.7,0.9,1.2,1.6,1.2l0.9,0l0.7,4.3l-8-3.4l0.3-8.4c0.7-0.4,1.4-0.9,2-1.4L-152.6,243.7z M-163.1,239.8
		c0.8-0.1,1.6-0.3,2.4-0.6l-0.3,7.8c0,0.7,0.4,1.4,1.1,1.7l0.9,0.4l-0.8,4.3l-6.4-5.9L-163.1,239.8z M-140.5,289.3l-6.8-2
		c-0.7-0.2-1.4,0-1.8,0.5l-4.3,4.8l-10.1-37.7l3.7,3.4c0.3,0.3,0.8,0.5,1.2,0.5c0.2,0,0.4,0,0.6-0.1c0.6-0.2,1.1-0.7,1.2-1.4
		l1.2-6.8l4.7,2L-140.5,289.3z M-149.6,241.4l-2.6-8c0.5-0.6,1-1.3,1.4-2l4.9,6.2c0.3,0.4,0.9,0.7,1.4,0.7c0.2,0,0.4,0,0.5-0.1
		l0.9-0.3l2.2,3.8L-149.6,241.4z M-135.5,231.9l-8.3,2.6l-5.2-6.6c0.3-0.7,0.5-1.5,0.7-2.3l6.7,4.2c0.3,0.2,0.6,0.3,0.9,0.3
		c0.4,0,0.8-0.1,1.1-0.4l0.7-0.6L-135.5,231.9z M-140.7,226.1l-7.1-4.4c0,0,0,0,0-0.1c0-0.8-0.1-1.6-0.2-2.4l7.7,1.6
		c0.1,0,0.2,0,0.4,0c0.6,0,1.2-0.3,1.5-0.8l0.5-0.8l4.1,1.5L-140.7,226.1z"/>
</g>
</svg>
