<?xml version="1.0" encoding="utf-8"?>
<!-- Generator: Adobe Illustrator 19.1.0, SVG Export Plug-In . SVG Version: 6.00 Build 0)  -->
<svg version="1.1" id="Layer_1" xmlns="http://www.w3.org/2000/svg" xmlns:xlink="http://www.w3.org/1999/xlink" x="0px" y="0px"
	 viewBox="-244 166 150 150" style="enable-background:new -244 166 150 150;" xml:space="preserve">
<style type="text/css">
	.st0{fill:#FFFFFF;}
</style>
<g>
	<path class="st0" d="M-141.6,200.5c11.1,14.5,8,34.4-7,45.1c-3.2,2.3-0.1,7.7,3.1,5.4c17.4-12.4,22.5-36.3,9.2-53.6
		C-138.6,194.2-144,197.3-141.6,200.5L-141.6,200.5z"/>
	<path class="st0" d="M-177,192.4c17.7,2,29.6,18.7,26.9,36.2c-0.6,3.9,5.4,5.6,6,1.7c3.3-21.7-10.9-41.6-32.9-44
		C-181,185.7-180.9,191.9-177,192.4L-177,192.4z"/>
	<path class="st0" d="M-208.9,211.8c13.8-11.3,33.9-8.2,44.7,5.9c2.4,3.1,7.8,0,5.4-3.1c-13.4-17.5-37.3-21.2-54.5-7.1
		C-216.4,210-212,214.3-208.9,211.8L-208.9,211.8z"/>
	<path class="st0" d="M-122.2,232.2c-1.9,17.7-18.6,29.6-36.1,27c-3.9-0.6-5.6,5.4-1.7,6c21.7,3.3,41.6-11,44-33
		C-115.6,228.2-121.8,228.3-122.2,232.2L-122.2,232.2z"/>
	<path class="st0" d="M-217.1,246.9c2.2-17.7,19.1-29.3,36.5-26.4c3.9,0.7,5.6-5.3,1.7-6c-21.7-3.6-41.7,10.4-44.4,32.4
		C-223.8,250.8-217.6,250.8-217.1,246.9L-217.1,246.9z"/>
	<path class="st0" d="M-197,278.1c-11.3-13.9-8.2-33.9,5.9-44.7c3.1-2.4,0-7.8-3.1-5.4c-17.5,13.3-21.2,37.3-7.2,54.5
		C-198.9,285.6-194.5,281.2-197,278.1L-197,278.1z"/>
	<path class="st0" d="M-162.3,286.8c-17.7-2.1-29.4-18.9-26.6-36.3c0.6-3.9-5.4-5.6-6-1.7c-3.5,21.7,10.7,41.6,32.6,44.2
		C-158.3,293.5-158.3,287.3-162.3,286.8L-162.3,286.8z"/>
	<path class="st0" d="M-130.1,268c-14.4,11.1-34.4,8.2-45.1-6.7c-2.3-3.2-7.7-0.1-5.4,3.1c12.5,17.4,36.4,22.3,53.7,8.9
		C-123.8,271-126.9,265.6-130.1,268L-130.1,268z"/>
</g>
</svg>
