<?xml version="1.0" encoding="utf-8"?>
<!-- Generator: Adobe Illustrator 19.1.0, SVG Export Plug-In . SVG Version: 6.00 Build 0)  -->
<svg version="1.1" id="Layer_1" xmlns="http://www.w3.org/2000/svg" xmlns:xlink="http://www.w3.org/1999/xlink" x="0px" y="0px"
	 viewBox="-244 166 150 150" style="enable-background:new -244 166 150 150;" xml:space="preserve">
<style type="text/css">
	.st0{fill:#FFFFFF;}
</style>
<g>
	<circle class="st0" cx="-168.8" cy="241.3" r="5.8"/>
	<path class="st0" d="M-168.6,188.8c-29,0-52.5,23.5-52.5,52.5s23.5,52.5,52.5,52.5c29,0,52.5-23.5,52.5-52.5
		S-139.6,188.8-168.6,188.8z M-121.2,238.9c-9.8,0-19.7,0-29.5,0c-0.2-1.5-0.6-3-1.1-4.4c8.8-4.4,17.6-8.7,26.4-13.1
		C-123,226.8-121.5,232.7-121.2,238.9z M-168.4,255.2c-7.7,0-14-6.3-14-14s6.3-14,14-14s14,6.3,14,14S-160.7,255.2-168.4,255.2z
		 M-127.2,218c-8.8,4.4-17.6,8.7-26.4,13.1c-1.2-1.7-2.7-3.2-4.3-4.4c5.1-8.4,10.2-16.8,15.3-25.2C-136.3,205.7-131,211.4-127.2,218
		z M-146,199.5c-5.1,8.4-10.3,16.8-15.4,25.3c-1.7-0.7-3.6-1.2-5.6-1.4c0-9.9,0-19.7,0-29.6C-159.3,194.1-152.2,196.1-146,199.5z
		 M-170.8,193.9c0,9.9,0,19.8,0,29.7c-1.8,0.2-3.5,0.8-5.1,1.5c-5-8.5-10-17.1-15.1-25.6C-184.9,196.1-178,194.2-170.8,193.9z
		 M-194.3,201.3c5,8.6,10.1,17.1,15.1,25.7c-1.4,1.1-2.6,2.3-3.7,3.8c-8.7-4.9-17.4-9.7-26.1-14.6
		C-205.2,210.2-200.2,205.2-194.3,201.3z M-210.9,219.6c8.7,4.8,17.4,9.7,26.1,14.5c-0.6,1.5-1.1,3.1-1.3,4.7c-10,0-20,0-30,0
		C-215.7,232-213.9,225.4-210.9,219.6z M-216.1,242.8c10,0,19.9,0,29.9,0c0.1,1.4,0.4,2.8,0.8,4.1c-9,4.4-17.9,8.9-26.9,13.3
		C-214.5,254.8-215.9,248.9-216.1,242.8z M-210.5,263.7c8.9-4.4,17.9-8.9,26.8-13.3c1.1,1.8,2.4,3.3,4,4.6
		c-5.2,8.5-10.4,17-15.6,25.6C-201.6,276.3-206.9,270.5-210.5,263.7z M-192,282.6c5.2-8.5,10.4-17,15.5-25.5
		c1.8,0.9,3.7,1.5,5.7,1.8c0,9.9,0,19.9,0,29.8C-178.5,288.4-185.7,286.2-192,282.6z M-166.9,288.8c0-9.9,0-19.8,0-29.7
		c2-0.2,3.9-0.7,5.7-1.4c5,8.5,10,17.1,15,25.6C-152.4,286.5-159.4,288.5-166.9,288.8z M-142.9,281.2c-5-8.5-10-17-15-25.6
		c1.6-1.2,3-2.6,4.1-4.2c8.6,4.8,17.2,9.6,25.8,14.4C-131.7,272-136.8,277.3-142.9,281.2z M-151.9,248.1c0.7-1.7,1.1-3.5,1.3-5.3
		c9.8,0,19.6,0,29.4,0c-0.2,7.1-2,13.8-4.9,19.7C-134.7,257.7-143.3,252.9-151.9,248.1z"/>
</g>
</svg>
