<?xml version="1.0" encoding="utf-8"?>
<!-- Generator: Adobe Illustrator 19.1.0, SVG Export Plug-In . SVG Version: 6.00 Build 0)  -->
<svg version="1.1" id="Layer_1" xmlns="http://www.w3.org/2000/svg" xmlns:xlink="http://www.w3.org/1999/xlink" x="0px" y="0px"
	 viewBox="0 0 150 150" style="enable-background:new 0 0 150 150;" xml:space="preserve">
<style type="text/css">
	.st0{fill:#FFFFFF;}
</style>
<g>
	<path class="st0" d="M141,41.3L88.2,21.4c-0.5-0.2-1,0.1-1.1,0.5l-6,15c-0.2,0.5,0.1,1,0.5,1.1l2.3,0.9l-10.2,27
		c-0.3,0.8,0.1,1.6,0.9,1.9l6,2.3H11.7C11,70,10,71.1,10,71.8v16.5c0,0.6,1.1,1,1.7,1h2.8v38.3c0,1.1,1.2,1.4,2.3,1.4h23.6h0h17.1h0
		h23.2c0.8,0,1.8-0.5,1.8-1.4V89.3h3.7c0.6,0,0.8-0.4,0.8-1V72.5l25.4,9.6H87.9c-0.4,0-0.8,0.3-0.8,0.8v13.5c0,0.4,0.3,0.8,0.8,0.8
		h2.5v30.7c0,0.7,0.5,1.2,1.2,1.2h31.1c0.7,0,1.2-0.5,1.2-1.2V97.2h2.6c0.4,0,0.8-0.3,0.8-0.8V82.9c0-0.4-0.3-0.8-0.8-0.8h-4.2
		l9.5-25.1l2.5,1c0.5,0.2,1-0.1,1.1-0.5l6-15C141.7,42,141.5,41.5,141,41.3z M78,125.6h-9.1h-34H19V89.3h15.9h34H78V125.6z
		 M82.5,84.8h-25h0H40.4h0H14.5V74.6h68V84.8z M119.8,125.1H94.5V97.2h25.3V125.1z M123.6,93.5H91V86h32.6V93.5z M118.6,79.8
		l-13.3-5l0,0l-4-1.5l0,0l-5.3-2l-0.2,0l-4.3-1.5v0l-13-5L88,40.5l17.2,6.5l9.3,3.5l0,0l13.4,5.1L118.6,79.8z M132.7,52.7l-17.3-6.5
		c0,0,0,0,0,0l-12.1-4.6c0,0,0,0-0.1,0l-16.9-6.4l3.5-8.6l46.3,17.5L132.7,52.7z"/>
</g>
</svg>
