<?xml version="1.0" encoding="utf-8"?>
<!-- Generator: Adobe Illustrator 19.1.0, SVG Export Plug-In . SVG Version: 6.00 Build 0)  -->
<svg version="1.1" id="Layer_1" xmlns="http://www.w3.org/2000/svg" xmlns:xlink="http://www.w3.org/1999/xlink" x="0px" y="0px"
	 viewBox="0 0 150 150" style="enable-background:new 0 0 150 150;" xml:space="preserve">
<style type="text/css">
	.st0{fill:#FFFFFF;}
</style>
<g>
	<path class="st0" d="M94.5,47.6c-5.4,8.9-11.5,19.8,0.2,27.3c0.3,0.2,0.7,0.3,1.1,0.3c0.7,0,1.3-0.3,1.7-0.9
		c0.6-0.9,0.3-2.1-0.6-2.7c-0.1-0.1-0.2-0.2-0.4-0.2c-7.6-5.1-4.3-12,1.6-21.9c1.7,0.8,3.6,1.6,5.7,2.4c0,0,0,0,0,0
		c1,0.4,2.1-0.1,2.5-1.1c0.4-1-0.1-2.2-1.1-2.6c-1.9-0.7-3.6-1.4-5.1-2.1c3.8-6.5,6.7-13.4,0.1-17.6c-3.1-2-8.3-1.7-12.2,0.7
		c-2.9,1.7-4.4,4.4-4.2,7.2C84.2,40.1,87.7,43.9,94.5,47.6z M90.1,32.4c1.5-0.9,3.5-1.4,5.2-1.4c1.1,0,2.2,0.2,2.9,0.7
		c3.5,2.2,2.3,5.8-1.5,12.5c-7.7-4.2-8.7-7.3-8.8-8.4C87.6,34.2,88.9,33,90.1,32.4z"/>
	<path class="st0" d="M116.7,73c-0.2-3.2,3.5-6.5,7.1-9.6c0.3-0.2,0.5-0.4,0.8-0.6c4.3-3.6,8.3-7,7.8-11.1c-0.3-2.7-2.5-5-6.7-7.2
		c-1-0.5-2.2-0.1-2.7,0.9c-0.5,1-0.1,2.2,0.9,2.7c0.3,0.1,0.5,0.3,0.8,0.4c2.3,1.3,3.7,2.6,3.8,3.7c0.2,1.6-1.9,3.7-4.4,5.9
		c-0.7,0.6-1.4,1.2-2.1,1.8c-4.5,3.8-9.7,8.1-9.2,13.5c0.3,3.8,3.2,7.3,8.9,10.7c0.3,0.2,0.7,0.3,1,0.3c0.7,0,1.3-0.3,1.7-1
		c0.6-0.9,0.3-2.2-0.7-2.7c-0.3-0.2-0.6-0.4-0.9-0.6C118.9,77.6,116.8,75.3,116.7,73z"/>
	<path class="st0" d="M146.3,67c-0.2-0.6-0.8-0.9-1.4-0.9h-6.4c-0.8,0-1.5,0.7-1.5,1.5v6.4c0,0.6,0.4,1.2,0.9,1.4
		c0.2,0.1,0.4,0.1,0.6,0.1c0.4,0,0.8-0.2,1.1-0.4l6.4-6.4C146.4,68.2,146.5,67.5,146.3,67z"/>
	<path class="st0" d="M140.1,94.6l-7.6,5.8c-0.9,0.7-1,1.9-0.4,2.8c0.4,0.5,1,0.8,1.6,0.8c0.4,0,0.8-0.1,1.2-0.4l7.6-5.8
		c0.9-0.7,1-1.9,0.4-2.8C142.2,94.1,141,93.9,140.1,94.6z"/>
	<path class="st0" d="M104.2,61.4c0.4,0.5,1,0.8,1.6,0.8c0.4,0,0.8-0.1,1.2-0.4l7.6-5.8c0.9-0.7,1-1.9,0.4-2.8
		c-0.7-0.9-1.9-1-2.8-0.4l-7.5,5.8C103.7,59.2,103.5,60.5,104.2,61.4z"/>
	<path class="st0" d="M98.2,85c-7.2,1.1-12.2,7.8-11.2,15c0.2,1.1,1.2,1.8,2.2,1.7c1.1-0.2,1.8-1.2,1.7-2.2
		c-0.7-5.1,2.8-9.8,7.8-10.5c3.8-0.6,7.4,2.1,8,5.9c0.4,2.9-1.6,5.5-4.4,5.9c-2.1,0.3-4-1.1-4.3-3.2c-0.1-0.5-0.1-1.2,0.2-1.6
		c0.3-0.4,1-0.6,1.5-0.7c0.3,0,0.7-0.1,1,0.2c0.3,0.2,0.4,0.7,0.5,1c0.2,1.1,1.2,1.8,2.2,1.7c1.1-0.2,1.8-1.2,1.7-2.2
		c-0.2-1.5-0.9-2.8-2-3.6c-1.1-0.8-2.5-1.1-4-0.9c-1.8,0.3-3.2,1-4.1,2.2c-0.9,1.2-1.2,2.8-1,4.6c0.6,3.9,3.9,6.6,7.7,6.6
		c0.4,0,0.7,0,1.1-0.1c5-0.7,8.5-5.4,7.8-10.4C109.7,88.3,104.2,84.2,98.2,85z"/>
	<path class="st0" d="M81,68.8c0-0.6-0.3-1.2-0.8-1.6c-0.5-0.4-1.2-0.5-1.8-0.2L22.7,86.8H3.8L3.5,98.4h19.4l55.4,19.8
		c0.2,0.1,0.4,0.1,0.7,0.1c0.4,0,0.8-0.1,1.1-0.4c0.5-0.4,0.8-1,0.8-1.6V68.8z M45.7,102.3c0.7-1.1,2-1.8,3.4-1.8
		c2.3,0,4.1,1.8,4.1,4.1c0,0.1,0,0.2,0,0.4L45.7,102.3z M49.1,96.6c-3.1,0-5.8,1.8-7.2,4.4l-14.3-5.1v-6.6l23-8.2
		c0.9,3.5,4,6.1,7.8,6.1c4.4,0,8.1-3.6,8.1-8.1c0-1.2-0.3-2.4-0.8-3.4l11.2-4v18.2c-4.3,0.2-7.8,3.7-7.8,8.1c0,4.3,3.5,7.9,7.8,8.1
		v7.6l-20-7.2c0.1-0.6,0.2-1.1,0.2-1.7C57.2,100.2,53.5,96.6,49.1,96.6z M77,101.9c-2.1-0.2-3.8-1.9-3.8-4.1c0-2.2,1.7-3.9,3.8-4.1
		V101.9z M62,76.9c0.4,0.6,0.6,1.3,0.6,2.1c0,2.3-1.8,4.1-4.1,4.1c-2.1,0-3.7-1.5-4-3.5L62,76.9z"/>
</g>
</svg>
