<?xml version="1.0" encoding="utf-8"?>
<!-- Generator: Adobe Illustrator 19.1.0, SVG Export Plug-In . SVG Version: 6.00 Build 0)  -->
<svg version="1.1" id="Layer_1" xmlns="http://www.w3.org/2000/svg" xmlns:xlink="http://www.w3.org/1999/xlink" x="0px" y="0px"
	 viewBox="0 0 150 150" style="enable-background:new 0 0 150 150;" xml:space="preserve">
<style type="text/css">
	.st0{fill:#FFFFFF;}
</style>
<g>
	<path class="st0" d="M116,95.1c-2.2-0.7-4.3-1.4-6.1-1.9l4.2-50c0.1-0.6-0.2-1.2-0.6-1.7c-0.7-0.8-7.8-7.7-34.1-7.7
		c-26.2,0-38.5,6.9-39.1,7.3c-0.2,0.1-0.4,0.2-0.5,0.4c-0.4,0.5-0.6,1.1-0.6,1.7l3.4,48.8c-7,2.4-14.6,6.6-18,12.4
		c-2.5,4.3-2.4,9.2,0.2,14c4.7,8.7,17.1,10.6,26.6,10.6c1.1,0,2.1,0,3.1-0.1c0.1,0,0.1,0,0.2,0c0,0,0.1,0,0.1,0
		c35.2-1.9,58.6-7.4,69.6-16.3c0.3-0.2,0.4-0.5,0.6-0.7c1.4-1.4,2.4-3.1,2.7-4.8C128.1,104.2,127.3,98.7,116,95.1z M48.2,108.6
		l-0.8-10.7c6.9,2.9,18.4,4.5,28.6,4.5c12,0,22.7-3.2,29.2-6.7l-0.9,10.3c0,0,0,0,0,0.1c-0.8,2-11.9,8-28,8
		C60.1,114,49.4,110.5,48.2,108.6z M109.5,44l-3.9,46.2c-4.4,3-15.4,7.7-29.6,7.7c-14.6,0-25.2-2.9-28.9-5.1l-3.4-48.5
		c3.5-1.7,14.8-6.1,35.6-6.1C99.5,38.3,107.3,42.5,109.5,44z M114.6,99.3c5.8,1.9,9,4.5,8.6,7c-0.5,3.1-5.6,5.9-10.2,5.8
		c-3.3-0.1-6.4,0-9.3,0.1c3.1-1.8,5-3.9,5.1-5.9l0.7-8.6C111.1,98.2,112.8,98.7,114.6,99.3z M106.7,116.5
		c-6.8,2.2-16.1,4.3-28.5,5.9C85.3,119.7,94.6,116.9,106.7,116.5z M28.6,116.3c-1.9-3.5-2-6.7-0.2-9.7c2.6-4.4,8.6-7.9,14.5-10.1
		l0.9,12.4c0.2,6.9,19.7,9.5,32.2,9.6c-2.2,0.9-4.2,1.7-6,2.5c-3.3,1.4-5.9,2.5-7.7,2.8c-1.5,0.2-3.3,0.5-5.1,0.6
		c-0.9,0.1-1.8,0.1-2.7,0.2c0,0-0.1,0-0.1,0C44.5,124.9,32.5,123.5,28.6,116.3z"/>
	<path class="st0" d="M92.5,87.5c-1.2,0-2.1,0.9-2.1,2.1c0,1.2,0.9,2.1,2.1,2.1c1.2,0,2.1-0.9,2.1-2.1
		C94.6,88.5,93.7,87.5,92.5,87.5z"/>
	<path class="st0" d="M93,83.4c0,0,0.1,0,0.1,0c1.2,0,2.2-0.9,2.2-2.1L96.9,51c0.1-1.2-0.9-2.3-2.1-2.3c-1.2-0.1-2.3,0.9-2.3,2.1
		l-1.6,30.4C90.8,82.3,91.7,83.4,93,83.4z"/>
</g>
</svg>
