<?xml version="1.0" encoding="utf-8"?>
<!-- Generator: Adobe Illustrator 19.1.0, SVG Export Plug-In . SVG Version: 6.00 Build 0)  -->
<svg version="1.1" id="Layer_1" xmlns="http://www.w3.org/2000/svg" xmlns:xlink="http://www.w3.org/1999/xlink" x="0px" y="0px"
	 viewBox="0 0 150 150" style="enable-background:new 0 0 150 150;" xml:space="preserve">
<style type="text/css">
	.st0{fill:#FFFFFF;stroke:#FFFFFF;}
	.st1{fill:#FFFFFF;}
	.st2{fill:#FFFFFF;stroke:#FFFFFF;stroke-width:0.9275;}
</style>
<g>
	<g>
		<path class="st0" d="M102,43.5c-2.6,0-5.1,0.5-7.4,1.5c-1.9-1-3.9-1.6-6-1.6c-3.7,0-7.2,1.7-10.2,4.8c-0.5-0.3-1.9-0.9-2.4-1.1
			l0.7-4.2L70,35.7c-1.7,0.8-2.8,2.5-2.7,4.3l2.7,6.4c-1.1,0-3.1,1.6-3.4,1.8c-3-3.1-6.5-4.8-10.2-4.8c-2.1,0-4.1,0.6-6,1.6
			c-2.4-1-4.9-1.5-7.4-1.5c-16,0-29.1,19.8-29.1,44.1c0,24.5,17.6,41.6,33.4,41.6c2.6,0,5.1-0.5,7.3-1.3c2,0.9,4.1,1.3,6.1,1.3
			c2.4,0,4.6-0.6,6.5-1.8c1.7,0.9,3.5,1.4,5.3,1.4c1.8,0,3.6-0.5,5.3-1.4c1.9,1.2,4.1,1.8,6.5,1.8c2,0,4.1-0.5,6.1-1.3
			c2.2,0.9,4.7,1.3,7.3,1.3c15.8,0,33.4-17.1,33.4-41.6C131.1,63.4,118.1,43.5,102,43.5z M72.5,124.8c-8.8,0-16.3-17-16.3-37.2
			c0-20.2,7.5-37.2,16.3-37.2c8.8,0,16.3,17,16.3,37.2C88.8,107.8,81.3,124.8,72.5,124.8z M60.7,125.3c-9.4,0-22.5-14.3-22.5-37.6
			c0-21.8,8.3-40.3,18.2-40.3c2.5,0,4.9,1.2,7.1,3.3c-6.7,6.6-11.2,20.5-11.2,37c0,16.5,4.6,30.5,11.3,37.1
			C62.7,125.1,61.7,125.3,60.7,125.3z M92.7,87.7c0-16.4-4.5-30.3-11.2-37c2.2-2.1,4.6-3.3,7.1-3.3c9.8,0,18.1,18.5,18.1,40.3
			c0,23.3-13.1,37.6-22.4,37.6c-1,0-2-0.2-2.9-0.6C88.1,118.2,92.7,104.2,92.7,87.7z M47.2,125.3c-13.9,0-29.4-15.4-29.4-37.6
			c0-22.2,11.3-40.2,25.1-40.2c1.2,0,2.4,0.1,3.6,0.4C39.2,55,34.3,70,34.3,87.7c0,17.4,7,31,15.5,37.5
			C48.9,125.2,48.1,125.3,47.2,125.3z M97.7,125.3c-0.9,0-1.7-0.1-2.5-0.2c8.5-6.5,15.5-20.1,15.5-37.5c0-17.7-4.9-32.6-12.2-39.7
			c1.2-0.3,2.4-0.4,3.6-0.4c13.9,0,25.1,18,25.1,40.2C127.1,109.9,111.6,125.3,97.7,125.3z"/>
	</g>
	<g>
		<path class="st1" d="M133.8,42.7c0-0.8-0.6-1.4-1.3-1.5c-1.1-0.2-2.2-0.5-3.3-0.7c-7.1-1.9-12.6-6.6-17.6-11.4
			c-0.4-0.4-0.9-0.5-1.5-0.4c-0.5,0.1-1,0.5-1.2,0.9c-2.3,5-7.8,7.6-13.2,6.2l-0.3-0.1c-1.9-0.6-3.6-1.6-5-3.1
			c-0.4-0.5-1.1-0.6-1.8-0.4c-0.6,0.2-1,0.8-1.1,1.4c-0.1,0.9-0.2,1.7-0.4,2.6c-1.1,4.2-6.8,7.4-9.2,8.5c0,0,0,0,0,0
			c-0.1,0.1-0.2,0.1-0.4,0.2c0,0,0,0-0.1,0.1c-0.1,0.1-0.2,0.2-0.2,0.3c0,0,0,0,0,0.1c-0.1,0.1-0.1,0.2-0.2,0.4c0,0,0,0.1,0,0.1
			c0,0.1,0,0.2,0,0.4c0,0,0,0,0,0.1c0,0,0,0,0,0c0,0.1,0,0.3,0.1,0.4c0,0,0,0,0,0c0,0.1,0,0.1,0.1,0.1c0,0.1,0.1,0.2,0.1,0.3
			c0,0,0.1,0.1,0.1,0.1c0.1,0.1,0.1,0.1,0.2,0.2c0,0,0.1,0.1,0.1,0.1c0.1,0.1,0.2,0.1,0.2,0.1c0,0,0.1,0,0.1,0.1
			C83.8,50,90.5,55,92.4,60.9c0.2,0.5,0.6,0.9,1.1,1.1c0.1,0,0.3,0.1,0.5,0.1c0.7,0,1.3-0.4,1.6-1.1c1.7-4.8,6.9-7.6,11.9-6.2
			l0.2,0.1c3.7,1.1,6.4,4.3,7,8.1c0.1,0.7,0.6,1.2,1.2,1.4c0.9,0.2,1.8-0.3,2-1.1c0.1-0.2,0.1-0.4,0.1-0.6c0.1-1.5,0.3-3,0.7-4.5
			c1.9-6.9,6.6-11.5,13.9-13.7C133.3,44.2,133.8,43.5,133.8,42.7z"/>
		<path class="st2" d="M116.7,56.7c-1.7-2.5-4.3-4.3-7.3-5.1c-5.4-1.5-11.1,0.7-14.2,5.1c-2.5-4.2-6.6-7.6-10.7-9.9
			c15.8-3.5,34-1.6,34.2-1.5c0.9,0.1,1.7-0.6,1.8-1.5c0.1-0.9-0.6-1.7-1.5-1.8c-0.8-0.1-16-1.7-31.2,0.8c1.6-1.6,2.9-3.4,3.5-5.6
			c0-0.1,0-0.1,0-0.2c1.3,0.9,2.9,1.6,4.4,2c6.2,1.7,12.6-0.8,16-6c4.4,4.1,9.6,8.2,16,10.3C122.3,46.1,118.5,50.7,116.7,56.7z"/>
	</g>
	<g>
		<path class="st1" d="M98.8,106.9c-0.5-9.2,2.9-17.8,6.6-25.8c0.2-0.5,0.2-1.1-0.1-1.6c-0.3-0.5-0.8-0.8-1.4-0.9
			c-0.5-0.1-1-0.1-1.4-0.2C96.1,77,91.3,71.4,91,64.9c-0.2-2.7,0.4-5.4,1.7-7.7c0.3-0.6,0.3-1.4-0.2-1.9c-0.4-0.6-1.2-0.8-1.8-0.6
			c-1.1,0.3-2.2,0.5-3.3,0.5c-1.5,0.1-3.1,0-4.5-0.3c-3.4-0.7-6.4-2.4-8.8-4.9c-0.5-0.5-1.2-0.7-1.9-0.4c-0.7,0.2-1.1,0.9-1.2,1.6
			c-0.5,8.1-4.5,15.4-11,20.3c-0.6,0.5-0.9,1.2-0.6,2c0.2,0.7,0.9,1.2,1.7,1.2c0.8,0,1.6,0.1,2.4,0.3c5.6,1.2,9.8,6,10.2,11.8
			c0.3,5.2-2.5,10-7.1,12.2c-0.8,0.4-1.2,1.4-0.9,2.2c0.3,0.9,1.3,1.3,2.2,1.1c1.9-0.6,3.9-0.9,6-1c9.2-0.5,16.7,3.3,22.3,11.3
			c0.3,0.4,0.7,0.6,1.1,0.7c0,0,0,0,0,0c1,0.2,1.9-0.4,2.1-1.4c0.1-0.3,0-0.6,0-0.8C99,109.6,98.8,108.2,98.8,106.9z"/>
		<path class="st0" d="M95.5,108.1c-4-4-8.6-6.6-13.9-7.8c-2.5-0.5-5.1-0.7-7.8-0.6c2.5-3.1,3.8-7.1,3.6-11.2c-0.4-7-5.3-13-12-14.8
			c4.4-4.2,7.4-9.7,8.7-15.6c12.8,16.7,15.1,40,15.1,40.3c0.1,0.8,0.7,1.4,1.4,1.6c0.2,0,0.3,0,0.5,0c1-0.1,1.7-1,1.6-1.9
			c-0.1-1-2.1-21.5-13.2-38.5c2.6,1,5.5,1.4,8.3,1.2c0.2,0,0.4,0,0.7,0c-0.7,2.1-0.9,4.3-0.8,6.5c0.5,8,6.1,14.7,13.8,16.6
			C98.2,91.4,95.3,99.4,95.5,108.1z"/>
	</g>
	<path class="st1" d="M76.2,30.7c-4.7-1-9.2,2-10.2,6.7c-1,4.7,2,9.2,6.7,10.2c4.7,1,9.2-2,10.2-6.7C83.8,36.2,80.8,31.7,76.2,30.7z
		 M76.4,33.8c-0.1,0.5-0.6,0.9-1.2,0.8c-0.5-0.1-0.9-0.6-0.8-1.2c0.1-0.5,0.6-0.9,1.2-0.8C76.2,32.7,76.6,33.2,76.4,33.8z"/>
	<path class="st1" d="M64.5,36.6c0.1-0.3,0.1-0.6,0.2-0.8c-0.4-0.1-0.8-0.3-1.3-0.4c-4.7-1-9.3,2-10.3,6.6c-1,4.6,2,9.1,6.7,10.1
		c3.7,0.8,7.4-1,9.3-4.1C65.5,45.6,63.5,41.1,64.5,36.6z M58.5,40.7c-0.1,0.5-0.6,0.9-1.2,0.8s-0.9-0.6-0.8-1.2
		c0.1-0.5,0.6-0.9,1.2-0.8S58.6,40.1,58.5,40.7z"/>
	<path class="st1" d="M63.7,25.2c-4.3-0.9-8.5,1.9-9.4,6.2c-0.3,1.6-0.2,3.1,0.4,4.5c2.5-1.9,5.9-2.8,9.2-2.1
		c0.6,0.1,1.2,0.3,1.8,0.5c1-1.7,2.3-3.1,3.9-4.1C68.6,27.7,66.4,25.8,63.7,25.2z M62.8,28.1c-0.1,0.5-0.6,0.9-1.2,0.8
		c-0.5-0.1-0.9-0.6-0.8-1.2c0.1-0.5,0.6-0.9,1.2-0.8C62.5,27,62.9,27.5,62.8,28.1z"/>
</g>
</svg>
