<?xml version="1.0" encoding="utf-8"?>
<!-- Generator: Adobe Illustrator 19.1.0, SVG Export Plug-In . SVG Version: 6.00 Build 0)  -->
<svg version="1.1" id="Layer_1" xmlns="http://www.w3.org/2000/svg" xmlns:xlink="http://www.w3.org/1999/xlink" x="0px" y="0px"
	 viewBox="0 0 200.3 150" style="enable-background:new 0 0 200.3 150;" xml:space="preserve">
<style type="text/css">
	.st0{clip-path:url(#SVGID_2_);}
	.st1{fill:#FFFFFF;}
</style>
<g>
	<g>
		<defs>
			<polygon id="SVGID_1_" points="66.2,29.5 84.8,24.5 114.9,24.3 135.2,30.4 189,94.7 175.9,102.1 148.1,75.9 136.2,63.9 
				135.2,124.8 63.6,125.3 63.6,68.7 63.2,63.7 38.8,86.3 27.9,73.4 			"/>
		</defs>
		<clipPath id="SVGID_2_">
			<use xlink:href="#SVGID_1_"  style="overflow:visible;"/>
		</clipPath>
		<g class="st0">
			<g>
				<path class="st1" d="M73.9,61.8c1.5,1.4,3.8,1.2,5.2-0.3c1.4-1.5,1.2-3.8-0.3-5.2c-0.8-0.7-0.8-1.9-0.1-2.7
					c0.7-0.8,1.9-0.9,2.7-0.1l22.3,20.2c1.5,1.4,3.8,1.2,5.2-0.3c1.4-1.5,1.2-3.8-0.3-5.2L86.3,48.1c-3.8-3.4-9.6-3.1-13.1,0.7
					C69.9,52.5,70.2,58.4,73.9,61.8z M103.6,71.2l4.5-0.2c0,0.5-0.2,0.9-0.5,1.3c-0.7,0.8-1.9,0.8-2.7,0.1L103.6,71.2z M100.9,68.8
					l-2.7-2.5l5.5-0.3l2.7,2.5L100.9,68.8z M95.6,64l-2.7-2.5l5.5-0.3l2.7,2.5L95.6,64z M90.2,59.1l-2.7-2.5l5.5-0.3l2.7,2.5
					L90.2,59.1z M84.9,54.3l-2.3-2.1c-0.2-0.2-0.3-0.3-0.5-0.4l5.5-0.3l2.7,2.5L84.9,54.3z M77.7,57.6c0.6,0.5,0.8,1.3,0.5,2.1
					l-3.7,0.2c-0.7-0.8-1.2-1.6-1.5-2.5l4.2-0.2C77.4,57.3,77.5,57.5,77.7,57.6z M72.6,54.9c0-0.9,0.2-1.8,0.5-2.6l4.8-0.2
					c-0.2,0.1-0.4,0.3-0.5,0.5c-0.6,0.6-0.9,1.4-0.9,2.2L72.6,54.9z M74.8,49.7c2.7-2.8,7.2-3,10.2-0.5L74.8,49.7z"/>
			</g>
			<g>
				<path class="st1" d="M123.6,82.4c-1.3,1.6-1.1,3.9,0.5,5.1c1.6,1.3,3.9,1.1,5.2-0.5c0.7-0.8,1.9-0.9,2.7-0.3
					c0.8,0.7,0.9,1.9,0.3,2.7L113,112.7c-1.3,1.6-1.1,3.9,0.5,5.1c1.6,1.3,3.9,1.1,5.2-0.5l19.2-23.2c3.2-3.9,2.7-9.8-1.2-13
					C132.7,78,126.8,78.5,123.6,82.4z M115.5,112.4l0.4,4.5c-0.5,0-0.9-0.1-1.3-0.4c-0.8-0.7-0.9-1.9-0.3-2.7L115.5,112.4z
					 M117.7,109.7l2.4-2.8l0.5,5.4l-2.4,2.8L117.7,109.7z M122.3,104.2l2.4-2.8l0.5,5.4l-2.4,2.8L122.3,104.2z M126.9,98.6l2.4-2.8
					l0.5,5.4l-2.4,2.8L126.9,98.6z M131.5,93l2-2.4c0.1-0.2,0.3-0.4,0.4-0.5l0.5,5.5l-2.4,2.8L131.5,93z M127.9,86
					c-0.5,0.6-1.3,0.8-2,0.6l-0.3-3.7c0.7-0.7,1.6-1.2,2.5-1.6l0.4,4.2C128.2,85.7,128,85.8,127.9,86z M130.4,80.8
					c0.9,0,1.8,0.1,2.6,0.4l0.4,4.8c-0.1-0.2-0.3-0.3-0.5-0.5c-0.7-0.5-1.5-0.8-2.2-0.8L130.4,80.8z M135.7,82.8
					c2.9,2.6,3.3,7.1,0.9,10.2L135.7,82.8z"/>
			</g>
			<g>
				<path class="st1" d="M35.6,70.8c0.1,2,1.8,3.6,3.8,3.5c2-0.1,3.6-1.8,3.5-3.8c-0.1-1.1,0.8-2,1.8-2c1.1-0.1,2,0.8,2,1.8l1.6,30
					c0.1,2,1.8,3.6,3.8,3.5c2-0.1,3.6-1.8,3.5-3.8l-1.6-30c-0.3-5.1-4.6-9-9.7-8.7C39.3,61.4,35.3,65.7,35.6,70.8z M50,98.4l3.4,3.1
					c-0.3,0.3-0.8,0.5-1.3,0.6c-1.1,0.1-2-0.8-2-1.8L50,98.4z M49.8,94.8l-0.2-3.7l4,3.7l0.2,3.7L49.8,94.8z M49.4,87.6l-0.2-3.7
					l4,3.7l0.2,3.7L49.4,87.6z M49,80.4l-0.2-3.7l4,3.7l0.2,3.7L49,80.4z M48.6,73.2l-0.2-3.1c0-0.2,0-0.4-0.1-0.7l4.1,3.7l0.2,3.7
					L48.6,73.2z M41.2,70.5c0,0.8-0.4,1.5-1.1,1.8l-2.8-2.5c0.1-1,0.3-2,0.8-2.8l3.1,2.8C41.2,70,41.2,70.3,41.2,70.5z M39.6,65
					c0.6-0.6,1.4-1.1,2.2-1.5l3.6,3.2c-0.2,0-0.5,0-0.7,0c-0.9,0-1.6,0.4-2.2,0.9L39.6,65z M44.7,62.8c3.9,0,7.2,2.9,7.5,6.8
					L44.7,62.8z"/>
			</g>
			<g>
				<path class="st1" d="M172.5,73.2c-1.9-0.7-4,0.4-4.6,2.3c-0.7,1.9,0.4,4,2.3,4.7c1,0.3,1.5,1.4,1.2,2.4c-0.3,1-1.4,1.5-2.4,1.2
					L140.4,74c-1.9-0.7-4,0.4-4.6,2.3c-0.7,1.9,0.4,4,2.3,4.7l28.4,9.7c4.8,1.7,10.1-0.9,11.7-5.7C179.9,80.1,177.3,74.9,172.5,73.2
					z M141.5,76.2l-4.1,2c-0.2-0.4-0.2-0.9-0.1-1.4c0.3-1,1.4-1.5,2.4-1.2L141.5,76.2z M144.9,77.4l3.5,1.2l-4.9,2.4l-3.5-1.2
					L144.9,77.4z M151.7,79.7l3.5,1.2l-4.9,2.4l-3.5-1.2L151.7,79.7z M158.5,82.1l3.5,1.2l-4.9,2.4l-3.5-1.2L158.5,82.1z
					 M165.4,84.4l2.9,1c0.2,0.1,0.4,0.1,0.6,0.2l-5,2.4l-3.5-1.2L165.4,84.4z M170.7,78.5c-0.7-0.3-1.2-0.9-1.3-1.7l3.3-1.6
					c0.9,0.4,1.7,1,2.3,1.8l-3.8,1.8C171.1,78.7,170.9,78.6,170.7,78.5z M176.4,79c0.3,0.8,0.5,1.7,0.6,2.6l-4.3,2.1
					c0.1-0.2,0.2-0.4,0.3-0.6c0.3-0.8,0.3-1.6,0-2.4L176.4,79z M176.5,84.7c-1.4,3.6-5.4,5.6-9.2,4.5L176.5,84.7z"/>
			</g>
			<g>
				<path class="st1" d="M119.4,38.5c0.2,1.2,0.9,2.2,1.9,2.8c0.8,0.5,1.7,0.7,2.7,0.5c2.1-0.3,4.2-0.3,6.3,0.2
					c0.2,0.1,0.5,0.1,0.7,0.2l-0.1,0.2l-0.2,0.4c-0.1,0.1-0.1,0.3,0,0.5c0.1,0.1,0.2,0.2,0.4,0.2l1.7,0.1l1.7,0.1
					c0.4,0.2,0.7,0.4,1.1,0.7l0.9,1.5l0.9,1.5c0.1,0.1,0.2,0.2,0.4,0.2c0.2,0,0.3-0.1,0.4-0.2l0.2-0.4l0.1-0.2
					c0.2,0.2,0.4,0.4,0.6,0.6c1.4,1.6,2.5,3.4,3.2,5.4c0.3,0.9,0.9,1.6,1.7,2.1c1,0.6,2.2,0.7,3.3,0.3c2.1-0.7,3.2-3,2.4-5
					c-1.1-3.1-2.8-6-5.1-8.5l2-3.4l9.2-6.1c1-0.7,1.7-1.7,1.9-2.9c0.2-1.2,0-2.4-0.7-3.4c-0.4-0.6-0.9-1-1.5-1.4
					c-1.5-0.9-3.4-0.8-4.9,0.1l-1.8,1.2l-5,3.3l0.5-5.9l0.2-2.2c0.2-1.7-0.7-3.4-2.2-4.3c-0.6-0.3-1.2-0.6-1.9-0.6
					c-1.2-0.1-2.4,0.3-3.3,1c-0.9,0.8-1.5,1.9-1.6,3.1l-1,11l-2,3.4c-3.2-0.8-6.6-0.9-9.9-0.4c-1,0.2-2,0.7-2.6,1.6
					C119.5,36.4,119.2,37.5,119.4,38.5z M142.8,20.7l0,0.5l-5.5-0.6l0-0.4c0.1-0.7,0.4-1.4,1-1.9c0.6-0.5,1.3-0.7,2-0.6
					c0.4,0,0.8,0.2,1.2,0.4C142.4,18.6,142.9,19.6,142.8,20.7z M154.7,25.9c0.4,0.2,0.7,0.5,0.9,0.8c0.4,0.6,0.6,1.4,0.4,2.1
					c-0.1,0.7-0.6,1.4-1.2,1.8l-0.3,0.2l-3.1-4.6l0.4-0.3C152.6,25.4,153.7,25.3,154.7,25.9z M144.9,53.2c-0.4-0.2-0.7-0.6-0.9-1.1
					l3.9-1.9c0,0.1,0.1,0.3,0.2,0.4c0.4,1.1-0.2,2.4-1.3,2.7C146.1,53.6,145.4,53.5,144.9,53.2z M143.4,31.5l6.4-4.3l3.1,4.6l-7.5,5
					c-0.1,0.1-0.2,0.2-0.3,0.3l-2.5,4.1c-0.2,0.4-0.2,0.8,0.1,1.1c1.8,1.8,3.2,3.9,4.3,6.2l-3.9,1.9c-0.9-2-2.2-3.8-3.8-5.4
					c0,0,0,0,0,0l0.7-1.2c0.1-0.1,0.1-0.3,0-0.5c0-0.1-0.1-0.1-0.2-0.2c-0.1,0-0.1-0.1-0.2-0.1L137,43c-0.7-0.5-1.4-0.9-2.2-1.3
					l-1.4-2.4c0-0.1-0.1-0.1-0.2-0.2c-0.1,0-0.2-0.1-0.2-0.1c-0.2,0-0.3,0.1-0.4,0.2l-0.7,1.2c-2.1-0.6-4.3-0.9-6.5-0.7l-0.2-4.3
					c2.5-0.2,5.1,0.1,7.5,0.8c0.4,0.1,0.8-0.1,1-0.4l2.5-4.1c0.1-0.1,0.1-0.2,0.1-0.4l0.8-9l5.5,0.6l-0.7,7.7c0,0.3,0.1,0.7,0.4,0.9
					C142.7,31.7,143.1,31.7,143.4,31.5z M123,35.8c0.1,0,0.3,0,0.4-0.1l0.2,4.3c-0.5,0.1-1,0-1.4-0.3c-0.6-0.3-0.9-0.9-1-1.5
					c-0.1-0.6,0-1.1,0.4-1.6C121.9,36.2,122.4,35.8,123,35.8z"/>
				<path class="st1" d="M137.3,38.8c-0.2,0.1-0.4,0.2-0.6,0.4c-0.1,0.2-0.2,0.5-0.1,0.7c0.1,0.5,0.6,0.8,1.1,0.7
					c0.2-0.1,0.4-0.2,0.6-0.4c0.1-0.2,0.2-0.5,0.1-0.7c-0.1-0.2-0.2-0.4-0.4-0.6C137.8,38.8,137.6,38.8,137.3,38.8z"/>
				<path class="st1" d="M138.5,36.4c-0.3,0.4-0.1,1,0.3,1.3c0.4,0.3,1,0.1,1.3-0.3c0.3-0.4,0.1-1-0.3-1.3
					C139.3,35.8,138.7,35.9,138.5,36.4z"/>
				<path class="st1" d="M140.7,33.1c-0.2,0.1-0.4,0.2-0.6,0.4c-0.1,0.2-0.2,0.5-0.1,0.7c0.1,0.5,0.6,0.8,1.1,0.7
					c0.2-0.1,0.4-0.2,0.6-0.4c0.1-0.2,0.2-0.5,0.1-0.7c-0.1-0.2-0.2-0.4-0.4-0.6C141.2,33.1,140.9,33.1,140.7,33.1z"/>
				<path class="st1" d="M134.5,44.7c-3.9-2.3-9-1-11.3,2.9c-2.3,3.9-1,9,2.9,11.3c3.9,2.3,9,1,11.3-2.9
					C139.7,52.1,138.5,47,134.5,44.7z M127.1,57.3c-3-1.8-4.1-5.8-2.2-8.8c1.8-3,5.8-4.1,8.8-2.2c3,1.8,4.1,5.8,2.2,8.8
					C134.1,58.1,130.1,59.1,127.1,57.3z"/>
				<circle class="st1" cx="132.8" cy="53.4" r="1.1"/>
				<circle class="st1" cx="127.7" cy="50.4" r="1.1"/>
				<path class="st1" d="M133,47.2c-1.3-0.7-2.7-1-4.1-0.6c-0.5,0.1-0.8,0.6-0.6,1.1c0.1,0.5,0.6,0.8,1.1,0.6
					c0.9-0.2,1.9-0.1,2.8,0.4c0.8,0.5,1.4,1.3,1.7,2.2c0.1,0.5,0.6,0.8,1.1,0.7c0.5-0.1,0.8-0.6,0.7-1.1
					C135.2,49.2,134.3,48,133,47.2z"/>
			</g>
			<g>
				<path class="st1" d="M89,96c-0.4-1.1-1.2-2-2.3-2.5c-0.9-0.4-1.8-0.4-2.7-0.1c-2,0.6-4.1,0.9-6.2,0.7c-0.2,0-0.5,0-0.7-0.1
					l0.1-0.2l0.2-0.4c0.1-0.2,0-0.3-0.1-0.5c-0.1-0.1-0.3-0.2-0.4-0.2L75,93l-1.7,0.2c-0.4-0.1-0.8-0.3-1.2-0.5l-1.1-1.3L69.9,90
					c-0.1-0.1-0.3-0.2-0.4-0.2c-0.2,0-0.3,0.1-0.4,0.3L69,90.5l-0.1,0.2c-0.2-0.2-0.4-0.3-0.6-0.5c-1.6-1.4-3-3.1-3.9-4.9
					c-0.4-0.8-1.1-1.5-2-1.8c-1.1-0.4-2.3-0.4-3.3,0.1c-1.9,1-2.7,3.4-1.7,5.3c1.5,2.9,3.7,5.6,6.3,7.6l-1.5,3.6l-8.2,7.4
					c-0.9,0.8-1.4,1.9-1.5,3.2c-0.1,1.2,0.4,2.4,1.2,3.3c0.5,0.5,1,0.9,1.7,1.2c1.6,0.7,3.5,0.3,4.8-0.8l1.6-1.5l4.4-4l0.3,6
					l0.1,2.2c0.1,1.7,1.2,3.3,2.8,4c0.6,0.3,1.3,0.4,2,0.3c1.2-0.1,2.3-0.6,3.2-1.5c0.8-0.9,1.2-2.1,1.2-3.3l-0.6-11l1.5-3.6
					c3.3,0.3,6.7,0,9.8-1c1-0.3,1.8-1,2.3-2C89.2,98,89.3,97,89,96z M68.3,117l0-0.5l5.5-0.2l0,0.4c0,0.7-0.2,1.4-0.7,2
					c-0.5,0.6-1.2,0.9-1.9,0.9c-0.4,0-0.8,0-1.2-0.2C69.1,119,68.4,118,68.3,117z M55.9,113.6c-0.4-0.2-0.7-0.4-1-0.7
					c-0.5-0.5-0.7-1.3-0.7-2c0-0.7,0.4-1.4,0.9-1.9l0.3-0.3l3.8,4.1l-0.4,0.3C58,113.8,56.9,114,55.9,113.6z M61.7,85.1
					c0.5,0.2,0.8,0.5,1.1,0.9l-3.6,2.4c-0.1-0.1-0.1-0.2-0.2-0.4c-0.5-1.1-0.1-2.4,0.9-2.9C60.4,84.9,61.1,84.9,61.7,85.1z
					 M66.3,106.3l-5.8,5.2l-3.8-4.1l6.7-6c0.1-0.1,0.2-0.2,0.2-0.3l1.8-4.5c0.2-0.4,0-0.8-0.3-1.1c-2-1.5-3.8-3.4-5.2-5.6l3.6-2.4
					c1.2,1.8,2.7,3.5,4.5,4.8c0,0,0,0,0,0l-0.5,1.3c-0.1,0.2,0,0.3,0.1,0.5c0.1,0.1,0.1,0.1,0.2,0.2c0.1,0,0.1,0,0.2,0l2.7-0.3
					c0.8,0.4,1.5,0.7,2.3,1l1.8,2.1c0,0.1,0.1,0.1,0.2,0.1c0.1,0,0.2,0,0.2,0c0.2,0,0.3-0.1,0.4-0.3l0.5-1.3
					c2.2,0.3,4.4,0.2,6.5-0.2l0.8,4.2c-2.5,0.5-5.1,0.6-7.6,0.3c-0.4-0.1-0.8,0.2-0.9,0.6l-1.8,4.5c-0.1,0.1-0.1,0.3-0.1,0.4l0.5,9
					l-5.5,0.2l-0.4-7.7c0-0.3-0.2-0.7-0.6-0.8C66.9,106,66.5,106.1,66.3,106.3z M85.8,99.2c-0.1,0-0.3,0.1-0.4,0.1l-0.8-4.2
					c0.5-0.1,1-0.1,1.4,0.1c0.6,0.2,1,0.7,1.2,1.3c0.2,0.5,0.1,1.1-0.1,1.6C86.8,98.7,86.4,99,85.8,99.2z"/>
				<path class="st1" d="M71.2,98.3c0.2-0.1,0.4-0.3,0.5-0.5c0.1-0.2,0.1-0.5,0-0.7c-0.2-0.4-0.8-0.7-1.2-0.5
					c-0.2,0.1-0.4,0.3-0.5,0.5c-0.1,0.2-0.1,0.5,0,0.7c0.1,0.2,0.3,0.4,0.5,0.5C70.7,98.4,71,98.4,71.2,98.3z"/>
				<path class="st1" d="M70.4,100.8c0.2-0.5,0-1-0.5-1.2c-0.5-0.2-1,0-1.2,0.5c-0.2,0.5,0,1,0.5,1.2
					C69.7,101.5,70.2,101.3,70.4,100.8z"/>
				<path class="st1" d="M68.7,104.4c0.2-0.1,0.4-0.3,0.5-0.5c0.1-0.2,0.1-0.5,0-0.7c-0.2-0.4-0.7-0.7-1.2-0.5
					c-0.2,0.1-0.4,0.3-0.5,0.5c-0.1,0.2-0.1,0.5,0,0.7c0.1,0.2,0.3,0.4,0.5,0.5C68.2,104.5,68.4,104.5,68.7,104.4z"/>
				<path class="st1" d="M73.1,92c4.2,1.7,9-0.3,10.7-4.5c1.7-4.2-0.3-9-4.5-10.7c-4.2-1.7-9,0.3-10.8,4.5
					C66.9,85.5,68.9,90.3,73.1,92z M78.7,78.5c3.3,1.3,4.8,5.1,3.5,8.4c-1.4,3.3-5.1,4.8-8.4,3.5c-3.3-1.4-4.8-5.1-3.5-8.4
					C71.6,78.7,75.4,77.1,78.7,78.5z"/>
				<circle class="st1" cx="73.6" cy="83.2" r="1.1"/>
				<circle class="st1" cx="79" cy="85.4" r="1.1"/>
				<path class="st1" d="M74.2,89.3c1.4,0.6,2.8,0.6,4.2,0c0.5-0.2,0.7-0.7,0.5-1.2c-0.2-0.5-0.7-0.7-1.2-0.5
					c-0.9,0.4-1.9,0.4-2.8,0c-0.9-0.4-1.6-1.1-2-2c-0.2-0.5-0.7-0.7-1.2-0.5c-0.5,0.2-0.7,0.7-0.5,1.2
					C71.8,87.7,72.9,88.8,74.2,89.3z"/>
			</g>
		</g>
	</g>
	<g>
		<path class="st1" d="M196.7,99.8l-61.8-71.7c-0.2-0.2-0.5-0.4-0.8-0.5l-20-6.4c-0.4-0.1-0.8-0.1-1.2,0c-8.6,2.4-17.4,2.4-26,0
			c-0.4-0.1-0.8-0.1-1.2,0l-20,6.4c-0.3,0.1-0.6,0.3-0.8,0.5L3,100.3c-0.9,0.8-0.9,2.1-0.2,3l8.8,9.9c0.7,0.8,1.8,1,2.7,0.5
			l47.9-46.5v58.6c0,1.2,1,2.2,2.2,2.2h70.9c1.2,0,2.2-1,2.2-2.2V67.2l47.8,46.4c0.9,0.5,2,0.3,2.7-0.5l8.9-10.3
			C197.6,101.9,197.6,100.6,196.7,99.8z M111.2,26.2c-0.8,5.5-5.5,9.8-11.3,9.8c-5.8,0-10.5-4.3-11.3-9.8
			C96.1,27.8,103.7,27.8,111.2,26.2z M185.9,109l-49.5-47.4c-0.7-0.4-1.5-0.4-2.2,0c-0.7,0.4-1.1,1.1-1.1,1.9v60.2H66.6V63.5
			c0-0.8-0.4-1.5-1.1-1.9c-0.7-0.4-1.5-0.4-2.2,0l-49.6,47.5l-6.3-7l60-70.5l16.8-5.4c0.8,7.9,7.5,14,15.6,14
			c8.1,0,14.8-6.2,15.6-14l16.8,5.4l59.9,69.9L185.9,109z"/>
	</g>
</g>
</svg>
