<?xml version="1.0" encoding="utf-8"?>
<!-- Generator: Adobe Illustrator 19.1.0, SVG Export Plug-In . SVG Version: 6.00 Build 0)  -->
<svg version="1.1" id="Layer_1" xmlns="http://www.w3.org/2000/svg" xmlns:xlink="http://www.w3.org/1999/xlink" x="0px" y="0px"
	 viewBox="0 0 150 150" style="enable-background:new 0 0 150 150;" xml:space="preserve">
<style type="text/css">
	.st0{fill:#FFFFFF;stroke:#FFFFFF;}
	.st1{fill:#FFFFFF;stroke:#FFFFFF;stroke-width:0.9786;}
</style>
<g>
	<path class="st0" d="M126.3,62.6c-0.2-0.5-0.8-1.1-1.3-1.1h-15.1c-0.8,0-1.4,1.2-1.4,2v13.2c0,0.8,0.6,1.7,1.4,1.7h17.6
		c0.8,0,1.1-0.9,1.1-1.7v-8c0-0.2,0.2-0.6,0.1-0.8L126.3,62.6z M125.5,75.5h-14v-11H124l1.5,4.6V75.5z"/>
	<path class="st1" d="M116.4,93.3c-4.9,0-8.9,4-8.9,8.9c0,4.9,4,8.9,8.9,8.9c4.9,0,8.9-4,8.9-8.9C125.3,97.3,121.3,93.3,116.4,93.3z
		 M116.4,108.2c-3.3,0-6-2.7-6-6s2.7-6,6-6c3.3,0,6,2.7,6,6S119.6,108.2,116.4,108.2z"/>
	<path class="st1" d="M34.8,93.3c-4.9,0-8.9,4-8.9,8.9c0,4.9,4,8.9,8.9,8.9c4.9,0,8.9-4,8.9-8.9C43.8,97.3,39.8,93.3,34.8,93.3z
		 M34.8,108.2c-3.3,0-6-2.7-6-6s2.7-6,6-6c3.3,0,6,2.7,6,6S38.1,108.2,34.8,108.2z"/>
	<path class="st0" d="M145.3,94.5h-4.8V77c0-0.2,0.1-0.5,0-0.7l-10-19.8c-0.3-0.5-0.7-1.1-1.2-1.1H99.7c-0.8,0-1.2,1.2-1.2,2v13
		h-3.4l0.4-1.7V45.4c0-0.8-1.1-0.9-1.9-0.9h-84c-0.8,0-1.1,0.1-1.1,0.9v49.1h-4c-0.8,0-2,0.2-2,1v6.4c0,0.8,1.2,1.6,2,1.6h5.1h5.9
		h4.3c0.6,8,7.1,14,15,14c7.9,0,14.5-6,15.1-14H85c0,0,0.1,0,0.1,0h16.2c0.6,8,7.1,14,15,14c7.9,0,14.5-6,15-14h2.9h5.1h5.9
		c0.8,0,1.2-0.8,1.2-1.6v-6.4C146.5,94.7,146.1,94.5,145.3,94.5z M14.5,100.5h-3.4H6.5v-4h8V100.5z M34.8,114.4
		c-6.7,0-12.1-5.4-12.1-12.1c0-6.7,5.4-12.1,12.1-12.1c6.7,0,12.1,5.4,12.1,12.1C47,108.9,41.5,114.4,34.8,114.4z M92.5,68.8
		l-0.4,31.7H49.8c-0.9-7-7.3-13.3-15-13.3c-7.7,0-14.1,6.3-15,13.3h-2.3v-5c0-0.8-1.2-1-2-1h-4v-47h81V68.8z M116.4,114.4
		c-6.7,0-12.1-5.4-12.1-12.1c0-6.7,5.4-12.1,12.1-12.1c6.7,0,12.1,5.4,12.1,12.1C128.5,108.9,123,114.4,116.4,114.4z M132.5,95.5v5
		h-1.2c-0.9-7-7.3-13.3-15-13.3c-7.7,0-14.1,6.3-15,13.3h0.1v-42h26.9l9.1,18.9v17.1h-3.2C133.5,94.5,132.5,94.7,132.5,95.5z
		 M143.5,100.5H138h-2.5v-4h8V100.5z"/>
</g>
</svg>
