<?xml version="1.0" encoding="utf-8"?>
<!-- Generator: Adobe Illustrator 19.1.0, SVG Export Plug-In . SVG Version: 6.00 Build 0)  -->
<svg version="1.1" id="Layer_1" xmlns="http://www.w3.org/2000/svg" xmlns:xlink="http://www.w3.org/1999/xlink" x="0px" y="0px"
	 viewBox="0 0 150 150" style="enable-background:new 0 0 150 150;" xml:space="preserve">
<style type="text/css">
	.st0{fill:#FFFFFF;}
</style>
<g>
	<path class="st0" d="M86.8,95.3c0.3-0.6,0.4-1.4,0.1-2L76.3,66c-0.3-0.7-0.8-1.2-1.5-1.4c-0.7-0.2-1.4-0.1-2,0.3L8.1,106
		c-1,0.6-1.4,1.8-0.9,2.9c0.4,1.1,1.5,1.7,2.6,1.5l75.4-13.9C85.9,96.3,86.5,95.9,86.8,95.3z M21,103.4l17.2-10.9l0.4,1.1
		c0.5,1.2,1.9,1.8,3.1,1.3c1.2-0.5,1.8-1.9,1.3-3.1l-0.8-2l5.9-3.7l1.3,3.2c0.5,1.2,1.9,1.8,3.1,1.3c1.2-0.5,1.8-1.9,1.3-3.1
		l-1.6-4.1l5.8-3.7l2.1,5.3c0.5,1.2,1.9,1.8,3.1,1.3c1.2-0.5,1.8-1.9,1.3-3.1l-2.4-6.2l10.8-6.9l8.6,21.9L21,103.4z"/>
	<path class="st0" d="M93.6,61.9c-3.1,0.8-5.5,3.9-7.1,9.3c-0.2,0.5-0.1,1.1,0.1,1.5c0.3,0.7,0.8,1.2,1.5,1.4c1.3,0.4,2.6-0.3,3-1.6
		c1.5-5.1,3.2-5.9,3.7-6c0.9-0.2,2.1,0.6,2.4,1c0.5,0.5,1.3,0.8,2,0.7c0.7-0.1,1.4-0.5,1.8-1.2c1.5-2.5,6.4-9.1,11.7-9.2
		c0.5,0,1.8,0,1.9,0.7c0.4,1.8-2.4,6.2-10.4,10.1L84,76.5c-1.2,0.5-1.8,1.9-1.3,3.1c0.5,1.2,1.9,1.8,3.1,1.3l4.4-1.7l11.7-4.6
		c0.3,0,0.5-0.1,0.8-0.2c1.2-0.5,2.3-1,3.3-1.5l7.2-2.8c13.9-5.4,22.9-3.7,24.7-0.8c0.8,1.2-0.5,2.7-1.4,3.4
		c-6.7,5.9-20.4,1.9-20.5,1.8c-0.7-0.2-1.5-0.1-2.1,0.4c-0.6,0.4-1,1.1-1,1.9c0,0-0.1,2.8-1.9,3.8c-1.1,0.6-3.8,1-9.8-2.6
		c-1.1-0.7-2.6-0.3-3.3,0.8c-0.2,0.3-0.3,0.7-0.3,1c-0.1,0.9,0.3,1.8,1.1,2.3c6.2,3.7,11.1,4.6,14.6,2.6c2.2-1.2,3.3-3.3,3.8-5
		c4.9,1.1,15.8,2.5,22.5-3.5c3.3-2.9,4.1-6.5,2.3-9.5c-2.7-4.4-11.3-6.9-24.3-3.2c1.4-2.2,1.8-4.3,1.5-6c-0.4-2.2-2.4-4.6-6.7-4.5
		c-6.7,0.1-11.9,6.1-14.3,9.4C97,61.9,95.4,61.5,93.6,61.9z"/>
</g>
</svg>
