<?xml version="1.0" encoding="utf-8"?>
<!-- Generator: Adobe Illustrator 19.1.0, SVG Export Plug-In . SVG Version: 6.00 Build 0)  -->
<svg version="1.1" id="Layer_1" xmlns="http://www.w3.org/2000/svg" xmlns:xlink="http://www.w3.org/1999/xlink" x="0px" y="0px"
	 viewBox="0 0 150 150" style="enable-background:new 0 0 150 150;" xml:space="preserve">
<style type="text/css">
	.st0{fill:#FFFFFF;}
</style>
<g>
	<path class="st0" d="M121.6,36c0.6-2.7,0.4-5.4-0.9-8c-2-4.4-6.2-6.9-11.4-6.9c-9.2,0-22.3,8.3-25.9,26.6c-2.2-2.2-5.1-3.5-8.4-3.5
		c-3.3,0-6.2,1.3-8.4,3.5c-3.6-18.3-16.7-26.6-25.9-26.6c-5.2,0-9.4,2.5-11.4,6.9c-1.2,2.6-1.5,5.3-0.9,8c-4.9,2.3-7.8,6.6-7.6,11.6
		c0.1,3.6,1.7,6.7,4.5,9v19.3c0,1.2,1,2.2,2.2,2.2h3.7v48.5c0,1.2,1,2.2,2.2,2.2h31.3h20H116c1.2,0,2.2-1,2.2-2.2V78.1h3.7
		c1.2,0,2.2-1,2.2-2.2V57.2c3.2-2.4,5-5.6,5.2-9.6C129.4,42.7,126.5,38.4,121.6,36z M33.2,29.9c1.3-2.8,4-4.4,7.5-4.4
		c7.1,0,17.5,6.8,21.2,21.1C55,38.8,46.1,34.2,37.1,34.2c-1.6,0-3.2,0.2-4.6,0.5C32.2,33.1,32.4,31.5,33.2,29.9z M61.4,53.1h-0.9
		c-7.9-1.2-21.2-7.1-26.2-14.3c0.9-0.1,1.8-0.2,2.8-0.2C46.1,38.6,54.9,43.9,61.4,53.1z M25.1,47.5c-0.1-3.2,1.6-5.8,4.9-7.4
		c4.7,7.9,16.9,14.1,26.1,16.5c-3.2,0.7-7.1,1.1-11.2,1.1C40.4,57.7,25.5,57,25.1,47.5z M62.5,124.5h-27V78.1h27V124.5z M62.5,73.7
		H33.3h-3.7V59.3c4,1.8,9.2,2.7,15.4,2.7c6.6,0,13.1-1.1,17.5-2.8V73.7z M75,48.7c3,0,5.7,1.8,6.9,4.4H68.1
		C69.3,50.5,72,48.7,75,48.7z M82.5,124.5H66.8v-67h15.7V124.5z M109.3,25.5c3.5,0,6.2,1.6,7.5,4.4c0.7,1.6,1,3.1,0.7,4.7
		c-1.5-0.3-3-0.5-4.6-0.5c-9,0-17.8,4.5-24.8,12.5C91.8,32.3,102.2,25.5,109.3,25.5z M115.7,38.8c-5,7.3-18.3,13.1-26.2,14.3h-0.9
		c9.3-13.4,20.8-14.5,24.3-14.5C113.9,38.6,114.8,38.6,115.7,38.8z M113.8,124.5h-27V78.1h27V124.5z M119.7,73.7H116H86.8V59
		c4.4,1.9,11.3,3.1,18.2,3.1c0,0,0,0,0,0c5.9,0,10.8-0.9,14.7-2.4V73.7z M105,57.7L105,57.7c-4,0-7.9-0.5-11.2-1.1
		c9.2-2.4,21.5-8.6,26.2-16.5c3.2,1.6,5,4.2,4.9,7.4C124.5,57,109.6,57.7,105,57.7z"/>
</g>
</svg>
