<?xml version="1.0" encoding="utf-8"?>
<!-- Generator: Adobe Illustrator 19.1.0, SVG Export Plug-In . SVG Version: 6.00 Build 0)  -->
<svg version="1.1" id="Layer_1" xmlns="http://www.w3.org/2000/svg" xmlns:xlink="http://www.w3.org/1999/xlink" x="0px" y="0px"
	 viewBox="-25 0 200 150" style="enable-background:new -25 0 200 150;" xml:space="preserve">
<style type="text/css">
	.st0{fill:#FFFFFF;}
</style>
<path class="st0" d="M121,46.4H69.9V35.7h10.9c2.4,0,4.2-1.9,4.2-4.2c0-2.4-1.9-4.2-4.2-4.2H61.4v19.2h-31
	c-13.5,0-24.4,11-24.4,24.4v44.7h139.3l0.2-44.7C145.5,57.4,134.5,46.4,121,46.4z M11.5,109.7l0.1-38.9c0-10.3,8.4-18.6,18.6-18.6
	h0.8c10.3,0,18.6,8.4,18.6,18.6v38.9H11.5z M65.6,69.9c2.4,0,4.2-1.9,4.2-4.2V52.1H121c10.3,0,18.6,8.4,18.6,18.6l-0.1,38.9H55.6
	V70.8c0-7.2-3.3-14.1-8.7-18.6h14.5v13.6C61.4,68.1,63.2,69.9,65.6,69.9z"/>
</svg>
