<?xml version="1.0" encoding="utf-8"?>
<!-- Generator: Adobe Illustrator 19.1.0, SVG Export Plug-In . SVG Version: 6.00 Build 0)  -->
<svg version="1.1" id="Layer_1" xmlns="http://www.w3.org/2000/svg" xmlns:xlink="http://www.w3.org/1999/xlink" x="0px" y="0px"
	 viewBox="-25 0 200 150" style="enable-background:new -25 0 200 150;" xml:space="preserve">
<style type="text/css">
	.st0{fill:#FFFFFF;}
</style>
<path class="st0" d="M163.8,36.5l-0.1-0.3c-0.1-0.4-0.2-0.8-0.4-1.2c-0.1-0.2-0.1-0.4-0.2-0.6l-0.2-0.5c-0.4-0.8-0.9-1.5-1.7-2
	c-0.1-0.1-0.2-0.2-0.3-0.4l-0.1-0.1c-0.3-0.4-0.6-0.7-1-0.9l-0.9-2.9c-0.3-1-1-1.9-1.9-2.5l-1.2-0.8c-0.5-0.3-1.1-0.6-1.8-0.7
	l-0.3,0c-0.3,0-0.7-0.1-1,0l-0.3,0c-0.4,0-0.8,0.1-1.2,0.2c-0.8-0.1-1.6,0-2.4,0.3l-0.5,0.2c-1.3,0.5-2.2,1.6-2.6,2.9l-1,3.4
	c-0.1,0.3-0.1,0.6-0.2,0.8l-0.1,0.5c0,0.2,0,0.3,0,0.5c-0.2,0.7-0.3,1.4-0.1,2.1c-0.1,0.1-0.2,0.1-0.3,0.2c-0.4,0.3-0.8,0.6-1.1,1.1
	l-5.3,1.3c-0.5,0-1,0.1-1.4,0.2l-0.2,0.1c-0.3,0.1-0.6,0.2-0.9,0.4l-0.3,0.2c-0.4,0.2-0.7,0.5-1,0.8l-0.9,0.9
	c-0.2,0.2-0.3,0.3-0.4,0.5l-0.9,1.3c0,0-0.1,0.1-0.1,0.1l-0.2,0.2c-0.2,0.3-0.4,0.6-0.5,1l-0.1,0.1c-0.4,0.4-0.7,0.8-0.9,1.3
	l-0.1,0.2c-0.2,0.4-0.3,0.8-0.4,1.2l-0.6,0.1c-0.2,0-0.3,0-0.5,0.1l-0.8,0.2c-0.3,0.1-0.5,0.1-0.8,0.2l-0.9,0.4
	c-0.3,0.1-0.6,0.3-0.9,0.5l-0.4,0.3c-0.8,0.5-1.4,1.3-1.7,2.2l-0.2,0.5c-0.2,0.5-0.3,1-0.3,1.6v0.3c0,0.1,0,0.1,0,0.2
	c-0.3,0.1-0.5,0.3-0.8,0.5c0-0.1-0.1-0.2-0.1-0.3l-0.1-0.4c0-0.4-0.1-0.7-0.3-1l-0.9-2.3c-0.4-1-1.1-1.8-2-2.3v0
	c0.1-0.9-0.1-1.7-0.6-2.5l-0.4-0.7c-0.1-0.1-0.1-0.2-0.2-0.3c0-0.2,0-0.5,0-0.7l0-0.2c-0.1-1-0.6-2-1.3-2.8l-0.2-0.2
	c-0.6-0.6-1.4-1-2.2-1.2c-0.2-0.1-0.3-0.3-0.5-0.4l-0.4-0.2c-0.4-0.2-0.8-0.4-1.2-0.5c-1.1-1.1-2.8-1.6-4.3-1.2l-0.3,0.1
	c-0.4,0.1-0.8,0.3-1.2,0.5l-0.1,0.1l-0.8,0.2c-0.1-0.3-0.2-0.5-0.4-0.7l-0.1-0.1c-0.5-0.8-1.3-1.4-2.2-1.8l-0.2-0.1
	c-0.8-0.3-1.6-0.4-2.4-0.2l-0.2,0c-0.9-1.2-2.2-1.9-3.7-1.9l-0.2,0c-0.2-0.1-0.4-0.1-0.5-0.1l-0.3-0.1c-0.3-0.1-0.6-0.1-0.9-0.1
	l-0.1,0c-1-0.4-2.1-0.5-3.2-0.2c-0.1-0.1-0.3-0.1-0.4-0.2l-0.2-0.1c-0.6-0.5-1.4-0.8-2.2-0.9l-0.3-0.1c-0.5-0.2-1.1-0.2-1.6-0.2
	l-0.4,0c-0.5-1.1-1.4-1.9-2.4-2.4L82.1,27c-0.6-0.2-1.1-0.3-1.7-0.3h-0.4c-1.3,0-2.5,0.5-3.4,1.5l-2.1,0l-8.9-0.2l-9.1-0.6L43.9,26
	l-16.1-2.7L25,22.8l-2-0.5c-0.2-0.1-0.5-0.1-0.7-0.2L16,20.6l-3.9-1l-4.2-1.1c-1.4-0.4-3-0.1-4.1,0.9c-0.2,0.1-0.3,0.3-0.4,0.4
	c-1.2-0.7-2.8-0.9-4.1-0.3c-1.5,0.6-2.5,1.9-2.8,3.4l0,0.3l0,0.1c-0.1,0.4-0.2,0.8-0.2,1.2l0,0.8c0,0.5,0.1,1,0.2,1.6l0,0.1l0,0.4
	c0,0.2,0,0.5,0,0.7l0,0.2c0,0.2-0.1,0.5-0.1,0.7l0,0c0,0.2-0.1,0.4-0.1,0.6C-4,29.8-4,30.2-4.1,30.6l-0.1,0.2
	c-0.2,0.6-0.2,1.1-0.2,1.7c0,0.1-0.1,0.1-0.1,0.2l-0.5,1.7l-0.3,0.9l-0.3,0.6c-0.1,0.3-0.3,0.5-0.3,0.8l-0.6,1.8L-7,39.4
	c-0.1,0.1-0.1,0.2-0.1,0.3L-7.3,40c-0.6,0.6-1.1,1.3-1.3,2c-0.1,0.1-0.1,0.2-0.2,0.3L-9,42.6c-0.6,0.9-0.9,2-0.8,3l0,0.2
	c-0.1,0.2-0.1,0.4-0.1,0.5c-0.2,0.7-0.3,1.5-0.2,2.2c-0.1,0.4-0.1,0.9-0.1,1.4c-0.1,0.2-0.2,0.4-0.2,0.6l-0.3,0.3
	c-0.2,0.2-0.4,0.4-0.5,0.7l-0.4,0.7c-0.4,0.7-0.7,1.5-0.7,2.2c-0.1,0.4-0.1,0.8,0,1.2l0.1,0.5c0,0.4,0.1,0.7,0.2,1.1l0.1,0.4
	c0.1,0.2,0.2,0.4,0.3,0.6l-0.2,0.5c-0.1,0.5-0.2,0.9-0.2,1.4c-0.2,0.8-0.1,1.7,0.2,2.5l0.5,1.2c0.1,0.2,0.2,0.4,0.3,0.6l0.2,0.4
	c-0.1,0.7,0,1.5,0.2,2.2c0.2,0.4,0.4,0.8,0.7,1.2l0,1c0,0.6,0.1,1.2,0.3,1.7l0.2,0.5c0,0.1,0.1,0.3,0.2,0.4l0,1c0,1,0.2,2,0.8,2.8
	l0.2,0.4l0,0c0.1,0.6,0.3,1.1,0.6,1.6l0.6,1l0,0.2c0,0.2,0.1,0.4,0.1,0.6c-0.1,0.3-0.1,0.6-0.1,0.8l0,0.3c-0.1,1.4,0.4,2.8,1.5,3.7
	l0.4,0.4c0.2,0.2,0.4,0.3,0.6,0.5l0.6,0.4c0.6,0.4,1.2,0.6,1.9,0.7l0.1,0c0.2,0.3,0.5,0.6,0.8,0.9l0.6,0.5c0.2,0.2,0.4,0.3,0.6,0.4
	c0.1,0.2,0.3,0.4,0.5,0.6l0.3,0.3C0.9,89.4,1.4,89.7,2,90c0,0,0,0,0,0c0,0.5,0,1,0.1,1.4c0,0.1,0,0.3,0.1,0.4l0.1,0.4
	c0.1,0.5,0.3,1,0.6,1.5l0.1,0.1c0.7,1.2,2,2.1,3.5,2.2l4.9,0.5c0.3,0.2,0.5,0.5,0.9,0.6l11.7,6.8c0.5,0.3,1,0.5,1.6,0.6l6.9,1.1
	c0.6,0.1,1.1,0.1,1.6,0l5.8-0.5c0.2,0.1,0.3,0.3,0.5,0.4l0.1,0.1l1.5,1.7c0.2,0.2,0.4,0.4,0.6,0.6l0.4,0.3c0,0,0,0.1,0.1,0.1
	c0,0.4,0,0.8,0.1,1.2l0.1,0.4c0.1,0.5,0.3,0.9,0.6,1.4l0.6,0.9c0.3,0.5,0.7,0.9,1.2,1.2l2.3,1.7c0.1,0.1,0.2,0.1,0.3,0.2l1.6,1
	c0.5,0.3,1.1,0.5,1.7,0.6l0.5,0.1c0.9,0.1,1.9,0,2.7-0.4l0.3-0.1c0.6-0.3,1.2-0.8,1.6-1.3c0.2-0.1,0.3-0.3,0.5-0.5
	c0.1,0.1,0.2,0.2,0.3,0.3l0.9,2.1l0.1,0.4c0.2,0.5,0.5,1,0.8,1.4l0.6,0.7c0.2,0.4,0.4,0.7,0.7,1l0.2,0.3c0.1,0.3,0.2,0.6,0.3,0.9
	c0.1,0.8,0.4,1.6,0.9,2.3l0.3,0.5c0.4,1.7,1.7,3,3.4,3.4c0.3,0.1,0.5,0.3,0.8,0.4l0.2,0.1l0.6,0.4c0.6,0.4,1.4,0.6,2.1,0.7l0.6,0
	c0.2,0.1,0.3,0.2,0.5,0.3l0.4,0.2c0.6,0.3,1.3,0.4,2,0.4c0.9,0,1.8-0.3,2.6-0.8c0.5-0.2,1-0.6,1.5-1l0.1-0.1c0.8-0.9,1.3-2,1.3-3.2
	v-0.2c0-1.1-0.4-2.1-1.1-3l-0.1-0.3c0.1-0.2,0.1-0.4,0.1-0.5c0-0.1,0.1-0.2,0.1-0.3l0.1-0.3c0.2-0.2,0.4-0.5,0.6-0.7
	c0.1,0,0.1-0.1,0.1-0.1c0.1,0,0.2-0.1,0.3-0.1l0.1-0.1c0.4-0.2,0.8-0.5,1.2-0.8l0.4-0.1c0.4-0.1,0.8-0.3,1.2-0.6l2-1.3
	c0.6-0.4,1.1-0.9,1.4-1.5c0.1,0,0.1-0.1,0.2-0.1l0.8-0.3l0.1,0c0.5,0,0.9-0.1,1.3-0.3l0.2,0c0.2,0.1,0.5,0.2,0.8,0.2l1.8,0.3
	c0.3,0.1,0.7,0.1,1,0.1l1-0.1c0.1,0,0.2,0,0.2,0c0.6,0.6,1.4,1,2.2,1.2c0.7,0.3,1.3,0.4,2.1,0.4l0.5,0c0.3,0,0.5,0,0.8-0.1
	c0.5,0.1,1.1,0.1,1.7,0c1.2,0.6,2.6,0.6,3.8,0.1l0.5-0.2c1.3-0.4,2.4-1.3,3-2.5l0.1-0.3c0.3-0.7,0.4-1.4,0.4-2.2c0,0,0,0,0.1,0
	l0.3,0c0.4,0,0.9-0.1,1.3-0.3c0.1,0,0.2,0,0.3-0.1l0.5-0.2c0.2-0.1,0.4-0.1,0.5-0.2c0.1,0,0.2,0,0.2-0.1c0.2,0,0.4-0.1,0.5-0.1
	l0.1,0c0.5,0.9,1.3,1.6,2.2,2l0.2,0.1c1,0.4,2.1,0.5,3.1,0.2l1.2-0.4c0.2-0.1,0.5-0.2,0.7-0.3c0.4-0.1,0.7-0.3,1-0.5
	c0,0,0.1,0.1,0.1,0.1l0.2,0.1c0.2,0.2,0.4,0.4,0.6,0.6l0.1,0.1c-0.1,0.3-0.1,0.6-0.1,0.9l0,0.8c0,0.6,0.1,1.1,0.4,1.6l0.1,0.3
	c0.2,0.4,0.4,0.8,0.7,1.2c0.2,0.6,0.6,1.2,1,1.6l0.2,0.5c0.4,0.8,1,1.5,1.7,2l0.3,0.2c0.2,0.4,0.6,0.8,0.9,1.1l0.1,0.2
	c0.4,1,1.1,1.9,2,2.4l0.2,0.1c0.2,0.1,0.3,0.2,0.5,0.2c0.2,0.4,0.4,0.8,0.7,1.1l0.1,0.2c0.7,0.8,1.6,1.3,2.6,1.5l0.5,0.1
	c0.9,0.2,1.9,0.1,2.7-0.2c0.2,0,0.4-0.1,0.6-0.2l1.4-0.5c1-0.4,1.9-1.1,2.4-2.1l0.3-0.6c0.2-0.4,0.4-0.8,0.5-1.3l0-0.1
	c0-0.2,0.1-0.5,0.1-0.7c0.4-1,0.6-2,0.3-3.1l-0.1-0.5c0-0.2,0-0.5,0-0.7l-0.1-1.3c0-0.3-0.1-0.6-0.1-0.9l-0.3-1
	c-0.1-0.3-0.2-0.7-0.4-1l-0.2-0.4c-0.1-0.2-0.2-0.4-0.4-0.6L138,113l-0.4-0.9c-0.1-0.3-0.3-0.6-0.4-0.8v-0.1c0-1-0.3-1.9-0.9-2.7
	l-1-1.3c-0.2-0.2-0.4-0.4-0.6-0.6l-0.6-0.6c-0.1-0.1-0.2-0.1-0.2-0.2l-0.2-0.3l-0.4-0.8l-0.1-0.3c-0.1-0.2-0.1-0.5-0.2-0.7l-0.3-0.6
	c-0.1-0.4-0.3-0.9-0.5-1.3c0-0.1-0.1-0.3-0.1-0.4l0.2-0.6c0.1-0.2,0.1-0.4,0.2-0.6c0.4-0.5,0.7-1,0.9-1.7l0.1-0.2
	c0-0.1,0-0.2,0.1-0.2c0,0,0-0.1,0-0.1l0.2-0.2c0.1-0.1,0.1-0.1,0.2-0.2l0.1-0.1c0.1-0.1,0.2-0.2,0.4-0.3l0.3-0.3
	c0.2-0.2,0.4-0.4,0.5-0.6c0.4-0.3,0.8-0.7,1.1-1.1c0.5-0.4,0.9-0.9,1.2-1.4c0.3-0.5,0.6-1.1,0.7-1.7c0.2-0.1,0.4-0.1,0.5-0.2
	l0.3-0.2c0.8-0.4,1.4-0.9,1.9-1.6l0.2-0.2c0.3-0.5,0.6-1.1,0.7-1.7c0.1,0,0.1-0.1,0.2-0.1c0.1-0.1,0.3-0.2,0.4-0.4
	c0.8-0.3,1.6-0.7,2.1-1.4l0.5-0.6c0.3-0.3,0.5-0.7,0.7-1l0.2-0.5c0.2-0.5,0.4-1.1,0.4-1.7c0.8-0.9,1.2-2,1.2-3.1v-0.1
	c0-0.4,0-0.7-0.1-1.1l0-0.1c0-0.6-0.2-1.1-0.4-1.6l-0.2-0.4c0-0.1-0.1-0.2-0.1-0.2c0-0.2-0.1-0.4-0.2-0.5l-0.2-0.4
	c-0.1-0.2-0.2-0.5-0.3-0.7c0-0.1-0.1-0.2-0.1-0.3l-0.4-1.1c0,0,0-0.1,0-0.1c0.7-0.7,1.2-1.5,1.4-2.5c0-0.1,0.1-0.3,0.1-0.5l0.3-1.3
	c0.1-0.5,0.1-1.1,0-1.6c0.1-0.3,0.2-0.6,0.3-0.9c0.1-0.1,0.1-0.2,0.1-0.3L148,66c0.2-0.3,0.4-0.7,0.6-1.1l0.3-0.7
	c0.3-0.7,0.4-1.5,0.4-2.2l0-0.2l0,0c0.1-0.1,0.1-0.1,0.2-0.2l1.5-1c0.1,0,0.1-0.1,0.2-0.1c0.3-0.2,0.6-0.4,0.9-0.6l0.1-0.1
	c0.8-0.5,1.4-1.2,1.8-2.1l0.2-0.4c0.1-0.1,0.3-0.2,0.4-0.3c0.5-0.1,1-0.4,1.4-0.6c0.3-0.1,0.6-0.2,0.9-0.3c1.5-0.7,2.6-2.2,2.7-3.8
	l0-0.4c0.1-0.7-0.1-1.4-0.3-2.1l-0.3-0.7c-0.1-0.3-0.3-0.6-0.5-0.9l-0.5-0.7c-0.3-0.5-0.8-0.9-1.3-1.2c0.1-0.1,0.2-0.2,0.3-0.2
	l0.3-0.3c0.3-0.2,0.6-0.5,0.9-0.9l0.1-0.1c0.2-0.2,0.4-0.5,0.5-0.8c1-0.3,1.9-1,2.5-1.9l0.5-0.4l0.2-0.1c0.7-0.5,1.3-1.1,1.7-2
	l0.2-0.3C163.9,38.4,164,37.5,163.8,36.5z M153.7,51.9l-0.2,0.1l-0.4,0.4l-0.2-0.5L153.7,51.9z M154.2,41.1l0.1,0.4l-0.1,0.4L154,42
	l-0.3,0l-0.2,0.3v0.3l-0.1,0.1l-0.7,0.1l-0.1,0.3l-0.3-0.2l-1,1l0.2,0.7l0,0l-0.2,0.2l-0.2,0.8l-0.2,0.5l-0.1,0.9l-0.1,0.2l0,0.4
	l0,0.3l0.2,0.6l0.4,0.3l0,0l-0.1,0.1l-0.2,0.4l-0.2,0.6l0.1,0.5h0.6l0.3,0.2l0.6,0.6l0.2,0.4l0.3,0.4h-0.3l-0.3,0.6l-0.4,0.4
	l-0.1,0.1l-0.3,0l-0.2,0.2h0v-0.4l-0.3-0.4l-0.5,0.5v0.5l0.1,0.2v0.1l-0.2,0.2l-0.5,0.3l-0.1,0l-0.4,0.1l-0.9,0.4l-0.3-0.1l-0.2,0.2
	l0,0.1l-0.4,0.1l-0.6,0.3l-0.2-0.2l-0.6,0.7l-1,0.9l-0.4,0.2l-0.3,0.3l-0.2,0.5l0.1,0.5l0.5,0.3l0.4-0.6l2.2-1.1l0.5-0.3l0.2,0.3
	l-1.5,1l-0.3,0.3l-0.7,0.3l-0.6,0.1l-0.2,0.2l-0.4,0l-0.4-0.1l-0.5,0.5l-0.1,0.3l0.2,0.2l0.3,0.1l0.2-0.1l0.3-0.1l0.1,0.1l0.1,1
	l0.1,1.3l0,0.2l-0.3,0.9l-0.4,0.6l-0.2,0.5l-0.3,0.6l-0.1,0.5l-0.1,0.2l0-0.6l-0.4-0.1l-0.5-0.1l-0.9-0.4l-0.4-0.5l-0.3-0.6
	l-0.3,0.1l-0.1,0.1l-0.1,0.1l0,0.3l0.1,0.4l0.4,0.4l0.6,1.1l0.2,0.3l0.2,0.3l0.6,0.4l0.3,0.3l0.2,0.5l0.1,0.5l-0.2,1.3l-0.1,0.3
	l-1,0.3l-0.2,0.2l-0.2,0l-0.1-0.1l0-0.1l-0.2-0.4l0.1-0.4l-0.3-0.1l-0.4,0l-0.2,0.2l-0.4-0.2l-0.1-0.3l0-0.2l-0.1-0.2l0.1-0.3
	l-0.2-0.3l-0.2-0.1l0.2-0.1l0.1-0.3l-0.2-1l-0.3-0.1l-0.1-0.1l0.1-0.2l0.2-0.3l0.5-0.9l-0.3-0.4l-0.6,0l-0.2,0.7l-0.1,0.1l-0.6,0.4
	l-0.1,0.3l-0.1,0.1l-0.1,0.3l0,0.3l0.1,0.1l0,0.1l-0.1,0.7l0.1,0.5l0.3,1l0.3,0.5l0.1,0l-0.1,0.2l0.2,0.3l0.3,0.1l0.1,0.1l-0.5-0.2
	l-0.6,0l-0.7,0.1l0.1,0.5l0.2,0.1l0.2,0.2l0.3,0.1l0.2-0.1l0.7,0.4l0.4,0.1l0.1,0.2l-0.2,0.2l0.1,0.5l-0.1,0.1l-0.1,0.1v0.3l0.6,0.3
	l0.1,0.2l-0.4-0.1l-0.2,0.5l0.1,0.1l-0.1,0L139,74l0.3,0.3l0.4,0l0.2,0.1l-0.1,0.1l-0.8-0.2v0.7l0.4,0.2l0.4,0.3l0.5-0.1l0.4-0.3
	l0.3,0l0.3,0l0.3,0.9l-0.1,0.1h-0.3l0.1,0.4l0.2,0.4l0.3,0.2l0.1,0l0.2,0.2l0,0.1l-0.2,0l-0.2-0.1l-0.5,0.2l0.2,0.2l-0.6,0.2
	l-0.5,0.5l-0.5,0.1l-0.1,0.4l0,0.4l0.3,0.1l0.2,0l0.5-0.3l0.5-0.1l0.3-0.2l0.2,0l0,0.2l0.1,0.2l0.3,0.3l0.4-0.2l0.1-0.2l0.2-0.2
	l0.1,0.2l0,0.6l0.1,0.2l-0.4,0.3l-0.2,0.4l-0.2,0.2l-0.4,0.2l-0.4,0l-0.2-0.1v-0.1l-0.2-0.2l-0.3-0.1l-0.3,0.2l0.1,0.5l0,0.1
	l0.1,0.1l-0.2,0.2l0.2,0.3l0.2,0l0,0.1l-0.1,0.3l0.1,0.1l-0.4,0.5l0,0l-0.3-0.1l-0.5,0l-0.2,0.4l0.5,0.4l0.8-0.1l0.5-0.1l0.6-0.3
	l-0.1,0.2l-0.4,0.5l-0.5,0.1l-0.3,0.1l-0.7,0.1l-0.5,0.9l-0.3,0.1V85l-0.5,0.3l-0.4,0.6l-0.4,0.8l-0.2,0.9l-0.1,0.1l-0.2,0.1
	l-1.3,0.2l-0.7,0.5l-0.3,0.5l-0.4,0.5l-0.5,1.2l0,0.5l0,0.3l-0.1,0.2l-0.2,0l-0.5,0.5l-0.2,0.4l-0.1,0.2l-0.5,0.3l-0.4,0.5l-0.2,0.2
	l-0.4,0.3l-0.4,0.4l-0.2,0.1l-0.3,0.1l-0.2,0.3l0,0.1l-0.1,0.3l-0.2,0.2l-0.2,0l-0.2,0.1l-0.1,0.3l0.2,0.2l-0.3,0.3l-0.2,0.4l0,0.1
	l0,0.2l0.1,0l-0.2,0.2l-0.4,0.7l-0.2,0.6l-0.1,0.6l-0.5,1.4l-0.1,0.4v0.5l0.1,0.4l0.1,0.7l0.1,0.3l0.1,1l0.3,0.2v0.1l0.5,1.3
	l0.2,0.9l0.9,1.6l0.6,0.8l0.1,0.2l0.4,0.2l0.6,0.5l0.9,1.3l-0.3,0.4l0,0.3l0.3,0.6l0,0.2l0,0.2l0.8,1l0.6,1.5l0.9,1.2l0.2,0.3l0.3,1
	l0.1,1.2l-0.1,0.8l0.3,1l-0.1,0l-0.4,0.9l0,0.5l0.2,0.7l-0.2,0.5l-1.2,0.5l-0.3,0l-0.2-0.5l-0.3-0.2l-0.2,0l-0.3-0.2l-1-1.2
	l-0.4-0.2l-0.9-0.2l-0.1,0l-0.6-1.7l-0.4-0.1l-0.3-0.2l-0.2-0.5l0-0.3l-0.2-0.7h-0.6l0,0.2l-0.5-0.3l-0.5-1.1l-0.5-0.6v-0.1l0.1-0.1
	l0.2-0.7l0.3-0.5l0.1-0.5l-0.4-0.3l-0.3,0.2l-0.2-0.4l-0.6,0.1l-0.1,0.3l0.2,0.6l-0.2-0.1l-0.1-0.2l0-0.7l0.2-1.1l0.1-1l-0.2-0.9
	l0.1-0.3l-0.3-0.2l-0.6-0.9l-0.8,0l-0.2-0.2l-0.1-0.3l-1-0.7l-0.3-0.5l-0.4-0.3l0-0.2l-1.8-0.9l-1.3,0.1L118,107l0,0.1h-0.4l-1,0.8
	l-0.5,0.1l-0.1,0.2l-0.7,0.2l0-0.2l-0.1-0.4l-0.8-0.6l0,0l-0.1-0.4l-0.6-0.2l-0.3-0.3l-0.4,0.3l-0.6-0.3l-0.7-0.3l-0.4-0.1l0-0.5
	h-0.5l-1.6,0.5l-0.1,0l0.1-0.3l-0.6-0.1l-0.1,0.1l-0.4-0.1l-0.3,0.8l-0.1,0.1l-0.2,0.1l0-0.3l-0.4,0.1l-0.4,0.4l-0.2,0l-0.2,0
	l-0.3-0.4L106,106l0-0.2l-0.6-1.1l-0.4,1.1l-0.1,0.9l0,0l-0.4-0.1l-0.5,0.3l-0.1,0l-0.2-0.2l-0.7,0.2l-0.4-0.1l-1.6,0.5l-0.7,0.5
	l-0.3,0l-0.8-0.2l-0.9-0.4L98,107l-0.4,0.2l-0.7,0.6l0,0.5l0.4,0.4l0.4,0.1l0.7-0.1l0.7-0.4l0.1,0l-0.2,0.2l0.2,0.5l0.7,0.3l0.3-0.3
	l0.3-0.5l0.6-0.3l0.2-0.1l-0.1,0.3l0.1,0.2l-0.2,0.2l-0.6,0.7l-0.6,0.4l0,0.5l0.2,0.4l0.8,0.5l1.1,0.5l0,0l0,0l-0.8,0.3l-0.1-0.6
	l-1.6-0.7l-0.1-0.3l-0.4-0.2l-0.5,0.3l-0.2,1l0.1,0.1l-0.3,0.2l-0.3-0.4l-0.3-0.1l-0.3,0.1l-0.1-0.1l-0.4,0.1l-0.5,0.5l-0.3,0
	l-0.1-0.1l-0.6-0.1l-0.8-1.1l-0.5-0.1l-0.4-0.2l-0.2-0.3l-0.1,0l0.1-0.3l-0.6-0.2l-0.1,0.1l-0.2,0l-0.1-0.3h-0.5l-0.9,0.8l0.2,0.2
	l-0.7,0l-1.8-0.3l-1.1-0.4l-2.8,0.4l0,0.1l-0.5,0L83,111l-0.1-0.1l-0.6,0.1l0.1-0.6h-0.4l-0.9,0.3l-0.1,0.7l0.4,0.5l-0.9,0.8
	l-0.1,0.5l-1.9,1.3l-1.2,0.4l-0.2-0.3l-0.5,0.2l-0.1,0.1l-0.9,0.3v0.5l0.4,0.2l-0.6,0.2l-0.2-0.1l-0.4,0.1l-0.2,0.3v0.5h-0.1
	l-0.3-0.2l-0.2,0.2l-0.3-0.1l-0.3,0.6l0.3,0.2l-0.1,0.3l-0.4,0.3l-0.4-0.3l-0.5,0.6l0.2,0.8l0.2,0l-0.2,0.7l-0.4,0.3l-0.2,0.1v0.3
	l0.1,0.2l0.1,0l0,0.2l-0.4,1.2l0.3,0.8l0.5,1.9l0.3,0.4l-0.1,0.2l0,0l-0.3,0.4l-0.2-0.1l-0.8-0.6l-1.9-0.2l-1.1-0.7l-0.8-0.3
	l-0.6-0.4l-0.5-0.1l0-0.3l-0.9-1.7l-0.2-0.2l-0.1-1l-0.2-0.3l0.1-0.8l-0.1-0.3l-0.4-0.4l-0.2-0.2l-0.7-0.8l-0.1-0.3l-1.2-1.4
	l-1.2-2.9l0-0.2l-0.4-0.7l-0.7-0.6L60,111l-0.4-0.3l-0.1-0.2l-0.1,0l-0.2-0.4l-0.9-0.5l-0.3,0.1l-0.5-0.1l-0.2-0.1l-0.9-0.1
	l-0.2-0.2l-0.5-0.2l-0.3,0.3l-0.1,0.2l-0.5-0.1l-0.4,0.2l-0.4,0.6l-0.7,1.5l-0.2,0.2l-0.4,0.5l-0.2,0.1l-0.3-0.1l-1.6-1l-2.3-1.7
	l-0.5-0.8l-0.1-0.3l0.1-1.3l-0.5-0.8l0-0.3l-0.1-0.4l-0.1-0.2l-1.6-1.3l-1.9-2.2l-0.6-0.4l-0.2-0.5l-0.2-0.5l-0.8-0.5l-8.8,0.7
	l-0.1,0l-6.7-1.1l-11.5-6.6l0.3-1L7,91.3l0-0.2L7,91l0.3-0.2l-0.3-0.3l-0.1-0.2l0-0.1l-0.1-1.3l-0.7-1.5L5.7,87l-0.3-0.6l-0.9-0.8
	l-0.5,0l-0.1-0.1l0.2-0.3L4,84.9l0-0.3l-0.4-0.5l-0.9-0.1l-0.4-0.2l-0.5-0.4l-0.3-0.9l-0.6-0.4L0.4,82l-1.4-0.7l-0.5,0L-2.1,81
	l-0.3-0.3l0-0.1l0.2-0.2l0.2-1.2l0.1-0.3L-2,78.2L-2.4,78l0-0.2h0.2l0.1-0.8l-0.4-0.4l-0.9-1.6l0-0.4l-0.2-0.4l-0.1-0.4l-0.7-1
	l0-0.8l0.1-0.1l0.2,0l0.5-0.5l0.1-0.9L-4,70.2L-4.5,70L-5,69.6l-0.1-0.4l0-1.2l0.1-0.2l0-0.2l0,0l0.1,0.2l0.7,0.5l0.3-0.4l0-0.5
	l-0.2-0.7l-0.1-0.4l0.1-0.7l-0.4-0.2L-5,65.8l0,0.2L-5.2,66l-0.4-0.6l-0.3-0.2l0.1-0.2l0-1.7l-0.6-0.7l-0.3-0.5L-7.1,61l0.2-0.4
	L-7,60.2l0-0.3l0.2-0.8l0.3-0.5l0.1-0.3l-0.1-0.9l-0.4-0.9l0-0.2L-7,56.1l-0.2-0.2l-0.1-0.2l0-0.5l0.1-0.1l0-0.4l0.3-0.6l1.2-1.3
	l0.1-0.7l0.2-0.2l0.3-0.5l0.1-1.3l-0.2-0.5l0.2-0.4l0.3-0.4l-0.3-0.3l-0.2-0.7l0.1-0.3l0-0.4l0.3-0.6L-5,45.2l0.1-0.2l0.3-0.1
	l0.2-0.3l0.1-0.4l0.2-0.2l0.1-0.5l0.8-1l0.4-0.9l0.7-1.3l0.7-2.2l0.5-1l0.5-1.4l0.5-1.7l0.2-0.6L0.5,33l0,0L0.9,33l0.6-0.2l-0.2-0.4
	l-0.6-0.4l0.7-0.6l-0.1-0.3v-0.1l0.2-0.3l-0.2-0.4L1,30.4l0-0.2l0.1,0l0.1-0.1l0.8-0.2l-0.6-0.5v-0.1l-0.3-0.3l-0.1,0.1l0-0.2
	l0.1-0.5l-0.1-0.7l0.1-0.8l0.1-0.4L1,25.4l0-0.7l0.1-0.4l0-0.2l1.7,1.2l1.1,0.6l0.8,0.2l0.5,0.3h0.4l0.1,0l0.1,0.1l0.1,0.9l0,0.1
	l-0.3,0.2l-0.2,0.5l0,0.4l0,0.2l0,0.1l-0.1,0.2v0.4l0.4,0.3l0.6-0.3l0.3-0.9l0.1-0.1L6.8,28l0.5-0.5l0-0.3l-0.2-0.9l-0.4-1l0.2,0
	l0.4-0.7l-0.1-0.8l-0.3,0l0-0.5l3.9,1.1l4,1l6.5,1.5l2.6,0.7l19.2,3.3L56,32.1l9.3,0.7l9.1,0.3l5.7,0l0-1.1l0-0.3h0.2l0.4,0.1l0,0.8
	l0.2,0.6l0,0.6l0.8,0.6l0.3-0.1l0.3,0.1l0.2,0.2l0.5-0.1l0.4,0.1l0,0.4l1.2,0l0.3-0.3l1-0.1l0.6,0.2l0,0.1l0.5,0.4l0.1,0l0.1,0.5
	l0.6,0.3l0.4-0.5l0,0l0.1,0l0.2,0.4l0.6,0.2l0.2,0.2l0.3,0.3l0.5,0l0.4-0.1l1-0.6l0.3,0.4l1.7,0l0.2,0l0.7,0.5l-0.4,0.2l-0.5,0.1
	L93.1,37l-0.5,0.4l-0.8,0.4l-0.4,0.3l-1.3,1.4L88,41.5l0.6,0.3l0.5,0.1l0.5,0l0.9-0.5l1.4-0.7l0,0v0.1L91.7,41l-0.3,1.3l1-0.5h0.1
	l0.3,0.3l0.5-0.1l0.6-0.2l0.3-0.2l0.6-0.4l0.1-0.2l1.3-0.4l0.8-0.4l0.9-0.9l0.3-0.1l0.7-0.9l0.4-0.2l0.2,0l-0.2,0.4l-0.6,0.6
	l-0.3,0.2l-0.2,0.3l-0.2,0.7l0.3,1.1l0.4-0.8l0.4-0.3l0.3,0l0.2-0.1l1,0.4l0.9,1l0.8-0.1l0.3,0l0.2,0.1l0.4,0.1l0,0v0.5l0.6-0.5
	l0.2-0.3l0.7-0.5l2.5-0.6l0.7-0.4l-0.1,0.1v0.3l0.4,0.8l0.4,0.2l0.2-0.1l0.4,0l0.2-0.1l0.7-0.1l0.2,0.1l0.3,0.6l0.3,0.3l0.6,0.3
	l-0.2,0.1l-0.3-0.1l-0.3,0l-0.7,0.1l-0.5-0.1l-0.4,0.3l0,0.2l-0.3-0.2l-1.2-0.1l-0.2,0l-0.3-0.1l-0.8,0.6h-0.1l-0.4,0.2l-0.1,0.1
	l0,0l-0.4-0.1l-0.6,0.1l-0.1,0.5l-0.1,0.1l-0.3,0.3l0-0.5l-0.9,0l-0.2,0.5l-0.1-0.6l-0.5,0.3l-0.1,0.6l-0.3,0.6l-0.2,0.5l-0.2,0.3
	l-0.5,0.7v0.5l-0.7,0.7l-0.4,0.9l-0.2,0.5l-0.1,0.4l0.4,0.3l0.6-0.3l0.5-0.9l0.4-0.3l0.3-0.1l-0.1,0.3l0,0.2l-0.4,0.8l0,0.8l0,0.4
	l-0.3,0.3l-0.2,0.4l0.1,0.6l0,0.9l-0.1,0.2l-0.4,1.1l0.2,1.6l0.4,0.9l-0.1,0.2l0.1,0.2l0,0.1l0.1,0.4v0.7l0.3,0.7l0.3,0.3l0.1,0.2
	l0.2,0.9l0.1,0.3l0.7,0.5l0.7-0.1l0.8-0.4l0.8-0.7l0.6-1.3l0.2-0.6l0.2-0.6l0.1-0.8l0.1-0.2v-0.3l-0.2-0.2v-0.7l-0.4-1.1l-0.8-1.6
	l0.1-0.5l-0.3-0.9l0-0.2l0.2-0.3l0.3-0.5l0.1-0.5l0-0.7l0-0.6l0.3-0.3l0.1-0.3l0.1-0.2l0.3-0.2h0.2l0.2-0.3l0,0.1l0.2,0.7l0.7-0.4
	l0.3-0.6l-0.1-0.9l0.1-0.3l0.2-0.3l0.1-0.1l0.3-0.1l0.3-0.2l-0.1-0.5l-0.1,0l0,0l0-0.3l0.2-0.4l0.2-0.1l0.2-0.1l0.3,0.2l0.7,0.2
	l0.5,0.1l0.3,0.3l0.8,0.2l1,0.4l0.3,0.1l0.3,0.5l-0.3,0.1l-0.1,0.5l0.2,0.3l0.3,0.3l0.1,0.3l0.1,0.5v0.9l-0.2,0.4l-0.2,0.2l-0.1,0.4
	l0,0.2l-0.1,0.2l-0.4,0.3l-0.3,0.3l-0.2,0.8l0.2,0.4l0.2,0.2l0.5,0.2l0.1,0.1h0.3l1.1-1.6l0.4-0.4l0.3-0.2l0.7,0.2l0.8,2.1l0.1,1
	l0.2,0.4l-0.1,0.7l0.1,0.5l0,0.2l0,0l-0.2-0.4l-0.6,0.5l0,0.3l-0.1,0.1v0.5l-0.5,0.4l-0.2,0.6l0,0.6l-0.1,0.2l-0.5,1l-0.1,0.2l0,0.6
	l0.7-0.2l1.1,0.4l0.2,0l-0.1,0.2l0.6,0.1l0.2-0.1l0.5,0.2l0.4,0.1l0.8-0.6l0.2-0.1l0.4,0l0.3,0l0.3-0.2l0.9-1l0.3-0.2l0.6-0.4
	l1.5-0.8l0.3-0.2l0.6-0.5l0.1-0.2l0,0l0.3-0.1l0.8-0.7l0.5-0.4l1.2-1.2l0.3-0.6l0.2-0.2l0.1-0.4l-0.1-0.5l-0.7-0.7v-0.2l0.1-0.4
	l0.3-0.2l0.8-0.3l0.8-0.2l0.8-0.1l0.4,0.1l0.6,0.2l1.6-0.5l0.7-0.2l0.9-1L135,49l0.1-0.8l-0.3-0.4l0-0.2l0.2-0.2l0-0.4l-0.4-0.2
	l-0.2,0l-0.1-0.2l1-1l0.2-0.2l0.2-0.6l-0.1-0.2l1-1.3l0.9-0.9l0.2-0.1l0,0.1l9.3-2.3l0.2-1l0,0h0l0.1-0.2l0,0l0.4,0l0.2-0.2l0.2-0.1
	l0.5,0.1l0.2-0.4l0-0.1h0.2l0.1-0.3l-0.2-0.5l0-0.1l0.5-0.7v-0.4l0.2-0.5l-0.4-1.4l0.1-0.2l0.1-0.1l0.2-0.4l0-0.5l-0.2-0.2l0-0.4
	l1-3.3l0.3-0.1l0,0l-0.1,0.4l0.4,0.5l0.4-0.1l0.7-0.5l0.4-0.2h0.3l0.2-0.4l0.1,0l0.3,0l1.1,0.7l1.4,4.3l0.2,0.9l0.3,0.2h0.3l0.6,0.2
	l0.3,1.2l0.5,0.2l0.4-0.1l0.1-0.1l0,0l0.2,0.1l0.2,0.4l0,0l-0.2,0.6l0.4,0.2l0.2,0l0,0l0,0.1l-0.1,0.2l-0.1,0.1l-0.2,0l-0.2,0.1
	l-0.2,0.3l-0.5,0.5l-0.4,0.2l-0.3,0.6l-0.1-0.1l-0.7-0.1l-0.3,0.5l-0.2,0l-0.3,0.6l0,0l-0.4-0.1h-0.4v0.4L154.2,41.1z M112.3,42.5
	l-0.3,0l-0.1,0l0-0.1l0.4-0.1l0,0l0,0.1L112.3,42.5z"/>
</svg>
