<?xml version="1.0" encoding="utf-8"?>
<!-- Generator: Adobe Illustrator 19.1.0, SVG Export Plug-In . SVG Version: 6.00 Build 0)  -->
<svg version="1.1" id="Layer_1" xmlns="http://www.w3.org/2000/svg" xmlns:xlink="http://www.w3.org/1999/xlink" x="0px" y="0px"
	 viewBox="0 0 150 150" style="enable-background:new 0 0 150 150;" xml:space="preserve">
<style type="text/css">
	.st0{fill:#FFFFFF;}
</style>
<g>
	<path class="st0" d="M127.3,73.3c-1.4-1.6-3.4-2.6-5.5-2.8l-13.6-1l-5.3-10.7c-0.5-1-1.6-1.4-2.6-0.9l-11.5,5.7l-8.3-27.7
		c1.6-0.6,2.9-1.7,3.8-3.1c1-1.7,1.3-3.7,0.9-5.7c-0.5-1.9-1.7-3.6-3.4-4.6c-1.2-0.7-2.5-1.1-3.9-1.1c-2.6,0-5.1,1.4-6.4,3.6
		c-2.1,3.5-1,8.1,2.6,10.3c0.4,0.3,0.9,0.5,1.4,0.6l-12.2,34L52,63.2c-0.9-0.6-2.1-0.3-2.7,0.7l-6.2,10.3L29.4,74
		c-4.4,0-8.1,3.6-8.1,8c0,2.9,1.5,5.5,3.9,7c1.2,0.7,2.7,1.1,4.1,1.2l4,0l-4.9,8.2c-5.6,9.4-2.6,21.6,6.7,27.2
		c3.1,1.9,6.6,2.9,10.2,2.9c0,0,0,0,0,0c7,0,13.4-3.6,17-9.6l14.3-23.6l8.5,17.2c3.4,6.8,10.2,11.1,17.8,11.1c3.1,0,6-0.7,8.7-2
		c4.8-2.3,8.3-6.4,10-11.4c1.7-5,1.3-10.4-1-15.1l-4.2-8.6l4,0.3c1.5,0.1,2.9-0.2,4.2-0.8c2.6-1.3,4.3-3.8,4.5-6.7
		C129.4,77,128.7,74.9,127.3,73.3z M74.7,27c0.7-1.1,1.8-1.7,3.1-1.7c0.7,0,1.3,0.2,1.9,0.5c0.8,0.5,1.4,1.3,1.6,2.2
		c0.2,0.9,0.1,1.9-0.4,2.7c-0.7,1.1-1.8,1.7-3.1,1.7c-0.7,0-1.3-0.2-1.9-0.5C74.3,30.9,73.7,28.7,74.7,27z M77.8,40.6l7.4,24.7
		l-16.4,8.1L66.5,72L77.8,40.6z M45.4,124.6c-2.9,0-5.7-0.8-8.2-2.3c-7.5-4.5-9.9-14.4-5.4-21.9l6.7-11.1c0.4-0.6,0.4-1.3,0-1.9
		c-0.3-0.6-1-1-1.7-1l-7.4-0.1c-0.8,0-1.5-0.2-2.1-0.6c-1.3-0.8-2.1-2.2-2-3.7c0-2.3,1.9-4.2,4.3-4.2h0l14.7,0.1
		c0.7,0,1.3-0.4,1.7-0.9l5.8-9.5L78.9,84l-19.8,32.9C56.2,121.8,51.1,124.6,45.4,124.6z M123,82.4c-0.7,0.3-1.4,0.5-2.2,0.4
		l-7.4-0.6c-0.7-0.1-1.4,0.3-1.8,0.8c-0.4,0.6-0.4,1.3-0.1,1.9l5.7,11.6c1.9,3.8,2.2,8.1,0.8,12.2c-1.4,4-4.2,7.3-8,9.2
		c-2.2,1.1-4.6,1.6-7,1.6c-6.1,0-11.6-3.4-14.3-8.9l-9.6-19.4l4.2-7c0.5-0.8,0.3-1.9-0.4-2.5c0.2-0.1,0.4-0.3,0.6-0.4
		c0.6-0.6,1-1.4,1-2.3c0-0.9-0.3-1.7-1-2.3c-0.6-0.6-1.4-1-2.3-1c-0.9,0-1.7,0.3-2.3,1c-0.5,0.5-0.8,1.3-0.9,2l-5.2-3.1l27.5-13.6
		l4.9,10c0.3,0.6,0.9,1,1.6,1.1l14.7,1.1c1.1,0.1,2.2,0.6,2.9,1.5c0.7,0.9,1.1,1.9,1,3.1C125.2,80.4,124.3,81.7,123,82.4z"/>
	<path class="st0" d="M107.9,89.3l-3.7,1.8l1.4-4.2c0.5-1.5-0.3-3.1-1.8-3.6c-1.5-0.5-3.1,0.3-3.6,1.8l-1.3,3.9L97,85.1
		c-0.7-1.4-2.4-2-3.8-1.3c-1.4,0.7-2,2.4-1.3,3.8l2.2,4.5l-5.1-1.7c-1.5-0.5-3.1,0.3-3.6,1.8c-0.5,1.5,0.3,3.1,1.8,3.6l4.5,1.5l-4,2
		c-1.4,0.7-2,2.4-1.3,3.8c0.5,1,1.5,1.6,2.5,1.6c0.4,0,0.8-0.1,1.2-0.3l4.2-2.1l-1.4,4.2c-0.5,1.5,0.3,3.1,1.8,3.6
		c0.3,0.1,0.6,0.2,0.9,0.2c1.2,0,2.3-0.7,2.7-1.9l1.5-4.5l2,4c0.5,1,1.5,1.6,2.5,1.6c0.4,0,0.8-0.1,1.2-0.3c1.4-0.7,2-2.4,1.3-3.8
		l-1.7-3.4l3.3,1.1c0.3,0.1,0.6,0.2,0.9,0.2c1.2,0,2.3-0.7,2.7-1.9c0.5-1.5-0.3-3.1-1.8-3.6l-3.9-1.3l4-1.9c1.4-0.7,2-2.4,1.3-3.8
		C111,89.2,109.3,88.6,107.9,89.3z"/>
	<path class="st0" d="M98,74.1c0.9,0,1.7-0.4,2.3-1c0.6-0.6,1-1.4,1-2.3c0-0.9-0.4-1.7-1-2.3c-0.6-0.6-1.4-1-2.3-1
		c-0.9,0-1.7,0.3-2.3,1c-0.6,0.6-1,1.4-1,2.3c0,0.9,0.3,1.7,1,2.3C96.3,73.7,97.2,74.1,98,74.1z"/>
	<path class="st0" d="M89.6,78.3c0.5,0,1-0.1,1.4-0.3c1.6-0.8,2.3-2.8,1.5-4.4c-0.8-1.6-2.8-2.3-4.4-1.5c-1.6,0.8-2.3,2.8-1.5,4.4
		C87.2,77.6,88.4,78.3,89.6,78.3z"/>
	<path class="st0" d="M60.8,108.8c1,0,1.9-0.5,2.4-1.4c0.8-1.3,0.4-3.1-1-3.9l-3.8-2.3l4.6-1.1c1.5-0.4,2.4-1.9,2.1-3.4
		c-0.4-1.5-1.9-2.4-3.4-2.1L56.5,96l2.6-4.3c0.8-1.3,0.4-3.1-1-3.9c-1.3-0.8-3.1-0.4-3.9,1L52,92.5l-1-4c-0.4-1.5-1.9-2.4-3.4-2.1
		c-1.5,0.4-2.4,1.9-2.1,3.4l1.1,4.3L43,92c-1.3-0.8-3.1-0.4-3.9,1c-0.8,1.3-0.4,3.1,1,3.9l3.8,2.3l-4,1c-1.5,0.4-2.4,1.9-2.1,3.4
		c0.3,1.3,1.5,2.1,2.7,2.1c0.2,0,0.5,0,0.7-0.1l3.4-0.8l-2,3.3c-0.8,1.3-0.4,3.1,1,3.9c0.5,0.3,1,0.4,1.5,0.4c1,0,1.9-0.5,2.4-1.4
		l2.3-3.8l1.1,4.6c0.3,1.3,1.5,2.1,2.7,2.1c0.2,0,0.5,0,0.7-0.1c1.5-0.4,2.4-1.9,2.1-3.4l-1.1-4.3l4,2.4
		C59.8,108.7,60.3,108.8,60.8,108.8z"/>
	<path class="st0" d="M53.1,79.6c0.9,0,1.7-0.4,2.3-1c0.6-0.6,1-1.4,1-2.3c0-0.9-0.4-1.7-1-2.3c-0.6-0.6-1.4-1-2.3-1
		c-0.9,0-1.7,0.3-2.3,1c-0.6,0.6-1,1.4-1,2.3c0,0.9,0.3,1.7,1,2.3C51.4,79.3,52.2,79.6,53.1,79.6z"/>
	<path class="st0" d="M59.5,84c0.5,0.3,1.1,0.5,1.7,0.5c1.1,0,2.2-0.6,2.8-1.6c0.9-1.5,0.4-3.5-1.1-4.5c-1.5-0.9-3.5-0.4-4.5,1.1
		C57.5,81.1,57.9,83.1,59.5,84z"/>
	<path class="st0" d="M69.3,89.3c0.9,0,1.7-0.3,2.3-1c0.6-0.6,1-1.4,1-2.3c0-0.9-0.3-1.7-1-2.3c-0.6-0.6-1.4-1-2.3-1
		c-0.9,0-1.7,0.4-2.3,1c-0.6,0.6-1,1.5-1,2.3c0,0.9,0.4,1.7,1,2.3C67.6,89,68.4,89.3,69.3,89.3z"/>
</g>
</svg>
