<?xml version="1.0" encoding="utf-8"?>
<!-- Generator: Adobe Illustrator 19.1.0, SVG Export Plug-In . SVG Version: 6.00 Build 0)  -->
<svg version="1.1" id="Layer_1" xmlns="http://www.w3.org/2000/svg" xmlns:xlink="http://www.w3.org/1999/xlink" x="0px" y="0px"
	 viewBox="0 0 150 150" style="enable-background:new 0 0 150 150;" xml:space="preserve">
<style type="text/css">
	.st0{fill:#FFFFFF;stroke:#FFFFFF;stroke-width:0.8773;}
	.st1{fill:#FFFFFF;stroke:#FFFFFF;}
</style>
<g>
	<path class="st0" d="M66.9,51.8c1.3,0,2.3-1.1,2.3-2.3c0-1.3-1.1-2.3-2.3-2.3s-2.3,1.1-2.3,2.3S65.6,51.8,66.9,51.8z"/>
	<path class="st0" d="M80.8,51.8c1.2,0,2.3-1.1,2.3-2.3c0-1.3-1.1-2.3-2.3-2.3c-1.3,0-2.3,1.1-2.3,2.3S79.5,51.8,80.8,51.8z"/>
	<path class="st0" d="M72.6,60c0.3,0.8,1.1,1.3,1.9,1.3c0.2,0,0.4,0,0.5-0.1l9.3-2.3c0.9-0.3,1.6-1.1,1.5-2c0-1-0.7-1.8-1.7-1.9
		l-10.9-2.1c-0.7-0.2-1.5,0.1-1.9,0.7c-0.4,0.5-0.6,1.3-0.4,2L72.6,60z"/>
	<path class="st0" d="M80.3,64.6c-0.6,0.4-0.9,1.1-0.5,1.9c0.3,0.4,0.7,0.7,1.2,0.7c0.2,0,0.4-0.1,0.6-0.2c0.6-0.4,0.9-1.1,0.5-1.9
		C81.8,64.5,81,64.3,80.3,64.6z"/>
	<path class="st0" d="M83.4,62.1c-0.5,0.5-0.4,1.4,0.2,1.9c0.3,0.2,0.5,0.4,0.9,0.4c0.4,0,0.8-0.2,1.1-0.4c0.5-0.6,0.4-1.4-0.2-1.9
		C84.7,61.4,84,61.5,83.4,62.1z"/>
	<path class="st1" d="M72.6,65.7c-0.7-0.2-1.5,0.4-1.6,1.1c-0.3,0.8,0.2,1.8,1,1.8c0.1,0,0.2,0,0.3,0c0.6,0,1.1-0.5,1.3-1.1
		C73.7,66.6,73.3,65.8,72.6,65.7z"/>
	<path class="st0" d="M68.9,64.1c-0.6-0.4-1.5-0.3-1.9,0.4c-0.4,0.6-0.3,1.5,0.4,1.9c0.2,0.2,0.4,0.3,0.7,0.3c0.4,0,0.9-0.2,1.1-0.6
		C69.7,65.3,69.5,64.4,68.9,64.1z"/>
	<path class="st1" d="M76.5,65.9c-0.7,0.1-1.2,0.8-1.1,1.5c0.1,0.7,0.7,1.1,1.3,1.1c0.1,0,0.1,0,0.2,0c0.7,0,1.2-0.8,1.1-1.5
		C78,66.3,77.3,65.8,76.5,65.9z"/>
	<path class="st1" d="M132.7,131.9c-0.2-0.4-0.5-0.8-1-1c-0.4-0.2-0.9-0.2-1.3,0c-3.1,1.3-8.3,1.3-11.4,0l-3.5-1.5
		c-3.3-1.4-8.4-1.6-12.3-0.6l-2.7,0.7l1.1-1.7c4.1-5.8,6.4-12.8,6.3-19.8c-0.1-4.9-1.1-9.7-3.3-14.1l-0.4-0.7l5.8-5.8h8.1
		c0.9,0,1.7-0.8,1.9-1.7c0.2-1.1-0.7-2.3-1.8-2.3h-4.7l4.2-4.1c0.4-0.4,0.5-0.7,0.5-1.2c0-0.4-0.2-0.8-0.5-1.2
		c-0.7-0.7-1.9-0.7-2.6,0l-13,13l-0.7-1c-2.6-3.5-5.8-6.5-9.4-8.8L91.5,80v-7c0-0.7-0.2-1.4-1-1.7l-1.4-0.5l1.1-1.1
		c3.8-4.1,5.8-9.3,5.8-14.7c0-6.9-3.3-13.4-8.9-17.4l-1.8-1.2l3.7-1c1-0.3,1.5-1.2,1.2-2.2l-0.2-0.6c-0.3-0.9-1.1-1.4-2-1.1L82,32.7
		l-5.7-20.6c0-0.2-0.2-0.3-0.3-0.4c-0.2-0.1-0.4-0.1-0.4-0.1l-24.2,6.4c-0.4,0.1-0.5,0.4-0.4,0.8l5.7,20.7l-5.9,1.7
		c-1.1,0.3-2.2,1.3-1.2,2.4v0.2c0,1.1,1.2,1.8,2.2,1.5l3.9-1.1l-0.9,1.9c-1.2,2.8-1.9,5.7-1.9,8.7c0,5.4,2,10.6,5.7,14.6l1.1,1.3
		l-1.8,0.4c-0.8,0.2-1.4,0.9-1.4,1.8v7.2l-0.3,0.3c-1.9,1.2-3.6,2.7-5.2,4.3l-0.6,0.6l-16.8-12c-0.7-0.5-1.8-0.5-2.4,0.1
		c-0.8,0.8-0.6,2.2,0.3,2.8l5.7,4.1h-6.3c-0.9,0-1.7,0.8-1.9,1.7c-0.2,1.1,0.7,2.3,1.8,2.3h7.9c0.4,0,0.9-0.4,1.2-0.8l0.6-0.7
		l7.5,5.2l-0.6,0.9c-4.4,6.2-6.5,13.5-6.2,21c0.4,6.3,2.6,12.2,6.1,17.4l1,1.4l-2.3-0.3c-3.6-0.4-7.4-0.1-10,1.1l-3.2,1.3
		c-3.1,1.3-8.3,1.3-11.5,0c-0.4-0.2-0.9-0.2-1.3,0c-0.4,0.2-0.8,0.5-1,1s-0.2,0.9,0,1.3c0.2,0.4,0.5,0.8,1,1c4,1.7,10.2,1.7,14.2,0
		l3.2-1.3c1.4-0.7,3.5-1.1,5.6-1.1c2.1,0,4.1,0.4,5.7,1l3.3,1.4c1.9,0.8,4.4,1.2,7.1,1.2c2.6,0,5.2-0.4,7.1-1.2l3.8-1.6
		c3.1-1.3,8.4-1.3,11.5,0l3.5,1.5c3.9,1.7,10.3,1.7,14.2,0l3.4-1.5c0.4-0.2,0.8-0.4,1.3-0.4c3.2-0.9,7.5-0.6,10.1,0.4l3.5,1.5
		c4,1.7,10.2,1.7,14.2,0c0.4-0.2,0.8-0.5,1-1C132.9,132.8,132.9,132.4,132.7,131.9z M58.6,21.3c1.4-0.4,2.9,0.4,3.3,1.8l3.2,10.6
		c0.2,0.7,0.2,1.4-0.2,2c-0.4,0.6-0.9,1.1-1.6,1.3c-0.3,0.1-0.5,0.2-0.8,0.2c-1.1,0-2.2-0.8-2.6-1.9l-3.2-10.6
		C56.4,23.3,57.2,21.8,58.6,21.3z M56.4,54.9c0-4.4,1.6-8.6,4.6-12l0.2-0.3l18.8-5l0.3,0.1c7.4,2.5,12.3,9.3,12.3,17.2
		c0.1,10-8,18.1-18,18.1C64.6,73,56.4,64.9,56.4,54.9z M73.5,102.5h10v11h-10V102.5z M70.5,82.5v-6.2l1.3,0.2
		c1.8,0.2,3.2,0.2,4.5,0.1l1.2-0.1v6.1h-0.2H70.5z M73.5,98.5v-11h10v11H73.5z M81.5,82.5v-7.2l1-0.4c0.1,0,0.3-0.2,0.3-0.2l0.3-0.2
		h4.3v8H81.5z M66.5,74.5v8h-6v-8H66.5z M93.1,131.5l-0.3,0h-0.4c-2.3,0-4.5-0.1-6.1-0.8l-3.5-1.4c-4-1.7-10.2-1.6-14.2,0l-3.8,1.6
		c-1.6,0.8-3.6,1-5.7,1c-0.9,0-1.8-0.3-2.6-0.3h-0.3l-0.3,0c-7.1-5.7-11.3-14.1-11.3-23.2c0-6.3,1.9-12.2,5.6-17.2l0.6-0.9l3.2,2.2
		c0.8,0.5,1.9,0.4,2.5-0.4c0.3-0.4,0.4-0.9,0.3-1.3c-0.1-0.4-0.4-0.9-0.7-1.1l-2.8-2l0.9-0.9c0.4-0.4,0.9-0.8,1.3-1.1l0.9-0.7
		l0.6,0.9c0.4,0.5,0.9,0.8,1.5,0.8h12v28.8c0,1,0.5,2.2,1.5,2.2h13c1,0,1.6-1.2,1.6-2.2V86.5h3.6c0.6,0,1.2-0.4,1.6-1l0.6-1.1l1,0.8
		c2.4,1.9,4.4,4.1,6.1,6.7l0.4,0.7l-4.1,4.1c-0.7,0.7-0.7,1.9,0,2.6c0.7,0.7,1.9,0.7,2.6,0l3.3-3.3l0.6,1.5
		c1.4,3.5,2.1,7.2,2.1,10.9C104.4,117.3,100.3,125.8,93.1,131.5z"/>
</g>
</svg>
