<?xml version="1.0" encoding="utf-8"?>
<!-- Generator: Adobe Illustrator 19.1.0, SVG Export Plug-In . SVG Version: 6.00 Build 0)  -->
<svg version="1.1" id="Layer_1" xmlns="http://www.w3.org/2000/svg" xmlns:xlink="http://www.w3.org/1999/xlink" x="0px" y="0px"
	 viewBox="0 0 150 150" style="enable-background:new 0 0 150 150;" xml:space="preserve">
<style type="text/css">
	.st0{fill:#FFFFFF;}
</style>
<g>
	<path class="st0" d="M80.4,116.5c-4.8,0-8.8,3.9-8.8,8.8s3.9,8.8,8.8,8.8c4.8,0,8.8-3.9,8.8-8.8S85.2,116.5,80.4,116.5z
		 M80.4,129.2c-2.2,0-3.9-1.8-3.9-3.9c0-2.2,1.8-3.9,3.9-3.9c2.2,0,3.9,1.8,3.9,3.9C84.3,127.4,82.5,129.2,80.4,129.2z"/>
	<path class="st0" d="M96.5,87.5c-7.1,0-12.9,5.8-12.9,12.9c0,7.1,5.8,12.9,12.9,12.9c7.1,0,12.9-5.8,12.9-12.9
		C109.4,93.3,103.6,87.5,96.5,87.5z M96.5,108.5c-4.4,0-8.1-3.6-8.1-8.1c0-4.4,3.6-8.1,8.1-8.1c4.4,0,8.1,3.6,8.1,8.1
		C104.6,104.9,100.9,108.5,96.5,108.5z"/>
	<path class="st0" d="M114.8,42.1c0-10.3-8.4-18.6-18.6-18.6c-0.3,0-0.6,0-0.9,0C92,17.7,85.8,14,79,14c-5.3,0-10.3,2.3-13.8,6.2
		c-2.3-0.9-4.7-1.4-7.1-1.4c-10.3,0-18.6,8.4-18.6,18.6c0,1.4,0.2,2.8,0.5,4.2c-4,3.5-6.2,8.5-6.2,13.9c0,10.3,8.4,18.6,18.6,18.6
		c0.9,0,1.8-0.1,2.6-0.2c5.6,5.6,13.3,8.8,21.2,8.8c5.9,0,11.6-1.7,16.5-4.9c0.9,0.1,1.7,0.2,2.6,0.2c10.3,0,18.6-8.4,18.6-18.6
		c0-2.6-0.6-5.3-1.7-7.7C113.9,48.8,114.8,45.5,114.8,42.1z M95.2,73.1c-0.9,0-1.8-0.1-2.7-0.3c-0.6-0.1-1.3,0-1.9,0.4
		c-4.3,3-9.3,4.6-14.5,4.6c-7,0-13.8-3-18.6-8.2c-0.5-0.5-1.1-0.8-1.8-0.8c-0.2,0-0.3,0-0.5,0.1c-1,0.2-2,0.3-3,0.3
		c-7.6,0-13.8-6.2-13.8-13.8c0-4.4,2-8.4,5.6-11.1c0.8-0.6,1.2-1.7,0.9-2.7c-0.5-1.4-0.7-2.9-0.7-4.3c0-7.6,6.2-13.8,13.8-13.8
		c2.3,0,4.6,0.6,6.6,1.7c1.1,0.6,2.4,0.3,3.1-0.7c2.6-3.6,6.8-5.8,11.2-5.8c5.5,0,10.4,3.2,12.6,8.3c0.4,1,1.5,1.6,2.6,1.4
		c0.8-0.1,1.4-0.2,2-0.2c7.6,0,13.8,6.2,13.8,13.8c0,2.9-0.9,5.6-2.5,7.9c-0.5,0.8-0.6,1.8-0.1,2.6c1.1,2,1.7,4.3,1.7,6.7
		C109,66.9,102.8,73.1,95.2,73.1z"/>
</g>
</svg>
